%TF.GenerationSoftware,KiCad,Pcbnew,10.0.4*%
%TF.CreationDate,2026-08-26T20:25:28-04:00*%
%TF.ProjectId,walkiepcb,77616c6b-6965-4706-9362-2e6b69636164,D-WROOM*%
%TF.SameCoordinates,Original*%
%TF.FileFunction,Legend,Bot*%
%TF.FilePolarity,Positive*%
%FSLAX46Y46*%
G04 Gerber Fmt 4.6, Leading zero omitted, Abs format (unit mm)*
G04 Created by KiCad (PCBNEW 10.0.4) date 2026-08-26 20:25:28*
%MOMM*%
%LPD*%
G01*
G04 APERTURE LIST*
%ADD10C,0.150000*%
%ADD11C,0.200000*%
%ADD12C,0.350000*%
G04 APERTURE END LIST*
D10*
X3238094Y-11754819D02*
X2619047Y-11754819D01*
X2619047Y-11754819D02*
X2952380Y-12135771D01*
X2952380Y-12135771D02*
X2809523Y-12135771D01*
X2809523Y-12135771D02*
X2714285Y-12183390D01*
X2714285Y-12183390D02*
X2666666Y-12231009D01*
X2666666Y-12231009D02*
X2619047Y-12326247D01*
X2619047Y-12326247D02*
X2619047Y-12564342D01*
X2619047Y-12564342D02*
X2666666Y-12659580D01*
X2666666Y-12659580D02*
X2714285Y-12707200D01*
X2714285Y-12707200D02*
X2809523Y-12754819D01*
X2809523Y-12754819D02*
X3095237Y-12754819D01*
X3095237Y-12754819D02*
X3190475Y-12707200D01*
X3190475Y-12707200D02*
X3238094Y-12659580D01*
X2333332Y-11754819D02*
X1999999Y-12754819D01*
X1999999Y-12754819D02*
X1666666Y-11754819D01*
X1428570Y-11754819D02*
X809523Y-11754819D01*
X809523Y-11754819D02*
X1142856Y-12135771D01*
X1142856Y-12135771D02*
X999999Y-12135771D01*
X999999Y-12135771D02*
X904761Y-12183390D01*
X904761Y-12183390D02*
X857142Y-12231009D01*
X857142Y-12231009D02*
X809523Y-12326247D01*
X809523Y-12326247D02*
X809523Y-12564342D01*
X809523Y-12564342D02*
X857142Y-12659580D01*
X857142Y-12659580D02*
X904761Y-12707200D01*
X904761Y-12707200D02*
X999999Y-12754819D01*
X999999Y-12754819D02*
X1285713Y-12754819D01*
X1285713Y-12754819D02*
X1380951Y-12707200D01*
X1380951Y-12707200D02*
X1428570Y-12659580D01*
X3261904Y-18754819D02*
X3738094Y-18754819D01*
X3738094Y-18754819D02*
X3738094Y-17754819D01*
X2928570Y-18231009D02*
X2595237Y-18231009D01*
X2452380Y-18754819D02*
X2928570Y-18754819D01*
X2928570Y-18754819D02*
X2928570Y-17754819D01*
X2928570Y-17754819D02*
X2452380Y-17754819D01*
X2023808Y-18754819D02*
X2023808Y-17754819D01*
X2023808Y-17754819D02*
X1785713Y-17754819D01*
X1785713Y-17754819D02*
X1642856Y-17802438D01*
X1642856Y-17802438D02*
X1547618Y-17897676D01*
X1547618Y-17897676D02*
X1499999Y-17992914D01*
X1499999Y-17992914D02*
X1452380Y-18183390D01*
X1452380Y-18183390D02*
X1452380Y-18326247D01*
X1452380Y-18326247D02*
X1499999Y-18516723D01*
X1499999Y-18516723D02*
X1547618Y-18611961D01*
X1547618Y-18611961D02*
X1642856Y-18707200D01*
X1642856Y-18707200D02*
X1785713Y-18754819D01*
X1785713Y-18754819D02*
X2023808Y-18754819D01*
X1023808Y-18373866D02*
X261904Y-18373866D01*
X642856Y-18754819D02*
X642856Y-17992914D01*
X5706666Y-14054819D02*
X5706666Y-13054819D01*
X5706666Y-13054819D02*
X5325714Y-13054819D01*
X5325714Y-13054819D02*
X5230476Y-13102438D01*
X5230476Y-13102438D02*
X5182857Y-13150057D01*
X5182857Y-13150057D02*
X5135238Y-13245295D01*
X5135238Y-13245295D02*
X5135238Y-13388152D01*
X5135238Y-13388152D02*
X5182857Y-13483390D01*
X5182857Y-13483390D02*
X5230476Y-13531009D01*
X5230476Y-13531009D02*
X5325714Y-13578628D01*
X5325714Y-13578628D02*
X5706666Y-13578628D01*
X4516190Y-13054819D02*
X4325714Y-13054819D01*
X4325714Y-13054819D02*
X4230476Y-13102438D01*
X4230476Y-13102438D02*
X4135238Y-13197676D01*
X4135238Y-13197676D02*
X4087619Y-13388152D01*
X4087619Y-13388152D02*
X4087619Y-13721485D01*
X4087619Y-13721485D02*
X4135238Y-13911961D01*
X4135238Y-13911961D02*
X4230476Y-14007200D01*
X4230476Y-14007200D02*
X4325714Y-14054819D01*
X4325714Y-14054819D02*
X4516190Y-14054819D01*
X4516190Y-14054819D02*
X4611428Y-14007200D01*
X4611428Y-14007200D02*
X4706666Y-13911961D01*
X4706666Y-13911961D02*
X4754285Y-13721485D01*
X4754285Y-13721485D02*
X4754285Y-13388152D01*
X4754285Y-13388152D02*
X4706666Y-13197676D01*
X4706666Y-13197676D02*
X4611428Y-13102438D01*
X4611428Y-13102438D02*
X4516190Y-13054819D01*
X3801904Y-13054819D02*
X3230476Y-13054819D01*
X3516190Y-14054819D02*
X3516190Y-13054819D01*
X5801904Y-20054819D02*
X6278094Y-20054819D01*
X6278094Y-20054819D02*
X6278094Y-19054819D01*
X5468570Y-19531009D02*
X5135237Y-19531009D01*
X4992380Y-20054819D02*
X5468570Y-20054819D01*
X5468570Y-20054819D02*
X5468570Y-19054819D01*
X5468570Y-19054819D02*
X4992380Y-19054819D01*
X4563808Y-20054819D02*
X4563808Y-19054819D01*
X4563808Y-19054819D02*
X4325713Y-19054819D01*
X4325713Y-19054819D02*
X4182856Y-19102438D01*
X4182856Y-19102438D02*
X4087618Y-19197676D01*
X4087618Y-19197676D02*
X4039999Y-19292914D01*
X4039999Y-19292914D02*
X3992380Y-19483390D01*
X3992380Y-19483390D02*
X3992380Y-19626247D01*
X3992380Y-19626247D02*
X4039999Y-19816723D01*
X4039999Y-19816723D02*
X4087618Y-19911961D01*
X4087618Y-19911961D02*
X4182856Y-20007200D01*
X4182856Y-20007200D02*
X4325713Y-20054819D01*
X4325713Y-20054819D02*
X4563808Y-20054819D01*
X3563808Y-19673866D02*
X2801904Y-19673866D01*
X7841904Y-11802438D02*
X7937142Y-11754819D01*
X7937142Y-11754819D02*
X8079999Y-11754819D01*
X8079999Y-11754819D02*
X8222856Y-11802438D01*
X8222856Y-11802438D02*
X8318094Y-11897676D01*
X8318094Y-11897676D02*
X8365713Y-11992914D01*
X8365713Y-11992914D02*
X8413332Y-12183390D01*
X8413332Y-12183390D02*
X8413332Y-12326247D01*
X8413332Y-12326247D02*
X8365713Y-12516723D01*
X8365713Y-12516723D02*
X8318094Y-12611961D01*
X8318094Y-12611961D02*
X8222856Y-12707200D01*
X8222856Y-12707200D02*
X8079999Y-12754819D01*
X8079999Y-12754819D02*
X7984761Y-12754819D01*
X7984761Y-12754819D02*
X7841904Y-12707200D01*
X7841904Y-12707200D02*
X7794285Y-12659580D01*
X7794285Y-12659580D02*
X7794285Y-12326247D01*
X7794285Y-12326247D02*
X7984761Y-12326247D01*
X7365713Y-12754819D02*
X7365713Y-11754819D01*
X7365713Y-11754819D02*
X6794285Y-12754819D01*
X6794285Y-12754819D02*
X6794285Y-11754819D01*
X6318094Y-12754819D02*
X6318094Y-11754819D01*
X6318094Y-11754819D02*
X6079999Y-11754819D01*
X6079999Y-11754819D02*
X5937142Y-11802438D01*
X5937142Y-11802438D02*
X5841904Y-11897676D01*
X5841904Y-11897676D02*
X5794285Y-11992914D01*
X5794285Y-11992914D02*
X5746666Y-12183390D01*
X5746666Y-12183390D02*
X5746666Y-12326247D01*
X5746666Y-12326247D02*
X5794285Y-12516723D01*
X5794285Y-12516723D02*
X5841904Y-12611961D01*
X5841904Y-12611961D02*
X5937142Y-12707200D01*
X5937142Y-12707200D02*
X6079999Y-12754819D01*
X6079999Y-12754819D02*
X6318094Y-12754819D01*
X15857142Y-20231009D02*
X15714285Y-20278628D01*
X15714285Y-20278628D02*
X15666666Y-20326247D01*
X15666666Y-20326247D02*
X15619047Y-20421485D01*
X15619047Y-20421485D02*
X15619047Y-20564342D01*
X15619047Y-20564342D02*
X15666666Y-20659580D01*
X15666666Y-20659580D02*
X15714285Y-20707200D01*
X15714285Y-20707200D02*
X15809523Y-20754819D01*
X15809523Y-20754819D02*
X16190475Y-20754819D01*
X16190475Y-20754819D02*
X16190475Y-19754819D01*
X16190475Y-19754819D02*
X15857142Y-19754819D01*
X15857142Y-19754819D02*
X15761904Y-19802438D01*
X15761904Y-19802438D02*
X15714285Y-19850057D01*
X15714285Y-19850057D02*
X15666666Y-19945295D01*
X15666666Y-19945295D02*
X15666666Y-20040533D01*
X15666666Y-20040533D02*
X15714285Y-20135771D01*
X15714285Y-20135771D02*
X15761904Y-20183390D01*
X15761904Y-20183390D02*
X15857142Y-20231009D01*
X15857142Y-20231009D02*
X16190475Y-20231009D01*
X15238094Y-20469104D02*
X14761904Y-20469104D01*
X15333332Y-20754819D02*
X14999999Y-19754819D01*
X14999999Y-19754819D02*
X14666666Y-20754819D01*
X14476189Y-19754819D02*
X13904761Y-19754819D01*
X14190475Y-20754819D02*
X14190475Y-19754819D01*
X13571427Y-20373866D02*
X12809523Y-20373866D01*
X13190475Y-20754819D02*
X13190475Y-19992914D01*
X19657142Y-20231009D02*
X19514285Y-20278628D01*
X19514285Y-20278628D02*
X19466666Y-20326247D01*
X19466666Y-20326247D02*
X19419047Y-20421485D01*
X19419047Y-20421485D02*
X19419047Y-20564342D01*
X19419047Y-20564342D02*
X19466666Y-20659580D01*
X19466666Y-20659580D02*
X19514285Y-20707200D01*
X19514285Y-20707200D02*
X19609523Y-20754819D01*
X19609523Y-20754819D02*
X19990475Y-20754819D01*
X19990475Y-20754819D02*
X19990475Y-19754819D01*
X19990475Y-19754819D02*
X19657142Y-19754819D01*
X19657142Y-19754819D02*
X19561904Y-19802438D01*
X19561904Y-19802438D02*
X19514285Y-19850057D01*
X19514285Y-19850057D02*
X19466666Y-19945295D01*
X19466666Y-19945295D02*
X19466666Y-20040533D01*
X19466666Y-20040533D02*
X19514285Y-20135771D01*
X19514285Y-20135771D02*
X19561904Y-20183390D01*
X19561904Y-20183390D02*
X19657142Y-20231009D01*
X19657142Y-20231009D02*
X19990475Y-20231009D01*
X19038094Y-20469104D02*
X18561904Y-20469104D01*
X19133332Y-20754819D02*
X18799999Y-19754819D01*
X18799999Y-19754819D02*
X18466666Y-20754819D01*
X18276189Y-19754819D02*
X17704761Y-19754819D01*
X17990475Y-20754819D02*
X17990475Y-19754819D01*
X17371427Y-20373866D02*
X16609523Y-20373866D01*
X19904285Y-66707200D02*
X19761428Y-66754819D01*
X19761428Y-66754819D02*
X19523333Y-66754819D01*
X19523333Y-66754819D02*
X19428095Y-66707200D01*
X19428095Y-66707200D02*
X19380476Y-66659580D01*
X19380476Y-66659580D02*
X19332857Y-66564342D01*
X19332857Y-66564342D02*
X19332857Y-66469104D01*
X19332857Y-66469104D02*
X19380476Y-66373866D01*
X19380476Y-66373866D02*
X19428095Y-66326247D01*
X19428095Y-66326247D02*
X19523333Y-66278628D01*
X19523333Y-66278628D02*
X19713809Y-66231009D01*
X19713809Y-66231009D02*
X19809047Y-66183390D01*
X19809047Y-66183390D02*
X19856666Y-66135771D01*
X19856666Y-66135771D02*
X19904285Y-66040533D01*
X19904285Y-66040533D02*
X19904285Y-65945295D01*
X19904285Y-65945295D02*
X19856666Y-65850057D01*
X19856666Y-65850057D02*
X19809047Y-65802438D01*
X19809047Y-65802438D02*
X19713809Y-65754819D01*
X19713809Y-65754819D02*
X19475714Y-65754819D01*
X19475714Y-65754819D02*
X19332857Y-65802438D01*
X18904285Y-66754819D02*
X18904285Y-65754819D01*
X18904285Y-65754819D02*
X18666190Y-65754819D01*
X18666190Y-65754819D02*
X18523333Y-65802438D01*
X18523333Y-65802438D02*
X18428095Y-65897676D01*
X18428095Y-65897676D02*
X18380476Y-65992914D01*
X18380476Y-65992914D02*
X18332857Y-66183390D01*
X18332857Y-66183390D02*
X18332857Y-66326247D01*
X18332857Y-66326247D02*
X18380476Y-66516723D01*
X18380476Y-66516723D02*
X18428095Y-66611961D01*
X18428095Y-66611961D02*
X18523333Y-66707200D01*
X18523333Y-66707200D02*
X18666190Y-66754819D01*
X18666190Y-66754819D02*
X18904285Y-66754819D01*
X17951904Y-66469104D02*
X17475714Y-66469104D01*
X18047142Y-66754819D02*
X17713809Y-65754819D01*
X17713809Y-65754819D02*
X17380476Y-66754819D01*
X22420475Y-68007200D02*
X22277618Y-68054819D01*
X22277618Y-68054819D02*
X22039523Y-68054819D01*
X22039523Y-68054819D02*
X21944285Y-68007200D01*
X21944285Y-68007200D02*
X21896666Y-67959580D01*
X21896666Y-67959580D02*
X21849047Y-67864342D01*
X21849047Y-67864342D02*
X21849047Y-67769104D01*
X21849047Y-67769104D02*
X21896666Y-67673866D01*
X21896666Y-67673866D02*
X21944285Y-67626247D01*
X21944285Y-67626247D02*
X22039523Y-67578628D01*
X22039523Y-67578628D02*
X22229999Y-67531009D01*
X22229999Y-67531009D02*
X22325237Y-67483390D01*
X22325237Y-67483390D02*
X22372856Y-67435771D01*
X22372856Y-67435771D02*
X22420475Y-67340533D01*
X22420475Y-67340533D02*
X22420475Y-67245295D01*
X22420475Y-67245295D02*
X22372856Y-67150057D01*
X22372856Y-67150057D02*
X22325237Y-67102438D01*
X22325237Y-67102438D02*
X22229999Y-67054819D01*
X22229999Y-67054819D02*
X21991904Y-67054819D01*
X21991904Y-67054819D02*
X21849047Y-67102438D01*
X20849047Y-67959580D02*
X20896666Y-68007200D01*
X20896666Y-68007200D02*
X21039523Y-68054819D01*
X21039523Y-68054819D02*
X21134761Y-68054819D01*
X21134761Y-68054819D02*
X21277618Y-68007200D01*
X21277618Y-68007200D02*
X21372856Y-67911961D01*
X21372856Y-67911961D02*
X21420475Y-67816723D01*
X21420475Y-67816723D02*
X21468094Y-67626247D01*
X21468094Y-67626247D02*
X21468094Y-67483390D01*
X21468094Y-67483390D02*
X21420475Y-67292914D01*
X21420475Y-67292914D02*
X21372856Y-67197676D01*
X21372856Y-67197676D02*
X21277618Y-67102438D01*
X21277618Y-67102438D02*
X21134761Y-67054819D01*
X21134761Y-67054819D02*
X21039523Y-67054819D01*
X21039523Y-67054819D02*
X20896666Y-67102438D01*
X20896666Y-67102438D02*
X20849047Y-67150057D01*
X19944285Y-68054819D02*
X20420475Y-68054819D01*
X20420475Y-68054819D02*
X20420475Y-67054819D01*
X25008094Y-65754819D02*
X24389047Y-65754819D01*
X24389047Y-65754819D02*
X24722380Y-66135771D01*
X24722380Y-66135771D02*
X24579523Y-66135771D01*
X24579523Y-66135771D02*
X24484285Y-66183390D01*
X24484285Y-66183390D02*
X24436666Y-66231009D01*
X24436666Y-66231009D02*
X24389047Y-66326247D01*
X24389047Y-66326247D02*
X24389047Y-66564342D01*
X24389047Y-66564342D02*
X24436666Y-66659580D01*
X24436666Y-66659580D02*
X24484285Y-66707200D01*
X24484285Y-66707200D02*
X24579523Y-66754819D01*
X24579523Y-66754819D02*
X24865237Y-66754819D01*
X24865237Y-66754819D02*
X24960475Y-66707200D01*
X24960475Y-66707200D02*
X25008094Y-66659580D01*
X24103332Y-65754819D02*
X23769999Y-66754819D01*
X23769999Y-66754819D02*
X23436666Y-65754819D01*
X23198570Y-65754819D02*
X22579523Y-65754819D01*
X22579523Y-65754819D02*
X22912856Y-66135771D01*
X22912856Y-66135771D02*
X22769999Y-66135771D01*
X22769999Y-66135771D02*
X22674761Y-66183390D01*
X22674761Y-66183390D02*
X22627142Y-66231009D01*
X22627142Y-66231009D02*
X22579523Y-66326247D01*
X22579523Y-66326247D02*
X22579523Y-66564342D01*
X22579523Y-66564342D02*
X22627142Y-66659580D01*
X22627142Y-66659580D02*
X22674761Y-66707200D01*
X22674761Y-66707200D02*
X22769999Y-66754819D01*
X22769999Y-66754819D02*
X23055713Y-66754819D01*
X23055713Y-66754819D02*
X23150951Y-66707200D01*
X23150951Y-66707200D02*
X23198570Y-66659580D01*
X27071904Y-67102438D02*
X27167142Y-67054819D01*
X27167142Y-67054819D02*
X27309999Y-67054819D01*
X27309999Y-67054819D02*
X27452856Y-67102438D01*
X27452856Y-67102438D02*
X27548094Y-67197676D01*
X27548094Y-67197676D02*
X27595713Y-67292914D01*
X27595713Y-67292914D02*
X27643332Y-67483390D01*
X27643332Y-67483390D02*
X27643332Y-67626247D01*
X27643332Y-67626247D02*
X27595713Y-67816723D01*
X27595713Y-67816723D02*
X27548094Y-67911961D01*
X27548094Y-67911961D02*
X27452856Y-68007200D01*
X27452856Y-68007200D02*
X27309999Y-68054819D01*
X27309999Y-68054819D02*
X27214761Y-68054819D01*
X27214761Y-68054819D02*
X27071904Y-68007200D01*
X27071904Y-68007200D02*
X27024285Y-67959580D01*
X27024285Y-67959580D02*
X27024285Y-67626247D01*
X27024285Y-67626247D02*
X27214761Y-67626247D01*
X26595713Y-68054819D02*
X26595713Y-67054819D01*
X26595713Y-67054819D02*
X26024285Y-68054819D01*
X26024285Y-68054819D02*
X26024285Y-67054819D01*
X25548094Y-68054819D02*
X25548094Y-67054819D01*
X25548094Y-67054819D02*
X25309999Y-67054819D01*
X25309999Y-67054819D02*
X25167142Y-67102438D01*
X25167142Y-67102438D02*
X25071904Y-67197676D01*
X25071904Y-67197676D02*
X25024285Y-67292914D01*
X25024285Y-67292914D02*
X24976666Y-67483390D01*
X24976666Y-67483390D02*
X24976666Y-67626247D01*
X24976666Y-67626247D02*
X25024285Y-67816723D01*
X25024285Y-67816723D02*
X25071904Y-67911961D01*
X25071904Y-67911961D02*
X25167142Y-68007200D01*
X25167142Y-68007200D02*
X25309999Y-68054819D01*
X25309999Y-68054819D02*
X25548094Y-68054819D01*
X39404761Y-25207200D02*
X39261904Y-25254819D01*
X39261904Y-25254819D02*
X39023809Y-25254819D01*
X39023809Y-25254819D02*
X38928571Y-25207200D01*
X38928571Y-25207200D02*
X38880952Y-25159580D01*
X38880952Y-25159580D02*
X38833333Y-25064342D01*
X38833333Y-25064342D02*
X38833333Y-24969104D01*
X38833333Y-24969104D02*
X38880952Y-24873866D01*
X38880952Y-24873866D02*
X38928571Y-24826247D01*
X38928571Y-24826247D02*
X39023809Y-24778628D01*
X39023809Y-24778628D02*
X39214285Y-24731009D01*
X39214285Y-24731009D02*
X39309523Y-24683390D01*
X39309523Y-24683390D02*
X39357142Y-24635771D01*
X39357142Y-24635771D02*
X39404761Y-24540533D01*
X39404761Y-24540533D02*
X39404761Y-24445295D01*
X39404761Y-24445295D02*
X39357142Y-24350057D01*
X39357142Y-24350057D02*
X39309523Y-24302438D01*
X39309523Y-24302438D02*
X39214285Y-24254819D01*
X39214285Y-24254819D02*
X38976190Y-24254819D01*
X38976190Y-24254819D02*
X38833333Y-24302438D01*
X38404761Y-25254819D02*
X38404761Y-24254819D01*
X38404761Y-24254819D02*
X38023809Y-24254819D01*
X38023809Y-24254819D02*
X37928571Y-24302438D01*
X37928571Y-24302438D02*
X37880952Y-24350057D01*
X37880952Y-24350057D02*
X37833333Y-24445295D01*
X37833333Y-24445295D02*
X37833333Y-24588152D01*
X37833333Y-24588152D02*
X37880952Y-24683390D01*
X37880952Y-24683390D02*
X37928571Y-24731009D01*
X37928571Y-24731009D02*
X38023809Y-24778628D01*
X38023809Y-24778628D02*
X38404761Y-24778628D01*
X37404761Y-25254819D02*
X37404761Y-24254819D01*
X36833333Y-25254819D02*
X37261904Y-24683390D01*
X36833333Y-24254819D02*
X37404761Y-24826247D01*
X36404761Y-24873866D02*
X35642857Y-24873866D01*
X36023809Y-25254819D02*
X36023809Y-24492914D01*
X39499999Y-73207200D02*
X39357142Y-73254819D01*
X39357142Y-73254819D02*
X39119047Y-73254819D01*
X39119047Y-73254819D02*
X39023809Y-73207200D01*
X39023809Y-73207200D02*
X38976190Y-73159580D01*
X38976190Y-73159580D02*
X38928571Y-73064342D01*
X38928571Y-73064342D02*
X38928571Y-72969104D01*
X38928571Y-72969104D02*
X38976190Y-72873866D01*
X38976190Y-72873866D02*
X39023809Y-72826247D01*
X39023809Y-72826247D02*
X39119047Y-72778628D01*
X39119047Y-72778628D02*
X39309523Y-72731009D01*
X39309523Y-72731009D02*
X39404761Y-72683390D01*
X39404761Y-72683390D02*
X39452380Y-72635771D01*
X39452380Y-72635771D02*
X39499999Y-72540533D01*
X39499999Y-72540533D02*
X39499999Y-72445295D01*
X39499999Y-72445295D02*
X39452380Y-72350057D01*
X39452380Y-72350057D02*
X39404761Y-72302438D01*
X39404761Y-72302438D02*
X39309523Y-72254819D01*
X39309523Y-72254819D02*
X39071428Y-72254819D01*
X39071428Y-72254819D02*
X38928571Y-72302438D01*
X38309523Y-72778628D02*
X38309523Y-73254819D01*
X38642856Y-72254819D02*
X38309523Y-72778628D01*
X38309523Y-72778628D02*
X37976190Y-72254819D01*
X37690475Y-73207200D02*
X37547618Y-73254819D01*
X37547618Y-73254819D02*
X37309523Y-73254819D01*
X37309523Y-73254819D02*
X37214285Y-73207200D01*
X37214285Y-73207200D02*
X37166666Y-73159580D01*
X37166666Y-73159580D02*
X37119047Y-73064342D01*
X37119047Y-73064342D02*
X37119047Y-72969104D01*
X37119047Y-72969104D02*
X37166666Y-72873866D01*
X37166666Y-72873866D02*
X37214285Y-72826247D01*
X37214285Y-72826247D02*
X37309523Y-72778628D01*
X37309523Y-72778628D02*
X37499999Y-72731009D01*
X37499999Y-72731009D02*
X37595237Y-72683390D01*
X37595237Y-72683390D02*
X37642856Y-72635771D01*
X37642856Y-72635771D02*
X37690475Y-72540533D01*
X37690475Y-72540533D02*
X37690475Y-72445295D01*
X37690475Y-72445295D02*
X37642856Y-72350057D01*
X37642856Y-72350057D02*
X37595237Y-72302438D01*
X37595237Y-72302438D02*
X37499999Y-72254819D01*
X37499999Y-72254819D02*
X37261904Y-72254819D01*
X37261904Y-72254819D02*
X37119047Y-72302438D01*
X36928571Y-73350057D02*
X36166666Y-73350057D01*
X35595237Y-72731009D02*
X35928570Y-72731009D01*
X35928570Y-73254819D02*
X35928570Y-72254819D01*
X35928570Y-72254819D02*
X35452380Y-72254819D01*
X43204761Y-25207200D02*
X43061904Y-25254819D01*
X43061904Y-25254819D02*
X42823809Y-25254819D01*
X42823809Y-25254819D02*
X42728571Y-25207200D01*
X42728571Y-25207200D02*
X42680952Y-25159580D01*
X42680952Y-25159580D02*
X42633333Y-25064342D01*
X42633333Y-25064342D02*
X42633333Y-24969104D01*
X42633333Y-24969104D02*
X42680952Y-24873866D01*
X42680952Y-24873866D02*
X42728571Y-24826247D01*
X42728571Y-24826247D02*
X42823809Y-24778628D01*
X42823809Y-24778628D02*
X43014285Y-24731009D01*
X43014285Y-24731009D02*
X43109523Y-24683390D01*
X43109523Y-24683390D02*
X43157142Y-24635771D01*
X43157142Y-24635771D02*
X43204761Y-24540533D01*
X43204761Y-24540533D02*
X43204761Y-24445295D01*
X43204761Y-24445295D02*
X43157142Y-24350057D01*
X43157142Y-24350057D02*
X43109523Y-24302438D01*
X43109523Y-24302438D02*
X43014285Y-24254819D01*
X43014285Y-24254819D02*
X42776190Y-24254819D01*
X42776190Y-24254819D02*
X42633333Y-24302438D01*
X42204761Y-25254819D02*
X42204761Y-24254819D01*
X42204761Y-24254819D02*
X41823809Y-24254819D01*
X41823809Y-24254819D02*
X41728571Y-24302438D01*
X41728571Y-24302438D02*
X41680952Y-24350057D01*
X41680952Y-24350057D02*
X41633333Y-24445295D01*
X41633333Y-24445295D02*
X41633333Y-24588152D01*
X41633333Y-24588152D02*
X41680952Y-24683390D01*
X41680952Y-24683390D02*
X41728571Y-24731009D01*
X41728571Y-24731009D02*
X41823809Y-24778628D01*
X41823809Y-24778628D02*
X42204761Y-24778628D01*
X41204761Y-25254819D02*
X41204761Y-24254819D01*
X40633333Y-25254819D02*
X41061904Y-24683390D01*
X40633333Y-24254819D02*
X41204761Y-24826247D01*
X40204761Y-24873866D02*
X39442857Y-24873866D01*
X43919047Y-74707200D02*
X43776190Y-74754819D01*
X43776190Y-74754819D02*
X43538095Y-74754819D01*
X43538095Y-74754819D02*
X43442857Y-74707200D01*
X43442857Y-74707200D02*
X43395238Y-74659580D01*
X43395238Y-74659580D02*
X43347619Y-74564342D01*
X43347619Y-74564342D02*
X43347619Y-74469104D01*
X43347619Y-74469104D02*
X43395238Y-74373866D01*
X43395238Y-74373866D02*
X43442857Y-74326247D01*
X43442857Y-74326247D02*
X43538095Y-74278628D01*
X43538095Y-74278628D02*
X43728571Y-74231009D01*
X43728571Y-74231009D02*
X43823809Y-74183390D01*
X43823809Y-74183390D02*
X43871428Y-74135771D01*
X43871428Y-74135771D02*
X43919047Y-74040533D01*
X43919047Y-74040533D02*
X43919047Y-73945295D01*
X43919047Y-73945295D02*
X43871428Y-73850057D01*
X43871428Y-73850057D02*
X43823809Y-73802438D01*
X43823809Y-73802438D02*
X43728571Y-73754819D01*
X43728571Y-73754819D02*
X43490476Y-73754819D01*
X43490476Y-73754819D02*
X43347619Y-73802438D01*
X42728571Y-74278628D02*
X42728571Y-74754819D01*
X43061904Y-73754819D02*
X42728571Y-74278628D01*
X42728571Y-74278628D02*
X42395238Y-73754819D01*
X42109523Y-74707200D02*
X41966666Y-74754819D01*
X41966666Y-74754819D02*
X41728571Y-74754819D01*
X41728571Y-74754819D02*
X41633333Y-74707200D01*
X41633333Y-74707200D02*
X41585714Y-74659580D01*
X41585714Y-74659580D02*
X41538095Y-74564342D01*
X41538095Y-74564342D02*
X41538095Y-74469104D01*
X41538095Y-74469104D02*
X41585714Y-74373866D01*
X41585714Y-74373866D02*
X41633333Y-74326247D01*
X41633333Y-74326247D02*
X41728571Y-74278628D01*
X41728571Y-74278628D02*
X41919047Y-74231009D01*
X41919047Y-74231009D02*
X42014285Y-74183390D01*
X42014285Y-74183390D02*
X42061904Y-74135771D01*
X42061904Y-74135771D02*
X42109523Y-74040533D01*
X42109523Y-74040533D02*
X42109523Y-73945295D01*
X42109523Y-73945295D02*
X42061904Y-73850057D01*
X42061904Y-73850057D02*
X42014285Y-73802438D01*
X42014285Y-73802438D02*
X41919047Y-73754819D01*
X41919047Y-73754819D02*
X41680952Y-73754819D01*
X41680952Y-73754819D02*
X41538095Y-73802438D01*
X41347619Y-74850057D02*
X40585714Y-74850057D01*
X40395237Y-74707200D02*
X40252380Y-74754819D01*
X40252380Y-74754819D02*
X40014285Y-74754819D01*
X40014285Y-74754819D02*
X39919047Y-74707200D01*
X39919047Y-74707200D02*
X39871428Y-74659580D01*
X39871428Y-74659580D02*
X39823809Y-74564342D01*
X39823809Y-74564342D02*
X39823809Y-74469104D01*
X39823809Y-74469104D02*
X39871428Y-74373866D01*
X39871428Y-74373866D02*
X39919047Y-74326247D01*
X39919047Y-74326247D02*
X40014285Y-74278628D01*
X40014285Y-74278628D02*
X40204761Y-74231009D01*
X40204761Y-74231009D02*
X40299999Y-74183390D01*
X40299999Y-74183390D02*
X40347618Y-74135771D01*
X40347618Y-74135771D02*
X40395237Y-74040533D01*
X40395237Y-74040533D02*
X40395237Y-73945295D01*
X40395237Y-73945295D02*
X40347618Y-73850057D01*
X40347618Y-73850057D02*
X40299999Y-73802438D01*
X40299999Y-73802438D02*
X40204761Y-73754819D01*
X40204761Y-73754819D02*
X39966666Y-73754819D01*
X39966666Y-73754819D02*
X39823809Y-73802438D01*
X39490475Y-73754819D02*
X39252380Y-74754819D01*
X39252380Y-74754819D02*
X39061904Y-74040533D01*
X39061904Y-74040533D02*
X38871428Y-74754819D01*
X38871428Y-74754819D02*
X38633333Y-73754819D01*
D11*
X34264284Y-35406992D02*
X33814284Y-35406992D01*
X33621427Y-36114135D02*
X34264284Y-36114135D01*
X34264284Y-36114135D02*
X34264284Y-34764135D01*
X34264284Y-34764135D02*
X33621427Y-34764135D01*
X33107141Y-36049850D02*
X32914284Y-36114135D01*
X32914284Y-36114135D02*
X32592855Y-36114135D01*
X32592855Y-36114135D02*
X32464284Y-36049850D01*
X32464284Y-36049850D02*
X32399998Y-35985564D01*
X32399998Y-35985564D02*
X32335712Y-35856992D01*
X32335712Y-35856992D02*
X32335712Y-35728421D01*
X32335712Y-35728421D02*
X32399998Y-35599850D01*
X32399998Y-35599850D02*
X32464284Y-35535564D01*
X32464284Y-35535564D02*
X32592855Y-35471278D01*
X32592855Y-35471278D02*
X32849998Y-35406992D01*
X32849998Y-35406992D02*
X32978569Y-35342707D01*
X32978569Y-35342707D02*
X33042855Y-35278421D01*
X33042855Y-35278421D02*
X33107141Y-35149850D01*
X33107141Y-35149850D02*
X33107141Y-35021278D01*
X33107141Y-35021278D02*
X33042855Y-34892707D01*
X33042855Y-34892707D02*
X32978569Y-34828421D01*
X32978569Y-34828421D02*
X32849998Y-34764135D01*
X32849998Y-34764135D02*
X32528569Y-34764135D01*
X32528569Y-34764135D02*
X32335712Y-34828421D01*
X31757141Y-36114135D02*
X31757141Y-34764135D01*
X31757141Y-34764135D02*
X31242855Y-34764135D01*
X31242855Y-34764135D02*
X31114284Y-34828421D01*
X31114284Y-34828421D02*
X31049998Y-34892707D01*
X31049998Y-34892707D02*
X30985712Y-35021278D01*
X30985712Y-35021278D02*
X30985712Y-35214135D01*
X30985712Y-35214135D02*
X31049998Y-35342707D01*
X31049998Y-35342707D02*
X31114284Y-35406992D01*
X31114284Y-35406992D02*
X31242855Y-35471278D01*
X31242855Y-35471278D02*
X31757141Y-35471278D01*
X30535712Y-34764135D02*
X29699998Y-34764135D01*
X29699998Y-34764135D02*
X30149998Y-35278421D01*
X30149998Y-35278421D02*
X29957141Y-35278421D01*
X29957141Y-35278421D02*
X29828570Y-35342707D01*
X29828570Y-35342707D02*
X29764284Y-35406992D01*
X29764284Y-35406992D02*
X29699998Y-35535564D01*
X29699998Y-35535564D02*
X29699998Y-35856992D01*
X29699998Y-35856992D02*
X29764284Y-35985564D01*
X29764284Y-35985564D02*
X29828570Y-36049850D01*
X29828570Y-36049850D02*
X29957141Y-36114135D01*
X29957141Y-36114135D02*
X30342855Y-36114135D01*
X30342855Y-36114135D02*
X30471427Y-36049850D01*
X30471427Y-36049850D02*
X30535712Y-35985564D01*
X29185713Y-34892707D02*
X29121427Y-34828421D01*
X29121427Y-34828421D02*
X28992856Y-34764135D01*
X28992856Y-34764135D02*
X28671427Y-34764135D01*
X28671427Y-34764135D02*
X28542856Y-34828421D01*
X28542856Y-34828421D02*
X28478570Y-34892707D01*
X28478570Y-34892707D02*
X28414284Y-35021278D01*
X28414284Y-35021278D02*
X28414284Y-35149850D01*
X28414284Y-35149850D02*
X28478570Y-35342707D01*
X28478570Y-35342707D02*
X29249998Y-36114135D01*
X29249998Y-36114135D02*
X28414284Y-36114135D01*
X26935713Y-34764135D02*
X26614285Y-36114135D01*
X26614285Y-36114135D02*
X26357142Y-35149850D01*
X26357142Y-35149850D02*
X26099999Y-36114135D01*
X26099999Y-36114135D02*
X25778571Y-34764135D01*
X24685714Y-36114135D02*
X24685714Y-35406992D01*
X24685714Y-35406992D02*
X24749999Y-35278421D01*
X24749999Y-35278421D02*
X24878571Y-35214135D01*
X24878571Y-35214135D02*
X25135714Y-35214135D01*
X25135714Y-35214135D02*
X25264285Y-35278421D01*
X24685714Y-36049850D02*
X24814285Y-36114135D01*
X24814285Y-36114135D02*
X25135714Y-36114135D01*
X25135714Y-36114135D02*
X25264285Y-36049850D01*
X25264285Y-36049850D02*
X25328571Y-35921278D01*
X25328571Y-35921278D02*
X25328571Y-35792707D01*
X25328571Y-35792707D02*
X25264285Y-35664135D01*
X25264285Y-35664135D02*
X25135714Y-35599850D01*
X25135714Y-35599850D02*
X24814285Y-35599850D01*
X24814285Y-35599850D02*
X24685714Y-35535564D01*
X23849999Y-36114135D02*
X23978570Y-36049850D01*
X23978570Y-36049850D02*
X24042856Y-35921278D01*
X24042856Y-35921278D02*
X24042856Y-34764135D01*
X23335713Y-36114135D02*
X23335713Y-34764135D01*
X23207142Y-35599850D02*
X22821427Y-36114135D01*
X22821427Y-35214135D02*
X23335713Y-35728421D01*
X22242856Y-36114135D02*
X22242856Y-35214135D01*
X22242856Y-34764135D02*
X22307142Y-34828421D01*
X22307142Y-34828421D02*
X22242856Y-34892707D01*
X22242856Y-34892707D02*
X22178570Y-34828421D01*
X22178570Y-34828421D02*
X22242856Y-34764135D01*
X22242856Y-34764135D02*
X22242856Y-34892707D01*
X21085713Y-36049850D02*
X21214285Y-36114135D01*
X21214285Y-36114135D02*
X21471428Y-36114135D01*
X21471428Y-36114135D02*
X21599999Y-36049850D01*
X21599999Y-36049850D02*
X21664285Y-35921278D01*
X21664285Y-35921278D02*
X21664285Y-35406992D01*
X21664285Y-35406992D02*
X21599999Y-35278421D01*
X21599999Y-35278421D02*
X21471428Y-35214135D01*
X21471428Y-35214135D02*
X21214285Y-35214135D01*
X21214285Y-35214135D02*
X21085713Y-35278421D01*
X21085713Y-35278421D02*
X21021428Y-35406992D01*
X21021428Y-35406992D02*
X21021428Y-35535564D01*
X21021428Y-35535564D02*
X21664285Y-35664135D01*
X19607142Y-34764135D02*
X18835714Y-34764135D01*
X19221428Y-36114135D02*
X19221428Y-34764135D01*
X17807143Y-36114135D02*
X17807143Y-35406992D01*
X17807143Y-35406992D02*
X17871428Y-35278421D01*
X17871428Y-35278421D02*
X18000000Y-35214135D01*
X18000000Y-35214135D02*
X18257143Y-35214135D01*
X18257143Y-35214135D02*
X18385714Y-35278421D01*
X17807143Y-36049850D02*
X17935714Y-36114135D01*
X17935714Y-36114135D02*
X18257143Y-36114135D01*
X18257143Y-36114135D02*
X18385714Y-36049850D01*
X18385714Y-36049850D02*
X18450000Y-35921278D01*
X18450000Y-35921278D02*
X18450000Y-35792707D01*
X18450000Y-35792707D02*
X18385714Y-35664135D01*
X18385714Y-35664135D02*
X18257143Y-35599850D01*
X18257143Y-35599850D02*
X17935714Y-35599850D01*
X17935714Y-35599850D02*
X17807143Y-35535564D01*
X16971428Y-36114135D02*
X17099999Y-36049850D01*
X17099999Y-36049850D02*
X17164285Y-35921278D01*
X17164285Y-35921278D02*
X17164285Y-34764135D01*
X16457142Y-36114135D02*
X16457142Y-34764135D01*
X16328571Y-35599850D02*
X15942856Y-36114135D01*
X15942856Y-35214135D02*
X16457142Y-35728421D01*
X15364285Y-36114135D02*
X15364285Y-35214135D01*
X15364285Y-34764135D02*
X15428571Y-34828421D01*
X15428571Y-34828421D02*
X15364285Y-34892707D01*
X15364285Y-34892707D02*
X15299999Y-34828421D01*
X15299999Y-34828421D02*
X15364285Y-34764135D01*
X15364285Y-34764135D02*
X15364285Y-34892707D01*
X14207142Y-36049850D02*
X14335714Y-36114135D01*
X14335714Y-36114135D02*
X14592857Y-36114135D01*
X14592857Y-36114135D02*
X14721428Y-36049850D01*
X14721428Y-36049850D02*
X14785714Y-35921278D01*
X14785714Y-35921278D02*
X14785714Y-35406992D01*
X14785714Y-35406992D02*
X14721428Y-35278421D01*
X14721428Y-35278421D02*
X14592857Y-35214135D01*
X14592857Y-35214135D02*
X14335714Y-35214135D01*
X14335714Y-35214135D02*
X14207142Y-35278421D01*
X14207142Y-35278421D02*
X14142857Y-35406992D01*
X14142857Y-35406992D02*
X14142857Y-35535564D01*
X14142857Y-35535564D02*
X14785714Y-35664135D01*
X12728571Y-34764135D02*
X12278571Y-36114135D01*
X12278571Y-36114135D02*
X11828571Y-34764135D01*
X11442857Y-34892707D02*
X11378571Y-34828421D01*
X11378571Y-34828421D02*
X11250000Y-34764135D01*
X11250000Y-34764135D02*
X10928571Y-34764135D01*
X10928571Y-34764135D02*
X10800000Y-34828421D01*
X10800000Y-34828421D02*
X10735714Y-34892707D01*
X10735714Y-34892707D02*
X10671428Y-35021278D01*
X10671428Y-35021278D02*
X10671428Y-35149850D01*
X10671428Y-35149850D02*
X10735714Y-35342707D01*
X10735714Y-35342707D02*
X11507142Y-36114135D01*
X11507142Y-36114135D02*
X10671428Y-36114135D01*
D12*
X37797618Y-30138347D02*
X37276785Y-32638347D01*
X37276785Y-32638347D02*
X36130952Y-30138347D01*
X34642856Y-32519300D02*
X34895833Y-32638347D01*
X34895833Y-32638347D02*
X35372023Y-32638347D01*
X35372023Y-32638347D02*
X35595237Y-32519300D01*
X35595237Y-32519300D02*
X35684523Y-32281204D01*
X35684523Y-32281204D02*
X35565476Y-31328823D01*
X35565476Y-31328823D02*
X35416666Y-31090728D01*
X35416666Y-31090728D02*
X35163690Y-30971680D01*
X35163690Y-30971680D02*
X34687499Y-30971680D01*
X34687499Y-30971680D02*
X34464285Y-31090728D01*
X34464285Y-31090728D02*
X34374999Y-31328823D01*
X34374999Y-31328823D02*
X34404761Y-31566919D01*
X34404761Y-31566919D02*
X35624999Y-31805014D01*
X33467261Y-32638347D02*
X33258928Y-30971680D01*
X33318452Y-31447871D02*
X33169642Y-31209776D01*
X33169642Y-31209776D02*
X33035714Y-31090728D01*
X33035714Y-31090728D02*
X32782738Y-30971680D01*
X32782738Y-30971680D02*
X32544642Y-30971680D01*
X31919642Y-32638347D02*
X31711309Y-30971680D01*
X31741071Y-31209776D02*
X31607142Y-31090728D01*
X31607142Y-31090728D02*
X31354166Y-30971680D01*
X31354166Y-30971680D02*
X30997023Y-30971680D01*
X30997023Y-30971680D02*
X30773809Y-31090728D01*
X30773809Y-31090728D02*
X30684523Y-31328823D01*
X30684523Y-31328823D02*
X30848214Y-32638347D01*
X30684523Y-31328823D02*
X30535714Y-31090728D01*
X30535714Y-31090728D02*
X30282738Y-30971680D01*
X30282738Y-30971680D02*
X29925595Y-30971680D01*
X29925595Y-30971680D02*
X29702380Y-31090728D01*
X29702380Y-31090728D02*
X29613095Y-31328823D01*
X29613095Y-31328823D02*
X29776785Y-32638347D01*
X27514881Y-32638347D02*
X27351190Y-31328823D01*
X27351190Y-31328823D02*
X27440476Y-31090728D01*
X27440476Y-31090728D02*
X27663690Y-30971680D01*
X27663690Y-30971680D02*
X28139881Y-30971680D01*
X28139881Y-30971680D02*
X28392857Y-31090728D01*
X27500000Y-32519300D02*
X27752976Y-32638347D01*
X27752976Y-32638347D02*
X28348214Y-32638347D01*
X28348214Y-32638347D02*
X28571428Y-32519300D01*
X28571428Y-32519300D02*
X28660714Y-32281204D01*
X28660714Y-32281204D02*
X28630952Y-32043109D01*
X28630952Y-32043109D02*
X28482143Y-31805014D01*
X28482143Y-31805014D02*
X28229167Y-31685966D01*
X28229167Y-31685966D02*
X27633928Y-31685966D01*
X27633928Y-31685966D02*
X27380952Y-31566919D01*
X24419642Y-32638347D02*
X24107142Y-30138347D01*
X23020833Y-30971680D02*
X23229166Y-32638347D01*
X23050595Y-31209776D02*
X22916666Y-31090728D01*
X22916666Y-31090728D02*
X22663690Y-30971680D01*
X22663690Y-30971680D02*
X22306547Y-30971680D01*
X22306547Y-30971680D02*
X22083333Y-31090728D01*
X22083333Y-31090728D02*
X21994047Y-31328823D01*
X21994047Y-31328823D02*
X22157738Y-32638347D01*
X19895833Y-32638347D02*
X19583333Y-30138347D01*
X19880952Y-32519300D02*
X20133928Y-32638347D01*
X20133928Y-32638347D02*
X20610119Y-32638347D01*
X20610119Y-32638347D02*
X20833333Y-32519300D01*
X20833333Y-32519300D02*
X20937499Y-32400252D01*
X20937499Y-32400252D02*
X21026785Y-32162157D01*
X21026785Y-32162157D02*
X20937499Y-31447871D01*
X20937499Y-31447871D02*
X20788690Y-31209776D01*
X20788690Y-31209776D02*
X20654761Y-31090728D01*
X20654761Y-31090728D02*
X20401785Y-30971680D01*
X20401785Y-30971680D02*
X19925595Y-30971680D01*
X19925595Y-30971680D02*
X19702380Y-31090728D01*
X17425594Y-30971680D02*
X17633928Y-32638347D01*
X18497023Y-30971680D02*
X18660714Y-32281204D01*
X18660714Y-32281204D02*
X18571428Y-32519300D01*
X18571428Y-32519300D02*
X18348214Y-32638347D01*
X18348214Y-32638347D02*
X17991071Y-32638347D01*
X17991071Y-32638347D02*
X17738094Y-32519300D01*
X17738094Y-32519300D02*
X17604166Y-32400252D01*
X16547618Y-32519300D02*
X16324404Y-32638347D01*
X16324404Y-32638347D02*
X15848213Y-32638347D01*
X15848213Y-32638347D02*
X15595237Y-32519300D01*
X15595237Y-32519300D02*
X15446428Y-32281204D01*
X15446428Y-32281204D02*
X15431547Y-32162157D01*
X15431547Y-32162157D02*
X15520832Y-31924061D01*
X15520832Y-31924061D02*
X15744047Y-31805014D01*
X15744047Y-31805014D02*
X16101189Y-31805014D01*
X16101189Y-31805014D02*
X16324404Y-31685966D01*
X16324404Y-31685966D02*
X16413689Y-31447871D01*
X16413689Y-31447871D02*
X16398809Y-31328823D01*
X16398809Y-31328823D02*
X16249999Y-31090728D01*
X16249999Y-31090728D02*
X15997023Y-30971680D01*
X15997023Y-30971680D02*
X15639880Y-30971680D01*
X15639880Y-30971680D02*
X15416666Y-31090728D01*
X14568451Y-30971680D02*
X13616070Y-30971680D01*
X14107141Y-30138347D02*
X14374999Y-32281204D01*
X14374999Y-32281204D02*
X14285713Y-32519300D01*
X14285713Y-32519300D02*
X14062499Y-32638347D01*
X14062499Y-32638347D02*
X13824403Y-32638347D01*
X12991070Y-32638347D02*
X12782737Y-30971680D01*
X12842261Y-31447871D02*
X12693451Y-31209776D01*
X12693451Y-31209776D02*
X12559523Y-31090728D01*
X12559523Y-31090728D02*
X12306547Y-30971680D01*
X12306547Y-30971680D02*
X12068451Y-30971680D01*
X11443451Y-32638347D02*
X11235118Y-30971680D01*
X11130951Y-30138347D02*
X11264880Y-30257395D01*
X11264880Y-30257395D02*
X11160713Y-30376442D01*
X11160713Y-30376442D02*
X11026785Y-30257395D01*
X11026785Y-30257395D02*
X11130951Y-30138347D01*
X11130951Y-30138347D02*
X11160713Y-30376442D01*
X9285713Y-32519300D02*
X9538690Y-32638347D01*
X9538690Y-32638347D02*
X10014880Y-32638347D01*
X10014880Y-32638347D02*
X10238094Y-32519300D01*
X10238094Y-32519300D02*
X10327380Y-32281204D01*
X10327380Y-32281204D02*
X10208333Y-31328823D01*
X10208333Y-31328823D02*
X10059523Y-31090728D01*
X10059523Y-31090728D02*
X9806547Y-30971680D01*
X9806547Y-30971680D02*
X9330356Y-30971680D01*
X9330356Y-30971680D02*
X9107142Y-31090728D01*
X9107142Y-31090728D02*
X9017856Y-31328823D01*
X9017856Y-31328823D02*
X9047618Y-31566919D01*
X9047618Y-31566919D02*
X10267856Y-31805014D01*
X8214285Y-32519300D02*
X7991071Y-32638347D01*
X7991071Y-32638347D02*
X7514880Y-32638347D01*
X7514880Y-32638347D02*
X7261904Y-32519300D01*
X7261904Y-32519300D02*
X7113095Y-32281204D01*
X7113095Y-32281204D02*
X7098214Y-32162157D01*
X7098214Y-32162157D02*
X7187499Y-31924061D01*
X7187499Y-31924061D02*
X7410714Y-31805014D01*
X7410714Y-31805014D02*
X7767856Y-31805014D01*
X7767856Y-31805014D02*
X7991071Y-31685966D01*
X7991071Y-31685966D02*
X8080356Y-31447871D01*
X8080356Y-31447871D02*
X8065476Y-31328823D01*
X8065476Y-31328823D02*
X7916666Y-31090728D01*
X7916666Y-31090728D02*
X7663690Y-30971680D01*
X7663690Y-30971680D02*
X7306547Y-30971680D01*
X7306547Y-30971680D02*
X7083333Y-31090728D01*
%LPC*%
G36*
X18371342Y-96138060D02*
G01*
X18484381Y-96203323D01*
X18576677Y-96295619D01*
X18641940Y-96408658D01*
X18675722Y-96534737D01*
X18680000Y-96600000D01*
X18680000Y-97200000D01*
X18675722Y-97265263D01*
X18641940Y-97391342D01*
X18576677Y-97504381D01*
X18484381Y-97596677D01*
X18371342Y-97661940D01*
X18245263Y-97695722D01*
X18114737Y-97695722D01*
X17988658Y-97661940D01*
X17875619Y-97596677D01*
X17783323Y-97504381D01*
X17718060Y-97391342D01*
X17684278Y-97265263D01*
X17680000Y-97200000D01*
X17680000Y-96600000D01*
X17684278Y-96534737D01*
X17718060Y-96408658D01*
X17783323Y-96295619D01*
X17875619Y-96203323D01*
X17988658Y-96138060D01*
X18114737Y-96104278D01*
X18245263Y-96104278D01*
X18371342Y-96138060D01*
G37*
G36*
X27011342Y-96138060D02*
G01*
X27124381Y-96203323D01*
X27216677Y-96295619D01*
X27281940Y-96408658D01*
X27315722Y-96534737D01*
X27320000Y-96600000D01*
X27320000Y-97200000D01*
X27315722Y-97265263D01*
X27281940Y-97391342D01*
X27216677Y-97504381D01*
X27124381Y-97596677D01*
X27011342Y-97661940D01*
X26885263Y-97695722D01*
X26754737Y-97695722D01*
X26628658Y-97661940D01*
X26515619Y-97596677D01*
X26423323Y-97504381D01*
X26358060Y-97391342D01*
X26324278Y-97265263D01*
X26320000Y-97200000D01*
X26320000Y-96600000D01*
X26324278Y-96534737D01*
X26358060Y-96408658D01*
X26423323Y-96295619D01*
X26515619Y-96203323D01*
X26628658Y-96138060D01*
X26754737Y-96104278D01*
X26885263Y-96104278D01*
X27011342Y-96138060D01*
G37*
G36*
X4373513Y-94444208D02*
G01*
X4612293Y-94521793D01*
X4835998Y-94635776D01*
X5039117Y-94783350D01*
X5216650Y-94960883D01*
X5364224Y-95164002D01*
X5478207Y-95387707D01*
X5555792Y-95626487D01*
X5595068Y-95874465D01*
X5595068Y-96125535D01*
X5555792Y-96373513D01*
X5478207Y-96612293D01*
X5364224Y-96835998D01*
X5216650Y-97039117D01*
X5039117Y-97216650D01*
X4835998Y-97364224D01*
X4612293Y-97478207D01*
X4373513Y-97555792D01*
X4125535Y-97595068D01*
X3874465Y-97595068D01*
X3626487Y-97555792D01*
X3387707Y-97478207D01*
X3164002Y-97364224D01*
X2960883Y-97216650D01*
X2783350Y-97039117D01*
X2635776Y-96835998D01*
X2521793Y-96612293D01*
X2444208Y-96373513D01*
X2404932Y-96125535D01*
X2404932Y-95874465D01*
X2444208Y-95626487D01*
X2521793Y-95387707D01*
X2635776Y-95164002D01*
X2783350Y-94960883D01*
X2960883Y-94783350D01*
X3164002Y-94635776D01*
X3387707Y-94521793D01*
X3626487Y-94444208D01*
X3874465Y-94404932D01*
X4125535Y-94404932D01*
X4373513Y-94444208D01*
G37*
G36*
X41373513Y-94444208D02*
G01*
X41612293Y-94521793D01*
X41835998Y-94635776D01*
X42039117Y-94783350D01*
X42216650Y-94960883D01*
X42364224Y-95164002D01*
X42478207Y-95387707D01*
X42555792Y-95626487D01*
X42595068Y-95874465D01*
X42595068Y-96125535D01*
X42555792Y-96373513D01*
X42478207Y-96612293D01*
X42364224Y-96835998D01*
X42216650Y-97039117D01*
X42039117Y-97216650D01*
X41835998Y-97364224D01*
X41612293Y-97478207D01*
X41373513Y-97555792D01*
X41125535Y-97595068D01*
X40874465Y-97595068D01*
X40626487Y-97555792D01*
X40387707Y-97478207D01*
X40164002Y-97364224D01*
X39960883Y-97216650D01*
X39783350Y-97039117D01*
X39635776Y-96835998D01*
X39521793Y-96612293D01*
X39444208Y-96373513D01*
X39404932Y-96125535D01*
X39404932Y-95874465D01*
X39444208Y-95626487D01*
X39521793Y-95387707D01*
X39635776Y-95164002D01*
X39783350Y-94960883D01*
X39960883Y-94783350D01*
X40164002Y-94635776D01*
X40387707Y-94521793D01*
X40626487Y-94444208D01*
X40874465Y-94404932D01*
X41125535Y-94404932D01*
X41373513Y-94444208D01*
G37*
G36*
X18371342Y-91708060D02*
G01*
X18484381Y-91773323D01*
X18576677Y-91865619D01*
X18641940Y-91978658D01*
X18675722Y-92104737D01*
X18680000Y-92170000D01*
X18680000Y-93270000D01*
X18675722Y-93335263D01*
X18641940Y-93461342D01*
X18576677Y-93574381D01*
X18484381Y-93666677D01*
X18371342Y-93731940D01*
X18245263Y-93765722D01*
X18114737Y-93765722D01*
X17988658Y-93731940D01*
X17875619Y-93666677D01*
X17783323Y-93574381D01*
X17718060Y-93461342D01*
X17684278Y-93335263D01*
X17680000Y-93270000D01*
X17680000Y-92170000D01*
X17684278Y-92104737D01*
X17718060Y-91978658D01*
X17783323Y-91865619D01*
X17875619Y-91773323D01*
X17988658Y-91708060D01*
X18114737Y-91674278D01*
X18245263Y-91674278D01*
X18371342Y-91708060D01*
G37*
G36*
X27011342Y-91708060D02*
G01*
X27124381Y-91773323D01*
X27216677Y-91865619D01*
X27281940Y-91978658D01*
X27315722Y-92104737D01*
X27320000Y-92170000D01*
X27320000Y-93270000D01*
X27315722Y-93335263D01*
X27281940Y-93461342D01*
X27216677Y-93574381D01*
X27124381Y-93666677D01*
X27011342Y-93731940D01*
X26885263Y-93765722D01*
X26754737Y-93765722D01*
X26628658Y-93731940D01*
X26515619Y-93666677D01*
X26423323Y-93574381D01*
X26358060Y-93461342D01*
X26324278Y-93335263D01*
X26320000Y-93270000D01*
X26320000Y-92170000D01*
X26324278Y-92104737D01*
X26358060Y-91978658D01*
X26423323Y-91865619D01*
X26515619Y-91773323D01*
X26628658Y-91708060D01*
X26754737Y-91674278D01*
X26885263Y-91674278D01*
X27011342Y-91708060D01*
G37*
G36*
X19734372Y-92949739D02*
G01*
X19807847Y-92992160D01*
X19867840Y-93052153D01*
X19910261Y-93125628D01*
X19932220Y-93207579D01*
X19932220Y-93292421D01*
X19910261Y-93374372D01*
X19867840Y-93447847D01*
X19807847Y-93507840D01*
X19734372Y-93550261D01*
X19652421Y-93572220D01*
X19567579Y-93572220D01*
X19485628Y-93550261D01*
X19412153Y-93507840D01*
X19352160Y-93447847D01*
X19309739Y-93374372D01*
X19287780Y-93292421D01*
X19287780Y-93207579D01*
X19309739Y-93125628D01*
X19352160Y-93052153D01*
X19412153Y-92992160D01*
X19485628Y-92949739D01*
X19567579Y-92927780D01*
X19652421Y-92927780D01*
X19734372Y-92949739D01*
G37*
G36*
X25514372Y-92949739D02*
G01*
X25587847Y-92992160D01*
X25647840Y-93052153D01*
X25690261Y-93125628D01*
X25712220Y-93207579D01*
X25712220Y-93292421D01*
X25690261Y-93374372D01*
X25647840Y-93447847D01*
X25587847Y-93507840D01*
X25514372Y-93550261D01*
X25432421Y-93572220D01*
X25347579Y-93572220D01*
X25265628Y-93550261D01*
X25192153Y-93507840D01*
X25132160Y-93447847D01*
X25089739Y-93374372D01*
X25067780Y-93292421D01*
X25067780Y-93207579D01*
X25089739Y-93125628D01*
X25132160Y-93052153D01*
X25192153Y-92992160D01*
X25265628Y-92949739D01*
X25347579Y-92927780D01*
X25432421Y-92927780D01*
X25514372Y-92949739D01*
G37*
G36*
X7275519Y-86358019D02*
G01*
X7280962Y-86359923D01*
X7287300Y-86360605D01*
X7353918Y-86385452D01*
X7404944Y-86403307D01*
X7408167Y-86405686D01*
X7410331Y-86406493D01*
X7485197Y-86462537D01*
X7515269Y-86484731D01*
X7537480Y-86514826D01*
X7593506Y-86589668D01*
X7594312Y-86591830D01*
X7596693Y-86595056D01*
X7614557Y-86646108D01*
X7639394Y-86712699D01*
X7640075Y-86719034D01*
X7641981Y-86724481D01*
X7650000Y-86810000D01*
X7650000Y-88190000D01*
X7641981Y-88275519D01*
X7640074Y-88280966D01*
X7639394Y-88287300D01*
X7614562Y-88353875D01*
X7596693Y-88404944D01*
X7594311Y-88408170D01*
X7593506Y-88410331D01*
X7537532Y-88485102D01*
X7515269Y-88515269D01*
X7485102Y-88537532D01*
X7410331Y-88593506D01*
X7408170Y-88594311D01*
X7404944Y-88596693D01*
X7353875Y-88614562D01*
X7287300Y-88639394D01*
X7280966Y-88640074D01*
X7275519Y-88641981D01*
X7190000Y-88650000D01*
X5810000Y-88650000D01*
X5724481Y-88641981D01*
X5719034Y-88640075D01*
X5712699Y-88639394D01*
X5646108Y-88614557D01*
X5595056Y-88596693D01*
X5591830Y-88594312D01*
X5589668Y-88593506D01*
X5514826Y-88537480D01*
X5484731Y-88515269D01*
X5462537Y-88485197D01*
X5406493Y-88410331D01*
X5405686Y-88408167D01*
X5403307Y-88404944D01*
X5385452Y-88353918D01*
X5360605Y-88287300D01*
X5359923Y-88280962D01*
X5358019Y-88275519D01*
X5350000Y-88190000D01*
X5350000Y-86810000D01*
X5358019Y-86724481D01*
X5359923Y-86719038D01*
X5360605Y-86712699D01*
X5385457Y-86646065D01*
X5403307Y-86595056D01*
X5405685Y-86591833D01*
X5406493Y-86589668D01*
X5462589Y-86514731D01*
X5484731Y-86484731D01*
X5514731Y-86462589D01*
X5589668Y-86406493D01*
X5591833Y-86405685D01*
X5595056Y-86403307D01*
X5646065Y-86385457D01*
X5712699Y-86360605D01*
X5719038Y-86359923D01*
X5724481Y-86358019D01*
X5810000Y-86350000D01*
X7190000Y-86350000D01*
X7275519Y-86358019D01*
G37*
G36*
X19775519Y-86358019D02*
G01*
X19780962Y-86359923D01*
X19787300Y-86360605D01*
X19853918Y-86385452D01*
X19904944Y-86403307D01*
X19908167Y-86405686D01*
X19910331Y-86406493D01*
X19985197Y-86462537D01*
X20015269Y-86484731D01*
X20037480Y-86514826D01*
X20093506Y-86589668D01*
X20094312Y-86591830D01*
X20096693Y-86595056D01*
X20114557Y-86646108D01*
X20139394Y-86712699D01*
X20140075Y-86719034D01*
X20141981Y-86724481D01*
X20150000Y-86810000D01*
X20150000Y-88190000D01*
X20141981Y-88275519D01*
X20140074Y-88280966D01*
X20139394Y-88287300D01*
X20114562Y-88353875D01*
X20096693Y-88404944D01*
X20094311Y-88408170D01*
X20093506Y-88410331D01*
X20037532Y-88485102D01*
X20015269Y-88515269D01*
X19985102Y-88537532D01*
X19910331Y-88593506D01*
X19908170Y-88594311D01*
X19904944Y-88596693D01*
X19853875Y-88614562D01*
X19787300Y-88639394D01*
X19780966Y-88640074D01*
X19775519Y-88641981D01*
X19690000Y-88650000D01*
X18310000Y-88650000D01*
X18224481Y-88641981D01*
X18219034Y-88640075D01*
X18212699Y-88639394D01*
X18146108Y-88614557D01*
X18095056Y-88596693D01*
X18091830Y-88594312D01*
X18089668Y-88593506D01*
X18014826Y-88537480D01*
X17984731Y-88515269D01*
X17962537Y-88485197D01*
X17906493Y-88410331D01*
X17905686Y-88408167D01*
X17903307Y-88404944D01*
X17885452Y-88353918D01*
X17860605Y-88287300D01*
X17859923Y-88280962D01*
X17858019Y-88275519D01*
X17850000Y-88190000D01*
X17850000Y-86810000D01*
X17858019Y-86724481D01*
X17859923Y-86719038D01*
X17860605Y-86712699D01*
X17885457Y-86646065D01*
X17903307Y-86595056D01*
X17905685Y-86591833D01*
X17906493Y-86589668D01*
X17962589Y-86514731D01*
X17984731Y-86484731D01*
X18014731Y-86462589D01*
X18089668Y-86406493D01*
X18091833Y-86405685D01*
X18095056Y-86403307D01*
X18146065Y-86385457D01*
X18212699Y-86360605D01*
X18219038Y-86359923D01*
X18224481Y-86358019D01*
X18310000Y-86350000D01*
X19690000Y-86350000D01*
X19775519Y-86358019D01*
G37*
G36*
X34775519Y-86358019D02*
G01*
X34780962Y-86359923D01*
X34787300Y-86360605D01*
X34853918Y-86385452D01*
X34904944Y-86403307D01*
X34908167Y-86405686D01*
X34910331Y-86406493D01*
X34985197Y-86462537D01*
X35015269Y-86484731D01*
X35037480Y-86514826D01*
X35093506Y-86589668D01*
X35094312Y-86591830D01*
X35096693Y-86595056D01*
X35114557Y-86646108D01*
X35139394Y-86712699D01*
X35140075Y-86719034D01*
X35141981Y-86724481D01*
X35150000Y-86810000D01*
X35150000Y-88190000D01*
X35141981Y-88275519D01*
X35140074Y-88280966D01*
X35139394Y-88287300D01*
X35114562Y-88353875D01*
X35096693Y-88404944D01*
X35094311Y-88408170D01*
X35093506Y-88410331D01*
X35037532Y-88485102D01*
X35015269Y-88515269D01*
X34985102Y-88537532D01*
X34910331Y-88593506D01*
X34908170Y-88594311D01*
X34904944Y-88596693D01*
X34853875Y-88614562D01*
X34787300Y-88639394D01*
X34780966Y-88640074D01*
X34775519Y-88641981D01*
X34690000Y-88650000D01*
X33310000Y-88650000D01*
X33224481Y-88641981D01*
X33219034Y-88640075D01*
X33212699Y-88639394D01*
X33146108Y-88614557D01*
X33095056Y-88596693D01*
X33091830Y-88594312D01*
X33089668Y-88593506D01*
X33014826Y-88537480D01*
X32984731Y-88515269D01*
X32962537Y-88485197D01*
X32906493Y-88410331D01*
X32905686Y-88408167D01*
X32903307Y-88404944D01*
X32885452Y-88353918D01*
X32860605Y-88287300D01*
X32859923Y-88280962D01*
X32858019Y-88275519D01*
X32850000Y-88190000D01*
X32850000Y-86810000D01*
X32858019Y-86724481D01*
X32859923Y-86719038D01*
X32860605Y-86712699D01*
X32885457Y-86646065D01*
X32903307Y-86595056D01*
X32905685Y-86591833D01*
X32906493Y-86589668D01*
X32962589Y-86514731D01*
X32984731Y-86484731D01*
X33014731Y-86462589D01*
X33089668Y-86406493D01*
X33091833Y-86405685D01*
X33095056Y-86403307D01*
X33146065Y-86385457D01*
X33212699Y-86360605D01*
X33219038Y-86359923D01*
X33224481Y-86358019D01*
X33310000Y-86350000D01*
X34690000Y-86350000D01*
X34775519Y-86358019D01*
G37*
G36*
X11768462Y-86381775D02*
G01*
X11940086Y-86437539D01*
X12100873Y-86519464D01*
X12246865Y-86625533D01*
X12374467Y-86753135D01*
X12480536Y-86899127D01*
X12562461Y-87059914D01*
X12618225Y-87231538D01*
X12646455Y-87409772D01*
X12646455Y-87590228D01*
X12618225Y-87768462D01*
X12562461Y-87940086D01*
X12480536Y-88100873D01*
X12374467Y-88246865D01*
X12246865Y-88374467D01*
X12100873Y-88480536D01*
X11940086Y-88562461D01*
X11768462Y-88618225D01*
X11590228Y-88646455D01*
X11409772Y-88646455D01*
X11231538Y-88618225D01*
X11059914Y-88562461D01*
X10899127Y-88480536D01*
X10753135Y-88374467D01*
X10625533Y-88246865D01*
X10519464Y-88100873D01*
X10437539Y-87940086D01*
X10381775Y-87768462D01*
X10353545Y-87590228D01*
X10353545Y-87409772D01*
X10381775Y-87231538D01*
X10437539Y-87059914D01*
X10519464Y-86899127D01*
X10625533Y-86753135D01*
X10753135Y-86625533D01*
X10899127Y-86519464D01*
X11059914Y-86437539D01*
X11231538Y-86381775D01*
X11409772Y-86353545D01*
X11590228Y-86353545D01*
X11768462Y-86381775D01*
G37*
G36*
X24268462Y-86381775D02*
G01*
X24440086Y-86437539D01*
X24600873Y-86519464D01*
X24746865Y-86625533D01*
X24874467Y-86753135D01*
X24980536Y-86899127D01*
X25062461Y-87059914D01*
X25118225Y-87231538D01*
X25146455Y-87409772D01*
X25146455Y-87590228D01*
X25118225Y-87768462D01*
X25062461Y-87940086D01*
X24980536Y-88100873D01*
X24874467Y-88246865D01*
X24746865Y-88374467D01*
X24600873Y-88480536D01*
X24440086Y-88562461D01*
X24268462Y-88618225D01*
X24090228Y-88646455D01*
X23909772Y-88646455D01*
X23731538Y-88618225D01*
X23559914Y-88562461D01*
X23399127Y-88480536D01*
X23253135Y-88374467D01*
X23125533Y-88246865D01*
X23019464Y-88100873D01*
X22937539Y-87940086D01*
X22881775Y-87768462D01*
X22853545Y-87590228D01*
X22853545Y-87409772D01*
X22881775Y-87231538D01*
X22937539Y-87059914D01*
X23019464Y-86899127D01*
X23125533Y-86753135D01*
X23253135Y-86625533D01*
X23399127Y-86519464D01*
X23559914Y-86437539D01*
X23731538Y-86381775D01*
X23909772Y-86353545D01*
X24090228Y-86353545D01*
X24268462Y-86381775D01*
G37*
G36*
X39268462Y-86381775D02*
G01*
X39440086Y-86437539D01*
X39600873Y-86519464D01*
X39746865Y-86625533D01*
X39874467Y-86753135D01*
X39980536Y-86899127D01*
X40062461Y-87059914D01*
X40118225Y-87231538D01*
X40146455Y-87409772D01*
X40146455Y-87590228D01*
X40118225Y-87768462D01*
X40062461Y-87940086D01*
X39980536Y-88100873D01*
X39874467Y-88246865D01*
X39746865Y-88374467D01*
X39600873Y-88480536D01*
X39440086Y-88562461D01*
X39268462Y-88618225D01*
X39090228Y-88646455D01*
X38909772Y-88646455D01*
X38731538Y-88618225D01*
X38559914Y-88562461D01*
X38399127Y-88480536D01*
X38253135Y-88374467D01*
X38125533Y-88246865D01*
X38019464Y-88100873D01*
X37937539Y-87940086D01*
X37881775Y-87768462D01*
X37853545Y-87590228D01*
X37853545Y-87409772D01*
X37881775Y-87231538D01*
X37937539Y-87059914D01*
X38019464Y-86899127D01*
X38125533Y-86753135D01*
X38253135Y-86625533D01*
X38399127Y-86519464D01*
X38559914Y-86437539D01*
X38731538Y-86381775D01*
X38909772Y-86353545D01*
X39090228Y-86353545D01*
X39268462Y-86381775D01*
G37*
G36*
X7275519Y-73858019D02*
G01*
X7280962Y-73859923D01*
X7287300Y-73860605D01*
X7353918Y-73885452D01*
X7404944Y-73903307D01*
X7408167Y-73905686D01*
X7410331Y-73906493D01*
X7485197Y-73962537D01*
X7515269Y-73984731D01*
X7537480Y-74014826D01*
X7593506Y-74089668D01*
X7594312Y-74091830D01*
X7596693Y-74095056D01*
X7614557Y-74146108D01*
X7639394Y-74212699D01*
X7640075Y-74219034D01*
X7641981Y-74224481D01*
X7650000Y-74310000D01*
X7650000Y-75690000D01*
X7641981Y-75775519D01*
X7640074Y-75780966D01*
X7639394Y-75787300D01*
X7614562Y-75853875D01*
X7596693Y-75904944D01*
X7594311Y-75908170D01*
X7593506Y-75910331D01*
X7537532Y-75985102D01*
X7515269Y-76015269D01*
X7485102Y-76037532D01*
X7410331Y-76093506D01*
X7408170Y-76094311D01*
X7404944Y-76096693D01*
X7353875Y-76114562D01*
X7287300Y-76139394D01*
X7280966Y-76140074D01*
X7275519Y-76141981D01*
X7190000Y-76150000D01*
X5810000Y-76150000D01*
X5724481Y-76141981D01*
X5719034Y-76140075D01*
X5712699Y-76139394D01*
X5646108Y-76114557D01*
X5595056Y-76096693D01*
X5591830Y-76094312D01*
X5589668Y-76093506D01*
X5514826Y-76037480D01*
X5484731Y-76015269D01*
X5462537Y-75985197D01*
X5406493Y-75910331D01*
X5405686Y-75908167D01*
X5403307Y-75904944D01*
X5385452Y-75853918D01*
X5360605Y-75787300D01*
X5359923Y-75780962D01*
X5358019Y-75775519D01*
X5350000Y-75690000D01*
X5350000Y-74310000D01*
X5358019Y-74224481D01*
X5359923Y-74219038D01*
X5360605Y-74212699D01*
X5385457Y-74146065D01*
X5403307Y-74095056D01*
X5405685Y-74091833D01*
X5406493Y-74089668D01*
X5462589Y-74014731D01*
X5484731Y-73984731D01*
X5514731Y-73962589D01*
X5589668Y-73906493D01*
X5591833Y-73905685D01*
X5595056Y-73903307D01*
X5646065Y-73885457D01*
X5712699Y-73860605D01*
X5719038Y-73859923D01*
X5724481Y-73858019D01*
X5810000Y-73850000D01*
X7190000Y-73850000D01*
X7275519Y-73858019D01*
G37*
G36*
X19775519Y-73858019D02*
G01*
X19780962Y-73859923D01*
X19787300Y-73860605D01*
X19853918Y-73885452D01*
X19904944Y-73903307D01*
X19908167Y-73905686D01*
X19910331Y-73906493D01*
X19985197Y-73962537D01*
X20015269Y-73984731D01*
X20037480Y-74014826D01*
X20093506Y-74089668D01*
X20094312Y-74091830D01*
X20096693Y-74095056D01*
X20114557Y-74146108D01*
X20139394Y-74212699D01*
X20140075Y-74219034D01*
X20141981Y-74224481D01*
X20150000Y-74310000D01*
X20150000Y-75690000D01*
X20141981Y-75775519D01*
X20140074Y-75780966D01*
X20139394Y-75787300D01*
X20114562Y-75853875D01*
X20096693Y-75904944D01*
X20094311Y-75908170D01*
X20093506Y-75910331D01*
X20037532Y-75985102D01*
X20015269Y-76015269D01*
X19985102Y-76037532D01*
X19910331Y-76093506D01*
X19908170Y-76094311D01*
X19904944Y-76096693D01*
X19853875Y-76114562D01*
X19787300Y-76139394D01*
X19780966Y-76140074D01*
X19775519Y-76141981D01*
X19690000Y-76150000D01*
X18310000Y-76150000D01*
X18224481Y-76141981D01*
X18219034Y-76140075D01*
X18212699Y-76139394D01*
X18146108Y-76114557D01*
X18095056Y-76096693D01*
X18091830Y-76094312D01*
X18089668Y-76093506D01*
X18014826Y-76037480D01*
X17984731Y-76015269D01*
X17962537Y-75985197D01*
X17906493Y-75910331D01*
X17905686Y-75908167D01*
X17903307Y-75904944D01*
X17885452Y-75853918D01*
X17860605Y-75787300D01*
X17859923Y-75780962D01*
X17858019Y-75775519D01*
X17850000Y-75690000D01*
X17850000Y-74310000D01*
X17858019Y-74224481D01*
X17859923Y-74219038D01*
X17860605Y-74212699D01*
X17885457Y-74146065D01*
X17903307Y-74095056D01*
X17905685Y-74091833D01*
X17906493Y-74089668D01*
X17962589Y-74014731D01*
X17984731Y-73984731D01*
X18014731Y-73962589D01*
X18089668Y-73906493D01*
X18091833Y-73905685D01*
X18095056Y-73903307D01*
X18146065Y-73885457D01*
X18212699Y-73860605D01*
X18219038Y-73859923D01*
X18224481Y-73858019D01*
X18310000Y-73850000D01*
X19690000Y-73850000D01*
X19775519Y-73858019D01*
G37*
G36*
X11768462Y-73881775D02*
G01*
X11940086Y-73937539D01*
X12100873Y-74019464D01*
X12246865Y-74125533D01*
X12374467Y-74253135D01*
X12480536Y-74399127D01*
X12562461Y-74559914D01*
X12618225Y-74731538D01*
X12646455Y-74909772D01*
X12646455Y-75090228D01*
X12618225Y-75268462D01*
X12562461Y-75440086D01*
X12480536Y-75600873D01*
X12374467Y-75746865D01*
X12246865Y-75874467D01*
X12100873Y-75980536D01*
X11940086Y-76062461D01*
X11768462Y-76118225D01*
X11590228Y-76146455D01*
X11409772Y-76146455D01*
X11231538Y-76118225D01*
X11059914Y-76062461D01*
X10899127Y-75980536D01*
X10753135Y-75874467D01*
X10625533Y-75746865D01*
X10519464Y-75600873D01*
X10437539Y-75440086D01*
X10381775Y-75268462D01*
X10353545Y-75090228D01*
X10353545Y-74909772D01*
X10381775Y-74731538D01*
X10437539Y-74559914D01*
X10519464Y-74399127D01*
X10625533Y-74253135D01*
X10753135Y-74125533D01*
X10899127Y-74019464D01*
X11059914Y-73937539D01*
X11231538Y-73881775D01*
X11409772Y-73853545D01*
X11590228Y-73853545D01*
X11768462Y-73881775D01*
G37*
G36*
X24268462Y-73881775D02*
G01*
X24440086Y-73937539D01*
X24600873Y-74019464D01*
X24746865Y-74125533D01*
X24874467Y-74253135D01*
X24980536Y-74399127D01*
X25062461Y-74559914D01*
X25118225Y-74731538D01*
X25146455Y-74909772D01*
X25146455Y-75090228D01*
X25118225Y-75268462D01*
X25062461Y-75440086D01*
X24980536Y-75600873D01*
X24874467Y-75746865D01*
X24746865Y-75874467D01*
X24600873Y-75980536D01*
X24440086Y-76062461D01*
X24268462Y-76118225D01*
X24090228Y-76146455D01*
X23909772Y-76146455D01*
X23731538Y-76118225D01*
X23559914Y-76062461D01*
X23399127Y-75980536D01*
X23253135Y-75874467D01*
X23125533Y-75746865D01*
X23019464Y-75600873D01*
X22937539Y-75440086D01*
X22881775Y-75268462D01*
X22853545Y-75090228D01*
X22853545Y-74909772D01*
X22881775Y-74731538D01*
X22937539Y-74559914D01*
X23019464Y-74399127D01*
X23125533Y-74253135D01*
X23253135Y-74125533D01*
X23399127Y-74019464D01*
X23559914Y-73937539D01*
X23731538Y-73881775D01*
X23909772Y-73853545D01*
X24090228Y-73853545D01*
X24268462Y-73881775D01*
G37*
G36*
X36739485Y-73710524D02*
G01*
X36888902Y-73772415D01*
X37023374Y-73862266D01*
X37137734Y-73976626D01*
X37227585Y-74111098D01*
X37289476Y-74260515D01*
X37321027Y-74419136D01*
X37321027Y-74580864D01*
X37289476Y-74739485D01*
X37227585Y-74888902D01*
X37137734Y-75023374D01*
X37023374Y-75137734D01*
X36888902Y-75227585D01*
X36739485Y-75289476D01*
X36580864Y-75321027D01*
X36419136Y-75321027D01*
X36260515Y-75289476D01*
X36111098Y-75227585D01*
X35976626Y-75137734D01*
X35862266Y-75023374D01*
X35772415Y-74888902D01*
X35710524Y-74739485D01*
X35678973Y-74580864D01*
X35678973Y-74419136D01*
X35710524Y-74260515D01*
X35772415Y-74111098D01*
X35862266Y-73976626D01*
X35976626Y-73862266D01*
X36111098Y-73772415D01*
X36260515Y-73710524D01*
X36419136Y-73678973D01*
X36580864Y-73678973D01*
X36739485Y-73710524D01*
G37*
G36*
X38403117Y-69214785D02*
G01*
X38534857Y-69266737D01*
X38647696Y-69352304D01*
X38733263Y-69465143D01*
X38785215Y-69596883D01*
X38800000Y-69720000D01*
X38800000Y-71280000D01*
X38785215Y-71403117D01*
X38733263Y-71534857D01*
X38647696Y-71647696D01*
X38534857Y-71733263D01*
X38403117Y-71785215D01*
X38280000Y-71800000D01*
X36720000Y-71800000D01*
X36596883Y-71785215D01*
X36465143Y-71733263D01*
X36352304Y-71647696D01*
X36266737Y-71534857D01*
X36214785Y-71403117D01*
X36200000Y-71280000D01*
X36200000Y-69720000D01*
X36214785Y-69596883D01*
X36266737Y-69465143D01*
X36352304Y-69352304D01*
X36465143Y-69266737D01*
X36596883Y-69214785D01*
X36720000Y-69200000D01*
X38280000Y-69200000D01*
X38403117Y-69214785D01*
G37*
G36*
X41603479Y-69235919D02*
G01*
X41797488Y-69298957D01*
X41979248Y-69391568D01*
X42144282Y-69511472D01*
X42288528Y-69655718D01*
X42408432Y-69820752D01*
X42501043Y-70002512D01*
X42564081Y-70196521D01*
X42595993Y-70398003D01*
X42595993Y-70601997D01*
X42564081Y-70803479D01*
X42501043Y-70997488D01*
X42408432Y-71179248D01*
X42288528Y-71344282D01*
X42144282Y-71488528D01*
X41979248Y-71608432D01*
X41797488Y-71701043D01*
X41603479Y-71764081D01*
X41401997Y-71795993D01*
X41198003Y-71795993D01*
X40996521Y-71764081D01*
X40802512Y-71701043D01*
X40620752Y-71608432D01*
X40455718Y-71488528D01*
X40311472Y-71344282D01*
X40191568Y-71179248D01*
X40098957Y-70997488D01*
X40035919Y-70803479D01*
X40004007Y-70601997D01*
X40004007Y-70398003D01*
X40035919Y-70196521D01*
X40098957Y-70002512D01*
X40191568Y-69820752D01*
X40311472Y-69655718D01*
X40455718Y-69511472D01*
X40620752Y-69391568D01*
X40802512Y-69298957D01*
X40996521Y-69235919D01*
X41198003Y-69204007D01*
X41401997Y-69204007D01*
X41603479Y-69235919D01*
G37*
G36*
X27051801Y-62907671D02*
G01*
X27175598Y-62950989D01*
X27281127Y-63028873D01*
X27359011Y-63134402D01*
X27402329Y-63258199D01*
X27410000Y-63340000D01*
X27410000Y-64660000D01*
X27402329Y-64741801D01*
X27359011Y-64865598D01*
X27281127Y-64971127D01*
X27175598Y-65049011D01*
X27051801Y-65092329D01*
X26970000Y-65100000D01*
X25650000Y-65100000D01*
X25568199Y-65092329D01*
X25444402Y-65049011D01*
X25338873Y-64971127D01*
X25260989Y-64865598D01*
X25217671Y-64741801D01*
X25210000Y-64660000D01*
X25210000Y-63340000D01*
X25217671Y-63258199D01*
X25260989Y-63134402D01*
X25338873Y-63028873D01*
X25444402Y-62950989D01*
X25568199Y-62907671D01*
X25650000Y-62900000D01*
X26970000Y-62900000D01*
X27051801Y-62907671D01*
G37*
G36*
X18946790Y-62930393D02*
G01*
X19110952Y-62983733D01*
X19264748Y-63062096D01*
X19404393Y-63163553D01*
X19526447Y-63285607D01*
X19627904Y-63425252D01*
X19706267Y-63579048D01*
X19759607Y-63743210D01*
X19786609Y-63913695D01*
X19786609Y-64086305D01*
X19759607Y-64256790D01*
X19706267Y-64420952D01*
X19627904Y-64574748D01*
X19526447Y-64714393D01*
X19404393Y-64836447D01*
X19264748Y-64937904D01*
X19110952Y-65016267D01*
X18946790Y-65069607D01*
X18776305Y-65096609D01*
X18603695Y-65096609D01*
X18433210Y-65069607D01*
X18269048Y-65016267D01*
X18115252Y-64937904D01*
X17975607Y-64836447D01*
X17853553Y-64714393D01*
X17752096Y-64574748D01*
X17673733Y-64420952D01*
X17620393Y-64256790D01*
X17593391Y-64086305D01*
X17593391Y-63913695D01*
X17620393Y-63743210D01*
X17673733Y-63579048D01*
X17752096Y-63425252D01*
X17853553Y-63285607D01*
X17975607Y-63163553D01*
X18115252Y-63062096D01*
X18269048Y-62983733D01*
X18433210Y-62930393D01*
X18603695Y-62903391D01*
X18776305Y-62903391D01*
X18946790Y-62930393D01*
G37*
G36*
X21486790Y-62930393D02*
G01*
X21650952Y-62983733D01*
X21804748Y-63062096D01*
X21944393Y-63163553D01*
X22066447Y-63285607D01*
X22167904Y-63425252D01*
X22246267Y-63579048D01*
X22299607Y-63743210D01*
X22326609Y-63913695D01*
X22326609Y-64086305D01*
X22299607Y-64256790D01*
X22246267Y-64420952D01*
X22167904Y-64574748D01*
X22066447Y-64714393D01*
X21944393Y-64836447D01*
X21804748Y-64937904D01*
X21650952Y-65016267D01*
X21486790Y-65069607D01*
X21316305Y-65096609D01*
X21143695Y-65096609D01*
X20973210Y-65069607D01*
X20809048Y-65016267D01*
X20655252Y-64937904D01*
X20515607Y-64836447D01*
X20393553Y-64714393D01*
X20292096Y-64574748D01*
X20213733Y-64420952D01*
X20160393Y-64256790D01*
X20133391Y-64086305D01*
X20133391Y-63913695D01*
X20160393Y-63743210D01*
X20213733Y-63579048D01*
X20292096Y-63425252D01*
X20393553Y-63285607D01*
X20515607Y-63163553D01*
X20655252Y-63062096D01*
X20809048Y-62983733D01*
X20973210Y-62930393D01*
X21143695Y-62903391D01*
X21316305Y-62903391D01*
X21486790Y-62930393D01*
G37*
G36*
X24026790Y-62930393D02*
G01*
X24190952Y-62983733D01*
X24344748Y-63062096D01*
X24484393Y-63163553D01*
X24606447Y-63285607D01*
X24707904Y-63425252D01*
X24786267Y-63579048D01*
X24839607Y-63743210D01*
X24866609Y-63913695D01*
X24866609Y-64086305D01*
X24839607Y-64256790D01*
X24786267Y-64420952D01*
X24707904Y-64574748D01*
X24606447Y-64714393D01*
X24484393Y-64836447D01*
X24344748Y-64937904D01*
X24190952Y-65016267D01*
X24026790Y-65069607D01*
X23856305Y-65096609D01*
X23683695Y-65096609D01*
X23513210Y-65069607D01*
X23349048Y-65016267D01*
X23195252Y-64937904D01*
X23055607Y-64836447D01*
X22933553Y-64714393D01*
X22832096Y-64574748D01*
X22753733Y-64420952D01*
X22700393Y-64256790D01*
X22673391Y-64086305D01*
X22673391Y-63913695D01*
X22700393Y-63743210D01*
X22753733Y-63579048D01*
X22832096Y-63425252D01*
X22933553Y-63285607D01*
X23055607Y-63163553D01*
X23195252Y-63062096D01*
X23349048Y-62983733D01*
X23513210Y-62930393D01*
X23683695Y-62903391D01*
X23856305Y-62903391D01*
X24026790Y-62930393D01*
G37*
G36*
X38403117Y-21214785D02*
G01*
X38534857Y-21266737D01*
X38647696Y-21352304D01*
X38733263Y-21465143D01*
X38785215Y-21596883D01*
X38800000Y-21720000D01*
X38800000Y-23280000D01*
X38785215Y-23403117D01*
X38733263Y-23534857D01*
X38647696Y-23647696D01*
X38534857Y-23733263D01*
X38403117Y-23785215D01*
X38280000Y-23800000D01*
X36720000Y-23800000D01*
X36596883Y-23785215D01*
X36465143Y-23733263D01*
X36352304Y-23647696D01*
X36266737Y-23534857D01*
X36214785Y-23403117D01*
X36200000Y-23280000D01*
X36200000Y-21720000D01*
X36214785Y-21596883D01*
X36266737Y-21465143D01*
X36352304Y-21352304D01*
X36465143Y-21266737D01*
X36596883Y-21214785D01*
X36720000Y-21200000D01*
X38280000Y-21200000D01*
X38403117Y-21214785D01*
G37*
G36*
X41603479Y-21235919D02*
G01*
X41797488Y-21298957D01*
X41979248Y-21391568D01*
X42144282Y-21511472D01*
X42288528Y-21655718D01*
X42408432Y-21820752D01*
X42501043Y-22002512D01*
X42564081Y-22196521D01*
X42595993Y-22398003D01*
X42595993Y-22601997D01*
X42564081Y-22803479D01*
X42501043Y-22997488D01*
X42408432Y-23179248D01*
X42288528Y-23344282D01*
X42144282Y-23488528D01*
X41979248Y-23608432D01*
X41797488Y-23701043D01*
X41603479Y-23764081D01*
X41401997Y-23795993D01*
X41198003Y-23795993D01*
X40996521Y-23764081D01*
X40802512Y-23701043D01*
X40620752Y-23608432D01*
X40455718Y-23488528D01*
X40311472Y-23344282D01*
X40191568Y-23179248D01*
X40098957Y-22997488D01*
X40035919Y-22803479D01*
X40004007Y-22601997D01*
X40004007Y-22398003D01*
X40035919Y-22196521D01*
X40098957Y-22002512D01*
X40191568Y-21820752D01*
X40311472Y-21655718D01*
X40455718Y-21511472D01*
X40620752Y-21391568D01*
X40802512Y-21298957D01*
X40996521Y-21235919D01*
X41198003Y-21204007D01*
X41401997Y-21204007D01*
X41603479Y-21235919D01*
G37*
G36*
X15403117Y-16714785D02*
G01*
X15534857Y-16766737D01*
X15647696Y-16852304D01*
X15733263Y-16965143D01*
X15785215Y-17096883D01*
X15800000Y-17220000D01*
X15800000Y-18780000D01*
X15785215Y-18903117D01*
X15733263Y-19034857D01*
X15647696Y-19147696D01*
X15534857Y-19233263D01*
X15403117Y-19285215D01*
X15280000Y-19300000D01*
X13720000Y-19300000D01*
X13596883Y-19285215D01*
X13465143Y-19233263D01*
X13352304Y-19147696D01*
X13266737Y-19034857D01*
X13214785Y-18903117D01*
X13200000Y-18780000D01*
X13200000Y-17220000D01*
X13214785Y-17096883D01*
X13266737Y-16965143D01*
X13352304Y-16852304D01*
X13465143Y-16766737D01*
X13596883Y-16714785D01*
X13720000Y-16700000D01*
X15280000Y-16700000D01*
X15403117Y-16714785D01*
G37*
G36*
X18603479Y-16735919D02*
G01*
X18797488Y-16798957D01*
X18979248Y-16891568D01*
X19144282Y-17011472D01*
X19288528Y-17155718D01*
X19408432Y-17320752D01*
X19501043Y-17502512D01*
X19564081Y-17696521D01*
X19595993Y-17898003D01*
X19595993Y-18101997D01*
X19564081Y-18303479D01*
X19501043Y-18497488D01*
X19408432Y-18679248D01*
X19288528Y-18844282D01*
X19144282Y-18988528D01*
X18979248Y-19108432D01*
X18797488Y-19201043D01*
X18603479Y-19264081D01*
X18401997Y-19295993D01*
X18198003Y-19295993D01*
X17996521Y-19264081D01*
X17802512Y-19201043D01*
X17620752Y-19108432D01*
X17455718Y-18988528D01*
X17311472Y-18844282D01*
X17191568Y-18679248D01*
X17098957Y-18497488D01*
X17035919Y-18303479D01*
X17004007Y-18101997D01*
X17004007Y-17898003D01*
X17035919Y-17696521D01*
X17098957Y-17502512D01*
X17191568Y-17320752D01*
X17311472Y-17155718D01*
X17455718Y-17011472D01*
X17620752Y-16891568D01*
X17802512Y-16798957D01*
X17996521Y-16735919D01*
X18198003Y-16704007D01*
X18401997Y-16704007D01*
X18603479Y-16735919D01*
G37*
G36*
X2741801Y-14907671D02*
G01*
X2865598Y-14950989D01*
X2971127Y-15028873D01*
X3049011Y-15134402D01*
X3092329Y-15258199D01*
X3100000Y-15340000D01*
X3100000Y-16660000D01*
X3092329Y-16741801D01*
X3049011Y-16865598D01*
X2971127Y-16971127D01*
X2865598Y-17049011D01*
X2741801Y-17092329D01*
X2660000Y-17100000D01*
X1340000Y-17100000D01*
X1258199Y-17092329D01*
X1134402Y-17049011D01*
X1028873Y-16971127D01*
X950989Y-16865598D01*
X907671Y-16741801D01*
X900000Y-16660000D01*
X900000Y-15340000D01*
X907671Y-15258199D01*
X950989Y-15134402D01*
X1028873Y-15028873D01*
X1134402Y-14950989D01*
X1258199Y-14907671D01*
X1340000Y-14900000D01*
X2660000Y-14900000D01*
X2741801Y-14907671D01*
G37*
G36*
X4796790Y-14930393D02*
G01*
X4960952Y-14983733D01*
X5114748Y-15062096D01*
X5254393Y-15163553D01*
X5376447Y-15285607D01*
X5477904Y-15425252D01*
X5556267Y-15579048D01*
X5609607Y-15743210D01*
X5636609Y-15913695D01*
X5636609Y-16086305D01*
X5609607Y-16256790D01*
X5556267Y-16420952D01*
X5477904Y-16574748D01*
X5376447Y-16714393D01*
X5254393Y-16836447D01*
X5114748Y-16937904D01*
X4960952Y-17016267D01*
X4796790Y-17069607D01*
X4626305Y-17096609D01*
X4453695Y-17096609D01*
X4283210Y-17069607D01*
X4119048Y-17016267D01*
X3965252Y-16937904D01*
X3825607Y-16836447D01*
X3703553Y-16714393D01*
X3602096Y-16574748D01*
X3523733Y-16420952D01*
X3470393Y-16256790D01*
X3443391Y-16086305D01*
X3443391Y-15913695D01*
X3470393Y-15743210D01*
X3523733Y-15579048D01*
X3602096Y-15425252D01*
X3703553Y-15285607D01*
X3825607Y-15163553D01*
X3965252Y-15062096D01*
X4119048Y-14983733D01*
X4283210Y-14930393D01*
X4453695Y-14903391D01*
X4626305Y-14903391D01*
X4796790Y-14930393D01*
G37*
G36*
X2741801Y-8907671D02*
G01*
X2865598Y-8950989D01*
X2971127Y-9028873D01*
X3049011Y-9134402D01*
X3092329Y-9258199D01*
X3100000Y-9340000D01*
X3100000Y-10660000D01*
X3092329Y-10741801D01*
X3049011Y-10865598D01*
X2971127Y-10971127D01*
X2865598Y-11049011D01*
X2741801Y-11092329D01*
X2660000Y-11100000D01*
X1340000Y-11100000D01*
X1258199Y-11092329D01*
X1134402Y-11049011D01*
X1028873Y-10971127D01*
X950989Y-10865598D01*
X907671Y-10741801D01*
X900000Y-10660000D01*
X900000Y-9340000D01*
X907671Y-9258199D01*
X950989Y-9134402D01*
X1028873Y-9028873D01*
X1134402Y-8950989D01*
X1258199Y-8907671D01*
X1340000Y-8900000D01*
X2660000Y-8900000D01*
X2741801Y-8907671D01*
G37*
G36*
X4796790Y-8930393D02*
G01*
X4960952Y-8983733D01*
X5114748Y-9062096D01*
X5254393Y-9163553D01*
X5376447Y-9285607D01*
X5477904Y-9425252D01*
X5556267Y-9579048D01*
X5609607Y-9743210D01*
X5636609Y-9913695D01*
X5636609Y-10086305D01*
X5609607Y-10256790D01*
X5556267Y-10420952D01*
X5477904Y-10574748D01*
X5376447Y-10714393D01*
X5254393Y-10836447D01*
X5114748Y-10937904D01*
X4960952Y-11016267D01*
X4796790Y-11069607D01*
X4626305Y-11096609D01*
X4453695Y-11096609D01*
X4283210Y-11069607D01*
X4119048Y-11016267D01*
X3965252Y-10937904D01*
X3825607Y-10836447D01*
X3703553Y-10714393D01*
X3602096Y-10574748D01*
X3523733Y-10420952D01*
X3470393Y-10256790D01*
X3443391Y-10086305D01*
X3443391Y-9913695D01*
X3470393Y-9743210D01*
X3523733Y-9579048D01*
X3602096Y-9425252D01*
X3703553Y-9285607D01*
X3825607Y-9163553D01*
X3965252Y-9062096D01*
X4119048Y-8983733D01*
X4283210Y-8930393D01*
X4453695Y-8903391D01*
X4626305Y-8903391D01*
X4796790Y-8930393D01*
G37*
G36*
X7336790Y-8930393D02*
G01*
X7500952Y-8983733D01*
X7654748Y-9062096D01*
X7794393Y-9163553D01*
X7916447Y-9285607D01*
X8017904Y-9425252D01*
X8096267Y-9579048D01*
X8149607Y-9743210D01*
X8176609Y-9913695D01*
X8176609Y-10086305D01*
X8149607Y-10256790D01*
X8096267Y-10420952D01*
X8017904Y-10574748D01*
X7916447Y-10714393D01*
X7794393Y-10836447D01*
X7654748Y-10937904D01*
X7500952Y-11016267D01*
X7336790Y-11069607D01*
X7166305Y-11096609D01*
X6993695Y-11096609D01*
X6823210Y-11069607D01*
X6659048Y-11016267D01*
X6505252Y-10937904D01*
X6365607Y-10836447D01*
X6243553Y-10714393D01*
X6142096Y-10574748D01*
X6063733Y-10420952D01*
X6010393Y-10256790D01*
X5983391Y-10086305D01*
X5983391Y-9913695D01*
X6010393Y-9743210D01*
X6063733Y-9579048D01*
X6142096Y-9425252D01*
X6243553Y-9285607D01*
X6365607Y-9163553D01*
X6505252Y-9062096D01*
X6659048Y-8983733D01*
X6823210Y-8930393D01*
X6993695Y-8903391D01*
X7166305Y-8903391D01*
X7336790Y-8930393D01*
G37*
G36*
X4373513Y-2444208D02*
G01*
X4612293Y-2521793D01*
X4835998Y-2635776D01*
X5039117Y-2783350D01*
X5216650Y-2960883D01*
X5364224Y-3164002D01*
X5478207Y-3387707D01*
X5555792Y-3626487D01*
X5595068Y-3874465D01*
X5595068Y-4125535D01*
X5555792Y-4373513D01*
X5478207Y-4612293D01*
X5364224Y-4835998D01*
X5216650Y-5039117D01*
X5039117Y-5216650D01*
X4835998Y-5364224D01*
X4612293Y-5478207D01*
X4373513Y-5555792D01*
X4125535Y-5595068D01*
X3874465Y-5595068D01*
X3626487Y-5555792D01*
X3387707Y-5478207D01*
X3164002Y-5364224D01*
X2960883Y-5216650D01*
X2783350Y-5039117D01*
X2635776Y-4835998D01*
X2521793Y-4612293D01*
X2444208Y-4373513D01*
X2404932Y-4125535D01*
X2404932Y-3874465D01*
X2444208Y-3626487D01*
X2521793Y-3387707D01*
X2635776Y-3164002D01*
X2783350Y-2960883D01*
X2960883Y-2783350D01*
X3164002Y-2635776D01*
X3387707Y-2521793D01*
X3626487Y-2444208D01*
X3874465Y-2404932D01*
X4125535Y-2404932D01*
X4373513Y-2444208D01*
G37*
G36*
X41373513Y-2444208D02*
G01*
X41612293Y-2521793D01*
X41835998Y-2635776D01*
X42039117Y-2783350D01*
X42216650Y-2960883D01*
X42364224Y-3164002D01*
X42478207Y-3387707D01*
X42555792Y-3626487D01*
X42595068Y-3874465D01*
X42595068Y-4125535D01*
X42555792Y-4373513D01*
X42478207Y-4612293D01*
X42364224Y-4835998D01*
X42216650Y-5039117D01*
X42039117Y-5216650D01*
X41835998Y-5364224D01*
X41612293Y-5478207D01*
X41373513Y-5555792D01*
X41125535Y-5595068D01*
X40874465Y-5595068D01*
X40626487Y-5555792D01*
X40387707Y-5478207D01*
X40164002Y-5364224D01*
X39960883Y-5216650D01*
X39783350Y-5039117D01*
X39635776Y-4835998D01*
X39521793Y-4612293D01*
X39444208Y-4373513D01*
X39404932Y-4125535D01*
X39404932Y-3874465D01*
X39444208Y-3626487D01*
X39521793Y-3387707D01*
X39635776Y-3164002D01*
X39783350Y-2960883D01*
X39960883Y-2783350D01*
X40164002Y-2635776D01*
X40387707Y-2521793D01*
X40626487Y-2444208D01*
X40874465Y-2404932D01*
X41125535Y-2404932D01*
X41373513Y-2444208D01*
G37*
%LPD*%
M02*
