%TF.GenerationSoftware,KiCad,Pcbnew,10.0.4*%
%TF.CreationDate,2026-08-30T14:03:13-04:00*%
%TF.ProjectId,walkiepcb,77616c6b-6965-4706-9362-2e6b69636164,D-WROOM*%
%TF.SameCoordinates,Original*%
%TF.FileFunction,Soldermask,Bot*%
%TF.FilePolarity,Negative*%
%FSLAX46Y46*%
G04 Gerber Fmt 4.6, Leading zero omitted, Abs format (unit mm)*
G04 Created by KiCad (PCBNEW 10.0.4) date 2026-08-30 14:03:13*
%MOMM*%
%LPD*%
G01*
G04 APERTURE LIST*
G04 APERTURE END LIST*
G36*
X18371342Y-96138060D02*
G01*
X18484381Y-96203323D01*
X18576677Y-96295619D01*
X18641940Y-96408658D01*
X18675722Y-96534737D01*
X18680000Y-96600000D01*
X18680000Y-97200000D01*
X18675722Y-97265263D01*
X18641940Y-97391342D01*
X18576677Y-97504381D01*
X18484381Y-97596677D01*
X18371342Y-97661940D01*
X18245263Y-97695722D01*
X18114737Y-97695722D01*
X17988658Y-97661940D01*
X17875619Y-97596677D01*
X17783323Y-97504381D01*
X17718060Y-97391342D01*
X17684278Y-97265263D01*
X17680000Y-97200000D01*
X17680000Y-96600000D01*
X17684278Y-96534737D01*
X17718060Y-96408658D01*
X17783323Y-96295619D01*
X17875619Y-96203323D01*
X17988658Y-96138060D01*
X18114737Y-96104278D01*
X18245263Y-96104278D01*
X18371342Y-96138060D01*
G37*
G36*
X27011342Y-96138060D02*
G01*
X27124381Y-96203323D01*
X27216677Y-96295619D01*
X27281940Y-96408658D01*
X27315722Y-96534737D01*
X27320000Y-96600000D01*
X27320000Y-97200000D01*
X27315722Y-97265263D01*
X27281940Y-97391342D01*
X27216677Y-97504381D01*
X27124381Y-97596677D01*
X27011342Y-97661940D01*
X26885263Y-97695722D01*
X26754737Y-97695722D01*
X26628658Y-97661940D01*
X26515619Y-97596677D01*
X26423323Y-97504381D01*
X26358060Y-97391342D01*
X26324278Y-97265263D01*
X26320000Y-97200000D01*
X26320000Y-96600000D01*
X26324278Y-96534737D01*
X26358060Y-96408658D01*
X26423323Y-96295619D01*
X26515619Y-96203323D01*
X26628658Y-96138060D01*
X26754737Y-96104278D01*
X26885263Y-96104278D01*
X27011342Y-96138060D01*
G37*
G36*
X4373513Y-94444208D02*
G01*
X4612293Y-94521793D01*
X4835998Y-94635776D01*
X5039117Y-94783350D01*
X5216650Y-94960883D01*
X5364224Y-95164002D01*
X5478207Y-95387707D01*
X5555792Y-95626487D01*
X5595068Y-95874465D01*
X5595068Y-96125535D01*
X5555792Y-96373513D01*
X5478207Y-96612293D01*
X5364224Y-96835998D01*
X5216650Y-97039117D01*
X5039117Y-97216650D01*
X4835998Y-97364224D01*
X4612293Y-97478207D01*
X4373513Y-97555792D01*
X4125535Y-97595068D01*
X3874465Y-97595068D01*
X3626487Y-97555792D01*
X3387707Y-97478207D01*
X3164002Y-97364224D01*
X2960883Y-97216650D01*
X2783350Y-97039117D01*
X2635776Y-96835998D01*
X2521793Y-96612293D01*
X2444208Y-96373513D01*
X2404932Y-96125535D01*
X2404932Y-95874465D01*
X2444208Y-95626487D01*
X2521793Y-95387707D01*
X2635776Y-95164002D01*
X2783350Y-94960883D01*
X2960883Y-94783350D01*
X3164002Y-94635776D01*
X3387707Y-94521793D01*
X3626487Y-94444208D01*
X3874465Y-94404932D01*
X4125535Y-94404932D01*
X4373513Y-94444208D01*
G37*
G36*
X41373513Y-94444208D02*
G01*
X41612293Y-94521793D01*
X41835998Y-94635776D01*
X42039117Y-94783350D01*
X42216650Y-94960883D01*
X42364224Y-95164002D01*
X42478207Y-95387707D01*
X42555792Y-95626487D01*
X42595068Y-95874465D01*
X42595068Y-96125535D01*
X42555792Y-96373513D01*
X42478207Y-96612293D01*
X42364224Y-96835998D01*
X42216650Y-97039117D01*
X42039117Y-97216650D01*
X41835998Y-97364224D01*
X41612293Y-97478207D01*
X41373513Y-97555792D01*
X41125535Y-97595068D01*
X40874465Y-97595068D01*
X40626487Y-97555792D01*
X40387707Y-97478207D01*
X40164002Y-97364224D01*
X39960883Y-97216650D01*
X39783350Y-97039117D01*
X39635776Y-96835998D01*
X39521793Y-96612293D01*
X39444208Y-96373513D01*
X39404932Y-96125535D01*
X39404932Y-95874465D01*
X39444208Y-95626487D01*
X39521793Y-95387707D01*
X39635776Y-95164002D01*
X39783350Y-94960883D01*
X39960883Y-94783350D01*
X40164002Y-94635776D01*
X40387707Y-94521793D01*
X40626487Y-94444208D01*
X40874465Y-94404932D01*
X41125535Y-94404932D01*
X41373513Y-94444208D01*
G37*
G36*
X18371342Y-91708060D02*
G01*
X18484381Y-91773323D01*
X18576677Y-91865619D01*
X18641940Y-91978658D01*
X18675722Y-92104737D01*
X18680000Y-92170000D01*
X18680000Y-93270000D01*
X18675722Y-93335263D01*
X18641940Y-93461342D01*
X18576677Y-93574381D01*
X18484381Y-93666677D01*
X18371342Y-93731940D01*
X18245263Y-93765722D01*
X18114737Y-93765722D01*
X17988658Y-93731940D01*
X17875619Y-93666677D01*
X17783323Y-93574381D01*
X17718060Y-93461342D01*
X17684278Y-93335263D01*
X17680000Y-93270000D01*
X17680000Y-92170000D01*
X17684278Y-92104737D01*
X17718060Y-91978658D01*
X17783323Y-91865619D01*
X17875619Y-91773323D01*
X17988658Y-91708060D01*
X18114737Y-91674278D01*
X18245263Y-91674278D01*
X18371342Y-91708060D01*
G37*
G36*
X27011342Y-91708060D02*
G01*
X27124381Y-91773323D01*
X27216677Y-91865619D01*
X27281940Y-91978658D01*
X27315722Y-92104737D01*
X27320000Y-92170000D01*
X27320000Y-93270000D01*
X27315722Y-93335263D01*
X27281940Y-93461342D01*
X27216677Y-93574381D01*
X27124381Y-93666677D01*
X27011342Y-93731940D01*
X26885263Y-93765722D01*
X26754737Y-93765722D01*
X26628658Y-93731940D01*
X26515619Y-93666677D01*
X26423323Y-93574381D01*
X26358060Y-93461342D01*
X26324278Y-93335263D01*
X26320000Y-93270000D01*
X26320000Y-92170000D01*
X26324278Y-92104737D01*
X26358060Y-91978658D01*
X26423323Y-91865619D01*
X26515619Y-91773323D01*
X26628658Y-91708060D01*
X26754737Y-91674278D01*
X26885263Y-91674278D01*
X27011342Y-91708060D01*
G37*
G36*
X19734372Y-92949739D02*
G01*
X19807847Y-92992160D01*
X19867840Y-93052153D01*
X19910261Y-93125628D01*
X19932220Y-93207579D01*
X19932220Y-93292421D01*
X19910261Y-93374372D01*
X19867840Y-93447847D01*
X19807847Y-93507840D01*
X19734372Y-93550261D01*
X19652421Y-93572220D01*
X19567579Y-93572220D01*
X19485628Y-93550261D01*
X19412153Y-93507840D01*
X19352160Y-93447847D01*
X19309739Y-93374372D01*
X19287780Y-93292421D01*
X19287780Y-93207579D01*
X19309739Y-93125628D01*
X19352160Y-93052153D01*
X19412153Y-92992160D01*
X19485628Y-92949739D01*
X19567579Y-92927780D01*
X19652421Y-92927780D01*
X19734372Y-92949739D01*
G37*
G36*
X25514372Y-92949739D02*
G01*
X25587847Y-92992160D01*
X25647840Y-93052153D01*
X25690261Y-93125628D01*
X25712220Y-93207579D01*
X25712220Y-93292421D01*
X25690261Y-93374372D01*
X25647840Y-93447847D01*
X25587847Y-93507840D01*
X25514372Y-93550261D01*
X25432421Y-93572220D01*
X25347579Y-93572220D01*
X25265628Y-93550261D01*
X25192153Y-93507840D01*
X25132160Y-93447847D01*
X25089739Y-93374372D01*
X25067780Y-93292421D01*
X25067780Y-93207579D01*
X25089739Y-93125628D01*
X25132160Y-93052153D01*
X25192153Y-92992160D01*
X25265628Y-92949739D01*
X25347579Y-92927780D01*
X25432421Y-92927780D01*
X25514372Y-92949739D01*
G37*
G36*
X7275519Y-86358019D02*
G01*
X7280962Y-86359923D01*
X7287300Y-86360605D01*
X7353918Y-86385452D01*
X7404944Y-86403307D01*
X7408167Y-86405686D01*
X7410331Y-86406493D01*
X7485197Y-86462537D01*
X7515269Y-86484731D01*
X7537480Y-86514826D01*
X7593506Y-86589668D01*
X7594312Y-86591830D01*
X7596693Y-86595056D01*
X7614557Y-86646108D01*
X7639394Y-86712699D01*
X7640075Y-86719034D01*
X7641981Y-86724481D01*
X7650000Y-86810000D01*
X7650000Y-88190000D01*
X7641981Y-88275519D01*
X7640074Y-88280966D01*
X7639394Y-88287300D01*
X7614562Y-88353875D01*
X7596693Y-88404944D01*
X7594311Y-88408170D01*
X7593506Y-88410331D01*
X7537532Y-88485102D01*
X7515269Y-88515269D01*
X7485102Y-88537532D01*
X7410331Y-88593506D01*
X7408170Y-88594311D01*
X7404944Y-88596693D01*
X7353875Y-88614562D01*
X7287300Y-88639394D01*
X7280966Y-88640074D01*
X7275519Y-88641981D01*
X7190000Y-88650000D01*
X5810000Y-88650000D01*
X5724481Y-88641981D01*
X5719034Y-88640075D01*
X5712699Y-88639394D01*
X5646108Y-88614557D01*
X5595056Y-88596693D01*
X5591830Y-88594312D01*
X5589668Y-88593506D01*
X5514826Y-88537480D01*
X5484731Y-88515269D01*
X5462537Y-88485197D01*
X5406493Y-88410331D01*
X5405686Y-88408167D01*
X5403307Y-88404944D01*
X5385452Y-88353918D01*
X5360605Y-88287300D01*
X5359923Y-88280962D01*
X5358019Y-88275519D01*
X5350000Y-88190000D01*
X5350000Y-86810000D01*
X5358019Y-86724481D01*
X5359923Y-86719038D01*
X5360605Y-86712699D01*
X5385457Y-86646065D01*
X5403307Y-86595056D01*
X5405685Y-86591833D01*
X5406493Y-86589668D01*
X5462589Y-86514731D01*
X5484731Y-86484731D01*
X5514731Y-86462589D01*
X5589668Y-86406493D01*
X5591833Y-86405685D01*
X5595056Y-86403307D01*
X5646065Y-86385457D01*
X5712699Y-86360605D01*
X5719038Y-86359923D01*
X5724481Y-86358019D01*
X5810000Y-86350000D01*
X7190000Y-86350000D01*
X7275519Y-86358019D01*
G37*
G36*
X19775519Y-86358019D02*
G01*
X19780962Y-86359923D01*
X19787300Y-86360605D01*
X19853918Y-86385452D01*
X19904944Y-86403307D01*
X19908167Y-86405686D01*
X19910331Y-86406493D01*
X19985197Y-86462537D01*
X20015269Y-86484731D01*
X20037480Y-86514826D01*
X20093506Y-86589668D01*
X20094312Y-86591830D01*
X20096693Y-86595056D01*
X20114557Y-86646108D01*
X20139394Y-86712699D01*
X20140075Y-86719034D01*
X20141981Y-86724481D01*
X20150000Y-86810000D01*
X20150000Y-88190000D01*
X20141981Y-88275519D01*
X20140074Y-88280966D01*
X20139394Y-88287300D01*
X20114562Y-88353875D01*
X20096693Y-88404944D01*
X20094311Y-88408170D01*
X20093506Y-88410331D01*
X20037532Y-88485102D01*
X20015269Y-88515269D01*
X19985102Y-88537532D01*
X19910331Y-88593506D01*
X19908170Y-88594311D01*
X19904944Y-88596693D01*
X19853875Y-88614562D01*
X19787300Y-88639394D01*
X19780966Y-88640074D01*
X19775519Y-88641981D01*
X19690000Y-88650000D01*
X18310000Y-88650000D01*
X18224481Y-88641981D01*
X18219034Y-88640075D01*
X18212699Y-88639394D01*
X18146108Y-88614557D01*
X18095056Y-88596693D01*
X18091830Y-88594312D01*
X18089668Y-88593506D01*
X18014826Y-88537480D01*
X17984731Y-88515269D01*
X17962537Y-88485197D01*
X17906493Y-88410331D01*
X17905686Y-88408167D01*
X17903307Y-88404944D01*
X17885452Y-88353918D01*
X17860605Y-88287300D01*
X17859923Y-88280962D01*
X17858019Y-88275519D01*
X17850000Y-88190000D01*
X17850000Y-86810000D01*
X17858019Y-86724481D01*
X17859923Y-86719038D01*
X17860605Y-86712699D01*
X17885457Y-86646065D01*
X17903307Y-86595056D01*
X17905685Y-86591833D01*
X17906493Y-86589668D01*
X17962589Y-86514731D01*
X17984731Y-86484731D01*
X18014731Y-86462589D01*
X18089668Y-86406493D01*
X18091833Y-86405685D01*
X18095056Y-86403307D01*
X18146065Y-86385457D01*
X18212699Y-86360605D01*
X18219038Y-86359923D01*
X18224481Y-86358019D01*
X18310000Y-86350000D01*
X19690000Y-86350000D01*
X19775519Y-86358019D01*
G37*
G36*
X34775519Y-86358019D02*
G01*
X34780962Y-86359923D01*
X34787300Y-86360605D01*
X34853918Y-86385452D01*
X34904944Y-86403307D01*
X34908167Y-86405686D01*
X34910331Y-86406493D01*
X34985197Y-86462537D01*
X35015269Y-86484731D01*
X35037480Y-86514826D01*
X35093506Y-86589668D01*
X35094312Y-86591830D01*
X35096693Y-86595056D01*
X35114557Y-86646108D01*
X35139394Y-86712699D01*
X35140075Y-86719034D01*
X35141981Y-86724481D01*
X35150000Y-86810000D01*
X35150000Y-88190000D01*
X35141981Y-88275519D01*
X35140074Y-88280966D01*
X35139394Y-88287300D01*
X35114562Y-88353875D01*
X35096693Y-88404944D01*
X35094311Y-88408170D01*
X35093506Y-88410331D01*
X35037532Y-88485102D01*
X35015269Y-88515269D01*
X34985102Y-88537532D01*
X34910331Y-88593506D01*
X34908170Y-88594311D01*
X34904944Y-88596693D01*
X34853875Y-88614562D01*
X34787300Y-88639394D01*
X34780966Y-88640074D01*
X34775519Y-88641981D01*
X34690000Y-88650000D01*
X33310000Y-88650000D01*
X33224481Y-88641981D01*
X33219034Y-88640075D01*
X33212699Y-88639394D01*
X33146108Y-88614557D01*
X33095056Y-88596693D01*
X33091830Y-88594312D01*
X33089668Y-88593506D01*
X33014826Y-88537480D01*
X32984731Y-88515269D01*
X32962537Y-88485197D01*
X32906493Y-88410331D01*
X32905686Y-88408167D01*
X32903307Y-88404944D01*
X32885452Y-88353918D01*
X32860605Y-88287300D01*
X32859923Y-88280962D01*
X32858019Y-88275519D01*
X32850000Y-88190000D01*
X32850000Y-86810000D01*
X32858019Y-86724481D01*
X32859923Y-86719038D01*
X32860605Y-86712699D01*
X32885457Y-86646065D01*
X32903307Y-86595056D01*
X32905685Y-86591833D01*
X32906493Y-86589668D01*
X32962589Y-86514731D01*
X32984731Y-86484731D01*
X33014731Y-86462589D01*
X33089668Y-86406493D01*
X33091833Y-86405685D01*
X33095056Y-86403307D01*
X33146065Y-86385457D01*
X33212699Y-86360605D01*
X33219038Y-86359923D01*
X33224481Y-86358019D01*
X33310000Y-86350000D01*
X34690000Y-86350000D01*
X34775519Y-86358019D01*
G37*
G36*
X11768462Y-86381775D02*
G01*
X11940086Y-86437539D01*
X12100873Y-86519464D01*
X12246865Y-86625533D01*
X12374467Y-86753135D01*
X12480536Y-86899127D01*
X12562461Y-87059914D01*
X12618225Y-87231538D01*
X12646455Y-87409772D01*
X12646455Y-87590228D01*
X12618225Y-87768462D01*
X12562461Y-87940086D01*
X12480536Y-88100873D01*
X12374467Y-88246865D01*
X12246865Y-88374467D01*
X12100873Y-88480536D01*
X11940086Y-88562461D01*
X11768462Y-88618225D01*
X11590228Y-88646455D01*
X11409772Y-88646455D01*
X11231538Y-88618225D01*
X11059914Y-88562461D01*
X10899127Y-88480536D01*
X10753135Y-88374467D01*
X10625533Y-88246865D01*
X10519464Y-88100873D01*
X10437539Y-87940086D01*
X10381775Y-87768462D01*
X10353545Y-87590228D01*
X10353545Y-87409772D01*
X10381775Y-87231538D01*
X10437539Y-87059914D01*
X10519464Y-86899127D01*
X10625533Y-86753135D01*
X10753135Y-86625533D01*
X10899127Y-86519464D01*
X11059914Y-86437539D01*
X11231538Y-86381775D01*
X11409772Y-86353545D01*
X11590228Y-86353545D01*
X11768462Y-86381775D01*
G37*
G36*
X24268462Y-86381775D02*
G01*
X24440086Y-86437539D01*
X24600873Y-86519464D01*
X24746865Y-86625533D01*
X24874467Y-86753135D01*
X24980536Y-86899127D01*
X25062461Y-87059914D01*
X25118225Y-87231538D01*
X25146455Y-87409772D01*
X25146455Y-87590228D01*
X25118225Y-87768462D01*
X25062461Y-87940086D01*
X24980536Y-88100873D01*
X24874467Y-88246865D01*
X24746865Y-88374467D01*
X24600873Y-88480536D01*
X24440086Y-88562461D01*
X24268462Y-88618225D01*
X24090228Y-88646455D01*
X23909772Y-88646455D01*
X23731538Y-88618225D01*
X23559914Y-88562461D01*
X23399127Y-88480536D01*
X23253135Y-88374467D01*
X23125533Y-88246865D01*
X23019464Y-88100873D01*
X22937539Y-87940086D01*
X22881775Y-87768462D01*
X22853545Y-87590228D01*
X22853545Y-87409772D01*
X22881775Y-87231538D01*
X22937539Y-87059914D01*
X23019464Y-86899127D01*
X23125533Y-86753135D01*
X23253135Y-86625533D01*
X23399127Y-86519464D01*
X23559914Y-86437539D01*
X23731538Y-86381775D01*
X23909772Y-86353545D01*
X24090228Y-86353545D01*
X24268462Y-86381775D01*
G37*
G36*
X39268462Y-86381775D02*
G01*
X39440086Y-86437539D01*
X39600873Y-86519464D01*
X39746865Y-86625533D01*
X39874467Y-86753135D01*
X39980536Y-86899127D01*
X40062461Y-87059914D01*
X40118225Y-87231538D01*
X40146455Y-87409772D01*
X40146455Y-87590228D01*
X40118225Y-87768462D01*
X40062461Y-87940086D01*
X39980536Y-88100873D01*
X39874467Y-88246865D01*
X39746865Y-88374467D01*
X39600873Y-88480536D01*
X39440086Y-88562461D01*
X39268462Y-88618225D01*
X39090228Y-88646455D01*
X38909772Y-88646455D01*
X38731538Y-88618225D01*
X38559914Y-88562461D01*
X38399127Y-88480536D01*
X38253135Y-88374467D01*
X38125533Y-88246865D01*
X38019464Y-88100873D01*
X37937539Y-87940086D01*
X37881775Y-87768462D01*
X37853545Y-87590228D01*
X37853545Y-87409772D01*
X37881775Y-87231538D01*
X37937539Y-87059914D01*
X38019464Y-86899127D01*
X38125533Y-86753135D01*
X38253135Y-86625533D01*
X38399127Y-86519464D01*
X38559914Y-86437539D01*
X38731538Y-86381775D01*
X38909772Y-86353545D01*
X39090228Y-86353545D01*
X39268462Y-86381775D01*
G37*
G36*
X7275519Y-73858019D02*
G01*
X7280962Y-73859923D01*
X7287300Y-73860605D01*
X7353918Y-73885452D01*
X7404944Y-73903307D01*
X7408167Y-73905686D01*
X7410331Y-73906493D01*
X7485197Y-73962537D01*
X7515269Y-73984731D01*
X7537480Y-74014826D01*
X7593506Y-74089668D01*
X7594312Y-74091830D01*
X7596693Y-74095056D01*
X7614557Y-74146108D01*
X7639394Y-74212699D01*
X7640075Y-74219034D01*
X7641981Y-74224481D01*
X7650000Y-74310000D01*
X7650000Y-75690000D01*
X7641981Y-75775519D01*
X7640074Y-75780966D01*
X7639394Y-75787300D01*
X7614562Y-75853875D01*
X7596693Y-75904944D01*
X7594311Y-75908170D01*
X7593506Y-75910331D01*
X7537532Y-75985102D01*
X7515269Y-76015269D01*
X7485102Y-76037532D01*
X7410331Y-76093506D01*
X7408170Y-76094311D01*
X7404944Y-76096693D01*
X7353875Y-76114562D01*
X7287300Y-76139394D01*
X7280966Y-76140074D01*
X7275519Y-76141981D01*
X7190000Y-76150000D01*
X5810000Y-76150000D01*
X5724481Y-76141981D01*
X5719034Y-76140075D01*
X5712699Y-76139394D01*
X5646108Y-76114557D01*
X5595056Y-76096693D01*
X5591830Y-76094312D01*
X5589668Y-76093506D01*
X5514826Y-76037480D01*
X5484731Y-76015269D01*
X5462537Y-75985197D01*
X5406493Y-75910331D01*
X5405686Y-75908167D01*
X5403307Y-75904944D01*
X5385452Y-75853918D01*
X5360605Y-75787300D01*
X5359923Y-75780962D01*
X5358019Y-75775519D01*
X5350000Y-75690000D01*
X5350000Y-74310000D01*
X5358019Y-74224481D01*
X5359923Y-74219038D01*
X5360605Y-74212699D01*
X5385457Y-74146065D01*
X5403307Y-74095056D01*
X5405685Y-74091833D01*
X5406493Y-74089668D01*
X5462589Y-74014731D01*
X5484731Y-73984731D01*
X5514731Y-73962589D01*
X5589668Y-73906493D01*
X5591833Y-73905685D01*
X5595056Y-73903307D01*
X5646065Y-73885457D01*
X5712699Y-73860605D01*
X5719038Y-73859923D01*
X5724481Y-73858019D01*
X5810000Y-73850000D01*
X7190000Y-73850000D01*
X7275519Y-73858019D01*
G37*
G36*
X19775519Y-73858019D02*
G01*
X19780962Y-73859923D01*
X19787300Y-73860605D01*
X19853918Y-73885452D01*
X19904944Y-73903307D01*
X19908167Y-73905686D01*
X19910331Y-73906493D01*
X19985197Y-73962537D01*
X20015269Y-73984731D01*
X20037480Y-74014826D01*
X20093506Y-74089668D01*
X20094312Y-74091830D01*
X20096693Y-74095056D01*
X20114557Y-74146108D01*
X20139394Y-74212699D01*
X20140075Y-74219034D01*
X20141981Y-74224481D01*
X20150000Y-74310000D01*
X20150000Y-75690000D01*
X20141981Y-75775519D01*
X20140074Y-75780966D01*
X20139394Y-75787300D01*
X20114562Y-75853875D01*
X20096693Y-75904944D01*
X20094311Y-75908170D01*
X20093506Y-75910331D01*
X20037532Y-75985102D01*
X20015269Y-76015269D01*
X19985102Y-76037532D01*
X19910331Y-76093506D01*
X19908170Y-76094311D01*
X19904944Y-76096693D01*
X19853875Y-76114562D01*
X19787300Y-76139394D01*
X19780966Y-76140074D01*
X19775519Y-76141981D01*
X19690000Y-76150000D01*
X18310000Y-76150000D01*
X18224481Y-76141981D01*
X18219034Y-76140075D01*
X18212699Y-76139394D01*
X18146108Y-76114557D01*
X18095056Y-76096693D01*
X18091830Y-76094312D01*
X18089668Y-76093506D01*
X18014826Y-76037480D01*
X17984731Y-76015269D01*
X17962537Y-75985197D01*
X17906493Y-75910331D01*
X17905686Y-75908167D01*
X17903307Y-75904944D01*
X17885452Y-75853918D01*
X17860605Y-75787300D01*
X17859923Y-75780962D01*
X17858019Y-75775519D01*
X17850000Y-75690000D01*
X17850000Y-74310000D01*
X17858019Y-74224481D01*
X17859923Y-74219038D01*
X17860605Y-74212699D01*
X17885457Y-74146065D01*
X17903307Y-74095056D01*
X17905685Y-74091833D01*
X17906493Y-74089668D01*
X17962589Y-74014731D01*
X17984731Y-73984731D01*
X18014731Y-73962589D01*
X18089668Y-73906493D01*
X18091833Y-73905685D01*
X18095056Y-73903307D01*
X18146065Y-73885457D01*
X18212699Y-73860605D01*
X18219038Y-73859923D01*
X18224481Y-73858019D01*
X18310000Y-73850000D01*
X19690000Y-73850000D01*
X19775519Y-73858019D01*
G37*
G36*
X11768462Y-73881775D02*
G01*
X11940086Y-73937539D01*
X12100873Y-74019464D01*
X12246865Y-74125533D01*
X12374467Y-74253135D01*
X12480536Y-74399127D01*
X12562461Y-74559914D01*
X12618225Y-74731538D01*
X12646455Y-74909772D01*
X12646455Y-75090228D01*
X12618225Y-75268462D01*
X12562461Y-75440086D01*
X12480536Y-75600873D01*
X12374467Y-75746865D01*
X12246865Y-75874467D01*
X12100873Y-75980536D01*
X11940086Y-76062461D01*
X11768462Y-76118225D01*
X11590228Y-76146455D01*
X11409772Y-76146455D01*
X11231538Y-76118225D01*
X11059914Y-76062461D01*
X10899127Y-75980536D01*
X10753135Y-75874467D01*
X10625533Y-75746865D01*
X10519464Y-75600873D01*
X10437539Y-75440086D01*
X10381775Y-75268462D01*
X10353545Y-75090228D01*
X10353545Y-74909772D01*
X10381775Y-74731538D01*
X10437539Y-74559914D01*
X10519464Y-74399127D01*
X10625533Y-74253135D01*
X10753135Y-74125533D01*
X10899127Y-74019464D01*
X11059914Y-73937539D01*
X11231538Y-73881775D01*
X11409772Y-73853545D01*
X11590228Y-73853545D01*
X11768462Y-73881775D01*
G37*
G36*
X24268462Y-73881775D02*
G01*
X24440086Y-73937539D01*
X24600873Y-74019464D01*
X24746865Y-74125533D01*
X24874467Y-74253135D01*
X24980536Y-74399127D01*
X25062461Y-74559914D01*
X25118225Y-74731538D01*
X25146455Y-74909772D01*
X25146455Y-75090228D01*
X25118225Y-75268462D01*
X25062461Y-75440086D01*
X24980536Y-75600873D01*
X24874467Y-75746865D01*
X24746865Y-75874467D01*
X24600873Y-75980536D01*
X24440086Y-76062461D01*
X24268462Y-76118225D01*
X24090228Y-76146455D01*
X23909772Y-76146455D01*
X23731538Y-76118225D01*
X23559914Y-76062461D01*
X23399127Y-75980536D01*
X23253135Y-75874467D01*
X23125533Y-75746865D01*
X23019464Y-75600873D01*
X22937539Y-75440086D01*
X22881775Y-75268462D01*
X22853545Y-75090228D01*
X22853545Y-74909772D01*
X22881775Y-74731538D01*
X22937539Y-74559914D01*
X23019464Y-74399127D01*
X23125533Y-74253135D01*
X23253135Y-74125533D01*
X23399127Y-74019464D01*
X23559914Y-73937539D01*
X23731538Y-73881775D01*
X23909772Y-73853545D01*
X24090228Y-73853545D01*
X24268462Y-73881775D01*
G37*
G36*
X36739485Y-73710524D02*
G01*
X36888902Y-73772415D01*
X37023374Y-73862266D01*
X37137734Y-73976626D01*
X37227585Y-74111098D01*
X37289476Y-74260515D01*
X37321027Y-74419136D01*
X37321027Y-74580864D01*
X37289476Y-74739485D01*
X37227585Y-74888902D01*
X37137734Y-75023374D01*
X37023374Y-75137734D01*
X36888902Y-75227585D01*
X36739485Y-75289476D01*
X36580864Y-75321027D01*
X36419136Y-75321027D01*
X36260515Y-75289476D01*
X36111098Y-75227585D01*
X35976626Y-75137734D01*
X35862266Y-75023374D01*
X35772415Y-74888902D01*
X35710524Y-74739485D01*
X35678973Y-74580864D01*
X35678973Y-74419136D01*
X35710524Y-74260515D01*
X35772415Y-74111098D01*
X35862266Y-73976626D01*
X35976626Y-73862266D01*
X36111098Y-73772415D01*
X36260515Y-73710524D01*
X36419136Y-73678973D01*
X36580864Y-73678973D01*
X36739485Y-73710524D01*
G37*
G36*
X27051801Y-62907671D02*
G01*
X27175598Y-62950989D01*
X27281127Y-63028873D01*
X27359011Y-63134402D01*
X27402329Y-63258199D01*
X27410000Y-63340000D01*
X27410000Y-64660000D01*
X27402329Y-64741801D01*
X27359011Y-64865598D01*
X27281127Y-64971127D01*
X27175598Y-65049011D01*
X27051801Y-65092329D01*
X26970000Y-65100000D01*
X25650000Y-65100000D01*
X25568199Y-65092329D01*
X25444402Y-65049011D01*
X25338873Y-64971127D01*
X25260989Y-64865598D01*
X25217671Y-64741801D01*
X25210000Y-64660000D01*
X25210000Y-63340000D01*
X25217671Y-63258199D01*
X25260989Y-63134402D01*
X25338873Y-63028873D01*
X25444402Y-62950989D01*
X25568199Y-62907671D01*
X25650000Y-62900000D01*
X26970000Y-62900000D01*
X27051801Y-62907671D01*
G37*
G36*
X18946790Y-62930393D02*
G01*
X19110952Y-62983733D01*
X19264748Y-63062096D01*
X19404393Y-63163553D01*
X19526447Y-63285607D01*
X19627904Y-63425252D01*
X19706267Y-63579048D01*
X19759607Y-63743210D01*
X19786609Y-63913695D01*
X19786609Y-64086305D01*
X19759607Y-64256790D01*
X19706267Y-64420952D01*
X19627904Y-64574748D01*
X19526447Y-64714393D01*
X19404393Y-64836447D01*
X19264748Y-64937904D01*
X19110952Y-65016267D01*
X18946790Y-65069607D01*
X18776305Y-65096609D01*
X18603695Y-65096609D01*
X18433210Y-65069607D01*
X18269048Y-65016267D01*
X18115252Y-64937904D01*
X17975607Y-64836447D01*
X17853553Y-64714393D01*
X17752096Y-64574748D01*
X17673733Y-64420952D01*
X17620393Y-64256790D01*
X17593391Y-64086305D01*
X17593391Y-63913695D01*
X17620393Y-63743210D01*
X17673733Y-63579048D01*
X17752096Y-63425252D01*
X17853553Y-63285607D01*
X17975607Y-63163553D01*
X18115252Y-63062096D01*
X18269048Y-62983733D01*
X18433210Y-62930393D01*
X18603695Y-62903391D01*
X18776305Y-62903391D01*
X18946790Y-62930393D01*
G37*
G36*
X21486790Y-62930393D02*
G01*
X21650952Y-62983733D01*
X21804748Y-63062096D01*
X21944393Y-63163553D01*
X22066447Y-63285607D01*
X22167904Y-63425252D01*
X22246267Y-63579048D01*
X22299607Y-63743210D01*
X22326609Y-63913695D01*
X22326609Y-64086305D01*
X22299607Y-64256790D01*
X22246267Y-64420952D01*
X22167904Y-64574748D01*
X22066447Y-64714393D01*
X21944393Y-64836447D01*
X21804748Y-64937904D01*
X21650952Y-65016267D01*
X21486790Y-65069607D01*
X21316305Y-65096609D01*
X21143695Y-65096609D01*
X20973210Y-65069607D01*
X20809048Y-65016267D01*
X20655252Y-64937904D01*
X20515607Y-64836447D01*
X20393553Y-64714393D01*
X20292096Y-64574748D01*
X20213733Y-64420952D01*
X20160393Y-64256790D01*
X20133391Y-64086305D01*
X20133391Y-63913695D01*
X20160393Y-63743210D01*
X20213733Y-63579048D01*
X20292096Y-63425252D01*
X20393553Y-63285607D01*
X20515607Y-63163553D01*
X20655252Y-63062096D01*
X20809048Y-62983733D01*
X20973210Y-62930393D01*
X21143695Y-62903391D01*
X21316305Y-62903391D01*
X21486790Y-62930393D01*
G37*
G36*
X24026790Y-62930393D02*
G01*
X24190952Y-62983733D01*
X24344748Y-63062096D01*
X24484393Y-63163553D01*
X24606447Y-63285607D01*
X24707904Y-63425252D01*
X24786267Y-63579048D01*
X24839607Y-63743210D01*
X24866609Y-63913695D01*
X24866609Y-64086305D01*
X24839607Y-64256790D01*
X24786267Y-64420952D01*
X24707904Y-64574748D01*
X24606447Y-64714393D01*
X24484393Y-64836447D01*
X24344748Y-64937904D01*
X24190952Y-65016267D01*
X24026790Y-65069607D01*
X23856305Y-65096609D01*
X23683695Y-65096609D01*
X23513210Y-65069607D01*
X23349048Y-65016267D01*
X23195252Y-64937904D01*
X23055607Y-64836447D01*
X22933553Y-64714393D01*
X22832096Y-64574748D01*
X22753733Y-64420952D01*
X22700393Y-64256790D01*
X22673391Y-64086305D01*
X22673391Y-63913695D01*
X22700393Y-63743210D01*
X22753733Y-63579048D01*
X22832096Y-63425252D01*
X22933553Y-63285607D01*
X23055607Y-63163553D01*
X23195252Y-63062096D01*
X23349048Y-62983733D01*
X23513210Y-62930393D01*
X23683695Y-62903391D01*
X23856305Y-62903391D01*
X24026790Y-62930393D01*
G37*
G36*
X38403117Y-21214785D02*
G01*
X38534857Y-21266737D01*
X38647696Y-21352304D01*
X38733263Y-21465143D01*
X38785215Y-21596883D01*
X38800000Y-21720000D01*
X38800000Y-23280000D01*
X38785215Y-23403117D01*
X38733263Y-23534857D01*
X38647696Y-23647696D01*
X38534857Y-23733263D01*
X38403117Y-23785215D01*
X38280000Y-23800000D01*
X36720000Y-23800000D01*
X36596883Y-23785215D01*
X36465143Y-23733263D01*
X36352304Y-23647696D01*
X36266737Y-23534857D01*
X36214785Y-23403117D01*
X36200000Y-23280000D01*
X36200000Y-21720000D01*
X36214785Y-21596883D01*
X36266737Y-21465143D01*
X36352304Y-21352304D01*
X36465143Y-21266737D01*
X36596883Y-21214785D01*
X36720000Y-21200000D01*
X38280000Y-21200000D01*
X38403117Y-21214785D01*
G37*
G36*
X41603479Y-21235919D02*
G01*
X41797488Y-21298957D01*
X41979248Y-21391568D01*
X42144282Y-21511472D01*
X42288528Y-21655718D01*
X42408432Y-21820752D01*
X42501043Y-22002512D01*
X42564081Y-22196521D01*
X42595993Y-22398003D01*
X42595993Y-22601997D01*
X42564081Y-22803479D01*
X42501043Y-22997488D01*
X42408432Y-23179248D01*
X42288528Y-23344282D01*
X42144282Y-23488528D01*
X41979248Y-23608432D01*
X41797488Y-23701043D01*
X41603479Y-23764081D01*
X41401997Y-23795993D01*
X41198003Y-23795993D01*
X40996521Y-23764081D01*
X40802512Y-23701043D01*
X40620752Y-23608432D01*
X40455718Y-23488528D01*
X40311472Y-23344282D01*
X40191568Y-23179248D01*
X40098957Y-22997488D01*
X40035919Y-22803479D01*
X40004007Y-22601997D01*
X40004007Y-22398003D01*
X40035919Y-22196521D01*
X40098957Y-22002512D01*
X40191568Y-21820752D01*
X40311472Y-21655718D01*
X40455718Y-21511472D01*
X40620752Y-21391568D01*
X40802512Y-21298957D01*
X40996521Y-21235919D01*
X41198003Y-21204007D01*
X41401997Y-21204007D01*
X41603479Y-21235919D01*
G37*
G36*
X15403117Y-16714785D02*
G01*
X15534857Y-16766737D01*
X15647696Y-16852304D01*
X15733263Y-16965143D01*
X15785215Y-17096883D01*
X15800000Y-17220000D01*
X15800000Y-18780000D01*
X15785215Y-18903117D01*
X15733263Y-19034857D01*
X15647696Y-19147696D01*
X15534857Y-19233263D01*
X15403117Y-19285215D01*
X15280000Y-19300000D01*
X13720000Y-19300000D01*
X13596883Y-19285215D01*
X13465143Y-19233263D01*
X13352304Y-19147696D01*
X13266737Y-19034857D01*
X13214785Y-18903117D01*
X13200000Y-18780000D01*
X13200000Y-17220000D01*
X13214785Y-17096883D01*
X13266737Y-16965143D01*
X13352304Y-16852304D01*
X13465143Y-16766737D01*
X13596883Y-16714785D01*
X13720000Y-16700000D01*
X15280000Y-16700000D01*
X15403117Y-16714785D01*
G37*
G36*
X18603479Y-16735919D02*
G01*
X18797488Y-16798957D01*
X18979248Y-16891568D01*
X19144282Y-17011472D01*
X19288528Y-17155718D01*
X19408432Y-17320752D01*
X19501043Y-17502512D01*
X19564081Y-17696521D01*
X19595993Y-17898003D01*
X19595993Y-18101997D01*
X19564081Y-18303479D01*
X19501043Y-18497488D01*
X19408432Y-18679248D01*
X19288528Y-18844282D01*
X19144282Y-18988528D01*
X18979248Y-19108432D01*
X18797488Y-19201043D01*
X18603479Y-19264081D01*
X18401997Y-19295993D01*
X18198003Y-19295993D01*
X17996521Y-19264081D01*
X17802512Y-19201043D01*
X17620752Y-19108432D01*
X17455718Y-18988528D01*
X17311472Y-18844282D01*
X17191568Y-18679248D01*
X17098957Y-18497488D01*
X17035919Y-18303479D01*
X17004007Y-18101997D01*
X17004007Y-17898003D01*
X17035919Y-17696521D01*
X17098957Y-17502512D01*
X17191568Y-17320752D01*
X17311472Y-17155718D01*
X17455718Y-17011472D01*
X17620752Y-16891568D01*
X17802512Y-16798957D01*
X17996521Y-16735919D01*
X18198003Y-16704007D01*
X18401997Y-16704007D01*
X18603479Y-16735919D01*
G37*
G36*
X2741801Y-14907671D02*
G01*
X2865598Y-14950989D01*
X2971127Y-15028873D01*
X3049011Y-15134402D01*
X3092329Y-15258199D01*
X3100000Y-15340000D01*
X3100000Y-16660000D01*
X3092329Y-16741801D01*
X3049011Y-16865598D01*
X2971127Y-16971127D01*
X2865598Y-17049011D01*
X2741801Y-17092329D01*
X2660000Y-17100000D01*
X1340000Y-17100000D01*
X1258199Y-17092329D01*
X1134402Y-17049011D01*
X1028873Y-16971127D01*
X950989Y-16865598D01*
X907671Y-16741801D01*
X900000Y-16660000D01*
X900000Y-15340000D01*
X907671Y-15258199D01*
X950989Y-15134402D01*
X1028873Y-15028873D01*
X1134402Y-14950989D01*
X1258199Y-14907671D01*
X1340000Y-14900000D01*
X2660000Y-14900000D01*
X2741801Y-14907671D01*
G37*
G36*
X4796790Y-14930393D02*
G01*
X4960952Y-14983733D01*
X5114748Y-15062096D01*
X5254393Y-15163553D01*
X5376447Y-15285607D01*
X5477904Y-15425252D01*
X5556267Y-15579048D01*
X5609607Y-15743210D01*
X5636609Y-15913695D01*
X5636609Y-16086305D01*
X5609607Y-16256790D01*
X5556267Y-16420952D01*
X5477904Y-16574748D01*
X5376447Y-16714393D01*
X5254393Y-16836447D01*
X5114748Y-16937904D01*
X4960952Y-17016267D01*
X4796790Y-17069607D01*
X4626305Y-17096609D01*
X4453695Y-17096609D01*
X4283210Y-17069607D01*
X4119048Y-17016267D01*
X3965252Y-16937904D01*
X3825607Y-16836447D01*
X3703553Y-16714393D01*
X3602096Y-16574748D01*
X3523733Y-16420952D01*
X3470393Y-16256790D01*
X3443391Y-16086305D01*
X3443391Y-15913695D01*
X3470393Y-15743210D01*
X3523733Y-15579048D01*
X3602096Y-15425252D01*
X3703553Y-15285607D01*
X3825607Y-15163553D01*
X3965252Y-15062096D01*
X4119048Y-14983733D01*
X4283210Y-14930393D01*
X4453695Y-14903391D01*
X4626305Y-14903391D01*
X4796790Y-14930393D01*
G37*
G36*
X2741801Y-8907671D02*
G01*
X2865598Y-8950989D01*
X2971127Y-9028873D01*
X3049011Y-9134402D01*
X3092329Y-9258199D01*
X3100000Y-9340000D01*
X3100000Y-10660000D01*
X3092329Y-10741801D01*
X3049011Y-10865598D01*
X2971127Y-10971127D01*
X2865598Y-11049011D01*
X2741801Y-11092329D01*
X2660000Y-11100000D01*
X1340000Y-11100000D01*
X1258199Y-11092329D01*
X1134402Y-11049011D01*
X1028873Y-10971127D01*
X950989Y-10865598D01*
X907671Y-10741801D01*
X900000Y-10660000D01*
X900000Y-9340000D01*
X907671Y-9258199D01*
X950989Y-9134402D01*
X1028873Y-9028873D01*
X1134402Y-8950989D01*
X1258199Y-8907671D01*
X1340000Y-8900000D01*
X2660000Y-8900000D01*
X2741801Y-8907671D01*
G37*
G36*
X4796790Y-8930393D02*
G01*
X4960952Y-8983733D01*
X5114748Y-9062096D01*
X5254393Y-9163553D01*
X5376447Y-9285607D01*
X5477904Y-9425252D01*
X5556267Y-9579048D01*
X5609607Y-9743210D01*
X5636609Y-9913695D01*
X5636609Y-10086305D01*
X5609607Y-10256790D01*
X5556267Y-10420952D01*
X5477904Y-10574748D01*
X5376447Y-10714393D01*
X5254393Y-10836447D01*
X5114748Y-10937904D01*
X4960952Y-11016267D01*
X4796790Y-11069607D01*
X4626305Y-11096609D01*
X4453695Y-11096609D01*
X4283210Y-11069607D01*
X4119048Y-11016267D01*
X3965252Y-10937904D01*
X3825607Y-10836447D01*
X3703553Y-10714393D01*
X3602096Y-10574748D01*
X3523733Y-10420952D01*
X3470393Y-10256790D01*
X3443391Y-10086305D01*
X3443391Y-9913695D01*
X3470393Y-9743210D01*
X3523733Y-9579048D01*
X3602096Y-9425252D01*
X3703553Y-9285607D01*
X3825607Y-9163553D01*
X3965252Y-9062096D01*
X4119048Y-8983733D01*
X4283210Y-8930393D01*
X4453695Y-8903391D01*
X4626305Y-8903391D01*
X4796790Y-8930393D01*
G37*
G36*
X7336790Y-8930393D02*
G01*
X7500952Y-8983733D01*
X7654748Y-9062096D01*
X7794393Y-9163553D01*
X7916447Y-9285607D01*
X8017904Y-9425252D01*
X8096267Y-9579048D01*
X8149607Y-9743210D01*
X8176609Y-9913695D01*
X8176609Y-10086305D01*
X8149607Y-10256790D01*
X8096267Y-10420952D01*
X8017904Y-10574748D01*
X7916447Y-10714393D01*
X7794393Y-10836447D01*
X7654748Y-10937904D01*
X7500952Y-11016267D01*
X7336790Y-11069607D01*
X7166305Y-11096609D01*
X6993695Y-11096609D01*
X6823210Y-11069607D01*
X6659048Y-11016267D01*
X6505252Y-10937904D01*
X6365607Y-10836447D01*
X6243553Y-10714393D01*
X6142096Y-10574748D01*
X6063733Y-10420952D01*
X6010393Y-10256790D01*
X5983391Y-10086305D01*
X5983391Y-9913695D01*
X6010393Y-9743210D01*
X6063733Y-9579048D01*
X6142096Y-9425252D01*
X6243553Y-9285607D01*
X6365607Y-9163553D01*
X6505252Y-9062096D01*
X6659048Y-8983733D01*
X6823210Y-8930393D01*
X6993695Y-8903391D01*
X7166305Y-8903391D01*
X7336790Y-8930393D01*
G37*
G36*
X4373513Y-2444208D02*
G01*
X4612293Y-2521793D01*
X4835998Y-2635776D01*
X5039117Y-2783350D01*
X5216650Y-2960883D01*
X5364224Y-3164002D01*
X5478207Y-3387707D01*
X5555792Y-3626487D01*
X5595068Y-3874465D01*
X5595068Y-4125535D01*
X5555792Y-4373513D01*
X5478207Y-4612293D01*
X5364224Y-4835998D01*
X5216650Y-5039117D01*
X5039117Y-5216650D01*
X4835998Y-5364224D01*
X4612293Y-5478207D01*
X4373513Y-5555792D01*
X4125535Y-5595068D01*
X3874465Y-5595068D01*
X3626487Y-5555792D01*
X3387707Y-5478207D01*
X3164002Y-5364224D01*
X2960883Y-5216650D01*
X2783350Y-5039117D01*
X2635776Y-4835998D01*
X2521793Y-4612293D01*
X2444208Y-4373513D01*
X2404932Y-4125535D01*
X2404932Y-3874465D01*
X2444208Y-3626487D01*
X2521793Y-3387707D01*
X2635776Y-3164002D01*
X2783350Y-2960883D01*
X2960883Y-2783350D01*
X3164002Y-2635776D01*
X3387707Y-2521793D01*
X3626487Y-2444208D01*
X3874465Y-2404932D01*
X4125535Y-2404932D01*
X4373513Y-2444208D01*
G37*
G36*
X41373513Y-2444208D02*
G01*
X41612293Y-2521793D01*
X41835998Y-2635776D01*
X42039117Y-2783350D01*
X42216650Y-2960883D01*
X42364224Y-3164002D01*
X42478207Y-3387707D01*
X42555792Y-3626487D01*
X42595068Y-3874465D01*
X42595068Y-4125535D01*
X42555792Y-4373513D01*
X42478207Y-4612293D01*
X42364224Y-4835998D01*
X42216650Y-5039117D01*
X42039117Y-5216650D01*
X41835998Y-5364224D01*
X41612293Y-5478207D01*
X41373513Y-5555792D01*
X41125535Y-5595068D01*
X40874465Y-5595068D01*
X40626487Y-5555792D01*
X40387707Y-5478207D01*
X40164002Y-5364224D01*
X39960883Y-5216650D01*
X39783350Y-5039117D01*
X39635776Y-4835998D01*
X39521793Y-4612293D01*
X39444208Y-4373513D01*
X39404932Y-4125535D01*
X39404932Y-3874465D01*
X39444208Y-3626487D01*
X39521793Y-3387707D01*
X39635776Y-3164002D01*
X39783350Y-2960883D01*
X39960883Y-2783350D01*
X40164002Y-2635776D01*
X40387707Y-2521793D01*
X40626487Y-2444208D01*
X40874465Y-2404932D01*
X41125535Y-2404932D01*
X41373513Y-2444208D01*
G37*
M02*
