%TF.GenerationSoftware,KiCad,Pcbnew,10.0.4*%
%TF.CreationDate,2026-08-26T20:25:28-04:00*%
%TF.ProjectId,walkiepcb,77616c6b-6965-4706-9362-2e6b69636164,D-WROOM*%
%TF.SameCoordinates,Original*%
%TF.FileFunction,Copper,L2,Bot*%
%TF.FilePolarity,Positive*%
%FSLAX46Y46*%
G04 Gerber Fmt 4.6, Leading zero omitted, Abs format (unit mm)*
G04 Created by KiCad (PCBNEW 10.0.4) date 2026-08-26 20:25:28*
%MOMM*%
%LPD*%
G01*
G04 APERTURE LIST*
G04 Aperture macros list*
%AMRoundRect*
0 Rectangle with rounded corners*
0 $1 Rounding radius*
0 $2 $3 $4 $5 $6 $7 $8 $9 X,Y pos of 4 corners*
0 Add a 4 corners polygon primitive as box body*
4,1,4,$2,$3,$4,$5,$6,$7,$8,$9,$2,$3,0*
0 Add four circle primitives for the rounded corners*
1,1,$1+$1,$2,$3*
1,1,$1+$1,$4,$5*
1,1,$1+$1,$6,$7*
1,1,$1+$1,$8,$9*
0 Add four rect primitives between the rounded corners*
20,1,$1+$1,$2,$3,$4,$5,0*
20,1,$1+$1,$4,$5,$6,$7,0*
20,1,$1+$1,$6,$7,$8,$9,0*
20,1,$1+$1,$8,$9,$2,$3,0*%
G04 Aperture macros list end*
%TA.AperFunction,ComponentPad*%
%ADD10C,1.650000*%
%TD*%
%TA.AperFunction,HeatsinkPad*%
%ADD11C,0.600000*%
%TD*%
%TA.AperFunction,ComponentPad*%
%ADD12RoundRect,0.460000X-0.690000X-0.690000X0.690000X-0.690000X0.690000X0.690000X-0.690000X0.690000X0*%
%TD*%
%TA.AperFunction,ComponentPad*%
%ADD13C,2.300000*%
%TD*%
%TA.AperFunction,ComponentPad*%
%ADD14RoundRect,0.520000X-0.780000X-0.780000X0.780000X-0.780000X0.780000X0.780000X-0.780000X0.780000X0*%
%TD*%
%TA.AperFunction,ComponentPad*%
%ADD15C,2.600000*%
%TD*%
%TA.AperFunction,ComponentPad*%
%ADD16RoundRect,0.440000X0.660000X0.660000X-0.660000X0.660000X-0.660000X-0.660000X0.660000X-0.660000X0*%
%TD*%
%TA.AperFunction,ComponentPad*%
%ADD17C,2.200000*%
%TD*%
%TA.AperFunction,ComponentPad*%
%ADD18RoundRect,0.440000X-0.660000X-0.660000X0.660000X-0.660000X0.660000X0.660000X-0.660000X0.660000X0*%
%TD*%
%TA.AperFunction,ComponentPad*%
%ADD19O,1.000000X2.100000*%
%TD*%
%TA.AperFunction,ComponentPad*%
%ADD20O,1.000000X1.600000*%
%TD*%
%TA.AperFunction,ViaPad*%
%ADD21C,0.600000*%
%TD*%
%TA.AperFunction,Conductor*%
%ADD22C,0.400000*%
%TD*%
%TA.AperFunction,Conductor*%
%ADD23C,0.200000*%
%TD*%
%TA.AperFunction,Conductor*%
%ADD24C,0.300000*%
%TD*%
%TA.AperFunction,Conductor*%
%ADD25C,0.150000*%
%TD*%
G04 APERTURE END LIST*
D10*
%TO.P,MK1,4*%
%TO.N,/GND*%
X36500000Y-74500000D03*
%TD*%
D11*
%TO.P,U6,39*%
%TO.N,/GND*%
X14327500Y-51705000D03*
X15852500Y-51705000D03*
X13565000Y-50942500D03*
X15090000Y-50942500D03*
X16615000Y-50942500D03*
X14327500Y-50180000D03*
X15852500Y-50180000D03*
X13565000Y-49417500D03*
X15090000Y-49417500D03*
X16615000Y-49417500D03*
X14327500Y-48655000D03*
X15852500Y-48655000D03*
%TD*%
D12*
%TO.P,SW5,1*%
%TO.N,/BTN5*%
X34000000Y-87500000D03*
D13*
%TO.P,SW5,2*%
%TO.N,/GND*%
X39000000Y-87500000D03*
%TD*%
D14*
%TO.P,J3,1*%
%TO.N,/SYS_FUSED*%
X37500000Y-70500000D03*
D15*
%TO.P,J3,2*%
%TO.N,/SYS_SW*%
X41300000Y-70500000D03*
%TD*%
D12*
%TO.P,SW2,1*%
%TO.N,/BTN2*%
X19000000Y-75000000D03*
D13*
%TO.P,SW2,2*%
%TO.N,/GND*%
X24000000Y-75000000D03*
%TD*%
D12*
%TO.P,SW4,1*%
%TO.N,/BTN4*%
X19000000Y-87500000D03*
D13*
%TO.P,SW4,2*%
%TO.N,/GND*%
X24000000Y-87500000D03*
%TD*%
D16*
%TO.P,J7,1*%
%TO.N,/GND*%
X26310000Y-64000000D03*
D17*
%TO.P,J7,2*%
%TO.N,/3V3*%
X23770000Y-64000000D03*
%TO.P,J7,3*%
%TO.N,/OLED_SCL*%
X21230000Y-64000000D03*
%TO.P,J7,4*%
%TO.N,/OLED_SDA*%
X18690000Y-64000000D03*
%TD*%
D18*
%TO.P,J5,1*%
%TO.N,/3V3*%
X2000000Y-10000000D03*
D17*
%TO.P,J5,2*%
%TO.N,/POT_ADC*%
X4540000Y-10000000D03*
%TO.P,J5,3*%
%TO.N,/GND*%
X7080000Y-10000000D03*
%TD*%
D19*
%TO.P,J1,SH*%
%TO.N,/GND*%
X18180000Y-92720000D03*
D20*
X18180000Y-96900000D03*
D19*
X26820000Y-92720000D03*
D20*
X26820000Y-96900000D03*
%TD*%
D12*
%TO.P,SW3,1*%
%TO.N,/BTN3*%
X6500000Y-87500000D03*
D13*
%TO.P,SW3,2*%
%TO.N,/GND*%
X11500000Y-87500000D03*
%TD*%
D12*
%TO.P,SW1,1*%
%TO.N,/BTN1*%
X6500000Y-75000000D03*
D13*
%TO.P,SW1,2*%
%TO.N,/GND*%
X11500000Y-75000000D03*
%TD*%
D14*
%TO.P,J4,1*%
%TO.N,/SPK+*%
X37500000Y-22500000D03*
D15*
%TO.P,J4,2*%
%TO.N,/SPK-*%
X41300000Y-22500000D03*
%TD*%
D14*
%TO.P,J2,1*%
%TO.N,/BAT_CELL*%
X14500000Y-18000000D03*
D15*
%TO.P,J2,2*%
%TO.N,/CELL_NEG*%
X18300000Y-18000000D03*
%TD*%
D18*
%TO.P,J6,1*%
%TO.N,/LED+*%
X2000000Y-16000000D03*
D17*
%TO.P,J6,2*%
%TO.N,/GND*%
X4540000Y-16000000D03*
%TD*%
D21*
%TO.N,/USB_5V*%
X15525000Y-42335500D03*
X11629400Y-45449500D03*
X16523100Y-44839100D03*
X33704700Y-49384000D03*
X14261800Y-37405600D03*
X8868000Y-45042100D03*
X7990400Y-38609200D03*
%TO.N,/DTR_N*%
X36831600Y-57900100D03*
X32062500Y-61562300D03*
%TO.N,/GPIO0*%
X12763800Y-20966100D03*
X16756100Y-61418900D03*
X33937500Y-62332800D03*
X27149300Y-58020400D03*
X23245200Y-39222900D03*
%TO.N,/GND*%
X43000000Y-31550000D03*
X27500000Y-29725000D03*
X12723500Y-59936600D03*
X38200000Y-10800000D03*
X35800000Y-20100000D03*
%TO.N,/3V3*%
X34090800Y-63764900D03*
X38200000Y-73425000D03*
X33461200Y-31835600D03*
X7847500Y-24188600D03*
X33660700Y-71494800D03*
X18484700Y-62325000D03*
X12084700Y-13621300D03*
X40800000Y-77934200D03*
%TO.N,/I2S_WS*%
X18115700Y-44167400D03*
X41043100Y-34639700D03*
X36975300Y-28811100D03*
X35986900Y-63886800D03*
X42810000Y-57063700D03*
%TO.N,/I2S_BCLK*%
X38591800Y-26095100D03*
X20450000Y-56985700D03*
X34521800Y-74892300D03*
%TO.N,/MIC_DATA*%
X33791600Y-76035900D03*
X19053500Y-56587600D03*
%TO.N,/EN*%
X29937500Y-59632900D03*
X16643500Y-59527700D03*
X15110200Y-14619400D03*
X26700700Y-23475500D03*
X27528200Y-43258000D03*
X27528200Y-57223600D03*
X27793800Y-39031200D03*
%TO.N,/RADIO_BUSY*%
X11560000Y-56163300D03*
X34391200Y-5124900D03*
%TO.N,/RADIO_DIO1*%
X12830000Y-55567900D03*
X19680100Y-8013000D03*
%TO.N,/BAT_SENSE*%
X29586200Y-46992800D03*
X14100000Y-56953700D03*
%TO.N,/POT_ADC*%
X14496800Y-66208300D03*
X11667600Y-53136800D03*
X15344900Y-60024800D03*
%TO.N,/BTN5*%
X18404100Y-59972500D03*
%TO.N,/BTN4*%
X21720000Y-59761400D03*
%TO.N,/OLED_SCL*%
X30816900Y-67851400D03*
%TO.N,/GPIO12*%
X15017100Y-12957800D03*
X19900000Y-42612400D03*
%TO.N,/BTN2*%
X25751200Y-61273900D03*
%TO.N,/AMP_ENABLE*%
X26844900Y-44880800D03*
X31750900Y-46813400D03*
%TO.N,/LED_STATUS*%
X10039400Y-65979300D03*
X9463900Y-20967600D03*
X22074900Y-43218000D03*
%TO.N,/BTN1*%
X22990000Y-47469500D03*
%TO.N,/BTN3*%
X21411200Y-51320800D03*
%TO.N,/RADIO_RST*%
X17355200Y-15667900D03*
X20450000Y-38283100D03*
%TO.N,/RADIO_NSS*%
X34350100Y-19187000D03*
X19180000Y-42001700D03*
%TO.N,/RADIO_SCK*%
X17910000Y-39497500D03*
X31865000Y-19521900D03*
%TO.N,/RADIO_MISO*%
X15964200Y-39492800D03*
X33700100Y-18686700D03*
%TO.N,/OLED_SDA*%
X17791500Y-56977100D03*
X27997500Y-66172500D03*
%TO.N,/UART_RX*%
X13355700Y-42002900D03*
X12830000Y-46295600D03*
X35659900Y-51956300D03*
X13586700Y-20885700D03*
%TO.N,/UART_TX*%
X11758900Y-44165100D03*
X17525300Y-13801600D03*
X37185400Y-51506400D03*
X11796700Y-39487000D03*
%TO.N,/AMP_DATA*%
X37631100Y-26783300D03*
X10679000Y-42535900D03*
%TO.N,/RADIO_MOSI*%
X34391400Y-13511500D03*
X10885200Y-39225300D03*
%TO.N,/CELL_NEG*%
X25500000Y-35749200D03*
X21081400Y-37726500D03*
X16242500Y-35234400D03*
%TO.N,/BMS_OC*%
X19872900Y-36906300D03*
X20679900Y-35668800D03*
%TO.N,/BMS_OD*%
X16244100Y-37041400D03*
X21370700Y-36271100D03*
%TO.N,/SYS_FUSED*%
X41400000Y-68521100D03*
%TO.N,/CHG_N*%
X6924500Y-59935400D03*
X9918300Y-31046700D03*
%TO.N,/SYS_SW*%
X34682600Y-25796600D03*
X18262500Y-27348200D03*
X40750000Y-30843100D03*
X37189700Y-29797600D03*
%TO.N,/USB_DM_ESD*%
X26282400Y-68017500D03*
X30020700Y-51037500D03*
%TO.N,/BAT_CELL*%
X28526200Y-32894400D03*
X35000000Y-45376600D03*
X14537000Y-31891100D03*
X41000000Y-55965300D03*
%TO.N,/RTS_N*%
X29378400Y-56305400D03*
X32588700Y-51940300D03*
%TO.N,/BMS_CS*%
X17031500Y-34177200D03*
X29175100Y-32375100D03*
%TO.N,/CH340_V3*%
X31987300Y-58130400D03*
X37247000Y-57181500D03*
%TO.N,/CC1*%
X21125300Y-93160400D03*
X28551200Y-90849100D03*
%TO.N,/SPK+*%
X41637500Y-28949900D03*
%TD*%
%TO.N,/USB_5V*%
D22*
X16656100Y-45582500D02*
X16523100Y-45449500D01*
X33704700Y-49384000D02*
X31835800Y-47515100D01*
X29809300Y-45582500D02*
X16656100Y-45582500D01*
X8175000Y-44349100D02*
X8175000Y-38793800D01*
X31460400Y-47515100D02*
X31049200Y-47103900D01*
X14261800Y-41072300D02*
X14261800Y-37405600D01*
X8868000Y-45042100D02*
X8175000Y-44349100D01*
X16523100Y-45449500D02*
X11629400Y-45449500D01*
X31835800Y-47515100D02*
X31460400Y-47515100D01*
X31049200Y-46822400D02*
X29809300Y-45582500D01*
X15525000Y-42335500D02*
X14261800Y-41072300D01*
X8175000Y-38793800D02*
X7990400Y-38609200D01*
X31049200Y-47103900D02*
X31049200Y-46822400D01*
X16523100Y-45449500D02*
X16523100Y-44839100D01*
%TO.N,/DTR_N*%
D23*
X33169400Y-61562300D02*
X36831600Y-57900100D01*
X32062500Y-61562300D02*
X33169400Y-61562300D01*
%TO.N,/GPIO0*%
X33937500Y-62332800D02*
X31461700Y-62332800D01*
X14863500Y-37201100D02*
X16698900Y-39036500D01*
X17246700Y-58481800D02*
X17246700Y-60928300D01*
X22915800Y-38893500D02*
X23245200Y-39222900D01*
X17246700Y-60928300D02*
X16756100Y-61418900D01*
X12763800Y-20966100D02*
X13332000Y-21534300D01*
X25098000Y-55969100D02*
X17917300Y-55969100D01*
X27149300Y-58020400D02*
X25098000Y-55969100D01*
X14863500Y-37156400D02*
X14863500Y-37201100D01*
X31461700Y-62332800D02*
X27149300Y-58020400D01*
X13332000Y-35624900D02*
X14863500Y-37156400D01*
X17031500Y-39036500D02*
X17174500Y-38893500D01*
X17174500Y-38893500D02*
X22915800Y-38893500D01*
X13332000Y-21534300D02*
X13332000Y-35624900D01*
X16698900Y-39036500D02*
X17031500Y-39036500D01*
X17917300Y-55969100D02*
X17001300Y-56885100D01*
X17001300Y-56885100D02*
X17001300Y-58236400D01*
X17001300Y-58236400D02*
X17246700Y-58481800D01*
%TO.N,/GND*%
X14119100Y-51913400D02*
X14119100Y-55853400D01*
X25119900Y-60932200D02*
X25625900Y-60426200D01*
X38200000Y-10800000D02*
X35800000Y-20100000D01*
X31820400Y-68293800D02*
X25114200Y-75000000D01*
X31820400Y-66492100D02*
X31820400Y-68293800D01*
X25754500Y-60426200D02*
X31820400Y-66492100D01*
X15852500Y-48655000D02*
X15090000Y-49417500D01*
X26820000Y-92720000D02*
X26820000Y-91368300D01*
X7080000Y-13460000D02*
X4540000Y-16000000D01*
X26820000Y-91368300D02*
X27408800Y-91368300D01*
X35049200Y-91450800D02*
X39000000Y-87500000D01*
X12723500Y-57249000D02*
X12723500Y-59936600D01*
X7080000Y-10000000D02*
X7080000Y-13460000D01*
X15368300Y-91368300D02*
X18180000Y-91368300D01*
X27408800Y-91368300D02*
X27491300Y-91450800D01*
X14327500Y-50180000D02*
X13565000Y-50942500D01*
X14327500Y-48655000D02*
X13565000Y-49417500D01*
X26310000Y-64000000D02*
X25119900Y-62809900D01*
X25114200Y-75000000D02*
X24000000Y-75000000D01*
X18180000Y-96900000D02*
X18180000Y-95798300D01*
X25625900Y-60426200D02*
X25754500Y-60426200D01*
X24440000Y-95798300D02*
X24440000Y-92958200D01*
X26029900Y-91368300D02*
X26820000Y-91368300D01*
X18180000Y-95798300D02*
X24440000Y-95798300D01*
X27491300Y-91450800D02*
X35049200Y-91450800D01*
X14327500Y-51705000D02*
X14119100Y-51913400D01*
X26820000Y-96900000D02*
X26820000Y-95798300D01*
X11500000Y-87500000D02*
X15368300Y-91368300D01*
X15090000Y-50942500D02*
X14327500Y-50180000D01*
X15852500Y-51705000D02*
X15090000Y-50942500D01*
X24440000Y-92958200D02*
X26029900Y-91368300D01*
X24440000Y-95798300D02*
X26820000Y-95798300D01*
X15090000Y-50942500D02*
X14327500Y-51705000D01*
X14119100Y-55853400D02*
X12723500Y-57249000D01*
X16615000Y-50942500D02*
X15852500Y-50180000D01*
X18180000Y-92720000D02*
X18180000Y-91368300D01*
X15852500Y-50180000D02*
X15090000Y-50942500D01*
X25119900Y-62809900D02*
X25119900Y-60932200D01*
%TO.N,/3V3*%
D24*
X38200000Y-73425000D02*
X40800000Y-77934200D01*
X7847500Y-17858500D02*
X7847500Y-24188600D01*
X33461200Y-31835600D02*
X33461200Y-46002000D01*
X36615300Y-77934200D02*
X33660700Y-74979600D01*
X22095000Y-62325000D02*
X18484700Y-62325000D01*
X33461200Y-46002000D02*
X37913500Y-50454300D01*
X37913500Y-50454300D02*
X37913500Y-59942200D01*
X37913500Y-59942200D02*
X34090800Y-63764900D01*
X40800000Y-77934200D02*
X36615300Y-77934200D01*
X12084700Y-13621300D02*
X7847500Y-17858500D01*
X33660700Y-74979600D02*
X33660700Y-71494800D01*
X23770000Y-64000000D02*
X22095000Y-62325000D01*
%TO.N,/I2S_WS*%
D23*
X18261700Y-44021400D02*
X21222900Y-44021400D01*
X36094900Y-29691500D02*
X41043100Y-34639700D01*
X27779700Y-43859700D02*
X32200500Y-39438900D01*
X36094900Y-29691500D02*
X36975300Y-28811100D01*
X34754100Y-29691500D02*
X36094900Y-29691500D01*
X32200500Y-32245100D02*
X34754100Y-29691500D01*
X35986900Y-63886800D02*
X42810000Y-57063700D01*
X21222900Y-44021400D02*
X21384600Y-43859700D01*
X32200500Y-39438900D02*
X32200500Y-32245100D01*
X21384600Y-43859700D02*
X27779700Y-43859700D01*
X18115700Y-44167400D02*
X18261700Y-44021400D01*
%TO.N,/I2S_BCLK*%
X34521800Y-74892300D02*
X34325800Y-74696300D01*
X41645700Y-29808900D02*
X41645700Y-57067300D01*
X32060500Y-64387200D02*
X24659000Y-56985700D01*
X38591800Y-26095100D02*
X38591800Y-26755000D01*
X38591800Y-26755000D02*
X41645700Y-29808900D01*
X41645700Y-57067300D02*
X34325800Y-64387200D01*
X34325800Y-64387200D02*
X32060500Y-64387200D01*
X34325800Y-74696300D02*
X34325800Y-64387200D01*
X24659000Y-56985700D02*
X20450000Y-56985700D01*
%TO.N,/MIC_DATA*%
X33058900Y-65953600D02*
X25956700Y-58851400D01*
X23585300Y-58343100D02*
X20809000Y-58343100D01*
X33058900Y-75303200D02*
X33058900Y-65953600D01*
X25956700Y-58851400D02*
X24093600Y-58851400D01*
X20809000Y-58343100D02*
X19053500Y-56587600D01*
X24093600Y-58851400D02*
X23585300Y-58343100D01*
X33791600Y-76035900D02*
X33058900Y-75303200D01*
%TO.N,/EN*%
X16558300Y-59442500D02*
X16643500Y-59527700D01*
X27793800Y-42992400D02*
X27528200Y-43258000D01*
X17751000Y-55567400D02*
X16558300Y-56760100D01*
X27528200Y-57223600D02*
X25872000Y-55567400D01*
X25872000Y-55567400D02*
X17751000Y-55567400D01*
X16558300Y-56760100D02*
X16558300Y-59442500D01*
X15110200Y-14619400D02*
X17844600Y-14619400D01*
X29937500Y-59632900D02*
X27528200Y-57223600D01*
X17844600Y-14619400D02*
X26700700Y-23475500D01*
X27793800Y-39031200D02*
X27793800Y-42992400D01*
%TO.N,/RADIO_BUSY*%
X21431200Y-5124900D02*
X14013700Y-12542400D01*
X9078400Y-43032600D02*
X9952000Y-43906200D01*
X9952000Y-47448600D02*
X10567100Y-48063700D01*
X12671100Y-54757000D02*
X11560000Y-55868100D01*
X10567100Y-49931500D02*
X12671100Y-52035500D01*
X10567100Y-48063700D02*
X10567100Y-49931500D01*
X12671100Y-52035500D02*
X12671100Y-54757000D01*
X9078400Y-33955700D02*
X9078400Y-43032600D01*
X14013700Y-12543400D02*
X8460400Y-18096700D01*
X10520100Y-29553200D02*
X10520100Y-32514000D01*
X9952000Y-43906200D02*
X9952000Y-47448600D01*
X14013700Y-12542400D02*
X14013700Y-12543400D01*
X8460400Y-18096700D02*
X8460400Y-27493500D01*
X34391200Y-5124900D02*
X21431200Y-5124900D01*
X11560000Y-55868100D02*
X11560000Y-56163300D01*
X8460400Y-27493500D02*
X10520100Y-29553200D01*
X10520100Y-32514000D02*
X9078400Y-33955700D01*
%TO.N,/RADIO_DIO1*%
X10353700Y-47215100D02*
X11405600Y-48267000D01*
X14768000Y-12356100D02*
X14415400Y-12708700D01*
X14415400Y-12709800D02*
X14325600Y-12799600D01*
X8862100Y-18828900D02*
X8862100Y-27325600D01*
X9667000Y-43053200D02*
X10353700Y-43739900D01*
X8862100Y-27325600D02*
X10921800Y-29385300D01*
X9667000Y-39993900D02*
X9667000Y-43053200D01*
X9480100Y-39807000D02*
X9667000Y-39993900D01*
X15337000Y-12356100D02*
X14768000Y-12356100D01*
X10967900Y-16157200D02*
X10967900Y-16723100D01*
X9667000Y-38456700D02*
X9480100Y-38643600D01*
X11405600Y-48267000D02*
X11405600Y-50202000D01*
X9480100Y-38643600D02*
X9480100Y-39807000D01*
X9667000Y-33935100D02*
X9667000Y-38456700D01*
X19680100Y-8013000D02*
X15337000Y-12356100D01*
X13072800Y-51869200D02*
X13072800Y-55325100D01*
X13072800Y-55325100D02*
X12830000Y-55567900D01*
X10921800Y-32680300D02*
X9667000Y-33935100D01*
X14325500Y-12799600D02*
X10967900Y-16157200D01*
X10921800Y-29385300D02*
X10921800Y-32680300D01*
X10967900Y-16723100D02*
X8862100Y-18828900D01*
X14325600Y-12799600D02*
X14325500Y-12799600D01*
X11405600Y-50202000D02*
X13072800Y-51869200D01*
X10353700Y-43739900D02*
X10353700Y-47215100D01*
X14415400Y-12708700D02*
X14415400Y-12709800D01*
%TO.N,/BAT_SENSE*%
X14520800Y-56532900D02*
X14100000Y-56953700D01*
X22729400Y-46858300D02*
X14520800Y-55066900D01*
X29451700Y-46858300D02*
X22729400Y-46858300D01*
X14520800Y-55066900D02*
X14520800Y-56532900D01*
X29586200Y-46992800D02*
X29451700Y-46858300D01*
%TO.N,/POT_ADC*%
D25*
X600000Y-18700000D02*
X7256200Y-25367700D01*
D23*
X15344900Y-60024800D02*
X15344900Y-65360200D01*
X7657000Y-39133000D02*
X7657000Y-49126200D01*
X7256200Y-25367700D02*
X7256200Y-38732200D01*
D25*
X600000Y-13950000D02*
X600000Y-18700000D01*
D23*
X7657000Y-49126200D02*
X11667600Y-53136800D01*
D25*
X4540000Y-10000000D02*
X600000Y-13950000D01*
D23*
X7256200Y-38732200D02*
X7657000Y-39133000D01*
X15344900Y-65360200D02*
X14496800Y-66208300D01*
%TO.N,/BTN5*%
X19231600Y-59145000D02*
X18404100Y-59972500D01*
X25790400Y-59253100D02*
X22396200Y-59253100D01*
X32657200Y-86157200D02*
X32657200Y-66119900D01*
X32657200Y-66119900D02*
X25790400Y-59253100D01*
X22288100Y-59145000D02*
X19231600Y-59145000D01*
X22396200Y-59253100D02*
X22288100Y-59145000D01*
X34000000Y-87500000D02*
X32657200Y-86157200D01*
%TO.N,/BTN4*%
X32222100Y-66325800D02*
X25657700Y-59761400D01*
X32222100Y-74277900D02*
X32222100Y-66325800D01*
X19000000Y-87500000D02*
X32222100Y-74277900D01*
X25657700Y-59761400D02*
X21720000Y-59761400D01*
%TO.N,/OLED_SCL*%
X28412100Y-65446600D02*
X30816900Y-67851400D01*
X22676600Y-65446600D02*
X28412100Y-65446600D01*
X21230000Y-64000000D02*
X22676600Y-65446600D01*
%TO.N,/GPIO12*%
X10470400Y-38789300D02*
X10283500Y-38976200D01*
X10283500Y-39474400D02*
X10470400Y-39661300D01*
X10957000Y-28144600D02*
X11725200Y-28912800D01*
X10470400Y-37277800D02*
X10470400Y-38789300D01*
X15774200Y-42937200D02*
X16050900Y-42660500D01*
X14773600Y-13201300D02*
X14491800Y-13201300D01*
X13439200Y-42937200D02*
X15774200Y-42937200D01*
X11369600Y-16891500D02*
X10957000Y-17304100D01*
X15017100Y-12957800D02*
X14773600Y-13201300D01*
X11725200Y-28912800D02*
X11725200Y-36023000D01*
X10283500Y-38976200D02*
X10283500Y-39474400D01*
X10957000Y-17304100D02*
X10957000Y-28144600D01*
X14491800Y-13201300D02*
X11369600Y-16323500D01*
X10470400Y-39968400D02*
X13439200Y-42937200D01*
X19851900Y-42660500D02*
X19900000Y-42612400D01*
X11725200Y-36023000D02*
X10470400Y-37277800D01*
X11369600Y-16323500D02*
X11369600Y-16891500D01*
X10470400Y-39661300D02*
X10470400Y-39968400D01*
X16050900Y-42660500D02*
X19851900Y-42660500D01*
%TO.N,/BTN2*%
X31418700Y-66685800D02*
X26006800Y-61273900D01*
X31418700Y-68121800D02*
X31418700Y-66685800D01*
X26006800Y-61273900D02*
X25751200Y-61273900D01*
X30921300Y-68619200D02*
X31418700Y-68121800D01*
X19000000Y-75000000D02*
X25380800Y-68619200D01*
X25380800Y-68619200D02*
X30921300Y-68619200D01*
%TO.N,/AMP_ENABLE*%
X29818300Y-44880800D02*
X26844900Y-44880800D01*
X31750900Y-46813400D02*
X29818300Y-44880800D01*
%TO.N,/LED_STATUS*%
X10068700Y-38623000D02*
X9881800Y-38809900D01*
X13515500Y-51743900D02*
X12797500Y-51025900D01*
X10068700Y-42776400D02*
X10832000Y-43539700D01*
X11323500Y-32846600D02*
X10068700Y-34101400D01*
X10039400Y-65979300D02*
X10039400Y-59282500D01*
X12077600Y-43539700D02*
X12278500Y-43740600D01*
X10832000Y-43539700D02*
X10981800Y-43539700D01*
X11323500Y-29079200D02*
X11323500Y-32846600D01*
X9463900Y-20967600D02*
X9463900Y-27219600D01*
X10981800Y-43539700D02*
X12077600Y-43539700D01*
X21056500Y-43619700D02*
X21458200Y-43218000D01*
X16106800Y-43740600D02*
X16281800Y-43565600D01*
X10068700Y-39827600D02*
X10068700Y-42776400D01*
X10068700Y-34101400D02*
X10068700Y-38623000D01*
X21458200Y-43218000D02*
X22074900Y-43218000D01*
X18399500Y-43565600D02*
X18453600Y-43619700D01*
X16281800Y-43565600D02*
X18399500Y-43565600D01*
X9463900Y-27219600D02*
X11323500Y-29079200D01*
X10981800Y-45876200D02*
X10981800Y-43539700D01*
X12278500Y-43740600D02*
X16106800Y-43740600D01*
X12797500Y-47691900D02*
X10981800Y-45876200D01*
X13515500Y-55806400D02*
X13515500Y-51743900D01*
X18453600Y-43619700D02*
X21056500Y-43619700D01*
X9881800Y-38809900D02*
X9881800Y-39640700D01*
X10039400Y-59282500D02*
X13515500Y-55806400D01*
X12797500Y-51025900D02*
X12797500Y-47691900D01*
X9881800Y-39640700D02*
X10068700Y-39827600D01*
%TO.N,/BTN1*%
X13325300Y-58629300D02*
X13325300Y-68174700D01*
X15353200Y-56601400D02*
X13325300Y-58629300D01*
X15353200Y-55106300D02*
X15353200Y-56601400D01*
X13325300Y-68174700D02*
X6500000Y-75000000D01*
X22990000Y-47469500D02*
X15353200Y-55106300D01*
%TO.N,/BTN3*%
X13727000Y-80273000D02*
X6500000Y-87500000D01*
X15754900Y-56841500D02*
X13727000Y-58869400D01*
X21411200Y-51320800D02*
X20861600Y-51320800D01*
X20861600Y-51320800D02*
X15754900Y-56427500D01*
X13727000Y-58869400D02*
X13727000Y-80273000D01*
X15754900Y-56427500D02*
X15754900Y-56841500D01*
%TO.N,/RADIO_RST*%
X14188400Y-20413300D02*
X12896300Y-19121200D01*
X15357500Y-37127100D02*
X15357500Y-36486700D01*
X16823900Y-38593500D02*
X15357500Y-37127100D01*
X17216900Y-38283100D02*
X16906500Y-38593500D01*
X20450000Y-38283100D02*
X17216900Y-38283100D01*
X15357500Y-36486700D02*
X13885300Y-35014500D01*
X13885300Y-21554000D02*
X14188400Y-21250900D01*
X13885300Y-35014500D02*
X13885300Y-21554000D01*
X14188400Y-21250900D02*
X14188400Y-20413300D01*
X12896300Y-16874400D02*
X14102800Y-15667900D01*
X16906500Y-38593500D02*
X16823900Y-38593500D01*
X14102800Y-15667900D02*
X17355200Y-15667900D01*
X12896300Y-19121200D02*
X12896300Y-16874400D01*
%TO.N,/RADIO_NSS*%
X36134100Y-24477400D02*
X36134100Y-27057600D01*
X34993900Y-19830800D02*
X34993900Y-23337200D01*
X36134100Y-27057600D02*
X31388000Y-31803700D01*
X31388000Y-31803700D02*
X31388000Y-33084400D01*
X34993900Y-23337200D02*
X36134100Y-24477400D01*
X31388000Y-33084400D02*
X22470700Y-42001700D01*
X34350100Y-19187000D02*
X34993900Y-19830800D01*
X22470700Y-42001700D02*
X19180000Y-42001700D01*
%TO.N,/RADIO_SCK*%
X23437200Y-39899200D02*
X24709200Y-38627200D01*
X30264900Y-32929500D02*
X30264900Y-31790700D01*
X18311700Y-39899200D02*
X23437200Y-39899200D01*
X24709200Y-38627200D02*
X24709200Y-38485200D01*
X30264900Y-31790700D02*
X35284400Y-26771200D01*
X35284400Y-26771200D02*
X35284400Y-24763700D01*
X24709200Y-38485200D02*
X30264900Y-32929500D01*
X31865000Y-21344300D02*
X31865000Y-19521900D01*
X17910000Y-39497500D02*
X18311700Y-39899200D01*
X35284400Y-24763700D02*
X31865000Y-21344300D01*
%TO.N,/RADIO_MISO*%
X35686100Y-24597400D02*
X34550900Y-23462200D01*
X30986300Y-31637300D02*
X35686100Y-26937500D01*
X15964200Y-39492800D02*
X16772300Y-40300900D01*
X25110900Y-38653000D02*
X30986300Y-32777600D01*
X35686100Y-26937500D02*
X35686100Y-24597400D01*
X23603500Y-40300900D02*
X25110900Y-38793500D01*
X34550900Y-22894300D02*
X33700100Y-22043500D01*
X33700100Y-22043500D02*
X33700100Y-18686700D01*
X25110900Y-38793500D02*
X25110900Y-38653000D01*
X34550900Y-23462200D02*
X34550900Y-22894300D01*
X30986300Y-32777600D02*
X30986300Y-31637300D01*
X16772300Y-40300900D02*
X23603500Y-40300900D01*
%TO.N,/OLED_SDA*%
X17791500Y-63101500D02*
X17791500Y-56977100D01*
X20862500Y-66172500D02*
X27997500Y-66172500D01*
X18690000Y-64000000D02*
X17791500Y-63101500D01*
X18690000Y-64000000D02*
X20862500Y-66172500D01*
%TO.N,/UART_RX*%
X35192200Y-51956300D02*
X35659900Y-51956300D01*
X30547500Y-47311600D02*
X35192200Y-51956300D01*
X29765500Y-46295600D02*
X30547500Y-47077600D01*
X13355700Y-42002900D02*
X12930300Y-41577500D01*
X12162100Y-24360000D02*
X12162100Y-20717000D01*
X12930300Y-25128200D02*
X12162100Y-24360000D01*
X12514800Y-20364300D02*
X13065300Y-20364300D01*
X12930300Y-41577500D02*
X12930300Y-25128200D01*
X12162100Y-20717000D02*
X12514800Y-20364300D01*
X13065300Y-20364300D02*
X13586700Y-20885700D01*
X12830000Y-46295600D02*
X29765500Y-46295600D01*
X30547500Y-47077600D02*
X30547500Y-47311600D01*
%TO.N,/UART_TX*%
X21400100Y-44412200D02*
X26462700Y-44412200D01*
X12173000Y-19996300D02*
X11760400Y-20408900D01*
X37185400Y-51346700D02*
X37185400Y-51506400D01*
X14824400Y-14004700D02*
X12173000Y-16656100D01*
X17866600Y-44769100D02*
X21043200Y-44769100D01*
X15389300Y-14004700D02*
X14824400Y-14004700D01*
X30117800Y-44279100D02*
X37185400Y-51346700D01*
X17262600Y-44165100D02*
X17866600Y-44769100D01*
X11758900Y-44165100D02*
X17262600Y-44165100D01*
X12173000Y-16656100D02*
X12173000Y-19996300D01*
X16253200Y-13801600D02*
X15964100Y-13512500D01*
X11760400Y-24559900D02*
X12528600Y-25328100D01*
X15964100Y-13512500D02*
X15881500Y-13512500D01*
X11760400Y-20408900D02*
X11760400Y-24559900D01*
X15881500Y-13512500D02*
X15389300Y-14004700D01*
X26462700Y-44412200D02*
X26595800Y-44279100D01*
X17525300Y-13801600D02*
X16253200Y-13801600D01*
X12528600Y-25328100D02*
X12528600Y-38755100D01*
X21043200Y-44769100D02*
X21400100Y-44412200D01*
X12528600Y-38755100D02*
X11796700Y-39487000D01*
X26595800Y-44279100D02*
X30117800Y-44279100D01*
%TO.N,/AMP_DATA*%
X37093400Y-26783300D02*
X31789700Y-32087000D01*
X18565800Y-43163900D02*
X16115500Y-43163900D01*
X37631100Y-26783300D02*
X37093400Y-26783300D01*
X18619900Y-43218000D02*
X18565800Y-43163900D01*
X20684800Y-43218000D02*
X18619900Y-43218000D01*
X31789700Y-32087000D02*
X31789700Y-33271100D01*
X31789700Y-33271100D02*
X22605000Y-42455800D01*
X11842000Y-42535900D02*
X10679000Y-42535900D01*
X16115500Y-43163900D02*
X15940500Y-43338900D01*
X21447000Y-42455800D02*
X20684800Y-43218000D01*
X22605000Y-42455800D02*
X21447000Y-42455800D01*
X12645000Y-43338900D02*
X11842000Y-42535900D01*
X15940500Y-43338900D02*
X12645000Y-43338900D01*
%TO.N,/RADIO_MOSI*%
X34391400Y-13511500D02*
X34079800Y-13199900D01*
X12126900Y-37983600D02*
X10885200Y-39225300D01*
X17276200Y-13199900D02*
X17205100Y-13271000D01*
X15756500Y-13069500D02*
X15223000Y-13603000D01*
X11358700Y-24726200D02*
X12126900Y-25494400D01*
X11771300Y-19830000D02*
X11358700Y-20242600D01*
X11771300Y-16489800D02*
X11771300Y-19830000D01*
X17205100Y-13271000D02*
X16290600Y-13271000D01*
X12126900Y-25494400D02*
X12126900Y-37983600D01*
X14658100Y-13603000D02*
X11771300Y-16489800D01*
X34079800Y-13199900D02*
X17276200Y-13199900D01*
X16089100Y-13069500D02*
X15756500Y-13069500D01*
X16290600Y-13271000D02*
X16089100Y-13069500D01*
X15223000Y-13603000D02*
X14658100Y-13603000D01*
X11358700Y-20242600D02*
X11358700Y-24726200D01*
%TO.N,/CELL_NEG*%
D22*
X16242500Y-20057500D02*
X16242500Y-35234400D01*
X25500000Y-35749200D02*
X23058700Y-35749200D01*
X18300000Y-18000000D02*
X16242500Y-20057500D01*
X23058700Y-35749200D02*
X21081400Y-37726500D01*
%TO.N,/BMS_OC*%
D23*
X19873000Y-36906300D02*
X19872900Y-36906300D01*
X19873000Y-36475700D02*
X19873000Y-36906300D01*
X20679900Y-35668800D02*
X19873000Y-36475700D01*
%TO.N,/BMS_OD*%
X16244100Y-37041400D02*
X16746400Y-37543700D01*
X16746400Y-37543700D02*
X20098100Y-37543700D01*
X20098100Y-37543700D02*
X21370700Y-36271100D01*
%TO.N,/SYS_FUSED*%
D22*
X37500000Y-70500000D02*
X39478900Y-68521100D01*
X39478900Y-68521100D02*
X41400000Y-68521100D01*
%TO.N,/CHG_N*%
D23*
X9469700Y-49402100D02*
X12269400Y-52201800D01*
X8676700Y-43399100D02*
X9469700Y-44192100D01*
X9469700Y-44192100D02*
X9469700Y-49402100D01*
X8676700Y-32288300D02*
X8676700Y-43399100D01*
X12269400Y-54590500D02*
X6924500Y-59935400D01*
X9918300Y-31046700D02*
X8676700Y-32288300D01*
X12269400Y-52201800D02*
X12269400Y-54590500D01*
%TO.N,/SYS_SW*%
D22*
X33131000Y-27348200D02*
X18262500Y-27348200D01*
X37189700Y-29797600D02*
X39704500Y-29797600D01*
X34682600Y-25796600D02*
X33131000Y-27348200D01*
X39704500Y-29797600D02*
X40750000Y-30843100D01*
%TO.N,/USB_DM_ESD*%
D23*
X16030600Y-63330100D02*
X20718000Y-68017500D01*
X20718000Y-68017500D02*
X26282400Y-68017500D01*
X17584700Y-55165700D02*
X16156600Y-56593800D01*
X25892500Y-55165700D02*
X17584700Y-55165700D01*
X16156600Y-57118900D02*
X16030600Y-57244900D01*
X16030600Y-57244900D02*
X16030600Y-63330100D01*
X16156600Y-56593800D02*
X16156600Y-57118900D01*
X30020700Y-51037500D02*
X25892500Y-55165700D01*
%TO.N,/BAT_CELL*%
D22*
X17104400Y-35953300D02*
X20163300Y-32894400D01*
X41000000Y-55965300D02*
X41000000Y-51376600D01*
X20163300Y-32894400D02*
X28526200Y-32894400D01*
X14690100Y-31738000D02*
X14690100Y-18190100D01*
X14690100Y-18190100D02*
X14500000Y-18000000D01*
X14537000Y-31891100D02*
X14690100Y-31738000D01*
X14537000Y-31891100D02*
X14537000Y-34535100D01*
X15955200Y-35953300D02*
X17104400Y-35953300D01*
X14537000Y-34535100D02*
X15955200Y-35953300D01*
X41000000Y-51376600D02*
X35000000Y-45376600D01*
%TO.N,/RTS_N*%
D23*
X32588700Y-53095100D02*
X29378400Y-56305400D01*
X32588700Y-51940300D02*
X32588700Y-53095100D01*
%TO.N,/BMS_CS*%
X18944000Y-32264700D02*
X17031500Y-34177200D01*
X29175100Y-32375100D02*
X29064700Y-32264700D01*
X29064700Y-32264700D02*
X18944000Y-32264700D01*
%TO.N,/CH340_V3*%
X31987300Y-58130400D02*
X32936200Y-57181500D01*
X32936200Y-57181500D02*
X37247000Y-57181500D01*
%TO.N,/CC1*%
X23436600Y-90849100D02*
X28551200Y-90849100D01*
X21125300Y-93160400D02*
X23436600Y-90849100D01*
%TO.N,/SPK+*%
D22*
X37500000Y-22500000D02*
X41637500Y-26637500D01*
X41637500Y-26637500D02*
X41637500Y-28949900D01*
%TD*%
%TA.AperFunction,Conductor*%
%TO.N,/GND*%
G36*
X44359191Y-618907D02*
G01*
X44395155Y-668407D01*
X44400000Y-699000D01*
X44400000Y-99301000D01*
X44381093Y-99359191D01*
X44331593Y-99395155D01*
X44301000Y-99400000D01*
X699000Y-99400000D01*
X640809Y-99381093D01*
X604845Y-99331593D01*
X600000Y-99301000D01*
X600000Y-95878710D01*
X2149500Y-95878710D01*
X2149500Y-96121289D01*
X2181161Y-96361781D01*
X2181161Y-96361786D01*
X2243944Y-96596092D01*
X2243948Y-96596105D01*
X2336772Y-96820204D01*
X2336774Y-96820208D01*
X2336776Y-96820212D01*
X2458064Y-97030289D01*
X2458066Y-97030292D01*
X2605729Y-97222731D01*
X2605731Y-97222733D01*
X2605735Y-97222738D01*
X2777262Y-97394265D01*
X2777266Y-97394268D01*
X2777268Y-97394270D01*
X2969707Y-97541933D01*
X2969711Y-97541936D01*
X3179788Y-97663224D01*
X3403900Y-97756054D01*
X3638211Y-97818838D01*
X3878712Y-97850500D01*
X3878713Y-97850500D01*
X4121287Y-97850500D01*
X4121288Y-97850500D01*
X4361789Y-97818838D01*
X4596100Y-97756054D01*
X4820212Y-97663224D01*
X5030289Y-97541936D01*
X5222738Y-97394265D01*
X5394265Y-97222738D01*
X5541936Y-97030289D01*
X5663224Y-96820212D01*
X5756054Y-96596100D01*
X5818838Y-96361789D01*
X5850500Y-96121288D01*
X5850500Y-95878712D01*
X5850500Y-95878710D01*
X39149500Y-95878710D01*
X39149500Y-96121289D01*
X39181161Y-96361781D01*
X39181161Y-96361786D01*
X39243944Y-96596092D01*
X39243948Y-96596105D01*
X39336772Y-96820204D01*
X39336774Y-96820208D01*
X39336776Y-96820212D01*
X39458064Y-97030289D01*
X39458066Y-97030292D01*
X39605729Y-97222731D01*
X39605731Y-97222733D01*
X39605735Y-97222738D01*
X39777262Y-97394265D01*
X39777266Y-97394268D01*
X39777268Y-97394270D01*
X39969707Y-97541933D01*
X39969711Y-97541936D01*
X40179788Y-97663224D01*
X40403900Y-97756054D01*
X40638211Y-97818838D01*
X40878712Y-97850500D01*
X40878713Y-97850500D01*
X41121287Y-97850500D01*
X41121288Y-97850500D01*
X41361789Y-97818838D01*
X41596100Y-97756054D01*
X41820212Y-97663224D01*
X42030289Y-97541936D01*
X42222738Y-97394265D01*
X42394265Y-97222738D01*
X42541936Y-97030289D01*
X42663224Y-96820212D01*
X42756054Y-96596100D01*
X42818838Y-96361789D01*
X42850500Y-96121288D01*
X42850500Y-95878712D01*
X42818838Y-95638211D01*
X42756054Y-95403900D01*
X42663224Y-95179788D01*
X42541936Y-94969711D01*
X42394265Y-94777262D01*
X42222738Y-94605735D01*
X42222733Y-94605731D01*
X42222731Y-94605729D01*
X42030292Y-94458066D01*
X42030289Y-94458064D01*
X41820212Y-94336776D01*
X41820208Y-94336774D01*
X41820204Y-94336772D01*
X41596105Y-94243948D01*
X41596104Y-94243947D01*
X41596100Y-94243946D01*
X41361789Y-94181162D01*
X41361786Y-94181161D01*
X41361784Y-94181161D01*
X41121289Y-94149500D01*
X41121288Y-94149500D01*
X40878712Y-94149500D01*
X40878710Y-94149500D01*
X40638218Y-94181161D01*
X40638213Y-94181161D01*
X40403907Y-94243944D01*
X40403894Y-94243948D01*
X40179795Y-94336772D01*
X39969707Y-94458066D01*
X39777268Y-94605729D01*
X39605729Y-94777268D01*
X39458066Y-94969707D01*
X39336772Y-95179795D01*
X39243948Y-95403894D01*
X39243944Y-95403907D01*
X39181161Y-95638213D01*
X39181161Y-95638218D01*
X39149500Y-95878710D01*
X5850500Y-95878710D01*
X5818838Y-95638211D01*
X5756054Y-95403900D01*
X5663224Y-95179788D01*
X5541936Y-94969711D01*
X5394265Y-94777262D01*
X5222738Y-94605735D01*
X5222733Y-94605731D01*
X5222731Y-94605729D01*
X5030292Y-94458066D01*
X5030289Y-94458064D01*
X4820212Y-94336776D01*
X4820208Y-94336774D01*
X4820204Y-94336772D01*
X4596105Y-94243948D01*
X4596104Y-94243947D01*
X4596100Y-94243946D01*
X4361789Y-94181162D01*
X4361786Y-94181161D01*
X4361784Y-94181161D01*
X4121289Y-94149500D01*
X4121288Y-94149500D01*
X3878712Y-94149500D01*
X3878710Y-94149500D01*
X3638218Y-94181161D01*
X3638213Y-94181161D01*
X3403907Y-94243944D01*
X3403894Y-94243948D01*
X3179795Y-94336772D01*
X2969707Y-94458066D01*
X2777268Y-94605729D01*
X2605729Y-94777268D01*
X2458066Y-94969707D01*
X2336772Y-95179795D01*
X2243948Y-95403894D01*
X2243944Y-95403907D01*
X2181161Y-95638213D01*
X2181161Y-95638218D01*
X2149500Y-95878710D01*
X600000Y-95878710D01*
X600000Y-93174234D01*
X19034500Y-93174234D01*
X19034500Y-93325766D01*
X19069086Y-93454847D01*
X19073720Y-93472139D01*
X19149481Y-93603360D01*
X19149483Y-93603362D01*
X19149485Y-93603365D01*
X19256635Y-93710515D01*
X19256637Y-93710516D01*
X19256639Y-93710518D01*
X19387861Y-93786279D01*
X19387859Y-93786279D01*
X19387863Y-93786280D01*
X19387865Y-93786281D01*
X19534234Y-93825500D01*
X19534236Y-93825500D01*
X19685764Y-93825500D01*
X19685766Y-93825500D01*
X19832135Y-93786281D01*
X19832137Y-93786279D01*
X19832139Y-93786279D01*
X19963360Y-93710518D01*
X19963360Y-93710517D01*
X19963365Y-93710515D01*
X20070515Y-93603365D01*
X20146281Y-93472135D01*
X20185500Y-93325766D01*
X20185500Y-93174234D01*
X20162374Y-93087925D01*
X20574800Y-93087925D01*
X20574800Y-93232874D01*
X20612317Y-93372889D01*
X20684787Y-93498410D01*
X20684789Y-93498412D01*
X20684791Y-93498415D01*
X20787285Y-93600909D01*
X20787287Y-93600910D01*
X20787289Y-93600912D01*
X20912811Y-93673382D01*
X20912812Y-93673382D01*
X20912815Y-93673384D01*
X21052825Y-93710900D01*
X21052826Y-93710900D01*
X21197774Y-93710900D01*
X21197775Y-93710900D01*
X21337785Y-93673384D01*
X21337787Y-93673382D01*
X21337789Y-93673382D01*
X21463310Y-93600912D01*
X21463310Y-93600911D01*
X21463315Y-93600909D01*
X21565809Y-93498415D01*
X21638284Y-93372885D01*
X21675800Y-93232875D01*
X21675800Y-93174234D01*
X24814500Y-93174234D01*
X24814500Y-93325766D01*
X24849086Y-93454847D01*
X24853720Y-93472139D01*
X24929481Y-93603360D01*
X24929483Y-93603362D01*
X24929485Y-93603365D01*
X25036635Y-93710515D01*
X25036637Y-93710516D01*
X25036639Y-93710518D01*
X25167861Y-93786279D01*
X25167859Y-93786279D01*
X25167863Y-93786280D01*
X25167865Y-93786281D01*
X25314234Y-93825500D01*
X25314236Y-93825500D01*
X25465764Y-93825500D01*
X25465766Y-93825500D01*
X25612135Y-93786281D01*
X25612137Y-93786279D01*
X25612139Y-93786279D01*
X25743360Y-93710518D01*
X25743360Y-93710517D01*
X25743365Y-93710515D01*
X25850515Y-93603365D01*
X25926281Y-93472135D01*
X25965500Y-93325766D01*
X25965500Y-93174234D01*
X25926281Y-93027865D01*
X25926279Y-93027862D01*
X25926279Y-93027860D01*
X25850518Y-92896639D01*
X25850516Y-92896637D01*
X25850515Y-92896635D01*
X25743365Y-92789485D01*
X25743362Y-92789483D01*
X25743360Y-92789481D01*
X25612138Y-92713720D01*
X25612140Y-92713720D01*
X25555347Y-92698503D01*
X25465766Y-92674500D01*
X25314234Y-92674500D01*
X25224652Y-92698503D01*
X25167860Y-92713720D01*
X25036639Y-92789481D01*
X24929481Y-92896639D01*
X24853720Y-93027860D01*
X24853719Y-93027865D01*
X24814500Y-93174234D01*
X21675800Y-93174234D01*
X21675800Y-93146590D01*
X21694707Y-93088399D01*
X21704796Y-93076586D01*
X23552786Y-91228596D01*
X23607303Y-91200819D01*
X23622790Y-91199600D01*
X28082168Y-91199600D01*
X28140359Y-91218507D01*
X28152171Y-91228596D01*
X28213184Y-91289608D01*
X28213189Y-91289612D01*
X28338711Y-91362082D01*
X28338712Y-91362082D01*
X28338715Y-91362084D01*
X28478725Y-91399600D01*
X28478726Y-91399600D01*
X28623674Y-91399600D01*
X28623675Y-91399600D01*
X28763685Y-91362084D01*
X28763687Y-91362082D01*
X28763689Y-91362082D01*
X28889210Y-91289612D01*
X28889210Y-91289611D01*
X28889215Y-91289609D01*
X28991709Y-91187115D01*
X29064184Y-91061585D01*
X29101700Y-90921575D01*
X29101700Y-90776625D01*
X29064184Y-90636615D01*
X29064182Y-90636612D01*
X29064182Y-90636610D01*
X28991712Y-90511089D01*
X28991710Y-90511087D01*
X28991709Y-90511085D01*
X28889215Y-90408591D01*
X28889212Y-90408589D01*
X28889210Y-90408587D01*
X28763688Y-90336117D01*
X28763689Y-90336117D01*
X28734096Y-90328187D01*
X28623675Y-90298600D01*
X28478725Y-90298600D01*
X28416990Y-90315141D01*
X28338710Y-90336117D01*
X28213189Y-90408587D01*
X28213184Y-90408591D01*
X28152171Y-90469604D01*
X28097654Y-90497381D01*
X28082168Y-90498600D01*
X23482744Y-90498600D01*
X23390456Y-90498600D01*
X23301312Y-90522486D01*
X23221388Y-90568630D01*
X21209114Y-92580904D01*
X21154597Y-92608681D01*
X21139110Y-92609900D01*
X21052825Y-92609900D01*
X20991090Y-92626441D01*
X20912810Y-92647417D01*
X20787289Y-92719887D01*
X20684787Y-92822389D01*
X20612317Y-92947910D01*
X20574800Y-93087925D01*
X20162374Y-93087925D01*
X20146281Y-93027865D01*
X20146279Y-93027862D01*
X20146279Y-93027860D01*
X20070518Y-92896639D01*
X20070516Y-92896637D01*
X20070515Y-92896635D01*
X19963365Y-92789485D01*
X19963362Y-92789483D01*
X19963360Y-92789481D01*
X19832138Y-92713720D01*
X19832140Y-92713720D01*
X19775347Y-92698503D01*
X19685766Y-92674500D01*
X19534234Y-92674500D01*
X19444652Y-92698503D01*
X19387860Y-92713720D01*
X19256639Y-92789481D01*
X19149481Y-92896639D01*
X19073720Y-93027860D01*
X19073719Y-93027865D01*
X19034500Y-93174234D01*
X600000Y-93174234D01*
X600000Y-73599000D01*
X618907Y-73540809D01*
X668407Y-73504845D01*
X699000Y-73500000D01*
X5421397Y-73500000D01*
X5479588Y-73518907D01*
X5515552Y-73568407D01*
X5515552Y-73629593D01*
X5479588Y-73679093D01*
X5472614Y-73683722D01*
X5368604Y-73746598D01*
X5246598Y-73868604D01*
X5157337Y-74016258D01*
X5157334Y-74016266D01*
X5106007Y-74180982D01*
X5106005Y-74180988D01*
X5099500Y-74252576D01*
X5099500Y-75747410D01*
X5099501Y-75747425D01*
X5106005Y-75819010D01*
X5106007Y-75819016D01*
X5157334Y-75983734D01*
X5157337Y-75983741D01*
X5223662Y-76093455D01*
X5246599Y-76131397D01*
X5368603Y-76253401D01*
X5516260Y-76342663D01*
X5680988Y-76393994D01*
X5752581Y-76400500D01*
X7247418Y-76400499D01*
X7319012Y-76393994D01*
X7483740Y-76342663D01*
X7631397Y-76253401D01*
X7753401Y-76131397D01*
X7842663Y-75983740D01*
X7893994Y-75819012D01*
X7900500Y-75747419D01*
X7900499Y-74252582D01*
X7893994Y-74180988D01*
X7892958Y-74177663D01*
X7892979Y-74175888D01*
X7892972Y-74175851D01*
X7892979Y-74175849D01*
X7893699Y-74116482D01*
X7917470Y-74078210D01*
X13207497Y-68788183D01*
X13262013Y-68760408D01*
X13322445Y-68769979D01*
X13365710Y-68813244D01*
X13376500Y-68858189D01*
X13376500Y-80086810D01*
X13357593Y-80145001D01*
X13347504Y-80156814D01*
X7421790Y-86082527D01*
X7367273Y-86110304D01*
X7322336Y-86107041D01*
X7319018Y-86106007D01*
X7319011Y-86106005D01*
X7253924Y-86100091D01*
X7247419Y-86099500D01*
X7247418Y-86099500D01*
X5752589Y-86099500D01*
X5752574Y-86099501D01*
X5680989Y-86106005D01*
X5680983Y-86106007D01*
X5516265Y-86157334D01*
X5516258Y-86157337D01*
X5368604Y-86246598D01*
X5246598Y-86368604D01*
X5157337Y-86516258D01*
X5157334Y-86516266D01*
X5106007Y-86680982D01*
X5106005Y-86680988D01*
X5099500Y-86752576D01*
X5099500Y-88247410D01*
X5099501Y-88247425D01*
X5106005Y-88319010D01*
X5106007Y-88319016D01*
X5157334Y-88483734D01*
X5157337Y-88483741D01*
X5223662Y-88593455D01*
X5246599Y-88631397D01*
X5368603Y-88753401D01*
X5516260Y-88842663D01*
X5680988Y-88893994D01*
X5752581Y-88900500D01*
X7247418Y-88900499D01*
X7319012Y-88893994D01*
X7483740Y-88842663D01*
X7631397Y-88753401D01*
X7753401Y-88631397D01*
X7842663Y-88483740D01*
X7893994Y-88319012D01*
X7900500Y-88247419D01*
X7900499Y-86752582D01*
X7893994Y-86680988D01*
X7893993Y-86680984D01*
X7892958Y-86677662D01*
X7892979Y-86675887D01*
X7892972Y-86675850D01*
X7892979Y-86675848D01*
X7893699Y-86616481D01*
X7917470Y-86578209D01*
X14007469Y-80488212D01*
X14053614Y-80408288D01*
X14077500Y-80319144D01*
X14077500Y-66773352D01*
X14096407Y-66715161D01*
X14145907Y-66679197D01*
X14207093Y-66679197D01*
X14225998Y-66687615D01*
X14284315Y-66721284D01*
X14424325Y-66758800D01*
X14424326Y-66758800D01*
X14569274Y-66758800D01*
X14569275Y-66758800D01*
X14709285Y-66721284D01*
X14709287Y-66721282D01*
X14709289Y-66721282D01*
X14834810Y-66648812D01*
X14834810Y-66648811D01*
X14834815Y-66648809D01*
X14937309Y-66546315D01*
X14970533Y-66488770D01*
X15009782Y-66420789D01*
X15009782Y-66420787D01*
X15009784Y-66420785D01*
X15047300Y-66280775D01*
X15047300Y-66194489D01*
X15066207Y-66136298D01*
X15076290Y-66124491D01*
X15625370Y-65575412D01*
X15671514Y-65495488D01*
X15695400Y-65406343D01*
X15695400Y-65314056D01*
X15695400Y-63729589D01*
X15714307Y-63671398D01*
X15763807Y-63635434D01*
X15824993Y-63635434D01*
X15864401Y-63659583D01*
X20502788Y-68297970D01*
X20582712Y-68344114D01*
X20671856Y-68368000D01*
X20671857Y-68368000D01*
X20764144Y-68368000D01*
X24897310Y-68368000D01*
X24955501Y-68386907D01*
X24991465Y-68436407D01*
X24991465Y-68497593D01*
X24967314Y-68537004D01*
X19921789Y-73582527D01*
X19867272Y-73610304D01*
X19822335Y-73607041D01*
X19819013Y-73606006D01*
X19783215Y-73602753D01*
X19747419Y-73599500D01*
X19747418Y-73599500D01*
X18252589Y-73599500D01*
X18252574Y-73599501D01*
X18180989Y-73606005D01*
X18180983Y-73606007D01*
X18016265Y-73657334D01*
X18016258Y-73657337D01*
X17868604Y-73746598D01*
X17746598Y-73868604D01*
X17657337Y-74016258D01*
X17657334Y-74016266D01*
X17606007Y-74180982D01*
X17606005Y-74180988D01*
X17599500Y-74252576D01*
X17599500Y-75747410D01*
X17599501Y-75747425D01*
X17606005Y-75819010D01*
X17606007Y-75819016D01*
X17657334Y-75983734D01*
X17657337Y-75983741D01*
X17723662Y-76093455D01*
X17746599Y-76131397D01*
X17868603Y-76253401D01*
X18016260Y-76342663D01*
X18180988Y-76393994D01*
X18252581Y-76400500D01*
X19747418Y-76400499D01*
X19819012Y-76393994D01*
X19983740Y-76342663D01*
X20131397Y-76253401D01*
X20253401Y-76131397D01*
X20342663Y-75983740D01*
X20393994Y-75819012D01*
X20400500Y-75747419D01*
X20400499Y-74252582D01*
X20393994Y-74180988D01*
X20392958Y-74177663D01*
X20392979Y-74175888D01*
X20392972Y-74175851D01*
X20392979Y-74175849D01*
X20393699Y-74116482D01*
X20417470Y-74078210D01*
X25496986Y-68998696D01*
X25551503Y-68970919D01*
X25566990Y-68969700D01*
X30967442Y-68969700D01*
X30967444Y-68969700D01*
X31056588Y-68945814D01*
X31065098Y-68940900D01*
X31065100Y-68940900D01*
X31092788Y-68924914D01*
X31136512Y-68899670D01*
X31699170Y-68337012D01*
X31699171Y-68337009D01*
X31702596Y-68333585D01*
X31757113Y-68305808D01*
X31817545Y-68315379D01*
X31860810Y-68358644D01*
X31871600Y-68403589D01*
X31871600Y-74091709D01*
X31852693Y-74149900D01*
X31842604Y-74161713D01*
X19921789Y-86082527D01*
X19867272Y-86110304D01*
X19822335Y-86107041D01*
X19819013Y-86106006D01*
X19783215Y-86102753D01*
X19747419Y-86099500D01*
X19747418Y-86099500D01*
X18252589Y-86099500D01*
X18252574Y-86099501D01*
X18180989Y-86106005D01*
X18180983Y-86106007D01*
X18016265Y-86157334D01*
X18016258Y-86157337D01*
X17868604Y-86246598D01*
X17746598Y-86368604D01*
X17657337Y-86516258D01*
X17657334Y-86516266D01*
X17606007Y-86680982D01*
X17606005Y-86680988D01*
X17599500Y-86752576D01*
X17599500Y-88247410D01*
X17599501Y-88247425D01*
X17606005Y-88319010D01*
X17606007Y-88319016D01*
X17657334Y-88483734D01*
X17657337Y-88483741D01*
X17723662Y-88593455D01*
X17746599Y-88631397D01*
X17868603Y-88753401D01*
X18016260Y-88842663D01*
X18180988Y-88893994D01*
X18252581Y-88900500D01*
X19747418Y-88900499D01*
X19819012Y-88893994D01*
X19983740Y-88842663D01*
X20131397Y-88753401D01*
X20253401Y-88631397D01*
X20342663Y-88483740D01*
X20393994Y-88319012D01*
X20400500Y-88247419D01*
X20400499Y-86752582D01*
X20393994Y-86680988D01*
X20392958Y-86677662D01*
X20392979Y-86675888D01*
X20392972Y-86675851D01*
X20392979Y-86675849D01*
X20393699Y-86616482D01*
X20417470Y-86578210D01*
X32137698Y-74857983D01*
X32192213Y-74830208D01*
X32252645Y-74839779D01*
X32295910Y-74883044D01*
X32306700Y-74927989D01*
X32306700Y-86203344D01*
X32330586Y-86292488D01*
X32376730Y-86372412D01*
X32376732Y-86372414D01*
X32582527Y-86578210D01*
X32610304Y-86632726D01*
X32607044Y-86677654D01*
X32606006Y-86680985D01*
X32606006Y-86680986D01*
X32599500Y-86752576D01*
X32599500Y-88247410D01*
X32599501Y-88247425D01*
X32606005Y-88319010D01*
X32606007Y-88319016D01*
X32657334Y-88483734D01*
X32657337Y-88483741D01*
X32723662Y-88593455D01*
X32746599Y-88631397D01*
X32868603Y-88753401D01*
X33016260Y-88842663D01*
X33180988Y-88893994D01*
X33252581Y-88900500D01*
X34747418Y-88900499D01*
X34819012Y-88893994D01*
X34983740Y-88842663D01*
X35131397Y-88753401D01*
X35253401Y-88631397D01*
X35342663Y-88483740D01*
X35393994Y-88319012D01*
X35400500Y-88247419D01*
X35400499Y-86752582D01*
X35393994Y-86680988D01*
X35342663Y-86516260D01*
X35253401Y-86368603D01*
X35131397Y-86246599D01*
X35059845Y-86203344D01*
X34983741Y-86157337D01*
X34983733Y-86157334D01*
X34819017Y-86106007D01*
X34819011Y-86106005D01*
X34753924Y-86100091D01*
X34747419Y-86099500D01*
X34747418Y-86099500D01*
X33252589Y-86099500D01*
X33252574Y-86099501D01*
X33180986Y-86106006D01*
X33177654Y-86107044D01*
X33175877Y-86107022D01*
X33175854Y-86107027D01*
X33175853Y-86107022D01*
X33155052Y-86106768D01*
X33132726Y-86110304D01*
X33125067Y-86106401D01*
X33116473Y-86106297D01*
X33078209Y-86082527D01*
X33036696Y-86041014D01*
X33008919Y-85986497D01*
X33007700Y-85971010D01*
X33007700Y-75986689D01*
X33026607Y-75928498D01*
X33076107Y-75892534D01*
X33137293Y-75892534D01*
X33176704Y-75916685D01*
X33212104Y-75952085D01*
X33239881Y-76006602D01*
X33241100Y-76022089D01*
X33241100Y-76108374D01*
X33278617Y-76248389D01*
X33351087Y-76373910D01*
X33351089Y-76373912D01*
X33351091Y-76373915D01*
X33453585Y-76476409D01*
X33453587Y-76476410D01*
X33453589Y-76476412D01*
X33579111Y-76548882D01*
X33579112Y-76548882D01*
X33579115Y-76548884D01*
X33719125Y-76586400D01*
X33719126Y-76586400D01*
X33864074Y-76586400D01*
X33864075Y-76586400D01*
X34004085Y-76548884D01*
X34004087Y-76548882D01*
X34004089Y-76548882D01*
X34129610Y-76476412D01*
X34129610Y-76476411D01*
X34129615Y-76476409D01*
X34232109Y-76373915D01*
X34232112Y-76373910D01*
X34261490Y-76323027D01*
X34306959Y-76282086D01*
X34367809Y-76275690D01*
X34417230Y-76302523D01*
X36294820Y-78180113D01*
X36294819Y-78180113D01*
X36369387Y-78254680D01*
X36460713Y-78307407D01*
X36562573Y-78334700D01*
X40380969Y-78334700D01*
X40439160Y-78353607D01*
X40450966Y-78363690D01*
X40461985Y-78374709D01*
X40461987Y-78374710D01*
X40461989Y-78374712D01*
X40587511Y-78447182D01*
X40587512Y-78447182D01*
X40587515Y-78447184D01*
X40727525Y-78484700D01*
X40727526Y-78484700D01*
X40872474Y-78484700D01*
X40872475Y-78484700D01*
X41012485Y-78447184D01*
X41012487Y-78447182D01*
X41012489Y-78447182D01*
X41138010Y-78374712D01*
X41138010Y-78374711D01*
X41138015Y-78374709D01*
X41240509Y-78272215D01*
X41250633Y-78254680D01*
X41312982Y-78146689D01*
X41312982Y-78146687D01*
X41312984Y-78146685D01*
X41350500Y-78006675D01*
X41350500Y-77861725D01*
X41312984Y-77721715D01*
X41312982Y-77721712D01*
X41312982Y-77721710D01*
X41240512Y-77596189D01*
X41240510Y-77596187D01*
X41240509Y-77596185D01*
X41138015Y-77493691D01*
X41138012Y-77493689D01*
X41138010Y-77493687D01*
X41012488Y-77421217D01*
X41012485Y-77421216D01*
X40997760Y-77417270D01*
X40946446Y-77383945D01*
X40937621Y-77371096D01*
X40485166Y-76586400D01*
X38756243Y-73587915D01*
X38743556Y-73528061D01*
X38746381Y-73512844D01*
X38750500Y-73497475D01*
X38750500Y-73352525D01*
X38712984Y-73212515D01*
X38712982Y-73212512D01*
X38712982Y-73212510D01*
X38640512Y-73086989D01*
X38640510Y-73086987D01*
X38640509Y-73086985D01*
X38538015Y-72984491D01*
X38538012Y-72984489D01*
X38538010Y-72984487D01*
X38412488Y-72912017D01*
X38412489Y-72912017D01*
X38382896Y-72904087D01*
X38272475Y-72874500D01*
X38127525Y-72874500D01*
X38065790Y-72891041D01*
X37987510Y-72912017D01*
X37861989Y-72984487D01*
X37759487Y-73086989D01*
X37687017Y-73212510D01*
X37687016Y-73212515D01*
X37649500Y-73352525D01*
X37649500Y-73497475D01*
X37664223Y-73552420D01*
X37687017Y-73637489D01*
X37759487Y-73763010D01*
X37759489Y-73763012D01*
X37759491Y-73763015D01*
X37861985Y-73865509D01*
X37861987Y-73865510D01*
X37861989Y-73865512D01*
X37987511Y-73937982D01*
X37987515Y-73937984D01*
X38002236Y-73941929D01*
X38053550Y-73975253D01*
X38062376Y-73988103D01*
X39453362Y-76400498D01*
X40020416Y-77383945D01*
X40021168Y-77385248D01*
X40033856Y-77445104D01*
X40008938Y-77500985D01*
X39955933Y-77531548D01*
X39935404Y-77533700D01*
X36822201Y-77533700D01*
X36764010Y-77514793D01*
X36752197Y-77504704D01*
X34773841Y-75526348D01*
X34746064Y-75471831D01*
X34755635Y-75411399D01*
X34794344Y-75370608D01*
X34859815Y-75332809D01*
X34962309Y-75230315D01*
X35034784Y-75104785D01*
X35072300Y-74964775D01*
X35072300Y-74819825D01*
X35034784Y-74679815D01*
X35034782Y-74679812D01*
X35034782Y-74679810D01*
X34962312Y-74554289D01*
X34962310Y-74554287D01*
X34962309Y-74554285D01*
X34859815Y-74451791D01*
X34859812Y-74451789D01*
X34859810Y-74451787D01*
X34728666Y-74376071D01*
X34729797Y-74374111D01*
X34690875Y-74340853D01*
X34676300Y-74289147D01*
X34676300Y-69676716D01*
X35949500Y-69676716D01*
X35949500Y-71323265D01*
X35949501Y-71323266D01*
X35964064Y-71452531D01*
X35964066Y-71452542D01*
X36021411Y-71616423D01*
X36021411Y-71616424D01*
X36063027Y-71682655D01*
X36113787Y-71763438D01*
X36236562Y-71886213D01*
X36383577Y-71978589D01*
X36449202Y-72001552D01*
X36547456Y-72035933D01*
X36547460Y-72035934D01*
X36547463Y-72035935D01*
X36547464Y-72035935D01*
X36547468Y-72035936D01*
X36676716Y-72050499D01*
X36676724Y-72050499D01*
X36676733Y-72050500D01*
X38323266Y-72050499D01*
X38452537Y-72035935D01*
X38616423Y-71978589D01*
X38763438Y-71886213D01*
X38886213Y-71763438D01*
X38978589Y-71616423D01*
X39035935Y-71452537D01*
X39035936Y-71452531D01*
X39050499Y-71323283D01*
X39050499Y-71323275D01*
X39050500Y-71323267D01*
X39050499Y-69676734D01*
X39046710Y-69643105D01*
X39058984Y-69583164D01*
X39075085Y-69562017D01*
X39636508Y-69000596D01*
X39691024Y-68972819D01*
X39706511Y-68971600D01*
X40472020Y-68971600D01*
X40530211Y-68990507D01*
X40566175Y-69040007D01*
X40566175Y-69101193D01*
X40530211Y-69150693D01*
X40516965Y-69158810D01*
X40487363Y-69173892D01*
X40289918Y-69317344D01*
X40117344Y-69489918D01*
X39973892Y-69687362D01*
X39863096Y-69904814D01*
X39787677Y-70136928D01*
X39749500Y-70377969D01*
X39749500Y-70622030D01*
X39787677Y-70863071D01*
X39863096Y-71095185D01*
X39973892Y-71312637D01*
X39981627Y-71323283D01*
X40117345Y-71510083D01*
X40289917Y-71682655D01*
X40401100Y-71763434D01*
X40487362Y-71826107D01*
X40596088Y-71881505D01*
X40704815Y-71936904D01*
X40936924Y-72012321D01*
X40936925Y-72012321D01*
X40936928Y-72012322D01*
X41177970Y-72050500D01*
X41177973Y-72050500D01*
X41422030Y-72050500D01*
X41663071Y-72012322D01*
X41663072Y-72012321D01*
X41663076Y-72012321D01*
X41895185Y-71936904D01*
X42112639Y-71826106D01*
X42310083Y-71682655D01*
X42482655Y-71510083D01*
X42626106Y-71312639D01*
X42736904Y-71095185D01*
X42812321Y-70863076D01*
X42850500Y-70622027D01*
X42850500Y-70377973D01*
X42850500Y-70377969D01*
X42812322Y-70136928D01*
X42812321Y-70136924D01*
X42736904Y-69904815D01*
X42626106Y-69687361D01*
X42618384Y-69676733D01*
X42559532Y-69595730D01*
X42482655Y-69489917D01*
X42310083Y-69317345D01*
X42198899Y-69236565D01*
X42112637Y-69173892D01*
X41895181Y-69063094D01*
X41895178Y-69063092D01*
X41853606Y-69049585D01*
X41804106Y-69013621D01*
X41785199Y-68955430D01*
X41804107Y-68897240D01*
X41814191Y-68885432D01*
X41840509Y-68859115D01*
X41912984Y-68733585D01*
X41950500Y-68593575D01*
X41950500Y-68448625D01*
X41912984Y-68308615D01*
X41912982Y-68308612D01*
X41912982Y-68308610D01*
X41840512Y-68183089D01*
X41840510Y-68183087D01*
X41840509Y-68183085D01*
X41738015Y-68080591D01*
X41738012Y-68080589D01*
X41738010Y-68080587D01*
X41612488Y-68008117D01*
X41612489Y-68008117D01*
X41582896Y-68000187D01*
X41472475Y-67970600D01*
X41327525Y-67970600D01*
X41187515Y-68008116D01*
X41187514Y-68008116D01*
X41187512Y-68008117D01*
X41150446Y-68029518D01*
X41102262Y-68057336D01*
X41052764Y-68070600D01*
X39419591Y-68070600D01*
X39400722Y-68075656D01*
X39329225Y-68094813D01*
X39329224Y-68094812D01*
X39305012Y-68101301D01*
X39305009Y-68101302D01*
X39202290Y-68160607D01*
X39202285Y-68160611D01*
X38437980Y-68924914D01*
X38383464Y-68952691D01*
X38356895Y-68953288D01*
X38323268Y-68949500D01*
X36676734Y-68949500D01*
X36676732Y-68949501D01*
X36643120Y-68953288D01*
X36547463Y-68964065D01*
X36547461Y-68964065D01*
X36547457Y-68964066D01*
X36383576Y-69021411D01*
X36383575Y-69021411D01*
X36236565Y-69113784D01*
X36113784Y-69236565D01*
X36021411Y-69383575D01*
X36021411Y-69383576D01*
X35964066Y-69547456D01*
X35964063Y-69547468D01*
X35949500Y-69676716D01*
X34676300Y-69676716D01*
X34676300Y-64573389D01*
X34695207Y-64515198D01*
X34705290Y-64503391D01*
X35275635Y-63933045D01*
X35330150Y-63905270D01*
X35390582Y-63914841D01*
X35433847Y-63958106D01*
X35441263Y-63977427D01*
X35473915Y-64099284D01*
X35473917Y-64099288D01*
X35546387Y-64224810D01*
X35546389Y-64224812D01*
X35546391Y-64224815D01*
X35648885Y-64327309D01*
X35648887Y-64327310D01*
X35648889Y-64327312D01*
X35774411Y-64399782D01*
X35774412Y-64399782D01*
X35774415Y-64399784D01*
X35914425Y-64437300D01*
X35914426Y-64437300D01*
X36059374Y-64437300D01*
X36059375Y-64437300D01*
X36199385Y-64399784D01*
X36199387Y-64399782D01*
X36199389Y-64399782D01*
X36324910Y-64327312D01*
X36324910Y-64327311D01*
X36324915Y-64327309D01*
X36427409Y-64224815D01*
X36427412Y-64224810D01*
X36499882Y-64099289D01*
X36499882Y-64099287D01*
X36499884Y-64099285D01*
X36537400Y-63959275D01*
X36537400Y-63872990D01*
X36556307Y-63814799D01*
X36566396Y-63802986D01*
X42726186Y-57643196D01*
X42780703Y-57615419D01*
X42796190Y-57614200D01*
X42882474Y-57614200D01*
X42882475Y-57614200D01*
X43022485Y-57576684D01*
X43022487Y-57576682D01*
X43022489Y-57576682D01*
X43148010Y-57504212D01*
X43148010Y-57504211D01*
X43148015Y-57504209D01*
X43250509Y-57401715D01*
X43265282Y-57376127D01*
X43322982Y-57276189D01*
X43322982Y-57276187D01*
X43322984Y-57276185D01*
X43360500Y-57136175D01*
X43360500Y-56991225D01*
X43322984Y-56851215D01*
X43322982Y-56851212D01*
X43322982Y-56851210D01*
X43250512Y-56725689D01*
X43250510Y-56725687D01*
X43250509Y-56725685D01*
X43148015Y-56623191D01*
X43148012Y-56623189D01*
X43148010Y-56623187D01*
X43022488Y-56550717D01*
X43022489Y-56550717D01*
X42899959Y-56517885D01*
X42882475Y-56513200D01*
X42737525Y-56513200D01*
X42720041Y-56517885D01*
X42597510Y-56550717D01*
X42471989Y-56623187D01*
X42369487Y-56725689D01*
X42297017Y-56851210D01*
X42259500Y-56991225D01*
X42259500Y-57077510D01*
X42257031Y-57085107D01*
X42258281Y-57092998D01*
X42247757Y-57113651D01*
X42240593Y-57135701D01*
X42230503Y-57147514D01*
X42159224Y-57218792D01*
X42104707Y-57246569D01*
X42044275Y-57236997D01*
X42001011Y-57193732D01*
X41991440Y-57133300D01*
X41993589Y-57123185D01*
X41996200Y-57113444D01*
X41996200Y-29762756D01*
X41972314Y-29673612D01*
X41956000Y-29645356D01*
X41926170Y-29593688D01*
X41900693Y-29568211D01*
X41895868Y-29561415D01*
X41889099Y-29539784D01*
X41878810Y-29519589D01*
X41880144Y-29511163D01*
X41877597Y-29503022D01*
X41884835Y-29481544D01*
X41888381Y-29459157D01*
X41894583Y-29452621D01*
X41897138Y-29445041D01*
X41911360Y-29434942D01*
X41927091Y-29418366D01*
X41975515Y-29390409D01*
X42078009Y-29287915D01*
X42095345Y-29257888D01*
X42150482Y-29162389D01*
X42150482Y-29162387D01*
X42150484Y-29162385D01*
X42188000Y-29022375D01*
X42188000Y-28877425D01*
X42150484Y-28737415D01*
X42117804Y-28680811D01*
X42101263Y-28652160D01*
X42088000Y-28602661D01*
X42088000Y-26578192D01*
X42088000Y-26578191D01*
X42057299Y-26463614D01*
X42046313Y-26444586D01*
X42046312Y-26444584D01*
X41997992Y-26360889D01*
X41997991Y-26360888D01*
X41997990Y-26360886D01*
X39075084Y-23437980D01*
X39047307Y-23383463D01*
X39046711Y-23356890D01*
X39050499Y-23323273D01*
X39050500Y-23323267D01*
X39050499Y-22377969D01*
X39749500Y-22377969D01*
X39749500Y-22622030D01*
X39787677Y-22863071D01*
X39863096Y-23095185D01*
X39973892Y-23312637D01*
X39981620Y-23323273D01*
X40117345Y-23510083D01*
X40289917Y-23682655D01*
X40401106Y-23763438D01*
X40487362Y-23826107D01*
X40596088Y-23881505D01*
X40704815Y-23936904D01*
X40936924Y-24012321D01*
X40936925Y-24012321D01*
X40936928Y-24012322D01*
X41177970Y-24050500D01*
X41177973Y-24050500D01*
X41422030Y-24050500D01*
X41663071Y-24012322D01*
X41663072Y-24012321D01*
X41663076Y-24012321D01*
X41895185Y-23936904D01*
X42112639Y-23826106D01*
X42310083Y-23682655D01*
X42482655Y-23510083D01*
X42626106Y-23312639D01*
X42736904Y-23095185D01*
X42812321Y-22863076D01*
X42850500Y-22622027D01*
X42850500Y-22377973D01*
X42850500Y-22377969D01*
X42812322Y-22136928D01*
X42798442Y-22094210D01*
X42736904Y-21904815D01*
X42635095Y-21705003D01*
X42626107Y-21687362D01*
X42560985Y-21597729D01*
X42482655Y-21489917D01*
X42310083Y-21317345D01*
X42198899Y-21236565D01*
X42112637Y-21173892D01*
X41895185Y-21063096D01*
X41663071Y-20987677D01*
X41422030Y-20949500D01*
X41422027Y-20949500D01*
X41177973Y-20949500D01*
X41177970Y-20949500D01*
X40936928Y-20987677D01*
X40704814Y-21063096D01*
X40487362Y-21173892D01*
X40289918Y-21317344D01*
X40117344Y-21489918D01*
X39973892Y-21687362D01*
X39863096Y-21904814D01*
X39787677Y-22136928D01*
X39749500Y-22377969D01*
X39050499Y-22377969D01*
X39050499Y-21676734D01*
X39035935Y-21547463D01*
X38978589Y-21383577D01*
X38886213Y-21236562D01*
X38763438Y-21113787D01*
X38763435Y-21113785D01*
X38763434Y-21113784D01*
X38616424Y-21021411D01*
X38452543Y-20964066D01*
X38452531Y-20964063D01*
X38323275Y-20949500D01*
X36676734Y-20949500D01*
X36676732Y-20949501D01*
X36623707Y-20955475D01*
X36547463Y-20964065D01*
X36547461Y-20964065D01*
X36547457Y-20964066D01*
X36383576Y-21021411D01*
X36383575Y-21021411D01*
X36236565Y-21113784D01*
X36113784Y-21236565D01*
X36021411Y-21383575D01*
X36021411Y-21383576D01*
X35964066Y-21547456D01*
X35964063Y-21547468D01*
X35949500Y-21676716D01*
X35949500Y-23323265D01*
X35949501Y-23323267D01*
X35964065Y-23452539D01*
X36014121Y-23595590D01*
X36015493Y-23656760D01*
X35980649Y-23707054D01*
X35922897Y-23727262D01*
X35864297Y-23709665D01*
X35850672Y-23698290D01*
X35373396Y-23221013D01*
X35345619Y-23166497D01*
X35344400Y-23151010D01*
X35344400Y-19784657D01*
X35343390Y-19780886D01*
X35320514Y-19695512D01*
X35305603Y-19669686D01*
X35274370Y-19615588D01*
X35108207Y-19449425D01*
X34929596Y-19270813D01*
X34901819Y-19216297D01*
X34900600Y-19200810D01*
X34900600Y-19114525D01*
X34863084Y-18974515D01*
X34863082Y-18974512D01*
X34863082Y-18974510D01*
X34790612Y-18848989D01*
X34790610Y-18848987D01*
X34790609Y-18848985D01*
X34688115Y-18746491D01*
X34688112Y-18746489D01*
X34688110Y-18746487D01*
X34562588Y-18674017D01*
X34562589Y-18674017D01*
X34449598Y-18643741D01*
X34422575Y-18636500D01*
X34332534Y-18636500D01*
X34274343Y-18617593D01*
X34238379Y-18568093D01*
X34236908Y-18563124D01*
X34213084Y-18474215D01*
X34213082Y-18474211D01*
X34140612Y-18348689D01*
X34140610Y-18348687D01*
X34140609Y-18348685D01*
X34038115Y-18246191D01*
X34038112Y-18246189D01*
X34038110Y-18246187D01*
X33912588Y-18173717D01*
X33912589Y-18173717D01*
X33882996Y-18165787D01*
X33772575Y-18136200D01*
X33627625Y-18136200D01*
X33565890Y-18152741D01*
X33487610Y-18173717D01*
X33362089Y-18246187D01*
X33259587Y-18348689D01*
X33187117Y-18474210D01*
X33149600Y-18614225D01*
X33149600Y-18759174D01*
X33187117Y-18899189D01*
X33259587Y-19024710D01*
X33259589Y-19024712D01*
X33259591Y-19024715D01*
X33320605Y-19085729D01*
X33348381Y-19140244D01*
X33349600Y-19155731D01*
X33349600Y-22094210D01*
X33330693Y-22152401D01*
X33281193Y-22188365D01*
X33220007Y-22188365D01*
X33180596Y-22164214D01*
X32244496Y-21228114D01*
X32216719Y-21173597D01*
X32215500Y-21158110D01*
X32215500Y-19990931D01*
X32234407Y-19932740D01*
X32244490Y-19920933D01*
X32305509Y-19859915D01*
X32341188Y-19798118D01*
X32377982Y-19734389D01*
X32377982Y-19734387D01*
X32377984Y-19734385D01*
X32415500Y-19594375D01*
X32415500Y-19449425D01*
X32377984Y-19309415D01*
X32377982Y-19309412D01*
X32377982Y-19309410D01*
X32305512Y-19183889D01*
X32305510Y-19183887D01*
X32305509Y-19183885D01*
X32203015Y-19081391D01*
X32203012Y-19081389D01*
X32203010Y-19081387D01*
X32077488Y-19008917D01*
X32077489Y-19008917D01*
X32047896Y-19000987D01*
X31937475Y-18971400D01*
X31792525Y-18971400D01*
X31730790Y-18987941D01*
X31652510Y-19008917D01*
X31526989Y-19081387D01*
X31424487Y-19183889D01*
X31352017Y-19309410D01*
X31347543Y-19326107D01*
X31314500Y-19449425D01*
X31314500Y-19594375D01*
X31334680Y-19669686D01*
X31352017Y-19734389D01*
X31424487Y-19859910D01*
X31424489Y-19859912D01*
X31424491Y-19859915D01*
X31485505Y-19920929D01*
X31513281Y-19975444D01*
X31514500Y-19990931D01*
X31514500Y-21390443D01*
X31534774Y-21466109D01*
X31538386Y-21479590D01*
X31538387Y-21479591D01*
X31577576Y-21547468D01*
X31584530Y-21559512D01*
X34904905Y-24879887D01*
X34932681Y-24934402D01*
X34933900Y-24949889D01*
X34933900Y-25164996D01*
X34914993Y-25223187D01*
X34865493Y-25259151D01*
X34809278Y-25260623D01*
X34755075Y-25246100D01*
X34610125Y-25246100D01*
X34561419Y-25259151D01*
X34470110Y-25283617D01*
X34344589Y-25356087D01*
X34242087Y-25458589D01*
X34169617Y-25584111D01*
X34169615Y-25584115D01*
X34144137Y-25679199D01*
X34118515Y-25723578D01*
X32973393Y-26868703D01*
X32918876Y-26896481D01*
X32903389Y-26897700D01*
X18609736Y-26897700D01*
X18560237Y-26884436D01*
X18474985Y-26835216D01*
X18334975Y-26797700D01*
X18190025Y-26797700D01*
X18128290Y-26814241D01*
X18050010Y-26835217D01*
X17924489Y-26907687D01*
X17821987Y-27010189D01*
X17749517Y-27135710D01*
X17712000Y-27275725D01*
X17712000Y-27420674D01*
X17749517Y-27560689D01*
X17821987Y-27686210D01*
X17821989Y-27686212D01*
X17821991Y-27686215D01*
X17924485Y-27788709D01*
X17924487Y-27788710D01*
X17924489Y-27788712D01*
X18050011Y-27861182D01*
X18050012Y-27861182D01*
X18050015Y-27861184D01*
X18190025Y-27898700D01*
X18190026Y-27898700D01*
X18334974Y-27898700D01*
X18334975Y-27898700D01*
X18474985Y-27861184D01*
X18560237Y-27811963D01*
X18609736Y-27798700D01*
X33190307Y-27798700D01*
X33190309Y-27798700D01*
X33282606Y-27773969D01*
X33304887Y-27767999D01*
X33407614Y-27708689D01*
X34755619Y-26360683D01*
X34799990Y-26335064D01*
X34809272Y-26332577D01*
X34870372Y-26335775D01*
X34917925Y-26374277D01*
X34933900Y-26428202D01*
X34933900Y-26585010D01*
X34914993Y-26643201D01*
X34904904Y-26655014D01*
X29984430Y-31575488D01*
X29938286Y-31655412D01*
X29914400Y-31744557D01*
X29914400Y-32255256D01*
X29895493Y-32313447D01*
X29845993Y-32349411D01*
X29784807Y-32349411D01*
X29735307Y-32313447D01*
X29719773Y-32280880D01*
X29712907Y-32255256D01*
X29688084Y-32162615D01*
X29669435Y-32130314D01*
X29615612Y-32037089D01*
X29615610Y-32037087D01*
X29615609Y-32037085D01*
X29513115Y-31934591D01*
X29513112Y-31934589D01*
X29513110Y-31934587D01*
X29387588Y-31862117D01*
X29387589Y-31862117D01*
X29341786Y-31849844D01*
X29247575Y-31824600D01*
X29102625Y-31824600D01*
X28962615Y-31862116D01*
X28962614Y-31862116D01*
X28962612Y-31862117D01*
X28926796Y-31882795D01*
X28895375Y-31900936D01*
X28845877Y-31914200D01*
X18897856Y-31914200D01*
X18821756Y-31934591D01*
X18821755Y-31934590D01*
X18808708Y-31938087D01*
X18728791Y-31984227D01*
X17115314Y-33597704D01*
X17060797Y-33625481D01*
X17045310Y-33626700D01*
X16959025Y-33626700D01*
X16829573Y-33661387D01*
X16817623Y-33664589D01*
X16756522Y-33661387D01*
X16708972Y-33622881D01*
X16693000Y-33568962D01*
X16693000Y-20285110D01*
X16711907Y-20226919D01*
X16721990Y-20215112D01*
X17518405Y-19418696D01*
X17572920Y-19390921D01*
X17633351Y-19400491D01*
X17704815Y-19436904D01*
X17936924Y-19512321D01*
X17936925Y-19512321D01*
X17936928Y-19512322D01*
X18177970Y-19550500D01*
X18177973Y-19550500D01*
X18422030Y-19550500D01*
X18663071Y-19512322D01*
X18663072Y-19512321D01*
X18663076Y-19512321D01*
X18895185Y-19436904D01*
X19112639Y-19326106D01*
X19310083Y-19182655D01*
X19482655Y-19010083D01*
X19626106Y-18812639D01*
X19736904Y-18595185D01*
X19812321Y-18363076D01*
X19814600Y-18348689D01*
X19850500Y-18122030D01*
X19850500Y-17877969D01*
X19812322Y-17636928D01*
X19812321Y-17636924D01*
X19736904Y-17404815D01*
X19626106Y-17187361D01*
X19592943Y-17141716D01*
X19574037Y-17083527D01*
X19592944Y-17025336D01*
X19642444Y-16989372D01*
X19703630Y-16989372D01*
X19743041Y-17013523D01*
X26121204Y-23391686D01*
X26148981Y-23446203D01*
X26150200Y-23461690D01*
X26150200Y-23547974D01*
X26187717Y-23687989D01*
X26260187Y-23813510D01*
X26260189Y-23813512D01*
X26260191Y-23813515D01*
X26362685Y-23916009D01*
X26362687Y-23916010D01*
X26362689Y-23916012D01*
X26488211Y-23988482D01*
X26488212Y-23988482D01*
X26488215Y-23988484D01*
X26628225Y-24026000D01*
X26628226Y-24026000D01*
X26773174Y-24026000D01*
X26773175Y-24026000D01*
X26913185Y-23988484D01*
X26913187Y-23988482D01*
X26913189Y-23988482D01*
X27038710Y-23916012D01*
X27038710Y-23916011D01*
X27038715Y-23916009D01*
X27141209Y-23813515D01*
X27170121Y-23763438D01*
X27213682Y-23687989D01*
X27213682Y-23687987D01*
X27213684Y-23687985D01*
X27251200Y-23547975D01*
X27251200Y-23403025D01*
X27213684Y-23263015D01*
X27213682Y-23263012D01*
X27213682Y-23263010D01*
X27141212Y-23137489D01*
X27141210Y-23137487D01*
X27141209Y-23137485D01*
X27038715Y-23034991D01*
X27038712Y-23034989D01*
X27038710Y-23034987D01*
X26913188Y-22962517D01*
X26913189Y-22962517D01*
X26883596Y-22954587D01*
X26773175Y-22925000D01*
X26773174Y-22925000D01*
X26686890Y-22925000D01*
X26628699Y-22906093D01*
X26616886Y-22896004D01*
X22338475Y-18617593D01*
X18059812Y-14338930D01*
X18059809Y-14338928D01*
X17985589Y-14296077D01*
X17944648Y-14250608D01*
X17938252Y-14189758D01*
X17962443Y-14145208D01*
X17961860Y-14144761D01*
X17964686Y-14141077D01*
X17965090Y-14140333D01*
X17965809Y-14139615D01*
X17965812Y-14139610D01*
X18038282Y-14014089D01*
X18038282Y-14014087D01*
X18038284Y-14014085D01*
X18075800Y-13874075D01*
X18075800Y-13729125D01*
X18061303Y-13675022D01*
X18064505Y-13613922D01*
X18103011Y-13566372D01*
X18156930Y-13550400D01*
X33755938Y-13550400D01*
X33814129Y-13569307D01*
X33850093Y-13618807D01*
X33851564Y-13623776D01*
X33878415Y-13723984D01*
X33878417Y-13723988D01*
X33950887Y-13849510D01*
X33950889Y-13849512D01*
X33950891Y-13849515D01*
X34053385Y-13952009D01*
X34053387Y-13952010D01*
X34053389Y-13952012D01*
X34178911Y-14024482D01*
X34178912Y-14024482D01*
X34178915Y-14024484D01*
X34318925Y-14062000D01*
X34318926Y-14062000D01*
X34463874Y-14062000D01*
X34463875Y-14062000D01*
X34603885Y-14024484D01*
X34603887Y-14024482D01*
X34603889Y-14024482D01*
X34729410Y-13952012D01*
X34729410Y-13952011D01*
X34729415Y-13952009D01*
X34831909Y-13849515D01*
X34831912Y-13849510D01*
X34904382Y-13723989D01*
X34904382Y-13723987D01*
X34904384Y-13723985D01*
X34941900Y-13583975D01*
X34941900Y-13439025D01*
X34904384Y-13299015D01*
X34904382Y-13299012D01*
X34904382Y-13299010D01*
X34831912Y-13173489D01*
X34831910Y-13173487D01*
X34831909Y-13173485D01*
X34729415Y-13070991D01*
X34729412Y-13070989D01*
X34729410Y-13070987D01*
X34603888Y-12998517D01*
X34603889Y-12998517D01*
X34574296Y-12990587D01*
X34463875Y-12961000D01*
X34463874Y-12961000D01*
X34377589Y-12961000D01*
X34319398Y-12942093D01*
X34307591Y-12932009D01*
X34295012Y-12919430D01*
X34215088Y-12873286D01*
X34125944Y-12849400D01*
X17230056Y-12849400D01*
X17218155Y-12852588D01*
X17153125Y-12870012D01*
X17153126Y-12870013D01*
X17140909Y-12873286D01*
X17140908Y-12873287D01*
X17082108Y-12907236D01*
X17032608Y-12920500D01*
X16476790Y-12920500D01*
X16418599Y-12901593D01*
X16406787Y-12891504D01*
X16304311Y-12789029D01*
X16224395Y-12742889D01*
X16224389Y-12742887D01*
X16224388Y-12742886D01*
X16223276Y-12742588D01*
X16135244Y-12719000D01*
X15710356Y-12719000D01*
X15708789Y-12719000D01*
X15650598Y-12700093D01*
X15614634Y-12650593D01*
X15614634Y-12589407D01*
X15638783Y-12549998D01*
X19596286Y-8592496D01*
X19650803Y-8564719D01*
X19666290Y-8563500D01*
X19752574Y-8563500D01*
X19752575Y-8563500D01*
X19892585Y-8525984D01*
X19892587Y-8525982D01*
X19892589Y-8525982D01*
X20018110Y-8453512D01*
X20018110Y-8453511D01*
X20018115Y-8453509D01*
X20120609Y-8351015D01*
X20193084Y-8225485D01*
X20230600Y-8085475D01*
X20230600Y-7940525D01*
X20193084Y-7800515D01*
X20193082Y-7800512D01*
X20193082Y-7800510D01*
X20120612Y-7674989D01*
X20120610Y-7674987D01*
X20120609Y-7674985D01*
X20018115Y-7572491D01*
X20018112Y-7572489D01*
X20018110Y-7572487D01*
X19892590Y-7500018D01*
X19892587Y-7500017D01*
X19892585Y-7500016D01*
X19789417Y-7472372D01*
X19738105Y-7439048D01*
X19716179Y-7381927D01*
X19732015Y-7322826D01*
X19745039Y-7306742D01*
X21547386Y-5504396D01*
X21601903Y-5476619D01*
X21617390Y-5475400D01*
X33922168Y-5475400D01*
X33980359Y-5494307D01*
X33992171Y-5504396D01*
X34053184Y-5565408D01*
X34053189Y-5565412D01*
X34178711Y-5637882D01*
X34178712Y-5637882D01*
X34178715Y-5637884D01*
X34318725Y-5675400D01*
X34318726Y-5675400D01*
X34463674Y-5675400D01*
X34463675Y-5675400D01*
X34603685Y-5637884D01*
X34603687Y-5637882D01*
X34603689Y-5637882D01*
X34729210Y-5565412D01*
X34729210Y-5565411D01*
X34729215Y-5565409D01*
X34831709Y-5462915D01*
X34831712Y-5462910D01*
X34904182Y-5337389D01*
X34904182Y-5337387D01*
X34904184Y-5337385D01*
X34941700Y-5197375D01*
X34941700Y-5052425D01*
X34904184Y-4912415D01*
X34904182Y-4912412D01*
X34904182Y-4912410D01*
X34831712Y-4786889D01*
X34831710Y-4786887D01*
X34831709Y-4786885D01*
X34729215Y-4684391D01*
X34729212Y-4684389D01*
X34729210Y-4684387D01*
X34603688Y-4611917D01*
X34603689Y-4611917D01*
X34544678Y-4596105D01*
X34463675Y-4574400D01*
X34318725Y-4574400D01*
X34256990Y-4590941D01*
X34178710Y-4611917D01*
X34053189Y-4684387D01*
X34053184Y-4684391D01*
X33992171Y-4745404D01*
X33937654Y-4773181D01*
X33922168Y-4774400D01*
X21385056Y-4774400D01*
X21295912Y-4798286D01*
X21215988Y-4844430D01*
X13732467Y-12327951D01*
X13725350Y-12336066D01*
X12709015Y-13352401D01*
X12654498Y-13380178D01*
X12594066Y-13370607D01*
X12553275Y-13331897D01*
X12525209Y-13283285D01*
X12422715Y-13180791D01*
X12422712Y-13180789D01*
X12422710Y-13180787D01*
X12297188Y-13108317D01*
X12297189Y-13108317D01*
X12267596Y-13100387D01*
X12157175Y-13070800D01*
X12012225Y-13070800D01*
X11950490Y-13087341D01*
X11872210Y-13108317D01*
X11746689Y-13180787D01*
X11644187Y-13283289D01*
X11571717Y-13408810D01*
X11534200Y-13548825D01*
X11534200Y-13564399D01*
X11515293Y-13622590D01*
X11505204Y-13634403D01*
X7527016Y-17612591D01*
X7474294Y-17703907D01*
X7447000Y-17805774D01*
X7447000Y-23769568D01*
X7428093Y-23827759D01*
X7418006Y-23839569D01*
X7406992Y-23850583D01*
X7406987Y-23850589D01*
X7334517Y-23976110D01*
X7307997Y-24075083D01*
X7297000Y-24116125D01*
X7297000Y-24261075D01*
X7318713Y-24342109D01*
X7334517Y-24401089D01*
X7406987Y-24526610D01*
X7406989Y-24526612D01*
X7406991Y-24526615D01*
X7509485Y-24629109D01*
X7509487Y-24629110D01*
X7509489Y-24629112D01*
X7635011Y-24701582D01*
X7635012Y-24701582D01*
X7635015Y-24701584D01*
X7775025Y-24739100D01*
X7775026Y-24739100D01*
X7919975Y-24739100D01*
X7985277Y-24721602D01*
X8046377Y-24724803D01*
X8093928Y-24763307D01*
X8109900Y-24817228D01*
X8109900Y-27539644D01*
X8132721Y-27624813D01*
X8132720Y-27624813D01*
X8132721Y-27624815D01*
X8133783Y-27628780D01*
X8133784Y-27628783D01*
X8133786Y-27628788D01*
X8179930Y-27708712D01*
X10140605Y-29669387D01*
X10168381Y-29723902D01*
X10169600Y-29739389D01*
X10169600Y-30415096D01*
X10150693Y-30473287D01*
X10101193Y-30509251D01*
X10044978Y-30510723D01*
X9990775Y-30496200D01*
X9845825Y-30496200D01*
X9797119Y-30509251D01*
X9705810Y-30533717D01*
X9580289Y-30606187D01*
X9477787Y-30708689D01*
X9405317Y-30834210D01*
X9367800Y-30974225D01*
X9367800Y-31060510D01*
X9348893Y-31118701D01*
X9338804Y-31130514D01*
X8396230Y-32073088D01*
X8366296Y-32124937D01*
X8363192Y-32130313D01*
X8363191Y-32130314D01*
X8350087Y-32153009D01*
X8350086Y-32153011D01*
X8350086Y-32153012D01*
X8340488Y-32188835D01*
X8326200Y-32242157D01*
X8326200Y-38000238D01*
X8307293Y-38058429D01*
X8257793Y-38094393D01*
X8201577Y-38095865D01*
X8110137Y-38071364D01*
X8062875Y-38058700D01*
X7917925Y-38058700D01*
X7807503Y-38088287D01*
X7777911Y-38096217D01*
X7755199Y-38109330D01*
X7695350Y-38122050D01*
X7639455Y-38097163D01*
X7608863Y-38044175D01*
X7606700Y-38023593D01*
X7606700Y-25321557D01*
X7606700Y-25321556D01*
X7582814Y-25232412D01*
X7536669Y-25152488D01*
X7471412Y-25087231D01*
X7399485Y-25045703D01*
X7378922Y-25029910D01*
X7074341Y-24724803D01*
X4612504Y-22258712D01*
X954436Y-18594323D01*
X926706Y-18539783D01*
X925500Y-18524380D01*
X925500Y-17388628D01*
X944407Y-17330437D01*
X993907Y-17294473D01*
X1053953Y-17294111D01*
X1054527Y-17294289D01*
X1054529Y-17294291D01*
X1214620Y-17344177D01*
X1284199Y-17350500D01*
X2715800Y-17350499D01*
X2785380Y-17344177D01*
X2945471Y-17294291D01*
X3088972Y-17207542D01*
X3207542Y-17088972D01*
X3294291Y-16945471D01*
X3344177Y-16785380D01*
X3350500Y-16715801D01*
X3350499Y-15284200D01*
X3344177Y-15214620D01*
X3308302Y-15099493D01*
X3294293Y-15054534D01*
X3294288Y-15054523D01*
X3207544Y-14911031D01*
X3207543Y-14911030D01*
X3207542Y-14911028D01*
X3088972Y-14792458D01*
X3088969Y-14792456D01*
X3088968Y-14792455D01*
X2945476Y-14705711D01*
X2945464Y-14705706D01*
X2785385Y-14655824D01*
X2785379Y-14655822D01*
X2722123Y-14650074D01*
X2715801Y-14649500D01*
X2715800Y-14649500D01*
X1284207Y-14649500D01*
X1284192Y-14649501D01*
X1214621Y-14655822D01*
X1214615Y-14655824D01*
X1053953Y-14705888D01*
X992772Y-14705149D01*
X943710Y-14668590D01*
X925500Y-14611371D01*
X925500Y-14125517D01*
X944407Y-14067326D01*
X954404Y-14055606D01*
X3791554Y-11211254D01*
X3846033Y-11183410D01*
X3906474Y-11192903D01*
X4021588Y-11251557D01*
X4223757Y-11317246D01*
X4223758Y-11317246D01*
X4223761Y-11317247D01*
X4433710Y-11350500D01*
X4433713Y-11350500D01*
X4646290Y-11350500D01*
X4856238Y-11317247D01*
X4856239Y-11317246D01*
X4856243Y-11317246D01*
X5058412Y-11251557D01*
X5247816Y-11155051D01*
X5419792Y-11030104D01*
X5570104Y-10879792D01*
X5695051Y-10707816D01*
X5791557Y-10518412D01*
X5857246Y-10316243D01*
X5890500Y-10106287D01*
X5890500Y-9893713D01*
X5890500Y-9893709D01*
X5857247Y-9683761D01*
X5857246Y-9683757D01*
X5791557Y-9481588D01*
X5695051Y-9292184D01*
X5695049Y-9292180D01*
X5570108Y-9120213D01*
X5570106Y-9120211D01*
X5570104Y-9120208D01*
X5419792Y-8969896D01*
X5419788Y-8969893D01*
X5419786Y-8969891D01*
X5247819Y-8844950D01*
X5247815Y-8844948D01*
X5058412Y-8748443D01*
X4856238Y-8682752D01*
X4646290Y-8649500D01*
X4646287Y-8649500D01*
X4433713Y-8649500D01*
X4433710Y-8649500D01*
X4223761Y-8682752D01*
X4021587Y-8748443D01*
X3832184Y-8844948D01*
X3832180Y-8844950D01*
X3660213Y-8969891D01*
X3509893Y-9120211D01*
X3489261Y-9148609D01*
X3439761Y-9184572D01*
X3378575Y-9184571D01*
X3329076Y-9148607D01*
X3314652Y-9119872D01*
X3294291Y-9054529D01*
X3294288Y-9054525D01*
X3294288Y-9054523D01*
X3207544Y-8911031D01*
X3207543Y-8911030D01*
X3207542Y-8911028D01*
X3088972Y-8792458D01*
X3088969Y-8792456D01*
X3088968Y-8792455D01*
X2945476Y-8705711D01*
X2945464Y-8705706D01*
X2785385Y-8655824D01*
X2785379Y-8655822D01*
X2722123Y-8650074D01*
X2715801Y-8649500D01*
X2715800Y-8649500D01*
X1284207Y-8649500D01*
X1284192Y-8649501D01*
X1214621Y-8655822D01*
X1214615Y-8655824D01*
X1054534Y-8705706D01*
X1054523Y-8705711D01*
X911031Y-8792455D01*
X792456Y-8911030D01*
X783721Y-8925480D01*
X737436Y-8965496D01*
X676469Y-8970664D01*
X624108Y-8939010D01*
X600354Y-8882624D01*
X600000Y-8874262D01*
X600000Y-3878710D01*
X2149500Y-3878710D01*
X2149500Y-4121289D01*
X2181161Y-4361781D01*
X2181161Y-4361786D01*
X2181162Y-4361789D01*
X2238131Y-4574400D01*
X2243944Y-4596092D01*
X2243948Y-4596105D01*
X2336772Y-4820204D01*
X2336774Y-4820208D01*
X2336776Y-4820212D01*
X2458064Y-5030289D01*
X2458066Y-5030292D01*
X2605729Y-5222731D01*
X2605731Y-5222733D01*
X2605735Y-5222738D01*
X2777262Y-5394265D01*
X2777266Y-5394268D01*
X2777268Y-5394270D01*
X2920788Y-5504396D01*
X2969711Y-5541936D01*
X3179788Y-5663224D01*
X3179794Y-5663226D01*
X3179795Y-5663227D01*
X3216406Y-5678391D01*
X3403900Y-5756054D01*
X3638211Y-5818838D01*
X3878712Y-5850500D01*
X3878713Y-5850500D01*
X4121287Y-5850500D01*
X4121288Y-5850500D01*
X4361789Y-5818838D01*
X4596100Y-5756054D01*
X4820212Y-5663224D01*
X5030289Y-5541936D01*
X5222738Y-5394265D01*
X5394265Y-5222738D01*
X5541936Y-5030289D01*
X5663224Y-4820212D01*
X5756054Y-4596100D01*
X5818838Y-4361789D01*
X5850500Y-4121288D01*
X5850500Y-3878712D01*
X5850500Y-3878710D01*
X39149500Y-3878710D01*
X39149500Y-4121289D01*
X39181161Y-4361781D01*
X39181161Y-4361786D01*
X39181162Y-4361789D01*
X39238131Y-4574400D01*
X39243944Y-4596092D01*
X39243948Y-4596105D01*
X39336772Y-4820204D01*
X39336774Y-4820208D01*
X39336776Y-4820212D01*
X39458064Y-5030289D01*
X39458066Y-5030292D01*
X39605729Y-5222731D01*
X39605731Y-5222733D01*
X39605735Y-5222738D01*
X39777262Y-5394265D01*
X39777266Y-5394268D01*
X39777268Y-5394270D01*
X39920788Y-5504396D01*
X39969711Y-5541936D01*
X40179788Y-5663224D01*
X40179794Y-5663226D01*
X40179795Y-5663227D01*
X40216406Y-5678391D01*
X40403900Y-5756054D01*
X40638211Y-5818838D01*
X40878712Y-5850500D01*
X40878713Y-5850500D01*
X41121287Y-5850500D01*
X41121288Y-5850500D01*
X41361789Y-5818838D01*
X41596100Y-5756054D01*
X41820212Y-5663224D01*
X42030289Y-5541936D01*
X42222738Y-5394265D01*
X42394265Y-5222738D01*
X42541936Y-5030289D01*
X42663224Y-4820212D01*
X42756054Y-4596100D01*
X42818838Y-4361789D01*
X42850500Y-4121288D01*
X42850500Y-3878712D01*
X42818838Y-3638211D01*
X42756054Y-3403900D01*
X42663224Y-3179788D01*
X42541936Y-2969711D01*
X42394265Y-2777262D01*
X42222738Y-2605735D01*
X42222733Y-2605731D01*
X42222731Y-2605729D01*
X42030292Y-2458066D01*
X42030289Y-2458064D01*
X41820212Y-2336776D01*
X41820208Y-2336774D01*
X41820204Y-2336772D01*
X41596105Y-2243948D01*
X41596104Y-2243947D01*
X41596100Y-2243946D01*
X41361789Y-2181162D01*
X41361786Y-2181161D01*
X41361784Y-2181161D01*
X41121289Y-2149500D01*
X41121288Y-2149500D01*
X40878712Y-2149500D01*
X40878710Y-2149500D01*
X40638218Y-2181161D01*
X40638213Y-2181161D01*
X40403907Y-2243944D01*
X40403894Y-2243948D01*
X40179795Y-2336772D01*
X39969707Y-2458066D01*
X39777268Y-2605729D01*
X39605729Y-2777268D01*
X39458066Y-2969707D01*
X39336772Y-3179795D01*
X39243948Y-3403894D01*
X39243944Y-3403907D01*
X39181161Y-3638213D01*
X39181161Y-3638218D01*
X39149500Y-3878710D01*
X5850500Y-3878710D01*
X5818838Y-3638211D01*
X5756054Y-3403900D01*
X5663224Y-3179788D01*
X5541936Y-2969711D01*
X5394265Y-2777262D01*
X5222738Y-2605735D01*
X5222733Y-2605731D01*
X5222731Y-2605729D01*
X5030292Y-2458066D01*
X5030289Y-2458064D01*
X4820212Y-2336776D01*
X4820208Y-2336774D01*
X4820204Y-2336772D01*
X4596105Y-2243948D01*
X4596104Y-2243947D01*
X4596100Y-2243946D01*
X4361789Y-2181162D01*
X4361786Y-2181161D01*
X4361784Y-2181161D01*
X4121289Y-2149500D01*
X4121288Y-2149500D01*
X3878712Y-2149500D01*
X3878710Y-2149500D01*
X3638218Y-2181161D01*
X3638213Y-2181161D01*
X3403907Y-2243944D01*
X3403894Y-2243948D01*
X3179795Y-2336772D01*
X2969707Y-2458066D01*
X2777268Y-2605729D01*
X2605729Y-2777268D01*
X2458066Y-2969707D01*
X2336772Y-3179795D01*
X2243948Y-3403894D01*
X2243944Y-3403907D01*
X2181161Y-3638213D01*
X2181161Y-3638218D01*
X2149500Y-3878710D01*
X600000Y-3878710D01*
X600000Y-699000D01*
X618907Y-640809D01*
X668407Y-604845D01*
X699000Y-600000D01*
X44301000Y-600000D01*
X44359191Y-618907D01*
G37*
%TD.AperFunction*%
%TA.AperFunction,Conductor*%
G36*
X22265101Y-46665007D02*
G01*
X22301065Y-46714507D01*
X22301065Y-46775693D01*
X22276914Y-46815104D01*
X14240330Y-54851688D01*
X14194186Y-54931612D01*
X14170300Y-55020757D01*
X14170300Y-56304200D01*
X14151393Y-56362391D01*
X14101893Y-56398355D01*
X14071300Y-56403200D01*
X14027525Y-56403200D01*
X13965790Y-56419741D01*
X13887510Y-56440717D01*
X13761989Y-56513187D01*
X13659487Y-56615689D01*
X13587017Y-56741210D01*
X13549500Y-56881225D01*
X13549500Y-57026174D01*
X13587017Y-57166189D01*
X13659487Y-57291710D01*
X13659489Y-57291712D01*
X13659491Y-57291715D01*
X13761985Y-57394209D01*
X13842169Y-57440503D01*
X13883110Y-57485971D01*
X13889506Y-57546821D01*
X13862673Y-57596242D01*
X13044829Y-58414088D01*
X13006257Y-58480898D01*
X13006257Y-58480899D01*
X13002471Y-58487455D01*
X12998686Y-58494011D01*
X12998686Y-58494012D01*
X12978081Y-58570913D01*
X12974800Y-58583157D01*
X12974800Y-67988509D01*
X12955893Y-68046700D01*
X12945804Y-68058513D01*
X7421789Y-73582527D01*
X7367272Y-73610304D01*
X7322335Y-73607041D01*
X7319013Y-73606006D01*
X7247423Y-73599500D01*
X6299000Y-73599500D01*
X6240809Y-73580593D01*
X6204845Y-73531093D01*
X6200000Y-73500500D01*
X6200000Y-60110476D01*
X6218907Y-60052285D01*
X6268407Y-60016321D01*
X6329593Y-60016321D01*
X6379093Y-60052285D01*
X6394625Y-60084850D01*
X6406940Y-60130807D01*
X6411517Y-60147889D01*
X6483987Y-60273410D01*
X6483989Y-60273412D01*
X6483991Y-60273415D01*
X6586485Y-60375909D01*
X6586487Y-60375910D01*
X6586489Y-60375912D01*
X6712011Y-60448382D01*
X6712012Y-60448382D01*
X6712015Y-60448384D01*
X6852025Y-60485900D01*
X6852026Y-60485900D01*
X6996974Y-60485900D01*
X6996975Y-60485900D01*
X7136985Y-60448384D01*
X7136987Y-60448382D01*
X7136989Y-60448382D01*
X7262510Y-60375912D01*
X7262510Y-60375911D01*
X7262515Y-60375909D01*
X7365009Y-60273415D01*
X7365012Y-60273410D01*
X7437482Y-60147889D01*
X7437482Y-60147887D01*
X7437484Y-60147885D01*
X7475000Y-60007875D01*
X7475000Y-59921589D01*
X7493907Y-59863398D01*
X7503990Y-59851591D01*
X10931183Y-56424397D01*
X10985698Y-56396622D01*
X11046130Y-56406193D01*
X11086920Y-56444901D01*
X11119491Y-56501315D01*
X11221985Y-56603809D01*
X11221987Y-56603810D01*
X11221989Y-56603812D01*
X11347511Y-56676282D01*
X11347512Y-56676282D01*
X11347515Y-56676284D01*
X11487525Y-56713800D01*
X11487526Y-56713800D01*
X11632474Y-56713800D01*
X11632475Y-56713800D01*
X11772485Y-56676284D01*
X11772487Y-56676282D01*
X11772489Y-56676282D01*
X11898010Y-56603812D01*
X11898010Y-56603811D01*
X11898015Y-56603809D01*
X12000509Y-56501315D01*
X12021986Y-56464116D01*
X12072982Y-56375789D01*
X12072982Y-56375787D01*
X12072984Y-56375785D01*
X12110500Y-56235775D01*
X12110500Y-56090825D01*
X12072984Y-55950815D01*
X12072983Y-55950813D01*
X12072222Y-55948977D01*
X12071884Y-55948639D01*
X12071761Y-55947863D01*
X12070501Y-55944821D01*
X12071231Y-55944518D01*
X12067483Y-55920853D01*
X12061637Y-55893341D01*
X12062735Y-55890874D01*
X12062313Y-55888207D01*
X12075087Y-55863135D01*
X12086526Y-55837447D01*
X12090071Y-55833709D01*
X12162237Y-55761543D01*
X12216752Y-55733768D01*
X12277184Y-55743339D01*
X12317975Y-55782048D01*
X12379267Y-55888207D01*
X12389491Y-55905915D01*
X12491985Y-56008409D01*
X12491987Y-56008410D01*
X12491989Y-56008412D01*
X12586813Y-56063159D01*
X12627754Y-56108628D01*
X12634150Y-56169478D01*
X12607317Y-56218899D01*
X9758929Y-59067289D01*
X9724339Y-59127199D01*
X9724340Y-59127200D01*
X9712786Y-59147210D01*
X9688900Y-59236357D01*
X9688900Y-65510268D01*
X9669993Y-65568459D01*
X9659904Y-65580271D01*
X9598891Y-65641284D01*
X9598887Y-65641289D01*
X9526417Y-65766810D01*
X9488900Y-65906825D01*
X9488900Y-66051774D01*
X9526417Y-66191789D01*
X9598887Y-66317310D01*
X9598889Y-66317312D01*
X9598891Y-66317315D01*
X9701385Y-66419809D01*
X9701387Y-66419810D01*
X9701389Y-66419812D01*
X9826911Y-66492282D01*
X9826912Y-66492282D01*
X9826915Y-66492284D01*
X9966925Y-66529800D01*
X9966926Y-66529800D01*
X10111874Y-66529800D01*
X10111875Y-66529800D01*
X10251885Y-66492284D01*
X10251887Y-66492282D01*
X10251889Y-66492282D01*
X10377410Y-66419812D01*
X10377410Y-66419811D01*
X10377415Y-66419809D01*
X10479909Y-66317315D01*
X10479912Y-66317310D01*
X10552382Y-66191789D01*
X10552382Y-66191787D01*
X10552384Y-66191785D01*
X10589900Y-66051775D01*
X10589900Y-65906825D01*
X10552384Y-65766815D01*
X10552382Y-65766812D01*
X10552382Y-65766810D01*
X10479912Y-65641289D01*
X10479908Y-65641284D01*
X10418896Y-65580271D01*
X10391119Y-65525754D01*
X10389900Y-65510268D01*
X10389900Y-59468689D01*
X10408807Y-59410498D01*
X10418890Y-59398691D01*
X13795970Y-56021612D01*
X13842114Y-55941688D01*
X13866000Y-55852544D01*
X13866000Y-55760256D01*
X13866000Y-51697756D01*
X13842114Y-51608612D01*
X13808552Y-51550482D01*
X13795970Y-51528689D01*
X13795968Y-51528687D01*
X13730712Y-51463430D01*
X13730712Y-51463431D01*
X13176996Y-50909714D01*
X13149219Y-50855197D01*
X13148000Y-50839710D01*
X13148000Y-47645757D01*
X13148000Y-47645756D01*
X13124114Y-47556612D01*
X13115663Y-47541975D01*
X13077970Y-47476688D01*
X12858297Y-47257015D01*
X12595118Y-46993835D01*
X12567341Y-46939319D01*
X12576912Y-46878887D01*
X12620177Y-46835622D01*
X12680609Y-46826051D01*
X12690738Y-46828204D01*
X12757522Y-46846099D01*
X12757524Y-46846100D01*
X12757525Y-46846100D01*
X12902474Y-46846100D01*
X12902475Y-46846100D01*
X13042485Y-46808584D01*
X13042487Y-46808582D01*
X13042489Y-46808582D01*
X13168010Y-46736112D01*
X13168010Y-46736111D01*
X13168015Y-46736109D01*
X13198522Y-46705602D01*
X13229029Y-46675096D01*
X13283546Y-46647319D01*
X13299032Y-46646100D01*
X22206910Y-46646100D01*
X22265101Y-46665007D01*
G37*
%TD.AperFunction*%
%TA.AperFunction,Conductor*%
G36*
X21119066Y-59504193D02*
G01*
X21146229Y-59511472D01*
X21147929Y-59513571D01*
X21150500Y-59514407D01*
X21167035Y-59537165D01*
X21184734Y-59559022D01*
X21184875Y-59561720D01*
X21186464Y-59563907D01*
X21187935Y-59620121D01*
X21169500Y-59688925D01*
X21169500Y-59833875D01*
X21191956Y-59917682D01*
X21207017Y-59973889D01*
X21279487Y-60099410D01*
X21279489Y-60099412D01*
X21279491Y-60099415D01*
X21381985Y-60201909D01*
X21381987Y-60201910D01*
X21381989Y-60201912D01*
X21507511Y-60274382D01*
X21507512Y-60274382D01*
X21507515Y-60274384D01*
X21647525Y-60311900D01*
X21647526Y-60311900D01*
X21792474Y-60311900D01*
X21792475Y-60311900D01*
X21932485Y-60274384D01*
X21932487Y-60274382D01*
X21932489Y-60274382D01*
X22058010Y-60201912D01*
X22058010Y-60201911D01*
X22058015Y-60201909D01*
X22103596Y-60156328D01*
X22119029Y-60140896D01*
X22173546Y-60113119D01*
X22189032Y-60111900D01*
X25471510Y-60111900D01*
X25529701Y-60130807D01*
X25541514Y-60140896D01*
X25972693Y-60572075D01*
X26000470Y-60626592D01*
X25990899Y-60687024D01*
X25947634Y-60730289D01*
X25887202Y-60739860D01*
X25877066Y-60737706D01*
X25849385Y-60730289D01*
X25823675Y-60723400D01*
X25678725Y-60723400D01*
X25625335Y-60737706D01*
X25538710Y-60760917D01*
X25413189Y-60833387D01*
X25310687Y-60935889D01*
X25238217Y-61061410D01*
X25202986Y-61192893D01*
X25200700Y-61201425D01*
X25200700Y-61346375D01*
X25201622Y-61349815D01*
X25238217Y-61486389D01*
X25310687Y-61611910D01*
X25310689Y-61611912D01*
X25310691Y-61611915D01*
X25413185Y-61714409D01*
X25413187Y-61714410D01*
X25413189Y-61714412D01*
X25538711Y-61786882D01*
X25538712Y-61786882D01*
X25538715Y-61786884D01*
X25678725Y-61824400D01*
X25678726Y-61824400D01*
X25823676Y-61824400D01*
X25823676Y-61824399D01*
X25956123Y-61788910D01*
X26017224Y-61792111D01*
X26051750Y-61814532D01*
X31039204Y-66801985D01*
X31066981Y-66856502D01*
X31068200Y-66871989D01*
X31068200Y-67219796D01*
X31049293Y-67277987D01*
X30999793Y-67313951D01*
X30958596Y-67318226D01*
X30950969Y-67317404D01*
X30889375Y-67300900D01*
X30797777Y-67300900D01*
X30792486Y-67300330D01*
X30769188Y-67289885D01*
X30744899Y-67281993D01*
X30737509Y-67275682D01*
X30736655Y-67275299D01*
X30736264Y-67274618D01*
X30733086Y-67271904D01*
X29682837Y-66221655D01*
X28627312Y-65166130D01*
X28547388Y-65119986D01*
X28458244Y-65096100D01*
X28458242Y-65096100D01*
X24822803Y-65096100D01*
X24764612Y-65077193D01*
X24728648Y-65027693D01*
X24728648Y-64966507D01*
X24752797Y-64927098D01*
X24800104Y-64879792D01*
X24925051Y-64707816D01*
X25021557Y-64518412D01*
X25087246Y-64316243D01*
X25101728Y-64224810D01*
X25120500Y-64106290D01*
X25120500Y-63893709D01*
X25087247Y-63683761D01*
X25079392Y-63659585D01*
X25021557Y-63481588D01*
X24925051Y-63292184D01*
X24925049Y-63292180D01*
X24800108Y-63120213D01*
X24800106Y-63120211D01*
X24800104Y-63120208D01*
X24649792Y-62969896D01*
X24649788Y-62969893D01*
X24649786Y-62969891D01*
X24477819Y-62844950D01*
X24477815Y-62844948D01*
X24288412Y-62748443D01*
X24086238Y-62682752D01*
X23876290Y-62649500D01*
X23876287Y-62649500D01*
X23663713Y-62649500D01*
X23663710Y-62649500D01*
X23453761Y-62682752D01*
X23251586Y-62748443D01*
X23205207Y-62772074D01*
X23144775Y-62781644D01*
X23090260Y-62753867D01*
X22741667Y-62405274D01*
X22340913Y-62004520D01*
X22340910Y-62004518D01*
X22340909Y-62004517D01*
X22340908Y-62004516D01*
X22249591Y-61951794D01*
X22249593Y-61951794D01*
X22210070Y-61941204D01*
X22147727Y-61924500D01*
X22147725Y-61924500D01*
X18903731Y-61924500D01*
X18845540Y-61905593D01*
X18833733Y-61895509D01*
X18822715Y-61884491D01*
X18822712Y-61884489D01*
X18822710Y-61884487D01*
X18697188Y-61812017D01*
X18697189Y-61812017D01*
X18603392Y-61786884D01*
X18557175Y-61774500D01*
X18412225Y-61774500D01*
X18366008Y-61786884D01*
X18266623Y-61813514D01*
X18205521Y-61810311D01*
X18157972Y-61771806D01*
X18142000Y-61717887D01*
X18142000Y-60601209D01*
X18160907Y-60543018D01*
X18210407Y-60507054D01*
X18266624Y-60505583D01*
X18272114Y-60507054D01*
X18331622Y-60522999D01*
X18331624Y-60523000D01*
X18331625Y-60523000D01*
X18476574Y-60523000D01*
X18476575Y-60523000D01*
X18616585Y-60485484D01*
X18616587Y-60485482D01*
X18616589Y-60485482D01*
X18742110Y-60413012D01*
X18742110Y-60413011D01*
X18742115Y-60413009D01*
X18844609Y-60310515D01*
X18865469Y-60274384D01*
X18917082Y-60184989D01*
X18917082Y-60184987D01*
X18917084Y-60184985D01*
X18954600Y-60044975D01*
X18954600Y-59958690D01*
X18973507Y-59900499D01*
X18983596Y-59888686D01*
X19347786Y-59524496D01*
X19402303Y-59496719D01*
X19417790Y-59495500D01*
X21092309Y-59495500D01*
X21119066Y-59504193D01*
G37*
%TD.AperFunction*%
%TD*%
M02*
