M48
; DRILL file KiCad 10.0.4 date 2026-08-27T14:34:23
; FORMAT={-:-/ absolute / metric / decimal}
; #@! TF.CreationDate,2026-08-27T14:34:23-04:00
; #@! TF.GenerationSoftware,Kicad,Pcbnew,10.0.4
; #@! TF.FileFunction,Plated,1,2,PTH
FMAT,2
METRIC
; #@! TA.AperFunction,Plated,PTH,ViaDrill
T1C0.200
; #@! TA.AperFunction,Plated,PTH,ComponentDrill
T2C0.200
; #@! TA.AperFunction,Plated,PTH,ViaDrill
T3C0.300
; #@! TA.AperFunction,Plated,PTH,ComponentDrill
T4C0.600
; #@! TA.AperFunction,Plated,PTH,ComponentDrill
T5C1.000
; #@! TA.AperFunction,Plated,PTH,ComponentDrill
T6C1.050
; #@! TA.AperFunction,Plated,PTH,ComponentDrill
T7C1.200
%
G90
G05
T1
X34.9Y-50.0
T2
X13.565Y-49.417
X13.565Y-50.942
X14.327Y-48.655
X14.327Y-50.18
X14.327Y-51.705
X15.09Y-49.417
X15.09Y-50.942
X15.852Y-48.655
X15.852Y-50.18
X15.852Y-51.705
X16.615Y-49.417
X16.615Y-50.942
T3
X6.925Y-59.935
X7.847Y-24.189
X7.99Y-38.609
X8.868Y-45.042
X9.464Y-20.968
X9.918Y-31.047
X10.039Y-65.979
X10.679Y-42.536
X10.885Y-39.225
X11.56Y-56.163
X11.629Y-45.45
X11.668Y-53.137
X11.759Y-44.165
X11.797Y-39.487
X12.085Y-13.621
X12.723Y-59.937
X12.764Y-20.966
X12.83Y-46.296
X12.83Y-55.568
X13.356Y-42.003
X13.587Y-20.886
X14.1Y-56.954
X14.262Y-37.406
X14.497Y-66.208
X14.537Y-31.891
X15.017Y-12.958
X15.11Y-14.619
X15.345Y-60.025
X15.525Y-42.335
X15.964Y-39.493
X16.242Y-35.234
X16.244Y-37.041
X16.523Y-44.839
X16.643Y-59.528
X16.756Y-61.419
X17.031Y-34.177
X17.355Y-15.668
X17.525Y-13.802
X17.791Y-56.977
X17.91Y-39.497
X18.116Y-44.167
X18.262Y-27.348
X18.404Y-59.972
X18.485Y-62.325
X19.053Y-56.588
X19.18Y-42.002
X19.68Y-8.013
X19.873Y-36.906
X19.9Y-42.612
X20.45Y-38.283
X20.45Y-56.986
X20.68Y-35.669
X21.081Y-37.727
X21.125Y-93.16
X21.371Y-36.271
X21.411Y-51.321
X21.72Y-59.761
X22.075Y-43.218
X22.99Y-47.469
X23.245Y-39.223
X25.5Y-35.749
X25.751Y-61.274
X26.282Y-68.017
X26.701Y-23.476
X26.845Y-44.881
X27.149Y-58.02
X27.5Y-29.725
X27.528Y-43.258
X27.528Y-57.224
X27.794Y-39.031
X27.997Y-66.172
X28.526Y-32.894
X28.551Y-90.849
X29.175Y-32.375
X29.378Y-56.305
X29.586Y-46.993
X29.938Y-59.633
X30.021Y-51.037
X30.817Y-67.851
X31.751Y-46.813
X31.865Y-19.522
X31.987Y-58.13
X32.062Y-61.562
X32.589Y-51.94
X33.461Y-31.836
X33.661Y-71.495
X33.7Y-18.687
X33.705Y-49.384
X33.792Y-76.036
X33.8Y-79.0
X33.938Y-62.333
X34.091Y-63.765
X34.35Y-19.187
X34.391Y-5.125
X34.391Y-13.511
X34.522Y-74.892
X34.683Y-25.797
X35.0Y-45.377
X35.66Y-51.956
X35.8Y-20.1
X35.987Y-63.887
X36.832Y-57.9
X36.975Y-28.811
X37.185Y-51.506
X37.19Y-29.798
X37.247Y-57.181
X37.631Y-26.783
X38.2Y-10.8
X38.2Y-73.425
X38.592Y-26.095
X40.75Y-30.843
X40.8Y-77.934
X41.0Y-55.965
X41.043Y-34.64
X41.4Y-68.521
X41.637Y-28.95
X42.81Y-57.064
X43.0Y-31.55
T5
X2.0Y-10.0
X2.0Y-16.0
X4.54Y-10.0
X4.54Y-16.0
X6.5Y-75.0
X6.5Y-87.5
X7.08Y-10.0
X11.5Y-75.0
X11.5Y-87.5
X18.69Y-64.0
X19.0Y-75.0
X19.0Y-87.5
X21.23Y-64.0
X23.77Y-64.0
X24.0Y-75.0
X24.0Y-87.5
X26.31Y-64.0
X34.0Y-87.5
X39.0Y-87.5
T6
X36.5Y-74.5
T7
X14.5Y-18.0
X18.3Y-18.0
X37.5Y-22.5
X37.5Y-70.5
X41.3Y-22.5
X41.3Y-70.5
T4
X18.18Y-92.17G85X18.18Y-93.27
G05
X18.18Y-96.6G85X18.18Y-97.2
G05
X26.82Y-92.17G85X26.82Y-93.27
G05
X26.82Y-96.6G85X26.82Y-97.2
G05
M30
