%TF.GenerationSoftware,KiCad,Pcbnew,10.0.4*%
%TF.CreationDate,2026-08-27T14:34:22-04:00*%
%TF.ProjectId,walkiepcb,77616c6b-6965-4706-9362-2e6b69636164,D-WROOM*%
%TF.SameCoordinates,Original*%
%TF.FileFunction,Paste,Top*%
%TF.FilePolarity,Positive*%
%FSLAX46Y46*%
G04 Gerber Fmt 4.6, Leading zero omitted, Abs format (unit mm)*
G04 Created by KiCad (PCBNEW 10.0.4) date 2026-08-27 14:34:22*
%MOMM*%
%LPD*%
G01*
G04 APERTURE LIST*
G04 Aperture macros list*
%AMRoundRect*
0 Rectangle with rounded corners*
0 $1 Rounding radius*
0 $2 $3 $4 $5 $6 $7 $8 $9 X,Y pos of 4 corners*
0 Add a 4 corners polygon primitive as box body*
4,1,4,$2,$3,$4,$5,$6,$7,$8,$9,$2,$3,0*
0 Add four circle primitives for the rounded corners*
1,1,$1+$1,$2,$3*
1,1,$1+$1,$4,$5*
1,1,$1+$1,$6,$7*
1,1,$1+$1,$8,$9*
0 Add four rect primitives between the rounded corners*
20,1,$1+$1,$2,$3,$4,$5,0*
20,1,$1+$1,$4,$5,$6,$7,0*
20,1,$1+$1,$6,$7,$8,$9,0*
20,1,$1+$1,$8,$9,$2,$3,0*%
G04 Aperture macros list end*
%ADD10RoundRect,0.200000X-0.200000X-0.275000X0.200000X-0.275000X0.200000X0.275000X-0.200000X0.275000X0*%
%ADD11RoundRect,0.150000X-0.587500X-0.150000X0.587500X-0.150000X0.587500X0.150000X-0.587500X0.150000X0*%
%ADD12RoundRect,0.060000X-0.140000X-0.240000X0.140000X-0.240000X0.140000X0.240000X-0.140000X0.240000X0*%
%ADD13RoundRect,0.225000X0.250000X-0.225000X0.250000X0.225000X-0.250000X0.225000X-0.250000X-0.225000X0*%
%ADD14R,0.900000X1.500000*%
%ADD15R,1.500000X0.900000*%
%ADD16R,1.050000X1.050000*%
%ADD17RoundRect,0.200000X0.275000X-0.200000X0.275000X0.200000X-0.275000X0.200000X-0.275000X-0.200000X0*%
%ADD18RoundRect,0.137500X0.137500X0.662500X-0.137500X0.662500X-0.137500X-0.662500X0.137500X-0.662500X0*%
%ADD19RoundRect,0.150000X0.150000X-0.512500X0.150000X0.512500X-0.150000X0.512500X-0.150000X-0.512500X0*%
%ADD20RoundRect,0.225000X-0.225000X-0.250000X0.225000X-0.250000X0.225000X0.250000X-0.225000X0.250000X0*%
%ADD21RoundRect,0.250000X-0.375000X-0.625000X0.375000X-0.625000X0.375000X0.625000X-0.375000X0.625000X0*%
%ADD22RoundRect,0.218750X-0.218750X-0.256250X0.218750X-0.256250X0.218750X0.256250X-0.218750X0.256250X0*%
%ADD23RoundRect,0.250000X0.475000X-0.250000X0.475000X0.250000X-0.475000X0.250000X-0.475000X-0.250000X0*%
%ADD24RoundRect,0.150000X-0.512500X-0.150000X0.512500X-0.150000X0.512500X0.150000X-0.512500X0.150000X0*%
%ADD25RoundRect,0.250000X-1.000000X-0.650000X1.000000X-0.650000X1.000000X0.650000X-1.000000X0.650000X0*%
%ADD26RoundRect,0.150000X0.150000X-0.825000X0.150000X0.825000X-0.150000X0.825000X-0.150000X-0.825000X0*%
%ADD27RoundRect,0.150000X-0.150000X-0.575000X0.150000X-0.575000X0.150000X0.575000X-0.150000X0.575000X0*%
%ADD28RoundRect,0.075000X-0.075000X-0.650000X0.075000X-0.650000X0.075000X0.650000X-0.075000X0.650000X0*%
%ADD29RoundRect,0.150000X0.150000X-0.587500X0.150000X0.587500X-0.150000X0.587500X-0.150000X-0.587500X0*%
%ADD30RoundRect,0.250000X-0.250000X-0.475000X0.250000X-0.475000X0.250000X0.475000X-0.250000X0.475000X0*%
%ADD31RoundRect,0.135000X-0.185000X0.135000X-0.185000X-0.135000X0.185000X-0.135000X0.185000X0.135000X0*%
%ADD32RoundRect,0.240000X-0.860000X-0.360000X0.860000X-0.360000X0.860000X0.360000X-0.860000X0.360000X0*%
%ADD33RoundRect,0.242500X0.422500X-0.242500X0.422500X0.242500X-0.422500X0.242500X-0.422500X-0.242500X0*%
%ADD34RoundRect,0.125000X-0.125000X-0.125000X0.125000X-0.125000X0.125000X0.125000X-0.125000X0.125000X0*%
%ADD35RoundRect,0.062500X-0.350000X-0.062500X0.350000X-0.062500X0.350000X0.062500X-0.350000X0.062500X0*%
%ADD36RoundRect,0.062500X-0.062500X-0.350000X0.062500X-0.350000X0.062500X0.350000X-0.062500X0.350000X0*%
%ADD37R,0.685000X0.670000*%
%ADD38R,0.700000X0.250000*%
G04 APERTURE END LIST*
D10*
%TO.C,R25*%
X11175000Y-97000000D03*
X12825000Y-97000000D03*
%TD*%
D11*
%TO.C,Q2*%
X32062500Y-60550000D03*
X32062500Y-62450000D03*
X33937500Y-61500000D03*
%TD*%
D12*
%TO.C,MK1*%
X37775000Y-75150000D03*
X37775000Y-74500000D03*
X37775000Y-73850000D03*
X35225000Y-73850000D03*
X35225000Y-74500000D03*
X35225000Y-75150000D03*
%TD*%
D13*
%TO.C,C4*%
X27500000Y-31275000D03*
X27500000Y-29725000D03*
%TD*%
D14*
%TO.C,U6*%
X7750000Y-58250000D03*
X9020000Y-58250000D03*
X10290000Y-58250000D03*
X11560000Y-58250000D03*
X12830000Y-58250000D03*
X14100000Y-58250000D03*
X15370000Y-58250000D03*
X16640000Y-58250000D03*
X17910000Y-58250000D03*
X19180000Y-58250000D03*
X20450000Y-58250000D03*
X21720000Y-58250000D03*
X22990000Y-58250000D03*
X24260000Y-58250000D03*
D15*
X25510000Y-55210000D03*
X25510000Y-53940000D03*
X25510000Y-52670000D03*
X25510000Y-51400000D03*
X25510000Y-50130000D03*
X25510000Y-48860000D03*
X25510000Y-47590000D03*
X25510000Y-46320000D03*
X25510000Y-45050000D03*
X25510000Y-43780000D03*
D14*
X24260000Y-40750000D03*
X22990000Y-40750000D03*
X21720000Y-40750000D03*
X20450000Y-40750000D03*
X19180000Y-40750000D03*
X17910000Y-40750000D03*
X16640000Y-40750000D03*
X15370000Y-40750000D03*
X14100000Y-40750000D03*
X12830000Y-40750000D03*
X11560000Y-40750000D03*
X10290000Y-40750000D03*
X9020000Y-40750000D03*
X7750000Y-40750000D03*
D16*
X13565000Y-51705000D03*
X15090000Y-51705000D03*
X16615000Y-51705000D03*
X13565000Y-50180000D03*
X15090000Y-50180000D03*
X16615000Y-50180000D03*
X13565000Y-48655000D03*
X15090000Y-48655000D03*
X16615000Y-48655000D03*
%TD*%
D17*
%TO.C,R6*%
X17500000Y-62325000D03*
X17500000Y-60675000D03*
%TD*%
%TO.C,R7*%
X18500000Y-32825000D03*
X18500000Y-31175000D03*
%TD*%
D18*
%TO.C,L1*%
X11225000Y-28500000D03*
X9775000Y-28500000D03*
%TD*%
D17*
%TO.C,R2*%
X29500000Y-93325000D03*
X29500000Y-91675000D03*
%TD*%
%TO.C,R4*%
X31000000Y-54325000D03*
X31000000Y-52675000D03*
%TD*%
D19*
%TO.C,Q3*%
X22050000Y-37637500D03*
X23000000Y-37637500D03*
X23950000Y-37637500D03*
X23950000Y-35362500D03*
X23000000Y-35362500D03*
X22050000Y-35362500D03*
%TD*%
D17*
%TO.C,R21*%
X6000000Y-14825000D03*
X6000000Y-13175000D03*
%TD*%
D20*
%TO.C,C1*%
X29725000Y-99000000D03*
X31275000Y-99000000D03*
%TD*%
D13*
%TO.C,C29*%
X35000000Y-22275000D03*
X35000000Y-20725000D03*
%TD*%
D21*
%TO.C,F1*%
X38600000Y-67000000D03*
X41400000Y-67000000D03*
%TD*%
D22*
%TO.C,D3*%
X1212500Y-88000000D03*
X2787500Y-88000000D03*
%TD*%
D23*
%TO.C,C18*%
X42000000Y-32450000D03*
X42000000Y-30550000D03*
%TD*%
D13*
%TO.C,C16*%
X35000000Y-31775000D03*
X35000000Y-30225000D03*
%TD*%
D23*
%TO.C,C27*%
X29000000Y-22450000D03*
X29000000Y-20550000D03*
%TD*%
D24*
%TO.C,U1*%
X29362500Y-95050000D03*
X29362500Y-96000000D03*
X29362500Y-96950000D03*
X31637500Y-96950000D03*
X31637500Y-96000000D03*
X31637500Y-95050000D03*
%TD*%
D17*
%TO.C,R13*%
X35000000Y-42825000D03*
X35000000Y-41175000D03*
%TD*%
D13*
%TO.C,C17*%
X38000000Y-32275000D03*
X38000000Y-30725000D03*
%TD*%
%TO.C,C12*%
X8500000Y-62275000D03*
X8500000Y-60725000D03*
%TD*%
D17*
%TO.C,R8*%
X27000000Y-34825000D03*
X27000000Y-33175000D03*
%TD*%
%TO.C,R15*%
X29000000Y-68825000D03*
X29000000Y-67175000D03*
%TD*%
%TO.C,R19*%
X36000000Y-35825000D03*
X36000000Y-34175000D03*
%TD*%
%TO.C,R23*%
X33000000Y-65825000D03*
X33000000Y-64175000D03*
%TD*%
D13*
%TO.C,C14*%
X41000000Y-42775000D03*
X41000000Y-41225000D03*
%TD*%
D23*
%TO.C,C5*%
X7800000Y-32950000D03*
X7800000Y-31050000D03*
%TD*%
D19*
%TO.C,U4*%
X17050000Y-37637500D03*
X18000000Y-37637500D03*
X18950000Y-37637500D03*
X18950000Y-35362500D03*
X18000000Y-35362500D03*
X17050000Y-35362500D03*
%TD*%
D17*
%TO.C,R3*%
X31000000Y-50825000D03*
X31000000Y-49175000D03*
%TD*%
D25*
%TO.C,D1*%
X39000000Y-63500000D03*
X43000000Y-63500000D03*
%TD*%
D26*
%TO.C,U2*%
X34555000Y-54475000D03*
X35825000Y-54475000D03*
X37095000Y-54475000D03*
X38365000Y-54475000D03*
X39635000Y-54475000D03*
X40905000Y-54475000D03*
X42175000Y-54475000D03*
X43445000Y-54475000D03*
X43445000Y-49525000D03*
X42175000Y-49525000D03*
X40905000Y-49525000D03*
X39635000Y-49525000D03*
X38365000Y-49525000D03*
X37095000Y-49525000D03*
X35825000Y-49525000D03*
X34555000Y-49525000D03*
%TD*%
D17*
%TO.C,R1*%
X29500000Y-90325000D03*
X29500000Y-88675000D03*
%TD*%
D23*
%TO.C,C8*%
X6000000Y-23450000D03*
X6000000Y-21550000D03*
%TD*%
%TO.C,C19*%
X19000000Y-24950000D03*
X19000000Y-23050000D03*
%TD*%
D13*
%TO.C,C26*%
X13500000Y-66275000D03*
X13500000Y-64725000D03*
%TD*%
%TO.C,C7*%
X25500000Y-38275000D03*
X25500000Y-36725000D03*
%TD*%
D27*
%TO.C,J1*%
X19250000Y-91805000D03*
X20050000Y-91805000D03*
D28*
X21250000Y-91805000D03*
X22250000Y-91805000D03*
X22750000Y-91805000D03*
X23750000Y-91805000D03*
D27*
X24950000Y-91805000D03*
X25750000Y-91805000D03*
X25750000Y-91805000D03*
X24950000Y-91805000D03*
D28*
X24250000Y-91805000D03*
X23250000Y-91805000D03*
X21750000Y-91805000D03*
X20750000Y-91805000D03*
D27*
X20050000Y-91805000D03*
X19250000Y-91805000D03*
%TD*%
D29*
%TO.C,Q4*%
X40050000Y-60437500D03*
X41950000Y-60437500D03*
X41000000Y-58562500D03*
%TD*%
D30*
%TO.C,C20*%
X19050000Y-29000000D03*
X20950000Y-29000000D03*
%TD*%
D13*
%TO.C,C30*%
X31000000Y-57775000D03*
X31000000Y-56225000D03*
%TD*%
D17*
%TO.C,R9*%
X30000000Y-34825000D03*
X30000000Y-33175000D03*
%TD*%
D31*
%TO.C,R26*%
X33800000Y-76790000D03*
X33800000Y-77810000D03*
%TD*%
D23*
%TO.C,C10*%
X15000000Y-23450000D03*
X15000000Y-21550000D03*
%TD*%
D32*
%TO.C,U8*%
X21000000Y-17000000D03*
X21000000Y-15000000D03*
X21000000Y-13000000D03*
X21000000Y-11000000D03*
X21000000Y-9000000D03*
X21000000Y-7000000D03*
X21000000Y-5000000D03*
X21000000Y-3000000D03*
X36000000Y-3000000D03*
X36000000Y-5000000D03*
X36000000Y-7000000D03*
X36000000Y-9000000D03*
X36000000Y-11000000D03*
X36000000Y-13000000D03*
X36000000Y-15000000D03*
X36000000Y-17000000D03*
%TD*%
D23*
%TO.C,C13*%
X11500000Y-62450000D03*
X11500000Y-60550000D03*
%TD*%
D17*
%TO.C,R20*%
X39000000Y-35825000D03*
X39000000Y-34175000D03*
%TD*%
D13*
%TO.C,C9*%
X7500000Y-27775000D03*
X7500000Y-26225000D03*
%TD*%
D33*
%TO.C,U3*%
X10675000Y-35600000D03*
X12325000Y-35600000D03*
X10675000Y-34400000D03*
X12325000Y-34400000D03*
D26*
X9595000Y-37475000D03*
X10865000Y-37475000D03*
X12135000Y-37475000D03*
X13405000Y-37475000D03*
X13405000Y-32525000D03*
X12135000Y-32525000D03*
X10865000Y-32525000D03*
X9595000Y-32525000D03*
%TD*%
D11*
%TO.C,Q1*%
X28062500Y-60550000D03*
X28062500Y-62450000D03*
X29937500Y-61500000D03*
%TD*%
D17*
%TO.C,R22*%
X29000000Y-65825000D03*
X29000000Y-64175000D03*
%TD*%
D23*
%TO.C,C6*%
X15500000Y-32950000D03*
X15500000Y-31050000D03*
%TD*%
D17*
%TO.C,R14*%
X38000000Y-42825000D03*
X38000000Y-41175000D03*
%TD*%
%TO.C,R16*%
X33000000Y-68825000D03*
X33000000Y-67175000D03*
%TD*%
D13*
%TO.C,C15*%
X40800000Y-75775000D03*
X40800000Y-74225000D03*
%TD*%
D34*
%TO.C,U7*%
X39690000Y-27190000D03*
X39690000Y-27810000D03*
X40310000Y-27190000D03*
X40310000Y-27810000D03*
D35*
X38562500Y-26750000D03*
X38562500Y-27250000D03*
X38562500Y-27750000D03*
X38562500Y-28250000D03*
D36*
X39250000Y-28937500D03*
X39750000Y-28937500D03*
X40250000Y-28937500D03*
X40750000Y-28937500D03*
D35*
X41437500Y-28250000D03*
X41437500Y-27750000D03*
X41437500Y-27250000D03*
X41437500Y-26750000D03*
D36*
X40750000Y-26062500D03*
X40250000Y-26062500D03*
X39750000Y-26062500D03*
X39250000Y-26062500D03*
%TD*%
D17*
%TO.C,R5*%
X14500000Y-62325000D03*
X14500000Y-60675000D03*
%TD*%
D10*
%TO.C,R10*%
X35675000Y-59500000D03*
X37325000Y-59500000D03*
%TD*%
D23*
%TO.C,C28*%
X32000000Y-22450000D03*
X32000000Y-20550000D03*
%TD*%
D10*
%TO.C,R24*%
X11175000Y-94000000D03*
X12825000Y-94000000D03*
%TD*%
D23*
%TO.C,C11*%
X15000000Y-27950000D03*
X15000000Y-26050000D03*
%TD*%
D37*
%TO.C,U5*%
X10075000Y-23762500D03*
X10075000Y-24587500D03*
X10075000Y-25412500D03*
X10075000Y-26237500D03*
X10925000Y-23762500D03*
X10925000Y-24587500D03*
X10925000Y-25412500D03*
X10925000Y-26237500D03*
D38*
X9050000Y-23500000D03*
X9050000Y-24000000D03*
X9050000Y-24500000D03*
X9050000Y-25000000D03*
X9050000Y-25500000D03*
X9050000Y-26000000D03*
X9050000Y-26500000D03*
X11950000Y-26500000D03*
X11950000Y-26000000D03*
X11950000Y-25500000D03*
X11950000Y-25000000D03*
X11950000Y-24500000D03*
X11950000Y-24000000D03*
X11950000Y-23500000D03*
%TD*%
D22*
%TO.C,D2*%
X14212500Y-94000000D03*
X15787500Y-94000000D03*
%TD*%
M02*
