ISO-10303-21;
HEADER;
/* Generated by software containing ST-Developer
 * from STEP Tools, Inc. (www.steptools.com) 
 */

FILE_DESCRIPTION(
/* description */ ('STEP AP214'),
/* implementation_level */ '2;1');

FILE_NAME(
/* name */ 'Button Press.step',
/* time_stamp */ '2026-08-29T00:00:00-04:00',
/* author */ (''),
/* organization */ (''),
/* preprocessor_version */ 'Named STEP solid extractor',
/* originating_system */ 'ESP32-Walkie-Talkie-V2',
/* authorisation */ '');

FILE_SCHEMA (('AUTOMOTIVE_DESIGN { 1 0 10303 214 3 1 1 }'));
ENDSEC;

DATA;
#7426=MANIFOLD_SOLID_BREP('Button Press',#262447);
#7444=CONICAL_SURFACE('',#283874,1.,0.785398163397447);
#7445=CONICAL_SURFACE('',#283878,1.,0.785398163397447);
#7446=CONICAL_SURFACE('',#283882,1.,0.785398163397447);
#7447=CONICAL_SURFACE('',#283886,1.,0.785398163397447);
#35479=LINE('',#440898,#63551);
#35480=LINE('',#440900,#63552);
#35481=LINE('',#440902,#63553);
#35482=LINE('',#440903,#63554);
#35483=LINE('',#440908,#63555);
#35484=LINE('',#440913,#63556);
#35485=LINE('',#440914,#63557);
#35486=LINE('',#440915,#63558);
#35487=LINE('',#440920,#63559);
#35488=LINE('',#440925,#63560);
#35489=LINE('',#440926,#63561);
#35490=LINE('',#440927,#63562);
#35491=LINE('',#440932,#63563);
#35492=LINE('',#440937,#63564);
#35493=LINE('',#440938,#63565);
#35494=LINE('',#440939,#63566);
#35495=LINE('',#440945,#63567);
#35496=LINE('',#440948,#63568);
#35497=LINE('',#440951,#63569);
#35498=LINE('',#440952,#63570);
#35499=LINE('',#440955,#63571);
#35500=LINE('',#440959,#63572);
#35501=LINE('',#440960,#63573);
#35502=LINE('',#440964,#63574);
#35503=LINE('',#440968,#63575);
#35504=LINE('',#440969,#63576);
#35505=LINE('',#440972,#63577);
#35506=LINE('',#440975,#63578);
#35507=LINE('',#440982,#63579);
#35508=LINE('',#440984,#63580);
#35509=LINE('',#440986,#63581);
#35510=LINE('',#440987,#63582);
#35511=LINE('',#440991,#63583);
#35512=LINE('',#440994,#63584);
#35513=LINE('',#440996,#63585);
#35514=LINE('',#440997,#63586);
#35515=LINE('',#441000,#63587);
#35516=LINE('',#441001,#63588);
#35517=LINE('',#441004,#63589);
#35518=LINE('',#441005,#63590);
#35519=LINE('',#441007,#63591);
#63551=VECTOR('',#354119,10.);
#63552=VECTOR('',#354120,10.);
#63553=VECTOR('',#354121,10.);
#63554=VECTOR('',#354122,10.);
#63555=VECTOR('',#354127,10.);
#63556=VECTOR('',#354132,10.);
#63557=VECTOR('',#354133,10.);
#63558=VECTOR('',#354134,10.);
#63559=VECTOR('',#354139,10.);
#63560=VECTOR('',#354144,10.);
#63561=VECTOR('',#354145,10.);
#63562=VECTOR('',#354146,10.);
#63563=VECTOR('',#354151,10.);
#63564=VECTOR('',#354156,10.);
#63565=VECTOR('',#354157,10.);
#63566=VECTOR('',#354158,10.);
#63567=VECTOR('',#354167,10.);
#63568=VECTOR('',#354170,10.);
#63569=VECTOR('',#354173,10.);
#63570=VECTOR('',#354174,10.);
#63571=VECTOR('',#354177,10.);
#63572=VECTOR('',#354182,10.);
#63573=VECTOR('',#354183,10.);
#63574=VECTOR('',#354188,10.);
#63575=VECTOR('',#354193,10.);
#63576=VECTOR('',#354194,10.);
#63577=VECTOR('',#354197,10.);
#63578=VECTOR('',#354202,10.);
#63579=VECTOR('',#354209,10.);
#63580=VECTOR('',#354210,10.);
#63581=VECTOR('',#354211,10.);
#63582=VECTOR('',#354212,10.);
#63583=VECTOR('',#354217,2.5);
#63584=VECTOR('',#354220,10.);
#63585=VECTOR('',#354221,10.);
#63586=VECTOR('',#354222,10.);
#63587=VECTOR('',#354225,10.);
#63588=VECTOR('',#354226,10.);
#63589=VECTOR('',#354229,10.);
#63590=VECTOR('',#354230,10.);
#63591=VECTOR('',#354233,10.);
#66778=CYLINDRICAL_SURFACE('',#283889,1.5);
#66779=CYLINDRICAL_SURFACE('',#283892,1.5);
#66780=CYLINDRICAL_SURFACE('',#283896,1.5);
#66781=CYLINDRICAL_SURFACE('',#283899,1.5);
#66782=CYLINDRICAL_SURFACE('',#283905,2.5);
#68942=FACE_BOUND('',#98367,.T.);
#68943=FACE_BOUND('',#98374,.T.);
#82568=FACE_OUTER_BOUND('',#98348,.T.);
#82569=FACE_OUTER_BOUND('',#98349,.T.);
#82570=FACE_OUTER_BOUND('',#98350,.T.);
#82571=FACE_OUTER_BOUND('',#98351,.T.);
#82572=FACE_OUTER_BOUND('',#98352,.T.);
#82573=FACE_OUTER_BOUND('',#98353,.T.);
#82574=FACE_OUTER_BOUND('',#98354,.T.);
#82575=FACE_OUTER_BOUND('',#98355,.T.);
#82576=FACE_OUTER_BOUND('',#98356,.T.);
#82577=FACE_OUTER_BOUND('',#98357,.T.);
#82578=FACE_OUTER_BOUND('',#98358,.T.);
#82579=FACE_OUTER_BOUND('',#98359,.T.);
#82580=FACE_OUTER_BOUND('',#98360,.T.);
#82581=FACE_OUTER_BOUND('',#98361,.T.);
#82582=FACE_OUTER_BOUND('',#98362,.T.);
#82583=FACE_OUTER_BOUND('',#98363,.T.);
#82584=FACE_OUTER_BOUND('',#98364,.T.);
#82585=FACE_OUTER_BOUND('',#98365,.T.);
#82586=FACE_OUTER_BOUND('',#98366,.T.);
#82587=FACE_OUTER_BOUND('',#98368,.T.);
#82588=FACE_OUTER_BOUND('',#98369,.T.);
#82589=FACE_OUTER_BOUND('',#98370,.T.);
#82590=FACE_OUTER_BOUND('',#98371,.T.);
#82591=FACE_OUTER_BOUND('',#98372,.T.);
#82592=FACE_OUTER_BOUND('',#98373,.T.);
#98348=EDGE_LOOP('',(#237824,#237825,#237826,#237827));
#98349=EDGE_LOOP('',(#237828,#237829,#237830,#237831));
#98350=EDGE_LOOP('',(#237832,#237833,#237834,#237835));
#98351=EDGE_LOOP('',(#237836,#237837,#237838,#237839));
#98352=EDGE_LOOP('',(#237840,#237841,#237842,#237843));
#98353=EDGE_LOOP('',(#237844,#237845,#237846,#237847));
#98354=EDGE_LOOP('',(#237848,#237849,#237850,#237851));
#98355=EDGE_LOOP('',(#237852,#237853,#237854,#237855));
#98356=EDGE_LOOP('',(#237856,#237857,#237858,#237859));
#98357=EDGE_LOOP('',(#237860,#237861,#237862,#237863));
#98358=EDGE_LOOP('',(#237864,#237865,#237866,#237867));
#98359=EDGE_LOOP('',(#237868,#237869,#237870,#237871));
#98360=EDGE_LOOP('',(#237872,#237873,#237874,#237875,#237876,#237877,#237878,
#237879));
#98361=EDGE_LOOP('',(#237880,#237881,#237882,#237883));
#98362=EDGE_LOOP('',(#237884,#237885,#237886,#237887));
#98363=EDGE_LOOP('',(#237888,#237889,#237890,#237891));
#98364=EDGE_LOOP('',(#237892,#237893,#237894,#237895));
#98365=EDGE_LOOP('',(#237896));
#98366=EDGE_LOOP('',(#237897,#237898,#237899,#237900));
#98367=EDGE_LOOP('',(#237901,#237902,#237903,#237904,#237905,#237906,#237907,
#237908));
#98368=EDGE_LOOP('',(#237909,#237910,#237911,#237912));
#98369=EDGE_LOOP('',(#237913,#237914,#237915,#237916));
#98370=EDGE_LOOP('',(#237917,#237918,#237919,#237920));
#98371=EDGE_LOOP('',(#237921,#237922,#237923,#237924));
#98372=EDGE_LOOP('',(#237925,#237926,#237927,#237928));
#98373=EDGE_LOOP('',(#237929,#237930,#237931,#237932));
#98374=EDGE_LOOP('',(#237933));
#105916=CIRCLE('',#283875,1.5);
#105917=CIRCLE('',#283876,0.500000000000002);
#105918=CIRCLE('',#283879,1.5);
#105919=CIRCLE('',#283880,0.500000000000002);
#105920=CIRCLE('',#283883,1.5);
#105921=CIRCLE('',#283884,0.500000000000002);
#105922=CIRCLE('',#283887,1.5);
#105923=CIRCLE('',#283888,0.500000000000002);
#105924=CIRCLE('',#283890,1.5);
#105925=CIRCLE('',#283893,1.5);
#105926=CIRCLE('',#283897,1.5);
#105927=CIRCLE('',#283900,1.5);
#105928=CIRCLE('',#283903,2.5);
#105929=CIRCLE('',#283906,2.5);
#130569=VERTEX_POINT('',#440896);
#130570=VERTEX_POINT('',#440897);
#130571=VERTEX_POINT('',#440899);
#130572=VERTEX_POINT('',#440901);
#130573=VERTEX_POINT('',#440905);
#130574=VERTEX_POINT('',#440907);
#130575=VERTEX_POINT('',#440911);
#130576=VERTEX_POINT('',#440912);
#130577=VERTEX_POINT('',#440917);
#130578=VERTEX_POINT('',#440919);
#130579=VERTEX_POINT('',#440923);
#130580=VERTEX_POINT('',#440924);
#130581=VERTEX_POINT('',#440929);
#130582=VERTEX_POINT('',#440931);
#130583=VERTEX_POINT('',#440935);
#130584=VERTEX_POINT('',#440936);
#130585=VERTEX_POINT('',#440944);
#130586=VERTEX_POINT('',#440946);
#130587=VERTEX_POINT('',#440950);
#130588=VERTEX_POINT('',#440954);
#130589=VERTEX_POINT('',#440958);
#130590=VERTEX_POINT('',#440963);
#130591=VERTEX_POINT('',#440967);
#130592=VERTEX_POINT('',#440971);
#130593=VERTEX_POINT('',#440977);
#130594=VERTEX_POINT('',#440980);
#130595=VERTEX_POINT('',#440981);
#130596=VERTEX_POINT('',#440983);
#130597=VERTEX_POINT('',#440985);
#130598=VERTEX_POINT('',#440989);
#130599=VERTEX_POINT('',#440993);
#130600=VERTEX_POINT('',#440995);
#130601=VERTEX_POINT('',#440999);
#130602=VERTEX_POINT('',#441003);
#167013=EDGE_CURVE('',#130569,#130570,#35479,.T.);
#167014=EDGE_CURVE('',#130570,#130571,#35480,.T.);
#167015=EDGE_CURVE('',#130571,#130572,#35481,.T.);
#167016=EDGE_CURVE('',#130572,#130569,#35482,.T.);
#167017=EDGE_CURVE('',#130569,#130573,#105916,.T.);
#167018=EDGE_CURVE('',#130573,#130574,#35483,.T.);
#167019=EDGE_CURVE('',#130574,#130570,#105917,.T.);
#167020=EDGE_CURVE('',#130575,#130576,#35484,.T.);
#167021=EDGE_CURVE('',#130576,#130574,#35485,.T.);
#167022=EDGE_CURVE('',#130573,#130575,#35486,.T.);
#167023=EDGE_CURVE('',#130575,#130577,#105918,.T.);
#167024=EDGE_CURVE('',#130577,#130578,#35487,.T.);
#167025=EDGE_CURVE('',#130578,#130576,#105919,.T.);
#167026=EDGE_CURVE('',#130579,#130580,#35488,.T.);
#167027=EDGE_CURVE('',#130580,#130578,#35489,.T.);
#167028=EDGE_CURVE('',#130577,#130579,#35490,.T.);
#167029=EDGE_CURVE('',#130579,#130581,#105920,.T.);
#167030=EDGE_CURVE('',#130581,#130582,#35491,.T.);
#167031=EDGE_CURVE('',#130582,#130580,#105921,.T.);
#167032=EDGE_CURVE('',#130583,#130584,#35492,.T.);
#167033=EDGE_CURVE('',#130584,#130582,#35493,.T.);
#167034=EDGE_CURVE('',#130581,#130583,#35494,.T.);
#167035=EDGE_CURVE('',#130583,#130572,#105922,.T.);
#167036=EDGE_CURVE('',#130571,#130584,#105923,.T.);
#167037=EDGE_CURVE('',#130575,#130585,#35495,.T.);
#167038=EDGE_CURVE('',#130585,#130586,#105924,.F.);
#167039=EDGE_CURVE('',#130586,#130577,#35496,.T.);
#167040=EDGE_CURVE('',#130587,#130573,#35497,.T.);
#167041=EDGE_CURVE('',#130585,#130587,#35498,.T.);
#167042=EDGE_CURVE('',#130569,#130588,#35499,.T.);
#167043=EDGE_CURVE('',#130588,#130587,#105925,.F.);
#167044=EDGE_CURVE('',#130589,#130572,#35500,.T.);
#167045=EDGE_CURVE('',#130588,#130589,#35501,.T.);
#167046=EDGE_CURVE('',#130583,#130590,#35502,.T.);
#167047=EDGE_CURVE('',#130590,#130589,#105926,.F.);
#167048=EDGE_CURVE('',#130591,#130581,#35503,.T.);
#167049=EDGE_CURVE('',#130590,#130591,#35504,.T.);
#167050=EDGE_CURVE('',#130579,#130592,#35505,.T.);
#167051=EDGE_CURVE('',#130592,#130591,#105927,.F.);
#167052=EDGE_CURVE('',#130592,#130586,#35506,.T.);
#167053=EDGE_CURVE('',#130593,#130593,#105928,.T.);
#167054=EDGE_CURVE('',#130594,#130595,#35507,.T.);
#167055=EDGE_CURVE('',#130595,#130596,#35508,.T.);
#167056=EDGE_CURVE('',#130596,#130597,#35509,.T.);
#167057=EDGE_CURVE('',#130597,#130594,#35510,.T.);
#167058=EDGE_CURVE('',#130598,#130598,#105929,.T.);
#167059=EDGE_CURVE('',#130598,#130593,#35511,.T.);
#167060=EDGE_CURVE('',#130599,#130596,#35512,.T.);
#167061=EDGE_CURVE('',#130600,#130599,#35513,.T.);
#167062=EDGE_CURVE('',#130600,#130597,#35514,.T.);
#167063=EDGE_CURVE('',#130601,#130600,#35515,.T.);
#167064=EDGE_CURVE('',#130601,#130594,#35516,.T.);
#167065=EDGE_CURVE('',#130602,#130601,#35517,.T.);
#167066=EDGE_CURVE('',#130595,#130602,#35518,.T.);
#167067=EDGE_CURVE('',#130599,#130602,#35519,.T.);
#237824=ORIENTED_EDGE('',*,*,#167013,.T.);
#237825=ORIENTED_EDGE('',*,*,#167014,.T.);
#237826=ORIENTED_EDGE('',*,*,#167015,.T.);
#237827=ORIENTED_EDGE('',*,*,#167016,.T.);
#237828=ORIENTED_EDGE('',*,*,#167013,.F.);
#237829=ORIENTED_EDGE('',*,*,#167017,.T.);
#237830=ORIENTED_EDGE('',*,*,#167018,.T.);
#237831=ORIENTED_EDGE('',*,*,#167019,.T.);
#237832=ORIENTED_EDGE('',*,*,#167020,.T.);
#237833=ORIENTED_EDGE('',*,*,#167021,.T.);
#237834=ORIENTED_EDGE('',*,*,#167018,.F.);
#237835=ORIENTED_EDGE('',*,*,#167022,.T.);
#237836=ORIENTED_EDGE('',*,*,#167020,.F.);
#237837=ORIENTED_EDGE('',*,*,#167023,.T.);
#237838=ORIENTED_EDGE('',*,*,#167024,.T.);
#237839=ORIENTED_EDGE('',*,*,#167025,.T.);
#237840=ORIENTED_EDGE('',*,*,#167026,.T.);
#237841=ORIENTED_EDGE('',*,*,#167027,.T.);
#237842=ORIENTED_EDGE('',*,*,#167024,.F.);
#237843=ORIENTED_EDGE('',*,*,#167028,.T.);
#237844=ORIENTED_EDGE('',*,*,#167026,.F.);
#237845=ORIENTED_EDGE('',*,*,#167029,.T.);
#237846=ORIENTED_EDGE('',*,*,#167030,.T.);
#237847=ORIENTED_EDGE('',*,*,#167031,.T.);
#237848=ORIENTED_EDGE('',*,*,#167032,.T.);
#237849=ORIENTED_EDGE('',*,*,#167033,.T.);
#237850=ORIENTED_EDGE('',*,*,#167030,.F.);
#237851=ORIENTED_EDGE('',*,*,#167034,.T.);
#237852=ORIENTED_EDGE('',*,*,#167032,.F.);
#237853=ORIENTED_EDGE('',*,*,#167035,.T.);
#237854=ORIENTED_EDGE('',*,*,#167015,.F.);
#237855=ORIENTED_EDGE('',*,*,#167036,.T.);
#237856=ORIENTED_EDGE('',*,*,#167023,.F.);
#237857=ORIENTED_EDGE('',*,*,#167037,.T.);
#237858=ORIENTED_EDGE('',*,*,#167038,.T.);
#237859=ORIENTED_EDGE('',*,*,#167039,.T.);
#237860=ORIENTED_EDGE('',*,*,#167022,.F.);
#237861=ORIENTED_EDGE('',*,*,#167040,.F.);
#237862=ORIENTED_EDGE('',*,*,#167041,.F.);
#237863=ORIENTED_EDGE('',*,*,#167037,.F.);
#237864=ORIENTED_EDGE('',*,*,#167017,.F.);
#237865=ORIENTED_EDGE('',*,*,#167042,.T.);
#237866=ORIENTED_EDGE('',*,*,#167043,.T.);
#237867=ORIENTED_EDGE('',*,*,#167040,.T.);
#237868=ORIENTED_EDGE('',*,*,#167016,.F.);
#237869=ORIENTED_EDGE('',*,*,#167044,.F.);
#237870=ORIENTED_EDGE('',*,*,#167045,.F.);
#237871=ORIENTED_EDGE('',*,*,#167042,.F.);
#237872=ORIENTED_EDGE('',*,*,#167014,.F.);
#237873=ORIENTED_EDGE('',*,*,#167019,.F.);
#237874=ORIENTED_EDGE('',*,*,#167021,.F.);
#237875=ORIENTED_EDGE('',*,*,#167025,.F.);
#237876=ORIENTED_EDGE('',*,*,#167027,.F.);
#237877=ORIENTED_EDGE('',*,*,#167031,.F.);
#237878=ORIENTED_EDGE('',*,*,#167033,.F.);
#237879=ORIENTED_EDGE('',*,*,#167036,.F.);
#237880=ORIENTED_EDGE('',*,*,#167035,.F.);
#237881=ORIENTED_EDGE('',*,*,#167046,.T.);
#237882=ORIENTED_EDGE('',*,*,#167047,.T.);
#237883=ORIENTED_EDGE('',*,*,#167044,.T.);
#237884=ORIENTED_EDGE('',*,*,#167034,.F.);
#237885=ORIENTED_EDGE('',*,*,#167048,.F.);
#237886=ORIENTED_EDGE('',*,*,#167049,.F.);
#237887=ORIENTED_EDGE('',*,*,#167046,.F.);
#237888=ORIENTED_EDGE('',*,*,#167029,.F.);
#237889=ORIENTED_EDGE('',*,*,#167050,.T.);
#237890=ORIENTED_EDGE('',*,*,#167051,.T.);
#237891=ORIENTED_EDGE('',*,*,#167048,.T.);
#237892=ORIENTED_EDGE('',*,*,#167028,.F.);
#237893=ORIENTED_EDGE('',*,*,#167039,.F.);
#237894=ORIENTED_EDGE('',*,*,#167052,.F.);
#237895=ORIENTED_EDGE('',*,*,#167050,.F.);
#237896=ORIENTED_EDGE('',*,*,#167053,.T.);
#237897=ORIENTED_EDGE('',*,*,#167054,.T.);
#237898=ORIENTED_EDGE('',*,*,#167055,.T.);
#237899=ORIENTED_EDGE('',*,*,#167056,.T.);
#237900=ORIENTED_EDGE('',*,*,#167057,.T.);
#237901=ORIENTED_EDGE('',*,*,#167041,.T.);
#237902=ORIENTED_EDGE('',*,*,#167043,.F.);
#237903=ORIENTED_EDGE('',*,*,#167045,.T.);
#237904=ORIENTED_EDGE('',*,*,#167047,.F.);
#237905=ORIENTED_EDGE('',*,*,#167049,.T.);
#237906=ORIENTED_EDGE('',*,*,#167051,.F.);
#237907=ORIENTED_EDGE('',*,*,#167052,.T.);
#237908=ORIENTED_EDGE('',*,*,#167038,.F.);
#237909=ORIENTED_EDGE('',*,*,#167058,.F.);
#237910=ORIENTED_EDGE('',*,*,#167059,.T.);
#237911=ORIENTED_EDGE('',*,*,#167053,.F.);
#237912=ORIENTED_EDGE('',*,*,#167059,.F.);
#237913=ORIENTED_EDGE('',*,*,#167060,.F.);
#237914=ORIENTED_EDGE('',*,*,#167061,.F.);
#237915=ORIENTED_EDGE('',*,*,#167062,.T.);
#237916=ORIENTED_EDGE('',*,*,#167056,.F.);
#237917=ORIENTED_EDGE('',*,*,#167062,.F.);
#237918=ORIENTED_EDGE('',*,*,#167063,.F.);
#237919=ORIENTED_EDGE('',*,*,#167064,.T.);
#237920=ORIENTED_EDGE('',*,*,#167057,.F.);
#237921=ORIENTED_EDGE('',*,*,#167064,.F.);
#237922=ORIENTED_EDGE('',*,*,#167065,.F.);
#237923=ORIENTED_EDGE('',*,*,#167066,.F.);
#237924=ORIENTED_EDGE('',*,*,#167054,.F.);
#237925=ORIENTED_EDGE('',*,*,#167066,.T.);
#237926=ORIENTED_EDGE('',*,*,#167067,.F.);
#237927=ORIENTED_EDGE('',*,*,#167060,.T.);
#237928=ORIENTED_EDGE('',*,*,#167055,.F.);
#237929=ORIENTED_EDGE('',*,*,#167067,.T.);
#237930=ORIENTED_EDGE('',*,*,#167065,.T.);
#237931=ORIENTED_EDGE('',*,*,#167063,.T.);
#237932=ORIENTED_EDGE('',*,*,#167061,.T.);
#237933=ORIENTED_EDGE('',*,*,#167058,.T.);
#247965=PLANE('',#283873);
#247966=PLANE('',#283877);
#247967=PLANE('',#283881);
#247968=PLANE('',#283885);
#247969=PLANE('',#283891);
#247970=PLANE('',#283894);
#247971=PLANE('',#283895);
#247972=PLANE('',#283898);
#247973=PLANE('',#283901);
#247974=PLANE('',#283902);
#247975=PLANE('',#283904);
#247976=PLANE('',#283907);
#247977=PLANE('',#283908);
#247978=PLANE('',#283909);
#247979=PLANE('',#283910);
#247980=PLANE('',#283911);
#261605=ADVANCED_FACE('',(#82568),#247965,.T.);
#261606=ADVANCED_FACE('',(#82569),#7444,.T.);
#261607=ADVANCED_FACE('',(#82570),#247966,.T.);
#261608=ADVANCED_FACE('',(#82571),#7445,.T.);
#261609=ADVANCED_FACE('',(#82572),#247967,.T.);
#261610=ADVANCED_FACE('',(#82573),#7446,.T.);
#261611=ADVANCED_FACE('',(#82574),#247968,.T.);
#261612=ADVANCED_FACE('',(#82575),#7447,.T.);
#261613=ADVANCED_FACE('',(#82576),#66778,.T.);
#261614=ADVANCED_FACE('',(#82577),#247969,.T.);
#261615=ADVANCED_FACE('',(#82578),#66779,.T.);
#261616=ADVANCED_FACE('',(#82579),#247970,.T.);
#261617=ADVANCED_FACE('',(#82580),#247971,.T.);
#261618=ADVANCED_FACE('',(#82581),#66780,.T.);
#261619=ADVANCED_FACE('',(#82582),#247972,.T.);
#261620=ADVANCED_FACE('',(#82583),#66781,.T.);
#261621=ADVANCED_FACE('',(#82584),#247973,.T.);
#261622=ADVANCED_FACE('',(#82585),#247974,.F.);
#261623=ADVANCED_FACE('',(#82586,#68942),#247975,.T.);
#261624=ADVANCED_FACE('',(#82587),#66782,.F.);
#261625=ADVANCED_FACE('',(#82588),#247976,.T.);
#261626=ADVANCED_FACE('',(#82589),#247977,.T.);
#261627=ADVANCED_FACE('',(#82590),#247978,.T.);
#261628=ADVANCED_FACE('',(#82591),#247979,.T.);
#261629=ADVANCED_FACE('',(#82592,#68943),#247980,.F.);
#262447=CLOSED_SHELL('',(#261605,#261606,#261607,#261608,#261609,#261610,
#261611,#261612,#261613,#261614,#261615,#261616,#261617,#261618,#261619,
#261620,#261621,#261622,#261623,#261624,#261625,#261626,#261627,#261628,
#261629));
#283873=AXIS2_PLACEMENT_3D('',#440895,#354117,#354118);
#283874=AXIS2_PLACEMENT_3D('',#440904,#354123,#354124);
#283875=AXIS2_PLACEMENT_3D('',#440906,#354125,#354126);
#283876=AXIS2_PLACEMENT_3D('',#440909,#354128,#354129);
#283877=AXIS2_PLACEMENT_3D('',#440910,#354130,#354131);
#283878=AXIS2_PLACEMENT_3D('',#440916,#354135,#354136);
#283879=AXIS2_PLACEMENT_3D('',#440918,#354137,#354138);
#283880=AXIS2_PLACEMENT_3D('',#440921,#354140,#354141);
#283881=AXIS2_PLACEMENT_3D('',#440922,#354142,#354143);
#283882=AXIS2_PLACEMENT_3D('',#440928,#354147,#354148);
#283883=AXIS2_PLACEMENT_3D('',#440930,#354149,#354150);
#283884=AXIS2_PLACEMENT_3D('',#440933,#354152,#354153);
#283885=AXIS2_PLACEMENT_3D('',#440934,#354154,#354155);
#283886=AXIS2_PLACEMENT_3D('',#440940,#354159,#354160);
#283887=AXIS2_PLACEMENT_3D('',#440941,#354161,#354162);
#283888=AXIS2_PLACEMENT_3D('',#440942,#354163,#354164);
#283889=AXIS2_PLACEMENT_3D('',#440943,#354165,#354166);
#283890=AXIS2_PLACEMENT_3D('',#440947,#354168,#354169);
#283891=AXIS2_PLACEMENT_3D('',#440949,#354171,#354172);
#283892=AXIS2_PLACEMENT_3D('',#440953,#354175,#354176);
#283893=AXIS2_PLACEMENT_3D('',#440956,#354178,#354179);
#283894=AXIS2_PLACEMENT_3D('',#440957,#354180,#354181);
#283895=AXIS2_PLACEMENT_3D('',#440961,#354184,#354185);
#283896=AXIS2_PLACEMENT_3D('',#440962,#354186,#354187);
#283897=AXIS2_PLACEMENT_3D('',#440965,#354189,#354190);
#283898=AXIS2_PLACEMENT_3D('',#440966,#354191,#354192);
#283899=AXIS2_PLACEMENT_3D('',#440970,#354195,#354196);
#283900=AXIS2_PLACEMENT_3D('',#440973,#354198,#354199);
#283901=AXIS2_PLACEMENT_3D('',#440974,#354200,#354201);
#283902=AXIS2_PLACEMENT_3D('',#440976,#354203,#354204);
#283903=AXIS2_PLACEMENT_3D('',#440978,#354205,#354206);
#283904=AXIS2_PLACEMENT_3D('',#440979,#354207,#354208);
#283905=AXIS2_PLACEMENT_3D('',#440988,#354213,#354214);
#283906=AXIS2_PLACEMENT_3D('',#440990,#354215,#354216);
#283907=AXIS2_PLACEMENT_3D('',#440992,#354218,#354219);
#283908=AXIS2_PLACEMENT_3D('',#440998,#354223,#354224);
#283909=AXIS2_PLACEMENT_3D('',#441002,#354227,#354228);
#283910=AXIS2_PLACEMENT_3D('',#441006,#354231,#354232);
#283911=AXIS2_PLACEMENT_3D('',#441008,#354234,#354235);
#354117=DIRECTION('center_axis',(-1.35061716876024E-15,0.707106781186549,
0.707106781186546));
#354118=DIRECTION('ref_axis',(1.,0.,1.91006111763469E-15));
#354119=DIRECTION('',(0.,-0.707106781186546,0.707106781186549));
#354120=DIRECTION('',(1.,1.91006111763468E-15,0.));
#354121=DIRECTION('',(0.,0.707106781186546,-0.707106781186549));
#354122=DIRECTION('',(-1.,-1.91006111763468E-15,0.));
#354123=DIRECTION('center_axis',(0.,0.,-1.));
#354124=DIRECTION('ref_axis',(-0.707106781186556,0.707106781186539,0.));
#354125=DIRECTION('center_axis',(0.,0.,1.));
#354126=DIRECTION('ref_axis',(-0.707106781186556,0.707106781186539,0.));
#354127=DIRECTION('',(0.707106781186546,0.,0.707106781186549));
#354128=DIRECTION('center_axis',(0.,0.,-1.));
#354129=DIRECTION('ref_axis',(-0.707106781186556,0.707106781186539,0.));
#354130=DIRECTION('center_axis',(-0.707106781186549,0.,0.707106781186546));
#354131=DIRECTION('ref_axis',(0.707106781186546,0.,0.707106781186549));
#354132=DIRECTION('',(0.707106781186546,0.,0.707106781186549));
#354133=DIRECTION('',(0.,1.,0.));
#354134=DIRECTION('',(0.,-1.,0.));
#354135=DIRECTION('center_axis',(0.,0.,-1.));
#354136=DIRECTION('ref_axis',(-0.707106781186548,-0.707106781186548,0.));
#354137=DIRECTION('center_axis',(0.,0.,1.));
#354138=DIRECTION('ref_axis',(-0.707106781186548,-0.707106781186548,0.));
#354139=DIRECTION('',(0.,0.707106781186546,0.707106781186549));
#354140=DIRECTION('center_axis',(0.,0.,-1.));
#354141=DIRECTION('ref_axis',(-0.707106781186547,-0.707106781186547,0.));
#354142=DIRECTION('center_axis',(0.,-0.707106781186549,0.707106781186546));
#354143=DIRECTION('ref_axis',(1.,0.,0.));
#354144=DIRECTION('',(0.,0.707106781186546,0.707106781186549));
#354145=DIRECTION('',(-1.,0.,0.));
#354146=DIRECTION('',(1.,0.,0.));
#354147=DIRECTION('center_axis',(0.,0.,-1.));
#354148=DIRECTION('ref_axis',(0.707106781186548,-0.707106781186548,0.));
#354149=DIRECTION('center_axis',(0.,0.,1.));
#354150=DIRECTION('ref_axis',(0.707106781186548,-0.707106781186548,0.));
#354151=DIRECTION('',(-0.707106781186546,0.,0.707106781186549));
#354152=DIRECTION('center_axis',(0.,0.,-1.));
#354153=DIRECTION('ref_axis',(0.707106781186547,-0.707106781186547,0.));
#354154=DIRECTION('center_axis',(0.707106781186549,0.,0.707106781186546));
#354155=DIRECTION('ref_axis',(0.707106781186546,0.,-0.707106781186549));
#354156=DIRECTION('',(-0.707106781186546,0.,0.707106781186549));
#354157=DIRECTION('',(0.,-1.,0.));
#354158=DIRECTION('',(0.,1.,0.));
#354159=DIRECTION('center_axis',(0.,0.,-1.));
#354160=DIRECTION('ref_axis',(0.707106781186539,0.707106781186556,0.));
#354161=DIRECTION('center_axis',(0.,0.,1.));
#354162=DIRECTION('ref_axis',(0.707106781186539,0.707106781186556,0.));
#354163=DIRECTION('center_axis',(0.,0.,-1.));
#354164=DIRECTION('ref_axis',(0.707106781186539,0.707106781186556,0.));
#354165=DIRECTION('center_axis',(0.,0.,1.));
#354166=DIRECTION('ref_axis',(-0.707106781186548,-0.707106781186548,0.));
#354167=DIRECTION('',(0.,0.,-1.));
#354168=DIRECTION('center_axis',(0.,0.,-1.));
#354169=DIRECTION('ref_axis',(-0.707106781186548,-0.707106781186548,0.));
#354170=DIRECTION('',(0.,0.,1.));
#354171=DIRECTION('center_axis',(-1.,0.,0.));
#354172=DIRECTION('ref_axis',(0.,-1.,0.));
#354173=DIRECTION('',(0.,0.,1.));
#354174=DIRECTION('',(0.,1.,0.));
#354175=DIRECTION('center_axis',(0.,0.,1.));
#354176=DIRECTION('ref_axis',(-0.707106781186556,0.707106781186539,0.));
#354177=DIRECTION('',(0.,0.,-1.));
#354178=DIRECTION('center_axis',(0.,0.,-1.));
#354179=DIRECTION('ref_axis',(-0.707106781186556,0.707106781186539,0.));
#354180=DIRECTION('center_axis',(-1.91006111763468E-15,1.,0.));
#354181=DIRECTION('ref_axis',(-1.,-1.91006111763468E-15,0.));
#354182=DIRECTION('',(0.,0.,1.));
#354183=DIRECTION('',(1.,1.91006111763468E-15,0.));
#354184=DIRECTION('center_axis',(0.,0.,1.));
#354185=DIRECTION('ref_axis',(1.,0.,0.));
#354186=DIRECTION('center_axis',(0.,0.,1.));
#354187=DIRECTION('ref_axis',(0.707106781186539,0.707106781186556,0.));
#354188=DIRECTION('',(0.,0.,-1.));
#354189=DIRECTION('center_axis',(0.,0.,-1.));
#354190=DIRECTION('ref_axis',(0.707106781186539,0.707106781186556,0.));
#354191=DIRECTION('center_axis',(1.,0.,0.));
#354192=DIRECTION('ref_axis',(0.,1.,0.));
#354193=DIRECTION('',(0.,0.,1.));
#354194=DIRECTION('',(0.,-1.,0.));
#354195=DIRECTION('center_axis',(0.,0.,1.));
#354196=DIRECTION('ref_axis',(0.707106781186548,-0.707106781186548,0.));
#354197=DIRECTION('',(0.,0.,-1.));
#354198=DIRECTION('center_axis',(0.,0.,-1.));
#354199=DIRECTION('ref_axis',(0.707106781186548,-0.707106781186548,0.));
#354200=DIRECTION('center_axis',(0.,-1.,0.));
#354201=DIRECTION('ref_axis',(1.,0.,0.));
#354202=DIRECTION('',(-1.,0.,0.));
#354203=DIRECTION('center_axis',(0.,0.,1.));
#354204=DIRECTION('ref_axis',(-1.,0.,0.));
#354205=DIRECTION('center_axis',(0.,0.,-1.));
#354206=DIRECTION('ref_axis',(-1.,0.,0.));
#354207=DIRECTION('center_axis',(0.,0.,1.));
#354208=DIRECTION('ref_axis',(1.,0.,0.));
#354209=DIRECTION('',(0.,-1.,0.));
#354210=DIRECTION('',(1.,0.,0.));
#354211=DIRECTION('',(0.,1.,0.));
#354212=DIRECTION('',(-1.,0.,0.));
#354213=DIRECTION('center_axis',(0.,0.,-1.));
#354214=DIRECTION('ref_axis',(-1.,0.,0.));
#354215=DIRECTION('center_axis',(0.,0.,1.));
#354216=DIRECTION('ref_axis',(-1.,0.,0.));
#354217=DIRECTION('',(0.,0.,1.));
#354218=DIRECTION('center_axis',(1.,0.,0.));
#354219=DIRECTION('ref_axis',(0.,-1.,0.));
#354220=DIRECTION('',(0.,0.,1.));
#354221=DIRECTION('',(0.,-1.,0.));
#354222=DIRECTION('',(0.,0.,1.));
#354223=DIRECTION('center_axis',(0.,1.,0.));
#354224=DIRECTION('ref_axis',(1.,0.,0.));
#354225=DIRECTION('',(1.,0.,0.));
#354226=DIRECTION('',(0.,0.,1.));
#354227=DIRECTION('center_axis',(-1.,0.,0.));
#354228=DIRECTION('ref_axis',(0.,1.,0.));
#354229=DIRECTION('',(0.,1.,0.));
#354230=DIRECTION('',(0.,0.,-1.));
#354231=DIRECTION('center_axis',(0.,-1.,0.));
#354232=DIRECTION('ref_axis',(-1.,0.,0.));
#354233=DIRECTION('',(-1.,0.,0.));
#354234=DIRECTION('center_axis',(0.,0.,1.));
#354235=DIRECTION('ref_axis',(-1.,0.,0.));
#440895=CARTESIAN_POINT('Origin',(153.825003471226,-82.9898930545347,10.8));
#440896=CARTESIAN_POINT('',(148.350003471226,-82.4898930545347,10.3));
#440897=CARTESIAN_POINT('',(148.350003471226,-83.4898930545347,11.3));
#440898=CARTESIAN_POINT('',(148.350003471226,-82.4898930545347,10.3));
#440899=CARTESIAN_POINT('',(154.650003471226,-83.4898930545347,11.3));
#440900=CARTESIAN_POINT('',(153.825003471226,-83.4898930545347,11.3));
#440901=CARTESIAN_POINT('',(154.650003471226,-82.4898930545347,10.3));
#440902=CARTESIAN_POINT('',(154.650003471226,-83.4898930545347,11.3));
#440903=CARTESIAN_POINT('',(153.825003471226,-82.4898930545347,10.3));
#440904=CARTESIAN_POINT('Origin',(148.350003471226,-83.9898930545347,10.8));
#440905=CARTESIAN_POINT('',(146.850003471226,-83.9898930545347,10.3));
#440906=CARTESIAN_POINT('Origin',(148.350003471226,-83.9898930545347,10.3));
#440907=CARTESIAN_POINT('',(147.850003471226,-83.9898930545347,11.3));
#440908=CARTESIAN_POINT('',(146.850003471226,-83.9898930545347,10.3));
#440909=CARTESIAN_POINT('Origin',(148.350003471226,-83.9898930545347,11.3));
#440910=CARTESIAN_POINT('Origin',(147.350003471226,-84.9148930545347,10.8));
#440911=CARTESIAN_POINT('',(146.850003471226,-90.6898930545347,10.3));
#440912=CARTESIAN_POINT('',(147.850003471226,-90.6898930545347,11.3));
#440913=CARTESIAN_POINT('',(146.850003471226,-90.6898930545347,10.3));
#440914=CARTESIAN_POINT('',(147.850003471226,-84.9148930545347,11.3));
#440915=CARTESIAN_POINT('',(146.850003471226,-84.9148930545347,10.3));
#440916=CARTESIAN_POINT('Origin',(148.350003471226,-90.6898930545347,10.8));
#440917=CARTESIAN_POINT('',(148.350003471226,-92.1898930545347,10.3));
#440918=CARTESIAN_POINT('Origin',(148.350003471226,-90.6898930545347,10.3));
#440919=CARTESIAN_POINT('',(148.350003471226,-91.1898930545347,11.3));
#440920=CARTESIAN_POINT('',(148.350003471226,-92.1898930545347,10.3));
#440921=CARTESIAN_POINT('Origin',(148.350003471226,-90.6898930545347,11.3));
#440922=CARTESIAN_POINT('Origin',(149.175003471226,-91.6898930545347,10.8));
#440923=CARTESIAN_POINT('',(154.650003471226,-92.1898930545347,10.3));
#440924=CARTESIAN_POINT('',(154.650003471226,-91.1898930545347,11.3));
#440925=CARTESIAN_POINT('',(154.650003471226,-92.1898930545347,10.3));
#440926=CARTESIAN_POINT('',(149.175003471226,-91.1898930545347,11.3));
#440927=CARTESIAN_POINT('',(149.175003471226,-92.1898930545347,10.3));
#440928=CARTESIAN_POINT('Origin',(154.650003471226,-90.6898930545347,10.8));
#440929=CARTESIAN_POINT('',(156.150003471226,-90.6898930545347,10.3));
#440930=CARTESIAN_POINT('Origin',(154.650003471226,-90.6898930545347,10.3));
#440931=CARTESIAN_POINT('',(155.150003471226,-90.6898930545347,11.3));
#440932=CARTESIAN_POINT('',(156.150003471226,-90.6898930545347,10.3));
#440933=CARTESIAN_POINT('Origin',(154.650003471226,-90.6898930545347,11.3));
#440934=CARTESIAN_POINT('Origin',(155.650003471226,-89.7648930545347,10.8));
#440935=CARTESIAN_POINT('',(156.150003471226,-83.9898930545347,10.3));
#440936=CARTESIAN_POINT('',(155.150003471226,-83.9898930545347,11.3));
#440937=CARTESIAN_POINT('',(156.150003471226,-83.9898930545347,10.3));
#440938=CARTESIAN_POINT('',(155.150003471226,-89.7648930545347,11.3));
#440939=CARTESIAN_POINT('',(156.150003471226,-89.7648930545347,10.3));
#440940=CARTESIAN_POINT('Origin',(154.650003471226,-83.9898930545347,10.8));
#440941=CARTESIAN_POINT('Origin',(154.650003471226,-83.9898930545347,10.3));
#440942=CARTESIAN_POINT('Origin',(154.650003471226,-83.9898930545347,11.3));
#440943=CARTESIAN_POINT('Origin',(148.350003471226,-90.6898930545347,7.5));
#440944=CARTESIAN_POINT('',(146.850003471226,-90.6898930545347,7.5));
#440945=CARTESIAN_POINT('',(146.850003471226,-90.6898930545347,7.5));
#440946=CARTESIAN_POINT('',(148.350003471226,-92.1898930545347,7.5));
#440947=CARTESIAN_POINT('Origin',(148.350003471226,-90.6898930545347,7.5));
#440948=CARTESIAN_POINT('',(148.350003471226,-92.1898930545347,7.5));
#440949=CARTESIAN_POINT('Origin',(146.850003471226,-82.4898930545347,7.5));
#440950=CARTESIAN_POINT('',(146.850003471226,-83.9898930545347,7.5));
#440951=CARTESIAN_POINT('',(146.850003471226,-83.9898930545347,7.5));
#440952=CARTESIAN_POINT('',(146.850003471226,-84.9148930545347,7.5));
#440953=CARTESIAN_POINT('Origin',(148.350003471226,-83.9898930545347,7.5));
#440954=CARTESIAN_POINT('',(148.350003471226,-82.4898930545347,7.5));
#440955=CARTESIAN_POINT('',(148.350003471226,-82.4898930545347,7.5));
#440956=CARTESIAN_POINT('Origin',(148.350003471226,-83.9898930545347,7.5));
#440957=CARTESIAN_POINT('Origin',(156.150003471226,-82.4898930545347,7.5));
#440958=CARTESIAN_POINT('',(154.650003471226,-82.4898930545347,7.5));
#440959=CARTESIAN_POINT('',(154.650003471226,-82.4898930545347,7.5));
#440960=CARTESIAN_POINT('',(153.825003471226,-82.4898930545347,7.5));
#440961=CARTESIAN_POINT('Origin',(151.500003471226,-87.3398930545347,11.3));
#440962=CARTESIAN_POINT('Origin',(154.650003471226,-83.9898930545347,7.5));
#440963=CARTESIAN_POINT('',(156.150003471226,-83.9898930545347,7.5));
#440964=CARTESIAN_POINT('',(156.150003471226,-83.9898930545347,7.5));
#440965=CARTESIAN_POINT('Origin',(154.650003471226,-83.9898930545347,7.5));
#440966=CARTESIAN_POINT('Origin',(156.150003471226,-92.1898930545347,7.5));
#440967=CARTESIAN_POINT('',(156.150003471226,-90.6898930545347,7.5));
#440968=CARTESIAN_POINT('',(156.150003471226,-90.6898930545347,7.5));
#440969=CARTESIAN_POINT('',(156.150003471226,-89.7648930545347,7.5));
#440970=CARTESIAN_POINT('Origin',(154.650003471226,-90.6898930545347,7.5));
#440971=CARTESIAN_POINT('',(154.650003471226,-92.1898930545347,7.5));
#440972=CARTESIAN_POINT('',(154.650003471226,-92.1898930545347,7.5));
#440973=CARTESIAN_POINT('Origin',(154.650003471226,-90.6898930545347,7.5));
#440974=CARTESIAN_POINT('Origin',(146.850003471226,-92.1898930545347,7.5));
#440975=CARTESIAN_POINT('',(149.175003471226,-92.1898930545347,7.5));
#440976=CARTESIAN_POINT('Origin',(151.500003471226,-87.3398930545347,6.));
#440977=CARTESIAN_POINT('',(154.000003471226,-87.3398930545347,6.));
#440978=CARTESIAN_POINT('Origin',(151.500003471226,-87.3398930545347,6.));
#440979=CARTESIAN_POINT('Origin',(151.500003471226,-87.3398930545347,7.5));
#440980=CARTESIAN_POINT('',(146.000003471226,-81.5898930545347,7.5));
#440981=CARTESIAN_POINT('',(146.000003471226,-93.0898930545347,7.5));
#440982=CARTESIAN_POINT('',(146.000003471226,-81.5898930545347,7.5));
#440983=CARTESIAN_POINT('',(157.000003471226,-93.0898930545347,7.5));
#440984=CARTESIAN_POINT('',(146.000003471226,-93.0898930545347,7.5));
#440985=CARTESIAN_POINT('',(157.000003471226,-81.5898930545347,7.5));
#440986=CARTESIAN_POINT('',(157.000003471226,-93.0898930545347,7.5));
#440987=CARTESIAN_POINT('',(157.000003471226,-81.5898930545347,7.5));
#440988=CARTESIAN_POINT('Origin',(151.500003471226,-87.3398930545347,6.));
#440989=CARTESIAN_POINT('',(154.000003471226,-87.3398930545347,4.9));
#440990=CARTESIAN_POINT('Origin',(151.500003471226,-87.3398930545347,4.9));
#440991=CARTESIAN_POINT('',(154.000003471226,-87.3398930545347,6.));
#440992=CARTESIAN_POINT('Origin',(157.000003471226,-81.5898930545347,6.));
#440993=CARTESIAN_POINT('',(157.000003471226,-93.0898930545347,4.9));
#440994=CARTESIAN_POINT('',(157.000003471226,-93.0898930545347,6.));
#440995=CARTESIAN_POINT('',(157.000003471226,-81.5898930545347,4.9));
#440996=CARTESIAN_POINT('',(157.000003471226,-81.5898930545347,4.9));
#440997=CARTESIAN_POINT('',(157.000003471226,-81.5898930545347,6.));
#440998=CARTESIAN_POINT('Origin',(146.000003471226,-81.5898930545347,6.));
#440999=CARTESIAN_POINT('',(146.000003471226,-81.5898930545347,4.9));
#441000=CARTESIAN_POINT('',(146.000003471226,-81.5898930545347,4.9));
#441001=CARTESIAN_POINT('',(146.000003471226,-81.5898930545347,6.));
#441002=CARTESIAN_POINT('Origin',(146.000003471226,-93.0898930545347,6.));
#441003=CARTESIAN_POINT('',(146.000003471226,-93.0898930545347,4.9));
#441004=CARTESIAN_POINT('',(146.000003471226,-93.0898930545347,4.9));
#441005=CARTESIAN_POINT('',(146.000003471226,-93.0898930545347,6.));
#441006=CARTESIAN_POINT('Origin',(157.000003471226,-93.0898930545347,6.));
#441007=CARTESIAN_POINT('',(157.000003471226,-93.0898930545347,4.9));
#441008=CARTESIAN_POINT('Origin',(151.500003471226,-87.3398930545347,4.9));
#441017=UNCERTAINTY_MEASURE_WITH_UNIT(LENGTH_MEASURE(0.01),#441217,
'DISTANCE_ACCURACY_VALUE',
'Maximum model space distance between geometric entities at asserted c
onnectivities');
#441117=(
GEOMETRIC_REPRESENTATION_CONTEXT(3)
GLOBAL_UNCERTAINTY_ASSIGNED_CONTEXT((#441017))
GLOBAL_UNIT_ASSIGNED_CONTEXT((#441217,#441219,#441220))
REPRESENTATION_CONTEXT('','3D')
);
#441217=(
LENGTH_UNIT()
NAMED_UNIT(*)
SI_UNIT(.MILLI.,.METRE.)
);
#441219=(
NAMED_UNIT(*)
PLANE_ANGLE_UNIT()
SI_UNIT($,.RADIAN.)
);
#441220=(
NAMED_UNIT(*)
SI_UNIT($,.STERADIAN.)
SOLID_ANGLE_UNIT()
);
#442435=APPLICATION_CONTEXT('automotive design');
#442436=APPLICATION_PROTOCOL_DEFINITION('international standard','automotive_design',2000,#442435);
#442437=PRODUCT_CONTEXT('',#442435,'mechanical');
#442438=PRODUCT('Button Press','Button Press','',(#442437));
#442439=PRODUCT_DEFINITION_FORMATION('','',#442438);
#442440=PRODUCT_DEFINITION_CONTEXT('part definition',#442435,'design');
#442441=PRODUCT_DEFINITION('design','',#442439,#442440);
#442442=PRODUCT_DEFINITION_SHAPE('','',#442441);
#442443=ADVANCED_BREP_SHAPE_REPRESENTATION('',(#7426),#441117);
#442444=SHAPE_DEFINITION_REPRESENTATION(#442442,#442443);
#442445=PRODUCT_RELATED_PRODUCT_CATEGORY('part',$,(#442438));
ENDSEC;
END-ISO-10303-21;
