ISO-10303-21;
HEADER;
/* Generated by software containing ST-Developer
 * from STEP Tools, Inc. (www.steptools.com) 
 */

FILE_DESCRIPTION(
/* description */ ('STEP AP214'),
/* implementation_level */ '2;1');

FILE_NAME(
/* name */ 'Button Pad.step',
/* time_stamp */ '2026-08-29T00:00:00-04:00',
/* author */ (''),
/* organization */ (''),
/* preprocessor_version */ 'Named STEP solid extractor',
/* originating_system */ 'ESP32-Walkie-Talkie-V2',
/* authorisation */ '');

FILE_SCHEMA (('AUTOMOTIVE_DESIGN { 1 0 10303 214 3 1 1 }'));
ENDSEC;

DATA;
#7425=MANIFOLD_SOLID_BREP('Button Pad',#262446);
#7443=CONICAL_SURFACE('',#283846,13.5,0.785398163397446);
#35472=LINE('',#440852,#63544);
#35473=LINE('',#440856,#63545);
#35474=LINE('',#440877,#63546);
#35475=LINE('',#440881,#63547);
#35476=LINE('',#440885,#63548);
#35477=LINE('',#440889,#63549);
#35478=LINE('',#440893,#63550);
#63544=VECTOR('',#354060,13.5);
#63545=VECTOR('',#354065,14.);
#63546=VECTOR('',#354094,2.5);
#63547=VECTOR('',#354099,2.5);
#63548=VECTOR('',#354104,2.5);
#63549=VECTOR('',#354109,2.5);
#63550=VECTOR('',#354114,15.25);
#66772=CYLINDRICAL_SURFACE('',#283849,14.);
#66773=CYLINDRICAL_SURFACE('',#283862,2.5);
#66774=CYLINDRICAL_SURFACE('',#283864,2.5);
#66775=CYLINDRICAL_SURFACE('',#283866,2.5);
#66776=CYLINDRICAL_SURFACE('',#283868,2.5);
#66777=CYLINDRICAL_SURFACE('',#283870,15.25);
#68937=FACE_BOUND('',#98337,.T.);
#68938=FACE_BOUND('',#98344,.T.);
#68939=FACE_BOUND('',#98345,.T.);
#68940=FACE_BOUND('',#98346,.T.);
#68941=FACE_BOUND('',#98347,.T.);
#82554=FACE_OUTER_BOUND('',#98329,.T.);
#82555=FACE_OUTER_BOUND('',#98330,.T.);
#82556=FACE_OUTER_BOUND('',#98331,.T.);
#82557=FACE_OUTER_BOUND('',#98332,.T.);
#82558=FACE_OUTER_BOUND('',#98333,.T.);
#82559=FACE_OUTER_BOUND('',#98334,.T.);
#82560=FACE_OUTER_BOUND('',#98335,.T.);
#82561=FACE_OUTER_BOUND('',#98336,.T.);
#82562=FACE_OUTER_BOUND('',#98338,.T.);
#82563=FACE_OUTER_BOUND('',#98339,.T.);
#82564=FACE_OUTER_BOUND('',#98340,.T.);
#82565=FACE_OUTER_BOUND('',#98341,.T.);
#82566=FACE_OUTER_BOUND('',#98342,.T.);
#82567=FACE_OUTER_BOUND('',#98343,.T.);
#98329=EDGE_LOOP('',(#237784,#237785,#237786,#237787));
#98330=EDGE_LOOP('',(#237788,#237789,#237790,#237791));
#98331=EDGE_LOOP('',(#237792));
#98332=EDGE_LOOP('',(#237793));
#98333=EDGE_LOOP('',(#237794));
#98334=EDGE_LOOP('',(#237795));
#98335=EDGE_LOOP('',(#237796));
#98336=EDGE_LOOP('',(#237797));
#98337=EDGE_LOOP('',(#237798));
#98338=EDGE_LOOP('',(#237799,#237800,#237801,#237802));
#98339=EDGE_LOOP('',(#237803,#237804,#237805,#237806));
#98340=EDGE_LOOP('',(#237807,#237808,#237809,#237810));
#98341=EDGE_LOOP('',(#237811,#237812,#237813,#237814));
#98342=EDGE_LOOP('',(#237815,#237816,#237817,#237818));
#98343=EDGE_LOOP('',(#237819));
#98344=EDGE_LOOP('',(#237820));
#98345=EDGE_LOOP('',(#237821));
#98346=EDGE_LOOP('',(#237822));
#98347=EDGE_LOOP('',(#237823));
#105903=CIRCLE('',#283847,13.);
#105904=CIRCLE('',#283848,14.);
#105905=CIRCLE('',#283850,14.);
#105906=CIRCLE('',#283853,2.5);
#105907=CIRCLE('',#283855,2.5);
#105908=CIRCLE('',#283857,2.5);
#105909=CIRCLE('',#283859,2.5);
#105910=CIRCLE('',#283861,15.25);
#105911=CIRCLE('',#283863,2.5);
#105912=CIRCLE('',#283865,2.5);
#105913=CIRCLE('',#283867,2.5);
#105914=CIRCLE('',#283869,2.5);
#105915=CIRCLE('',#283871,15.25);
#130556=VERTEX_POINT('',#440849);
#130557=VERTEX_POINT('',#440851);
#130558=VERTEX_POINT('',#440855);
#130559=VERTEX_POINT('',#440860);
#130560=VERTEX_POINT('',#440863);
#130561=VERTEX_POINT('',#440866);
#130562=VERTEX_POINT('',#440869);
#130563=VERTEX_POINT('',#440872);
#130564=VERTEX_POINT('',#440875);
#130565=VERTEX_POINT('',#440879);
#130566=VERTEX_POINT('',#440883);
#130567=VERTEX_POINT('',#440887);
#130568=VERTEX_POINT('',#440891);
#166993=EDGE_CURVE('',#130556,#130556,#105903,.T.);
#166994=EDGE_CURVE('',#130556,#130557,#35472,.T.);
#166995=EDGE_CURVE('',#130557,#130557,#105904,.T.);
#166996=EDGE_CURVE('',#130557,#130558,#35473,.T.);
#166997=EDGE_CURVE('',#130558,#130558,#105905,.T.);
#166998=EDGE_CURVE('',#130559,#130559,#105906,.T.);
#166999=EDGE_CURVE('',#130560,#130560,#105907,.T.);
#167000=EDGE_CURVE('',#130561,#130561,#105908,.T.);
#167001=EDGE_CURVE('',#130562,#130562,#105909,.T.);
#167002=EDGE_CURVE('',#130563,#130563,#105910,.T.);
#167003=EDGE_CURVE('',#130564,#130564,#105911,.T.);
#167004=EDGE_CURVE('',#130564,#130562,#35474,.T.);
#167005=EDGE_CURVE('',#130565,#130565,#105912,.T.);
#167006=EDGE_CURVE('',#130565,#130561,#35475,.T.);
#167007=EDGE_CURVE('',#130566,#130566,#105913,.T.);
#167008=EDGE_CURVE('',#130566,#130560,#35476,.T.);
#167009=EDGE_CURVE('',#130567,#130567,#105914,.T.);
#167010=EDGE_CURVE('',#130567,#130559,#35477,.T.);
#167011=EDGE_CURVE('',#130568,#130568,#105915,.T.);
#167012=EDGE_CURVE('',#130568,#130563,#35478,.T.);
#237784=ORIENTED_EDGE('',*,*,#166993,.T.);
#237785=ORIENTED_EDGE('',*,*,#166994,.T.);
#237786=ORIENTED_EDGE('',*,*,#166995,.T.);
#237787=ORIENTED_EDGE('',*,*,#166994,.F.);
#237788=ORIENTED_EDGE('',*,*,#166995,.F.);
#237789=ORIENTED_EDGE('',*,*,#166996,.T.);
#237790=ORIENTED_EDGE('',*,*,#166997,.F.);
#237791=ORIENTED_EDGE('',*,*,#166996,.F.);
#237792=ORIENTED_EDGE('',*,*,#166993,.F.);
#237793=ORIENTED_EDGE('',*,*,#166998,.T.);
#237794=ORIENTED_EDGE('',*,*,#166999,.T.);
#237795=ORIENTED_EDGE('',*,*,#167000,.T.);
#237796=ORIENTED_EDGE('',*,*,#167001,.T.);
#237797=ORIENTED_EDGE('',*,*,#167002,.T.);
#237798=ORIENTED_EDGE('',*,*,#166997,.T.);
#237799=ORIENTED_EDGE('',*,*,#167003,.F.);
#237800=ORIENTED_EDGE('',*,*,#167004,.T.);
#237801=ORIENTED_EDGE('',*,*,#167001,.F.);
#237802=ORIENTED_EDGE('',*,*,#167004,.F.);
#237803=ORIENTED_EDGE('',*,*,#167005,.F.);
#237804=ORIENTED_EDGE('',*,*,#167006,.T.);
#237805=ORIENTED_EDGE('',*,*,#167000,.F.);
#237806=ORIENTED_EDGE('',*,*,#167006,.F.);
#237807=ORIENTED_EDGE('',*,*,#167007,.F.);
#237808=ORIENTED_EDGE('',*,*,#167008,.T.);
#237809=ORIENTED_EDGE('',*,*,#166999,.F.);
#237810=ORIENTED_EDGE('',*,*,#167008,.F.);
#237811=ORIENTED_EDGE('',*,*,#167009,.F.);
#237812=ORIENTED_EDGE('',*,*,#167010,.T.);
#237813=ORIENTED_EDGE('',*,*,#166998,.F.);
#237814=ORIENTED_EDGE('',*,*,#167010,.F.);
#237815=ORIENTED_EDGE('',*,*,#167011,.F.);
#237816=ORIENTED_EDGE('',*,*,#167012,.T.);
#237817=ORIENTED_EDGE('',*,*,#167002,.F.);
#237818=ORIENTED_EDGE('',*,*,#167012,.F.);
#237819=ORIENTED_EDGE('',*,*,#167011,.T.);
#237820=ORIENTED_EDGE('',*,*,#167009,.T.);
#237821=ORIENTED_EDGE('',*,*,#167007,.T.);
#237822=ORIENTED_EDGE('',*,*,#167005,.T.);
#237823=ORIENTED_EDGE('',*,*,#167003,.T.);
#247958=PLANE('',#283851);
#247959=PLANE('',#283852);
#247960=PLANE('',#283854);
#247961=PLANE('',#283856);
#247962=PLANE('',#283858);
#247963=PLANE('',#283860);
#247964=PLANE('',#283872);
#261591=ADVANCED_FACE('',(#82554),#7443,.T.);
#261592=ADVANCED_FACE('',(#82555),#66772,.T.);
#261593=ADVANCED_FACE('',(#82556),#247958,.T.);
#261594=ADVANCED_FACE('',(#82557),#247959,.F.);
#261595=ADVANCED_FACE('',(#82558),#247960,.F.);
#261596=ADVANCED_FACE('',(#82559),#247961,.F.);
#261597=ADVANCED_FACE('',(#82560),#247962,.F.);
#261598=ADVANCED_FACE('',(#82561,#68937),#247963,.T.);
#261599=ADVANCED_FACE('',(#82562),#66773,.F.);
#261600=ADVANCED_FACE('',(#82563),#66774,.F.);
#261601=ADVANCED_FACE('',(#82564),#66775,.F.);
#261602=ADVANCED_FACE('',(#82565),#66776,.F.);
#261603=ADVANCED_FACE('',(#82566),#66777,.T.);
#261604=ADVANCED_FACE('',(#82567,#68938,#68939,#68940,#68941),#247964,.F.);
#262446=CLOSED_SHELL('',(#261591,#261592,#261593,#261594,#261595,#261596,
#261597,#261598,#261599,#261600,#261601,#261602,#261603,#261604));
#283846=AXIS2_PLACEMENT_3D('',#440848,#354056,#354057);
#283847=AXIS2_PLACEMENT_3D('',#440850,#354058,#354059);
#283848=AXIS2_PLACEMENT_3D('',#440853,#354061,#354062);
#283849=AXIS2_PLACEMENT_3D('',#440854,#354063,#354064);
#283850=AXIS2_PLACEMENT_3D('',#440857,#354066,#354067);
#283851=AXIS2_PLACEMENT_3D('',#440858,#354068,#354069);
#283852=AXIS2_PLACEMENT_3D('',#440859,#354070,#354071);
#283853=AXIS2_PLACEMENT_3D('',#440861,#354072,#354073);
#283854=AXIS2_PLACEMENT_3D('',#440862,#354074,#354075);
#283855=AXIS2_PLACEMENT_3D('',#440864,#354076,#354077);
#283856=AXIS2_PLACEMENT_3D('',#440865,#354078,#354079);
#283857=AXIS2_PLACEMENT_3D('',#440867,#354080,#354081);
#283858=AXIS2_PLACEMENT_3D('',#440868,#354082,#354083);
#283859=AXIS2_PLACEMENT_3D('',#440870,#354084,#354085);
#283860=AXIS2_PLACEMENT_3D('',#440871,#354086,#354087);
#283861=AXIS2_PLACEMENT_3D('',#440873,#354088,#354089);
#283862=AXIS2_PLACEMENT_3D('',#440874,#354090,#354091);
#283863=AXIS2_PLACEMENT_3D('',#440876,#354092,#354093);
#283864=AXIS2_PLACEMENT_3D('',#440878,#354095,#354096);
#283865=AXIS2_PLACEMENT_3D('',#440880,#354097,#354098);
#283866=AXIS2_PLACEMENT_3D('',#440882,#354100,#354101);
#283867=AXIS2_PLACEMENT_3D('',#440884,#354102,#354103);
#283868=AXIS2_PLACEMENT_3D('',#440886,#354105,#354106);
#283869=AXIS2_PLACEMENT_3D('',#440888,#354107,#354108);
#283870=AXIS2_PLACEMENT_3D('',#440890,#354110,#354111);
#283871=AXIS2_PLACEMENT_3D('',#440892,#354112,#354113);
#283872=AXIS2_PLACEMENT_3D('',#440894,#354115,#354116);
#354056=DIRECTION('center_axis',(0.,0.,-1.));
#354057=DIRECTION('ref_axis',(-1.,0.,0.));
#354058=DIRECTION('center_axis',(0.,0.,-1.));
#354059=DIRECTION('ref_axis',(-1.,0.,0.));
#354060=DIRECTION('',(0.707106781186546,8.65956056235491E-17,-0.707106781186549));
#354061=DIRECTION('center_axis',(0.,0.,1.));
#354062=DIRECTION('ref_axis',(-1.,0.,0.));
#354063=DIRECTION('center_axis',(0.,0.,1.));
#354064=DIRECTION('ref_axis',(-1.,0.,0.));
#354065=DIRECTION('',(0.,0.,-1.));
#354066=DIRECTION('center_axis',(0.,0.,-1.));
#354067=DIRECTION('ref_axis',(-1.,0.,0.));
#354068=DIRECTION('center_axis',(0.,0.,1.));
#354069=DIRECTION('ref_axis',(-1.,0.,0.));
#354070=DIRECTION('center_axis',(0.,0.,1.));
#354071=DIRECTION('ref_axis',(-1.,0.,0.));
#354072=DIRECTION('center_axis',(0.,0.,-1.));
#354073=DIRECTION('ref_axis',(-1.,0.,0.));
#354074=DIRECTION('center_axis',(0.,0.,1.));
#354075=DIRECTION('ref_axis',(-1.,0.,0.));
#354076=DIRECTION('center_axis',(0.,0.,-1.));
#354077=DIRECTION('ref_axis',(-1.,0.,0.));
#354078=DIRECTION('center_axis',(0.,0.,1.));
#354079=DIRECTION('ref_axis',(-1.,0.,0.));
#354080=DIRECTION('center_axis',(0.,0.,-1.));
#354081=DIRECTION('ref_axis',(-1.,0.,0.));
#354082=DIRECTION('center_axis',(0.,0.,1.));
#354083=DIRECTION('ref_axis',(-1.,0.,0.));
#354084=DIRECTION('center_axis',(0.,0.,-1.));
#354085=DIRECTION('ref_axis',(-1.,0.,0.));
#354086=DIRECTION('center_axis',(0.,0.,1.));
#354087=DIRECTION('ref_axis',(-1.,0.,0.));
#354088=DIRECTION('center_axis',(0.,0.,1.));
#354089=DIRECTION('ref_axis',(-1.,0.,0.));
#354090=DIRECTION('center_axis',(0.,0.,-1.));
#354091=DIRECTION('ref_axis',(-1.,0.,0.));
#354092=DIRECTION('center_axis',(0.,0.,1.));
#354093=DIRECTION('ref_axis',(-1.,0.,0.));
#354094=DIRECTION('',(0.,0.,1.));
#354095=DIRECTION('center_axis',(0.,0.,-1.));
#354096=DIRECTION('ref_axis',(-1.,0.,0.));
#354097=DIRECTION('center_axis',(0.,0.,1.));
#354098=DIRECTION('ref_axis',(-1.,0.,0.));
#354099=DIRECTION('',(0.,0.,1.));
#354100=DIRECTION('center_axis',(0.,0.,-1.));
#354101=DIRECTION('ref_axis',(-1.,0.,0.));
#354102=DIRECTION('center_axis',(0.,0.,1.));
#354103=DIRECTION('ref_axis',(-1.,0.,0.));
#354104=DIRECTION('',(0.,0.,1.));
#354105=DIRECTION('center_axis',(0.,0.,-1.));
#354106=DIRECTION('ref_axis',(-1.,0.,0.));
#354107=DIRECTION('center_axis',(0.,0.,1.));
#354108=DIRECTION('ref_axis',(-1.,0.,0.));
#354109=DIRECTION('',(0.,0.,1.));
#354110=DIRECTION('center_axis',(0.,0.,-1.));
#354111=DIRECTION('ref_axis',(-1.,0.,0.));
#354112=DIRECTION('center_axis',(0.,0.,-1.));
#354113=DIRECTION('ref_axis',(-1.,0.,0.));
#354114=DIRECTION('',(0.,0.,1.));
#354115=DIRECTION('center_axis',(0.,0.,1.));
#354116=DIRECTION('ref_axis',(-1.,0.,0.));
#440848=CARTESIAN_POINT('Origin',(130.25,-81.25,11.));
#440849=CARTESIAN_POINT('',(143.25,-81.25,11.5));
#440850=CARTESIAN_POINT('Origin',(130.25,-81.25,11.5));
#440851=CARTESIAN_POINT('',(144.25,-81.25,10.5));
#440852=CARTESIAN_POINT('',(143.75,-81.25,11.));
#440853=CARTESIAN_POINT('Origin',(130.25,-81.25,10.5));
#440854=CARTESIAN_POINT('Origin',(130.25,-81.25,7.5));
#440855=CARTESIAN_POINT('',(144.25,-81.25,7.5));
#440856=CARTESIAN_POINT('',(144.25,-81.25,7.5));
#440857=CARTESIAN_POINT('Origin',(130.25,-81.25,7.5));
#440858=CARTESIAN_POINT('Origin',(130.25,-81.25,11.5));
#440859=CARTESIAN_POINT('Origin',(130.25,-81.25,6.));
#440860=CARTESIAN_POINT('',(139.210305055976,-74.8398930545347,6.));
#440861=CARTESIAN_POINT('Origin',(136.710305055976,-74.8398930545347,6.));
#440862=CARTESIAN_POINT('Origin',(130.25,-81.25,6.));
#440863=CARTESIAN_POINT('',(126.710305055976,-74.8398930545347,6.));
#440864=CARTESIAN_POINT('Origin',(124.210305055976,-74.8398930545347,6.));
#440865=CARTESIAN_POINT('Origin',(130.25,-81.25,6.));
#440866=CARTESIAN_POINT('',(126.710305055976,-87.3398930545347,6.));
#440867=CARTESIAN_POINT('Origin',(124.210305055976,-87.3398930545347,6.));
#440868=CARTESIAN_POINT('Origin',(130.25,-81.25,6.));
#440869=CARTESIAN_POINT('',(139.210305055976,-87.3398930545347,6.));
#440870=CARTESIAN_POINT('Origin',(136.710305055976,-87.3398930545347,6.));
#440871=CARTESIAN_POINT('Origin',(130.25,-81.25,7.5));
#440872=CARTESIAN_POINT('',(145.5,-81.25,7.5));
#440873=CARTESIAN_POINT('Origin',(130.25,-81.25,7.5));
#440874=CARTESIAN_POINT('Origin',(136.710305055976,-87.3398930545347,6.));
#440875=CARTESIAN_POINT('',(139.210305055976,-87.3398930545347,4.9));
#440876=CARTESIAN_POINT('Origin',(136.710305055976,-87.3398930545347,4.9));
#440877=CARTESIAN_POINT('',(139.210305055976,-87.3398930545347,6.));
#440878=CARTESIAN_POINT('Origin',(124.210305055976,-87.3398930545347,6.));
#440879=CARTESIAN_POINT('',(126.710305055976,-87.3398930545347,4.9));
#440880=CARTESIAN_POINT('Origin',(124.210305055976,-87.3398930545347,4.9));
#440881=CARTESIAN_POINT('',(126.710305055976,-87.3398930545347,6.));
#440882=CARTESIAN_POINT('Origin',(124.210305055976,-74.8398930545347,6.));
#440883=CARTESIAN_POINT('',(126.710305055976,-74.8398930545347,4.9));
#440884=CARTESIAN_POINT('Origin',(124.210305055976,-74.8398930545347,4.9));
#440885=CARTESIAN_POINT('',(126.710305055976,-74.8398930545347,6.));
#440886=CARTESIAN_POINT('Origin',(136.710305055976,-74.8398930545347,6.));
#440887=CARTESIAN_POINT('',(139.210305055976,-74.8398930545347,4.9));
#440888=CARTESIAN_POINT('Origin',(136.710305055976,-74.8398930545347,4.9));
#440889=CARTESIAN_POINT('',(139.210305055976,-74.8398930545347,6.));
#440890=CARTESIAN_POINT('Origin',(130.25,-81.25,6.));
#440891=CARTESIAN_POINT('',(145.5,-81.25,4.9));
#440892=CARTESIAN_POINT('Origin',(130.25,-81.25,4.9));
#440893=CARTESIAN_POINT('',(145.5,-81.25,6.));
#440894=CARTESIAN_POINT('Origin',(130.25,-81.25,4.9));
#441017=UNCERTAINTY_MEASURE_WITH_UNIT(LENGTH_MEASURE(0.01),#441217,
'DISTANCE_ACCURACY_VALUE',
'Maximum model space distance between geometric entities at asserted c
onnectivities');
#441117=(
GEOMETRIC_REPRESENTATION_CONTEXT(3)
GLOBAL_UNCERTAINTY_ASSIGNED_CONTEXT((#441017))
GLOBAL_UNIT_ASSIGNED_CONTEXT((#441217,#441219,#441220))
REPRESENTATION_CONTEXT('','3D')
);
#441217=(
LENGTH_UNIT()
NAMED_UNIT(*)
SI_UNIT(.MILLI.,.METRE.)
);
#441219=(
NAMED_UNIT(*)
PLANE_ANGLE_UNIT()
SI_UNIT($,.RADIAN.)
);
#441220=(
NAMED_UNIT(*)
SI_UNIT($,.STERADIAN.)
SOLID_ANGLE_UNIT()
);
#442415=APPLICATION_CONTEXT('automotive design');
#442416=APPLICATION_PROTOCOL_DEFINITION('international standard','automotive_design',2000,#442415);
#442417=PRODUCT_CONTEXT('',#442415,'mechanical');
#442418=PRODUCT('Button Pad','Button Pad','',(#442417));
#442419=PRODUCT_DEFINITION_FORMATION('','',#442418);
#442420=PRODUCT_DEFINITION_CONTEXT('part definition',#442415,'design');
#442421=PRODUCT_DEFINITION('design','',#442419,#442420);
#442422=PRODUCT_DEFINITION_SHAPE('','',#442421);
#442423=ADVANCED_BREP_SHAPE_REPRESENTATION('',(#7425),#441117);
#442424=SHAPE_DEFINITION_REPRESENTATION(#442422,#442423);
#442425=PRODUCT_RELATED_PRODUCT_CATEGORY('part',$,(#442418));
ENDSEC;
END-ISO-10303-21;
