ISO-10303-21;
HEADER;
/* Generated by software containing ST-Developer
 * from STEP Tools, Inc. (www.steptools.com) 
 */

FILE_DESCRIPTION(
/* description */ ('STEP AP214'),
/* implementation_level */ '2;1');

FILE_NAME(
/* name */ 'Case Bottom.step',
/* time_stamp */ '2026-08-29T00:00:00-04:00',
/* author */ (''),
/* organization */ (''),
/* preprocessor_version */ 'Named STEP solid extractor',
/* originating_system */ 'ESP32-Walkie-Talkie-V2',
/* authorisation */ '');

FILE_SCHEMA (('AUTOMOTIVE_DESIGN { 1 0 10303 214 3 1 1 }'));
ENDSEC;

DATA;
#1088=B_SPLINE_SURFACE_WITH_KNOTS('',3,3,((#438009,#438010,#438011,#438012,
#438013,#438014,#438015,#438016,#438017,#438018),(#438019,#438020,#438021,
#438022,#438023,#438024,#438025,#438026,#438027,#438028),(#438029,#438030,
#438031,#438032,#438033,#438034,#438035,#438036,#438037,#438038),(#438039,
#438040,#438041,#438042,#438043,#438044,#438045,#438046,#438047,#438048),
(#438049,#438050,#438051,#438052,#438053,#438054,#438055,#438056,#438057,
#438058),(#438059,#438060,#438061,#438062,#438063,#438064,#438065,#438066,
#438067,#438068)),.UNSPECIFIED.,.F.,.F.,.F.,(4,1,1,4),(4,1,1,1,1,1,1,4),
(0.,0.285714285714286,0.571428571428571,1.),(-6.43017362173064,-6.40356955459786,
-6.39470153222027,-6.38583350984267,-6.37696548746508,-6.37253147627629,
-6.37031447068189,-6.36809746508749),.UNSPECIFIED.);
#1089=B_SPLINE_SURFACE_WITH_KNOTS('',3,3,((#438104,#438105,#438106,#438107,
#438108,#438109,#438110),(#438111,#438112,#438113,#438114,#438115,#438116,
#438117),(#438118,#438119,#438120,#438121,#438122,#438123,#438124),(#438125,
#438126,#438127,#438128,#438129,#438130,#438131),(#438132,#438133,#438134,
#438135,#438136,#438137,#438138),(#438139,#438140,#438141,#438142,#438143,
#438144,#438145)),.UNSPECIFIED.,.F.,.F.,.F.,(4,1,1,4),(4,1,1,1,4),(0.,0.285714285714286,
0.571428571428571,1.),(-6.11149717868305,-5.9673787851021,-5.89531958831162,
-5.75120119473067,-5.60708280114972),.UNSPECIFIED.);
#1880=B_SPLINE_CURVE_WITH_KNOTS('',3,(#437877,#437878,#437879,#437880),
 .UNSPECIFIED.,.F.,.F.,(4,4),(0.458483516825776,0.458836109746832),
 .UNSPECIFIED.);
#1881=B_SPLINE_CURVE_WITH_KNOTS('',3,(#437882,#437883,#437884,#437885),
 .UNSPECIFIED.,.F.,.F.,(4,4),(3.3043042734244,3.30465686634545),
 .UNSPECIFIED.);
#1882=B_SPLINE_CURVE_WITH_KNOTS('',3,(#437911,#437912,#437913,#437914),
 .UNSPECIFIED.,.F.,.F.,(4,4),(0.458483516825774,0.458836109746833),
 .UNSPECIFIED.);
#1883=B_SPLINE_CURVE_WITH_KNOTS('',3,(#437915,#437916,#437917,#437918),
 .UNSPECIFIED.,.F.,.F.,(4,4),(3.30430427342439,3.30465686634544),
 .UNSPECIFIED.);
#1884=B_SPLINE_CURVE_WITH_KNOTS('',3,(#437943,#437944,#437945,#437946),
 .UNSPECIFIED.,.F.,.F.,(4,4),(0.458483516825772,0.458836109746835),
 .UNSPECIFIED.);
#1885=B_SPLINE_CURVE_WITH_KNOTS('',3,(#437947,#437948,#437949,#437950),
 .UNSPECIFIED.,.F.,.F.,(4,4),(3.30430427342439,3.30465686634545),
 .UNSPECIFIED.);
#1886=B_SPLINE_CURVE_WITH_KNOTS('',3,(#437960,#437961,#437962,#437963,#437964,
#437965,#437966),.UNSPECIFIED.,.F.,.F.,(4,3,4),(-0.12020859883763,0.,0.120208598837627),
 .UNSPECIFIED.);
#1887=B_SPLINE_CURVE_WITH_KNOTS('',3,(#437978,#437979,#437980,#437981,#437982,
#437983,#437984),.UNSPECIFIED.,.F.,.F.,(4,3,4),(-0.120208598837624,0.,0.120208598837626),
 .UNSPECIFIED.);
#1888=B_SPLINE_CURVE_WITH_KNOTS('',3,(#437999,#438000,#438001,#438002),
 .UNSPECIFIED.,.F.,.F.,(4,4),(3.30430427342439,3.30465686634545),
 .UNSPECIFIED.);
#1889=B_SPLINE_CURVE_WITH_KNOTS('',3,(#438005,#438006,#438007,#438008),
 .UNSPECIFIED.,.F.,.F.,(4,4),(0.458483516825773,0.458836109746831),
 .UNSPECIFIED.);
#1890=B_SPLINE_CURVE_WITH_KNOTS('',3,(#438072,#438073,#438074,#438075,#438076,
#438077,#438078,#438079,#438080,#438081),.UNSPECIFIED.,.F.,.F.,(4,1,1,1,
1,1,1,4),(6.36809746508749,6.37031447068189,6.37253147627629,6.37696548746508,
6.38583350984267,6.39470153222027,6.40356955459786,6.43017362173064),
 .UNSPECIFIED.);
#1891=B_SPLINE_CURVE_WITH_KNOTS('',3,(#438082,#438083,#438084,#438085,#438086,
#438087,#438088,#438089,#438090,#438091,#438092,#438093,#438094,#438095,
#438096,#438097,#438098,#438099,#438100,#438101,#438102,#438103),
 .UNSPECIFIED.,.F.,.F.,(4,3,3,3,3,3,3,4),(2.68223112972691,2.68836278973485,
2.6944944497428,2.70675776975869,2.73128440979048,2.75581104982227,2.78033768985406,
2.85391760994943),.UNSPECIFIED.);
#1892=B_SPLINE_CURVE_WITH_KNOTS('',3,(#438146,#438147,#438148,#438149,#438150,
#438151,#438152),.UNSPECIFIED.,.F.,.F.,(4,1,1,1,4),(5.60708280114972,5.75120119473067,
5.89531958831162,5.9673787851021,6.11149717868305),.UNSPECIFIED.);
#1893=B_SPLINE_CURVE_WITH_KNOTS('',3,(#438187,#438188,#438189,#438190,#438191,
#438192,#438193,#438194),.UNSPECIFIED.,.F.,.F.,(4,2,2,4),(2.0173853205478,
2.10069794732365,2.24528998901555,2.38988203070744),.UNSPECIFIED.);
#1894=B_SPLINE_CURVE_WITH_KNOTS('',3,(#438196,#438197,#438198,#438199,#438200,
#438201,#438202,#438203),.UNSPECIFIED.,.F.,.F.,(4,2,2,4),(2.38988203070744,
2.53447407239933,2.67906611409123,2.76237874086708),.UNSPECIFIED.);
#1895=B_SPLINE_CURVE_WITH_KNOTS('',3,(#438231,#438232,#438233,#438234,#438235,
#438236,#438237,#438238,#438239,#438240,#438241,#438242,#438243,#438244,
#438245),.UNSPECIFIED.,.F.,.F.,(4,2,2,3,2,2,4),(2.85391760994943,2.85842243203238,
3.05083768925555,3.24325294647873,3.43566820370191,3.62808346092509,3.80427476323055),
 .UNSPECIFIED.);
#1934=(
BOUNDED_SURFACE()
B_SPLINE_SURFACE(2,2,((#437858,#437859,#437860),(#437861,#437862,#437863),
(#437864,#437865,#437866)),.UNSPECIFIED.,.F.,.F.,.F.)
B_SPLINE_SURFACE_WITH_KNOTS((3,3),(3,3),(-1.5707963267949,4.4353409833775E-13),
(1.75557989373731,3.14159265358979),.UNSPECIFIED.)
GEOMETRIC_REPRESENTATION_ITEM()
RATIONAL_B_SPLINE_SURFACE(((1.,0.769328859891282,1.),(0.70710678118639,
0.54399765379152,0.70710678118639),(1.,0.769328859891282,1.)))
REPRESENTATION_ITEM('')
SURFACE()
);
#1935=(
BOUNDED_SURFACE()
B_SPLINE_SURFACE(2,2,((#437893,#437894,#437895),(#437896,#437897,#437898),
(#437899,#437900,#437901)),.UNSPECIFIED.,.F.,.F.,.F.)
B_SPLINE_SURFACE_WITH_KNOTS((3,3),(3,3),(-1.5707963267949,2.37904933848248E-16),
(-3.14159265358979,-1.5707963267949),.UNSPECIFIED.)
GEOMETRIC_REPRESENTATION_ITEM()
RATIONAL_B_SPLINE_SURFACE(((1.,0.707106781186548,1.),(0.707106781186553,
0.500000000000004,0.707106781186553),(1.,0.707106781186548,1.)))
REPRESENTATION_ITEM('')
SURFACE()
);
#1936=(
BOUNDED_SURFACE()
B_SPLINE_SURFACE(2,2,((#437925,#437926,#437927),(#437928,#437929,#437930),
(#437931,#437932,#437933)),.UNSPECIFIED.,.F.,.F.,.F.)
B_SPLINE_SURFACE_WITH_KNOTS((3,3),(3,3),(-1.5707963267949,0.),(-1.5707963267949,
0.),.UNSPECIFIED.)
GEOMETRIC_REPRESENTATION_ITEM()
RATIONAL_B_SPLINE_SURFACE(((1.,0.707106781186548,1.),(0.707106781186548,
0.5,0.707106781186548),(1.,0.707106781186548,1.)))
REPRESENTATION_ITEM('')
SURFACE()
);
#1937=(
BOUNDED_SURFACE()
B_SPLINE_SURFACE(2,2,((#437986,#437987,#437988),(#437989,#437990,#437991),
(#437992,#437993,#437994)),.UNSPECIFIED.,.F.,.F.,.F.)
B_SPLINE_SURFACE_WITH_KNOTS((3,3),(3,3),(-1.5707963267949,0.),(0.,1.5707963267949),
 .UNSPECIFIED.)
GEOMETRIC_REPRESENTATION_ITEM()
RATIONAL_B_SPLINE_SURFACE(((1.,0.707106781186548,1.),(0.707106781186547,
0.5,0.707106781186547),(1.,0.707106781186548,1.)))
REPRESENTATION_ITEM('')
SURFACE()
);
#7423=MANIFOLD_SOLID_BREP('Case Bottom',#262444);
#35007=LINE('',#437891,#63079);
#35008=LINE('',#437892,#63080);
#35009=LINE('',#437923,#63081);
#35010=LINE('',#437924,#63082);
#35011=LINE('',#437955,#63083);
#35012=LINE('',#437956,#63084);
#35013=LINE('',#437968,#63085);
#35014=LINE('',#437972,#63086);
#35015=LINE('',#437976,#63087);
#35016=LINE('',#437985,#63088);
#35017=LINE('',#438156,#63089);
#35018=LINE('',#438158,#63090);
#35019=LINE('',#438159,#63091);
#35020=LINE('',#438160,#63092);
#35021=LINE('',#438163,#63093);
#35022=LINE('',#438165,#63094);
#35023=LINE('',#438166,#63095);
#35024=LINE('',#438169,#63096);
#35025=LINE('',#438173,#63097);
#35026=LINE('',#438174,#63098);
#35027=LINE('',#438177,#63099);
#35028=LINE('',#438181,#63100);
#35029=LINE('',#438182,#63101);
#35030=LINE('',#438185,#63102);
#35031=LINE('',#438205,#63103);
#35032=LINE('',#438210,#63104);
#35033=LINE('',#438212,#63105);
#35034=LINE('',#438213,#63106);
#35035=LINE('',#438223,#63107);
#35036=LINE('',#438226,#63108);
#35037=LINE('',#438227,#63109);
#35038=LINE('',#438230,#63110);
#35039=LINE('',#438255,#63111);
#35040=LINE('',#438262,#63112);
#35041=LINE('',#438264,#63113);
#35042=LINE('',#438266,#63114);
#35043=LINE('',#438268,#63115);
#35044=LINE('',#438269,#63116);
#35045=LINE('',#438271,#63117);
#63079=VECTOR('',#352151,10.);
#63080=VECTOR('',#352152,10.);
#63081=VECTOR('',#352165,10.);
#63082=VECTOR('',#352166,10.);
#63083=VECTOR('',#352179,10.);
#63084=VECTOR('',#352180,10.);
#63085=VECTOR('',#352183,10.);
#63086=VECTOR('',#352186,10.);
#63087=VECTOR('',#352189,10.);
#63088=VECTOR('',#352190,10.);
#63089=VECTOR('',#352203,10.);
#63090=VECTOR('',#352204,10.);
#63091=VECTOR('',#352205,10.);
#63092=VECTOR('',#352206,10.);
#63093=VECTOR('',#352209,10.);
#63094=VECTOR('',#352210,10.);
#63095=VECTOR('',#352211,10.);
#63096=VECTOR('',#352214,10.);
#63097=VECTOR('',#352219,10.);
#63098=VECTOR('',#352220,10.);
#63099=VECTOR('',#352223,10.);
#63100=VECTOR('',#352228,10.);
#63101=VECTOR('',#352229,10.);
#63102=VECTOR('',#352232,10.);
#63103=VECTOR('',#352233,10.);
#63104=VECTOR('',#352242,10.);
#63105=VECTOR('',#352243,10.);
#63106=VECTOR('',#352244,10.);
#63107=VECTOR('',#352255,10.);
#63108=VECTOR('',#352258,10.);
#63109=VECTOR('',#352259,10.);
#63110=VECTOR('',#352262,10.);
#63111=VECTOR('',#352277,3.80000000000001);
#63112=VECTOR('',#352286,3.1);
#63113=VECTOR('',#352289,5.);
#63114=VECTOR('',#352292,3.79999999999999);
#63115=VECTOR('',#352295,10.);
#63116=VECTOR('',#352296,10.);
#63117=VECTOR('',#352299,10.);
#66573=CYLINDRICAL_SURFACE('',#283124,7.);
#66574=CYLINDRICAL_SURFACE('',#283130,7.);
#66575=CYLINDRICAL_SURFACE('',#283136,7.);
#66576=CYLINDRICAL_SURFACE('',#283138,7.);
#66577=CYLINDRICAL_SURFACE('',#283148,8.);
#66578=CYLINDRICAL_SURFACE('',#283151,8.);
#66579=CYLINDRICAL_SURFACE('',#283154,8.);
#66580=CYLINDRICAL_SURFACE('',#283165,8.);
#66581=CYLINDRICAL_SURFACE('',#283172,3.80000000000001);
#66582=CYLINDRICAL_SURFACE('',#283176,3.1);
#66583=CYLINDRICAL_SURFACE('',#283177,5.);
#66584=CYLINDRICAL_SURFACE('',#283178,3.79999999999999);
#68578=FACE_BOUND('',#97634,.T.);
#68579=FACE_BOUND('',#97637,.T.);
#68580=FACE_BOUND('',#97640,.T.);
#68581=FACE_BOUND('',#97644,.T.);
#68582=FACE_BOUND('',#97656,.T.);
#68583=FACE_BOUND('',#97657,.T.);
#68584=FACE_BOUND('',#97658,.T.);
#68585=FACE_BOUND('',#97661,.T.);
#68586=FACE_BOUND('',#97666,.T.);
#82217=FACE_OUTER_BOUND('',#97633,.T.);
#82218=FACE_OUTER_BOUND('',#97635,.T.);
#82219=FACE_OUTER_BOUND('',#97636,.T.);
#82220=FACE_OUTER_BOUND('',#97638,.T.);
#82221=FACE_OUTER_BOUND('',#97639,.T.);
#82222=FACE_OUTER_BOUND('',#97641,.T.);
#82223=FACE_OUTER_BOUND('',#97642,.T.);
#82224=FACE_OUTER_BOUND('',#97643,.T.);
#82225=FACE_OUTER_BOUND('',#97645,.T.);
#82226=FACE_OUTER_BOUND('',#97646,.T.);
#82227=FACE_OUTER_BOUND('',#97647,.T.);
#82228=FACE_OUTER_BOUND('',#97648,.T.);
#82229=FACE_OUTER_BOUND('',#97649,.T.);
#82230=FACE_OUTER_BOUND('',#97650,.T.);
#82231=FACE_OUTER_BOUND('',#97651,.T.);
#82232=FACE_OUTER_BOUND('',#97652,.T.);
#82233=FACE_OUTER_BOUND('',#97653,.T.);
#82234=FACE_OUTER_BOUND('',#97654,.T.);
#82235=FACE_OUTER_BOUND('',#97655,.T.);
#82236=FACE_OUTER_BOUND('',#97659,.T.);
#82237=FACE_OUTER_BOUND('',#97660,.T.);
#82238=FACE_OUTER_BOUND('',#97662,.T.);
#82239=FACE_OUTER_BOUND('',#97663,.T.);
#82240=FACE_OUTER_BOUND('',#97664,.T.);
#82241=FACE_OUTER_BOUND('',#97665,.T.);
#82242=FACE_OUTER_BOUND('',#97667,.T.);
#82243=FACE_OUTER_BOUND('',#97668,.T.);
#82244=FACE_OUTER_BOUND('',#97669,.T.);
#82245=FACE_OUTER_BOUND('',#97670,.T.);
#82246=FACE_OUTER_BOUND('',#97671,.T.);
#82247=FACE_OUTER_BOUND('',#97672,.T.);
#97633=EDGE_LOOP('',(#235910,#235911,#235912,#235913));
#97634=EDGE_LOOP('',(#235914,#235915,#235916));
#97635=EDGE_LOOP('',(#235917,#235918,#235919,#235920));
#97636=EDGE_LOOP('',(#235921,#235922,#235923,#235924));
#97637=EDGE_LOOP('',(#235925,#235926,#235927));
#97638=EDGE_LOOP('',(#235928,#235929,#235930,#235931));
#97639=EDGE_LOOP('',(#235932,#235933,#235934,#235935));
#97640=EDGE_LOOP('',(#235936,#235937,#235938));
#97641=EDGE_LOOP('',(#235939,#235940,#235941,#235942));
#97642=EDGE_LOOP('',(#235943,#235944,#235945,#235946,#235947,#235948,#235949,
#235950));
#97643=EDGE_LOOP('',(#235951,#235952,#235953,#235954));
#97644=EDGE_LOOP('',(#235955,#235956,#235957));
#97645=EDGE_LOOP('',(#235958,#235959,#235960,#235961));
#97646=EDGE_LOOP('',(#235962,#235963,#235964,#235965));
#97647=EDGE_LOOP('',(#235966,#235967,#235968,#235969,#235970,#235971));
#97648=EDGE_LOOP('',(#235972,#235973,#235974,#235975));
#97649=EDGE_LOOP('',(#235976,#235977,#235978,#235979));
#97650=EDGE_LOOP('',(#235980,#235981,#235982,#235983));
#97651=EDGE_LOOP('',(#235984,#235985,#235986,#235987));
#97652=EDGE_LOOP('',(#235988,#235989,#235990,#235991));
#97653=EDGE_LOOP('',(#235992,#235993,#235994,#235995,#235996,#235997,#235998));
#97654=EDGE_LOOP('',(#235999,#236000,#236001));
#97655=EDGE_LOOP('',(#236002,#236003,#236004,#236005,#236006,#236007));
#97656=EDGE_LOOP('',(#236008));
#97657=EDGE_LOOP('',(#236009));
#97658=EDGE_LOOP('',(#236010));
#97659=EDGE_LOOP('',(#236011,#236012,#236013,#236014,#236015,#236016,#236017,
#236018,#236019,#236020));
#97660=EDGE_LOOP('',(#236021,#236022,#236023,#236024,#236025,#236026,#236027,
#236028));
#97661=EDGE_LOOP('',(#236029,#236030,#236031,#236032));
#97662=EDGE_LOOP('',(#236033,#236034,#236035,#236036,#236037));
#97663=EDGE_LOOP('',(#236038,#236039,#236040,#236041,#236042,#236043,#236044,
#236045,#236046,#236047));
#97664=EDGE_LOOP('',(#236048,#236049,#236050,#236051,#236052,#236053,#236054,
#236055));
#97665=EDGE_LOOP('',(#236056));
#97666=EDGE_LOOP('',(#236057));
#97667=EDGE_LOOP('',(#236058,#236059,#236060,#236061));
#97668=EDGE_LOOP('',(#236062,#236063,#236064,#236065,#236066,#236067,#236068,
#236069));
#97669=EDGE_LOOP('',(#236070,#236071,#236072,#236073,#236074,#236075));
#97670=EDGE_LOOP('',(#236076,#236077,#236078,#236079,#236080,#236081,#236082,
#236083));
#97671=EDGE_LOOP('',(#236084,#236085,#236086,#236087,#236088,#236089));
#97672=EDGE_LOOP('',(#236090,#236091,#236092,#236093,#236094,#236095));
#105483=CIRCLE('',#283119,7.);
#105484=CIRCLE('',#283120,1.);
#105485=CIRCLE('',#283121,7.);
#105486=CIRCLE('',#283122,8.);
#105487=CIRCLE('',#283123,6.3619026473818);
#105488=CIRCLE('',#283125,7.);
#105489=CIRCLE('',#283126,7.);
#105490=CIRCLE('',#283127,8.);
#105491=CIRCLE('',#283128,1.);
#105492=CIRCLE('',#283129,6.3619026473818);
#105493=CIRCLE('',#283131,7.);
#105494=CIRCLE('',#283132,7.);
#105495=CIRCLE('',#283133,8.);
#105496=CIRCLE('',#283134,1.);
#105497=CIRCLE('',#283135,6.3619026473818);
#105498=CIRCLE('',#283137,7.);
#105499=CIRCLE('',#283139,7.);
#105500=CIRCLE('',#283140,7.);
#105501=CIRCLE('',#283141,8.);
#105502=CIRCLE('',#283142,1.);
#105503=CIRCLE('',#283143,6.36190264738181);
#105504=CIRCLE('',#283144,7.);
#105505=CIRCLE('',#283145,5.);
#105506=CIRCLE('',#283149,8.);
#105507=CIRCLE('',#283152,8.);
#105508=CIRCLE('',#283155,8.);
#105509=CIRCLE('',#283157,3.80000000000001);
#105510=CIRCLE('',#283159,3.79999999999999);
#105511=CIRCLE('',#283160,3.80000000000001);
#105512=CIRCLE('',#283161,3.1);
#105513=CIRCLE('',#283164,8.);
#105514=CIRCLE('',#283167,5.);
#105515=CIRCLE('',#283168,5.);
#105516=CIRCLE('',#283169,3.80000000000001);
#105517=CIRCLE('',#283170,3.79999999999999);
#105518=CIRCLE('',#283171,3.79999999999999);
#105519=CIRCLE('',#283174,5.);
#105520=CIRCLE('',#283175,3.1);
#129945=VERTEX_POINT('',#437867);
#129946=VERTEX_POINT('',#437868);
#129947=VERTEX_POINT('',#437870);
#129948=VERTEX_POINT('',#437872);
#129949=VERTEX_POINT('',#437875);
#129950=VERTEX_POINT('',#437876);
#129951=VERTEX_POINT('',#437881);
#129952=VERTEX_POINT('',#437888);
#129953=VERTEX_POINT('',#437889);
#129954=VERTEX_POINT('',#437902);
#129955=VERTEX_POINT('',#437903);
#129956=VERTEX_POINT('',#437907);
#129957=VERTEX_POINT('',#437908);
#129958=VERTEX_POINT('',#437910);
#129959=VERTEX_POINT('',#437920);
#129960=VERTEX_POINT('',#437921);
#129961=VERTEX_POINT('',#437934);
#129962=VERTEX_POINT('',#437935);
#129963=VERTEX_POINT('',#437939);
#129964=VERTEX_POINT('',#437940);
#129965=VERTEX_POINT('',#437942);
#129966=VERTEX_POINT('',#437952);
#129967=VERTEX_POINT('',#437953);
#129968=VERTEX_POINT('',#437958);
#129969=VERTEX_POINT('',#437959);
#129970=VERTEX_POINT('',#437967);
#129971=VERTEX_POINT('',#437969);
#129972=VERTEX_POINT('',#437971);
#129973=VERTEX_POINT('',#437973);
#129974=VERTEX_POINT('',#437975);
#129975=VERTEX_POINT('',#437977);
#129976=VERTEX_POINT('',#437997);
#129977=VERTEX_POINT('',#437998);
#129978=VERTEX_POINT('',#438003);
#129979=VERTEX_POINT('',#438069);
#129980=VERTEX_POINT('',#438070);
#129981=VERTEX_POINT('',#438155);
#129982=VERTEX_POINT('',#438157);
#129983=VERTEX_POINT('',#438162);
#129984=VERTEX_POINT('',#438164);
#129985=VERTEX_POINT('',#438168);
#129986=VERTEX_POINT('',#438172);
#129987=VERTEX_POINT('',#438176);
#129988=VERTEX_POINT('',#438180);
#129989=VERTEX_POINT('',#438184);
#129990=VERTEX_POINT('',#438186);
#129991=VERTEX_POINT('',#438195);
#129992=VERTEX_POINT('',#438204);
#129993=VERTEX_POINT('',#438211);
#129994=VERTEX_POINT('',#438214);
#129995=VERTEX_POINT('',#438216);
#129996=VERTEX_POINT('',#438218);
#129997=VERTEX_POINT('',#438222);
#129998=VERTEX_POINT('',#438225);
#129999=VERTEX_POINT('',#438229);
#130000=VERTEX_POINT('',#438247);
#130001=VERTEX_POINT('',#438251);
#130002=VERTEX_POINT('',#438257);
#130003=VERTEX_POINT('',#438259);
#166056=EDGE_CURVE('',#129945,#129946,#105483,.T.);
#166057=EDGE_CURVE('',#129946,#129947,#105484,.T.);
#166058=EDGE_CURVE('',#129947,#129948,#105485,.T.);
#166059=EDGE_CURVE('',#129948,#129945,#105486,.T.);
#166060=EDGE_CURVE('',#129949,#129950,#1880,.T.);
#166061=EDGE_CURVE('',#129950,#129951,#1881,.T.);
#166062=EDGE_CURVE('',#129951,#129949,#105487,.T.);
#166063=EDGE_CURVE('',#129952,#129953,#105488,.T.);
#166064=EDGE_CURVE('',#129953,#129948,#35007,.T.);
#166065=EDGE_CURVE('',#129947,#129952,#35008,.T.);
#166066=EDGE_CURVE('',#129954,#129955,#105489,.T.);
#166067=EDGE_CURVE('',#129955,#129953,#105490,.T.);
#166068=EDGE_CURVE('',#129952,#129954,#105491,.T.);
#166069=EDGE_CURVE('',#129956,#129957,#105492,.T.);
#166070=EDGE_CURVE('',#129957,#129958,#1882,.T.);
#166071=EDGE_CURVE('',#129958,#129956,#1883,.T.);
#166072=EDGE_CURVE('',#129959,#129960,#105493,.T.);
#166073=EDGE_CURVE('',#129960,#129955,#35009,.T.);
#166074=EDGE_CURVE('',#129954,#129959,#35010,.T.);
#166075=EDGE_CURVE('',#129961,#129962,#105494,.T.);
#166076=EDGE_CURVE('',#129962,#129960,#105495,.T.);
#166077=EDGE_CURVE('',#129959,#129961,#105496,.T.);
#166078=EDGE_CURVE('',#129963,#129964,#105497,.T.);
#166079=EDGE_CURVE('',#129964,#129965,#1884,.T.);
#166080=EDGE_CURVE('',#129965,#129963,#1885,.T.);
#166081=EDGE_CURVE('',#129966,#129967,#105498,.T.);
#166082=EDGE_CURVE('',#129967,#129962,#35011,.T.);
#166083=EDGE_CURVE('',#129961,#129966,#35012,.T.);
#166084=EDGE_CURVE('',#129968,#129969,#1886,.T.);
#166085=EDGE_CURVE('',#129969,#129970,#35013,.T.);
#166086=EDGE_CURVE('',#129970,#129971,#105499,.T.);
#166087=EDGE_CURVE('',#129971,#129972,#35014,.T.);
#166088=EDGE_CURVE('',#129972,#129973,#105500,.T.);
#166089=EDGE_CURVE('',#129973,#129974,#35015,.T.);
#166090=EDGE_CURVE('',#129974,#129975,#1887,.T.);
#166091=EDGE_CURVE('',#129975,#129968,#35016,.T.);
#166092=EDGE_CURVE('',#129970,#129967,#105501,.T.);
#166093=EDGE_CURVE('',#129966,#129971,#105502,.T.);
#166094=EDGE_CURVE('',#129976,#129977,#1888,.T.);
#166095=EDGE_CURVE('',#129977,#129978,#105503,.T.);
#166096=EDGE_CURVE('',#129978,#129976,#1889,.T.);
#166097=EDGE_CURVE('',#129979,#129980,#105504,.T.);
#166098=EDGE_CURVE('',#129980,#129946,#1890,.T.);
#166099=EDGE_CURVE('',#129979,#129945,#1891,.T.);
#166100=EDGE_CURVE('',#129972,#129980,#1892,.T.);
#166101=EDGE_CURVE('',#129979,#129973,#105505,.T.);
#166102=EDGE_CURVE('',#129950,#129981,#35017,.T.);
#166103=EDGE_CURVE('',#129982,#129981,#35018,.T.);
#166104=EDGE_CURVE('',#129958,#129982,#35019,.T.);
#166105=EDGE_CURVE('',#129957,#129951,#35020,.T.);
#166106=EDGE_CURVE('',#129983,#129953,#35021,.T.);
#166107=EDGE_CURVE('',#129984,#129983,#35022,.T.);
#166108=EDGE_CURVE('',#129948,#129984,#35023,.T.);
#166109=EDGE_CURVE('',#129955,#129985,#35024,.T.);
#166110=EDGE_CURVE('',#129985,#129983,#105506,.T.);
#166111=EDGE_CURVE('',#129986,#129960,#35025,.T.);
#166112=EDGE_CURVE('',#129985,#129986,#35026,.T.);
#166113=EDGE_CURVE('',#129962,#129987,#35027,.T.);
#166114=EDGE_CURVE('',#129987,#129986,#105507,.T.);
#166115=EDGE_CURVE('',#129988,#129967,#35028,.T.);
#166116=EDGE_CURVE('',#129987,#129988,#35029,.T.);
#166117=EDGE_CURVE('',#129970,#129989,#35030,.T.);
#166118=EDGE_CURVE('',#129989,#129990,#1893,.T.);
#166119=EDGE_CURVE('',#129990,#129991,#1894,.T.);
#166120=EDGE_CURVE('',#129991,#129992,#35031,.T.);
#166121=EDGE_CURVE('',#129992,#129988,#105508,.T.);
#166122=EDGE_CURVE('',#129969,#129989,#105509,.T.);
#166123=EDGE_CURVE('',#129977,#129949,#35032,.T.);
#166124=EDGE_CURVE('',#129993,#129976,#35033,.T.);
#166125=EDGE_CURVE('',#129981,#129993,#35034,.T.);
#166126=EDGE_CURVE('',#129994,#129994,#105510,.T.);
#166127=EDGE_CURVE('',#129995,#129995,#105511,.T.);
#166128=EDGE_CURVE('',#129996,#129996,#105512,.T.);
#166129=EDGE_CURVE('',#129992,#129997,#35035,.T.);
#166130=EDGE_CURVE('',#129984,#129997,#105513,.T.);
#166131=EDGE_CURVE('',#129993,#129998,#35036,.T.);
#166132=EDGE_CURVE('',#129998,#129982,#35037,.T.);
#166133=EDGE_CURVE('',#129997,#129999,#35038,.T.);
#166134=EDGE_CURVE('',#129945,#129999,#1895,.T.);
#166135=EDGE_CURVE('',#129973,#130000,#105514,.T.);
#166136=EDGE_CURVE('',#130000,#129999,#105515,.T.);
#166137=EDGE_CURVE('',#129991,#129968,#105516,.T.);
#166138=EDGE_CURVE('',#129975,#130001,#105517,.T.);
#166139=EDGE_CURVE('',#130001,#129974,#105518,.T.);
#166140=EDGE_CURVE('',#129990,#129995,#35039,.T.);
#166141=EDGE_CURVE('',#130002,#130002,#105519,.T.);
#166142=EDGE_CURVE('',#130003,#130003,#105520,.T.);
#166143=EDGE_CURVE('',#130003,#129996,#35040,.T.);
#166144=EDGE_CURVE('',#130002,#130000,#35041,.T.);
#166145=EDGE_CURVE('',#130001,#129994,#35042,.T.);
#166146=EDGE_CURVE('',#129964,#129956,#35043,.T.);
#166147=EDGE_CURVE('',#129978,#129963,#35044,.T.);
#166148=EDGE_CURVE('',#129965,#129998,#35045,.T.);
#235910=ORIENTED_EDGE('',*,*,#166056,.T.);
#235911=ORIENTED_EDGE('',*,*,#166057,.T.);
#235912=ORIENTED_EDGE('',*,*,#166058,.T.);
#235913=ORIENTED_EDGE('',*,*,#166059,.T.);
#235914=ORIENTED_EDGE('',*,*,#166060,.T.);
#235915=ORIENTED_EDGE('',*,*,#166061,.T.);
#235916=ORIENTED_EDGE('',*,*,#166062,.T.);
#235917=ORIENTED_EDGE('',*,*,#166063,.T.);
#235918=ORIENTED_EDGE('',*,*,#166064,.T.);
#235919=ORIENTED_EDGE('',*,*,#166058,.F.);
#235920=ORIENTED_EDGE('',*,*,#166065,.T.);
#235921=ORIENTED_EDGE('',*,*,#166066,.T.);
#235922=ORIENTED_EDGE('',*,*,#166067,.T.);
#235923=ORIENTED_EDGE('',*,*,#166063,.F.);
#235924=ORIENTED_EDGE('',*,*,#166068,.T.);
#235925=ORIENTED_EDGE('',*,*,#166069,.T.);
#235926=ORIENTED_EDGE('',*,*,#166070,.T.);
#235927=ORIENTED_EDGE('',*,*,#166071,.T.);
#235928=ORIENTED_EDGE('',*,*,#166072,.T.);
#235929=ORIENTED_EDGE('',*,*,#166073,.T.);
#235930=ORIENTED_EDGE('',*,*,#166066,.F.);
#235931=ORIENTED_EDGE('',*,*,#166074,.T.);
#235932=ORIENTED_EDGE('',*,*,#166075,.T.);
#235933=ORIENTED_EDGE('',*,*,#166076,.T.);
#235934=ORIENTED_EDGE('',*,*,#166072,.F.);
#235935=ORIENTED_EDGE('',*,*,#166077,.T.);
#235936=ORIENTED_EDGE('',*,*,#166078,.T.);
#235937=ORIENTED_EDGE('',*,*,#166079,.T.);
#235938=ORIENTED_EDGE('',*,*,#166080,.T.);
#235939=ORIENTED_EDGE('',*,*,#166081,.T.);
#235940=ORIENTED_EDGE('',*,*,#166082,.T.);
#235941=ORIENTED_EDGE('',*,*,#166075,.F.);
#235942=ORIENTED_EDGE('',*,*,#166083,.T.);
#235943=ORIENTED_EDGE('',*,*,#166084,.T.);
#235944=ORIENTED_EDGE('',*,*,#166085,.T.);
#235945=ORIENTED_EDGE('',*,*,#166086,.T.);
#235946=ORIENTED_EDGE('',*,*,#166087,.T.);
#235947=ORIENTED_EDGE('',*,*,#166088,.T.);
#235948=ORIENTED_EDGE('',*,*,#166089,.T.);
#235949=ORIENTED_EDGE('',*,*,#166090,.T.);
#235950=ORIENTED_EDGE('',*,*,#166091,.T.);
#235951=ORIENTED_EDGE('',*,*,#166086,.F.);
#235952=ORIENTED_EDGE('',*,*,#166092,.T.);
#235953=ORIENTED_EDGE('',*,*,#166081,.F.);
#235954=ORIENTED_EDGE('',*,*,#166093,.T.);
#235955=ORIENTED_EDGE('',*,*,#166094,.T.);
#235956=ORIENTED_EDGE('',*,*,#166095,.T.);
#235957=ORIENTED_EDGE('',*,*,#166096,.T.);
#235958=ORIENTED_EDGE('',*,*,#166097,.T.);
#235959=ORIENTED_EDGE('',*,*,#166098,.T.);
#235960=ORIENTED_EDGE('',*,*,#166056,.F.);
#235961=ORIENTED_EDGE('',*,*,#166099,.F.);
#235962=ORIENTED_EDGE('',*,*,#166088,.F.);
#235963=ORIENTED_EDGE('',*,*,#166100,.T.);
#235964=ORIENTED_EDGE('',*,*,#166097,.F.);
#235965=ORIENTED_EDGE('',*,*,#166101,.T.);
#235966=ORIENTED_EDGE('',*,*,#166061,.F.);
#235967=ORIENTED_EDGE('',*,*,#166102,.T.);
#235968=ORIENTED_EDGE('',*,*,#166103,.F.);
#235969=ORIENTED_EDGE('',*,*,#166104,.F.);
#235970=ORIENTED_EDGE('',*,*,#166070,.F.);
#235971=ORIENTED_EDGE('',*,*,#166105,.T.);
#235972=ORIENTED_EDGE('',*,*,#166064,.F.);
#235973=ORIENTED_EDGE('',*,*,#166106,.F.);
#235974=ORIENTED_EDGE('',*,*,#166107,.F.);
#235975=ORIENTED_EDGE('',*,*,#166108,.F.);
#235976=ORIENTED_EDGE('',*,*,#166067,.F.);
#235977=ORIENTED_EDGE('',*,*,#166109,.T.);
#235978=ORIENTED_EDGE('',*,*,#166110,.T.);
#235979=ORIENTED_EDGE('',*,*,#166106,.T.);
#235980=ORIENTED_EDGE('',*,*,#166073,.F.);
#235981=ORIENTED_EDGE('',*,*,#166111,.F.);
#235982=ORIENTED_EDGE('',*,*,#166112,.F.);
#235983=ORIENTED_EDGE('',*,*,#166109,.F.);
#235984=ORIENTED_EDGE('',*,*,#166076,.F.);
#235985=ORIENTED_EDGE('',*,*,#166113,.T.);
#235986=ORIENTED_EDGE('',*,*,#166114,.T.);
#235987=ORIENTED_EDGE('',*,*,#166111,.T.);
#235988=ORIENTED_EDGE('',*,*,#166082,.F.);
#235989=ORIENTED_EDGE('',*,*,#166115,.F.);
#235990=ORIENTED_EDGE('',*,*,#166116,.F.);
#235991=ORIENTED_EDGE('',*,*,#166113,.F.);
#235992=ORIENTED_EDGE('',*,*,#166092,.F.);
#235993=ORIENTED_EDGE('',*,*,#166117,.T.);
#235994=ORIENTED_EDGE('',*,*,#166118,.T.);
#235995=ORIENTED_EDGE('',*,*,#166119,.T.);
#235996=ORIENTED_EDGE('',*,*,#166120,.T.);
#235997=ORIENTED_EDGE('',*,*,#166121,.T.);
#235998=ORIENTED_EDGE('',*,*,#166115,.T.);
#235999=ORIENTED_EDGE('',*,*,#166085,.F.);
#236000=ORIENTED_EDGE('',*,*,#166122,.T.);
#236001=ORIENTED_EDGE('',*,*,#166117,.F.);
#236002=ORIENTED_EDGE('',*,*,#166060,.F.);
#236003=ORIENTED_EDGE('',*,*,#166123,.F.);
#236004=ORIENTED_EDGE('',*,*,#166094,.F.);
#236005=ORIENTED_EDGE('',*,*,#166124,.F.);
#236006=ORIENTED_EDGE('',*,*,#166125,.F.);
#236007=ORIENTED_EDGE('',*,*,#166102,.F.);
#236008=ORIENTED_EDGE('',*,*,#166126,.T.);
#236009=ORIENTED_EDGE('',*,*,#166127,.T.);
#236010=ORIENTED_EDGE('',*,*,#166128,.T.);
#236011=ORIENTED_EDGE('',*,*,#166087,.F.);
#236012=ORIENTED_EDGE('',*,*,#166093,.F.);
#236013=ORIENTED_EDGE('',*,*,#166083,.F.);
#236014=ORIENTED_EDGE('',*,*,#166077,.F.);
#236015=ORIENTED_EDGE('',*,*,#166074,.F.);
#236016=ORIENTED_EDGE('',*,*,#166068,.F.);
#236017=ORIENTED_EDGE('',*,*,#166065,.F.);
#236018=ORIENTED_EDGE('',*,*,#166057,.F.);
#236019=ORIENTED_EDGE('',*,*,#166098,.F.);
#236020=ORIENTED_EDGE('',*,*,#166100,.F.);
#236021=ORIENTED_EDGE('',*,*,#166114,.F.);
#236022=ORIENTED_EDGE('',*,*,#166116,.T.);
#236023=ORIENTED_EDGE('',*,*,#166121,.F.);
#236024=ORIENTED_EDGE('',*,*,#166129,.T.);
#236025=ORIENTED_EDGE('',*,*,#166130,.F.);
#236026=ORIENTED_EDGE('',*,*,#166107,.T.);
#236027=ORIENTED_EDGE('',*,*,#166110,.F.);
#236028=ORIENTED_EDGE('',*,*,#166112,.T.);
#236029=ORIENTED_EDGE('',*,*,#166103,.T.);
#236030=ORIENTED_EDGE('',*,*,#166125,.T.);
#236031=ORIENTED_EDGE('',*,*,#166131,.T.);
#236032=ORIENTED_EDGE('',*,*,#166132,.T.);
#236033=ORIENTED_EDGE('',*,*,#166059,.F.);
#236034=ORIENTED_EDGE('',*,*,#166108,.T.);
#236035=ORIENTED_EDGE('',*,*,#166130,.T.);
#236036=ORIENTED_EDGE('',*,*,#166133,.T.);
#236037=ORIENTED_EDGE('',*,*,#166134,.F.);
#236038=ORIENTED_EDGE('',*,*,#166089,.F.);
#236039=ORIENTED_EDGE('',*,*,#166135,.T.);
#236040=ORIENTED_EDGE('',*,*,#166136,.T.);
#236041=ORIENTED_EDGE('',*,*,#166133,.F.);
#236042=ORIENTED_EDGE('',*,*,#166129,.F.);
#236043=ORIENTED_EDGE('',*,*,#166120,.F.);
#236044=ORIENTED_EDGE('',*,*,#166137,.T.);
#236045=ORIENTED_EDGE('',*,*,#166091,.F.);
#236046=ORIENTED_EDGE('',*,*,#166138,.T.);
#236047=ORIENTED_EDGE('',*,*,#166139,.T.);
#236048=ORIENTED_EDGE('',*,*,#166084,.F.);
#236049=ORIENTED_EDGE('',*,*,#166137,.F.);
#236050=ORIENTED_EDGE('',*,*,#166119,.F.);
#236051=ORIENTED_EDGE('',*,*,#166140,.T.);
#236052=ORIENTED_EDGE('',*,*,#166127,.F.);
#236053=ORIENTED_EDGE('',*,*,#166140,.F.);
#236054=ORIENTED_EDGE('',*,*,#166118,.F.);
#236055=ORIENTED_EDGE('',*,*,#166122,.F.);
#236056=ORIENTED_EDGE('',*,*,#166141,.T.);
#236057=ORIENTED_EDGE('',*,*,#166142,.T.);
#236058=ORIENTED_EDGE('',*,*,#166142,.F.);
#236059=ORIENTED_EDGE('',*,*,#166143,.T.);
#236060=ORIENTED_EDGE('',*,*,#166128,.F.);
#236061=ORIENTED_EDGE('',*,*,#166143,.F.);
#236062=ORIENTED_EDGE('',*,*,#166141,.F.);
#236063=ORIENTED_EDGE('',*,*,#166144,.T.);
#236064=ORIENTED_EDGE('',*,*,#166135,.F.);
#236065=ORIENTED_EDGE('',*,*,#166101,.F.);
#236066=ORIENTED_EDGE('',*,*,#166099,.T.);
#236067=ORIENTED_EDGE('',*,*,#166134,.T.);
#236068=ORIENTED_EDGE('',*,*,#166136,.F.);
#236069=ORIENTED_EDGE('',*,*,#166144,.F.);
#236070=ORIENTED_EDGE('',*,*,#166090,.F.);
#236071=ORIENTED_EDGE('',*,*,#166139,.F.);
#236072=ORIENTED_EDGE('',*,*,#166145,.T.);
#236073=ORIENTED_EDGE('',*,*,#166126,.F.);
#236074=ORIENTED_EDGE('',*,*,#166145,.F.);
#236075=ORIENTED_EDGE('',*,*,#166138,.F.);
#236076=ORIENTED_EDGE('',*,*,#166062,.F.);
#236077=ORIENTED_EDGE('',*,*,#166105,.F.);
#236078=ORIENTED_EDGE('',*,*,#166069,.F.);
#236079=ORIENTED_EDGE('',*,*,#166146,.F.);
#236080=ORIENTED_EDGE('',*,*,#166078,.F.);
#236081=ORIENTED_EDGE('',*,*,#166147,.F.);
#236082=ORIENTED_EDGE('',*,*,#166095,.F.);
#236083=ORIENTED_EDGE('',*,*,#166123,.T.);
#236084=ORIENTED_EDGE('',*,*,#166071,.F.);
#236085=ORIENTED_EDGE('',*,*,#166104,.T.);
#236086=ORIENTED_EDGE('',*,*,#166132,.F.);
#236087=ORIENTED_EDGE('',*,*,#166148,.F.);
#236088=ORIENTED_EDGE('',*,*,#166079,.F.);
#236089=ORIENTED_EDGE('',*,*,#166146,.T.);
#236090=ORIENTED_EDGE('',*,*,#166080,.F.);
#236091=ORIENTED_EDGE('',*,*,#166148,.T.);
#236092=ORIENTED_EDGE('',*,*,#166131,.F.);
#236093=ORIENTED_EDGE('',*,*,#166124,.T.);
#236094=ORIENTED_EDGE('',*,*,#166096,.F.);
#236095=ORIENTED_EDGE('',*,*,#166147,.T.);
#247850=PLANE('',#283146);
#247851=PLANE('',#283147);
#247852=PLANE('',#283150);
#247853=PLANE('',#283153);
#247854=PLANE('',#283156);
#247855=PLANE('',#283158);
#247856=PLANE('',#283162);
#247857=PLANE('',#283163);
#247858=PLANE('',#283166);
#247859=PLANE('',#283173);
#247860=PLANE('',#283179);
#247861=PLANE('',#283180);
#247862=PLANE('',#283181);
#261254=ADVANCED_FACE('',(#82217,#68578),#1934,.F.);
#261255=ADVANCED_FACE('',(#82218),#66573,.T.);
#261256=ADVANCED_FACE('',(#82219,#68579),#1935,.F.);
#261257=ADVANCED_FACE('',(#82220),#66574,.T.);
#261258=ADVANCED_FACE('',(#82221,#68580),#1936,.F.);
#261259=ADVANCED_FACE('',(#82222),#66575,.T.);
#261260=ADVANCED_FACE('',(#82223),#66576,.T.);
#261261=ADVANCED_FACE('',(#82224,#68581),#1937,.F.);
#261262=ADVANCED_FACE('',(#82225),#1088,.F.);
#261263=ADVANCED_FACE('',(#82226),#1089,.F.);
#261264=ADVANCED_FACE('',(#82227),#247850,.T.);
#261265=ADVANCED_FACE('',(#82228),#247851,.T.);
#261266=ADVANCED_FACE('',(#82229),#66577,.T.);
#261267=ADVANCED_FACE('',(#82230),#247852,.T.);
#261268=ADVANCED_FACE('',(#82231),#66578,.T.);
#261269=ADVANCED_FACE('',(#82232),#247853,.T.);
#261270=ADVANCED_FACE('',(#82233),#66579,.T.);
#261271=ADVANCED_FACE('',(#82234),#247854,.T.);
#261272=ADVANCED_FACE('',(#82235,#68582,#68583,#68584),#247855,.F.);
#261273=ADVANCED_FACE('',(#82236),#247856,.F.);
#261274=ADVANCED_FACE('',(#82237,#68585),#247857,.T.);
#261275=ADVANCED_FACE('',(#82238),#66580,.T.);
#261276=ADVANCED_FACE('',(#82239),#247858,.T.);
#261277=ADVANCED_FACE('',(#82240),#66581,.F.);
#261278=ADVANCED_FACE('',(#82241,#68586),#247859,.T.);
#261279=ADVANCED_FACE('',(#82242),#66582,.F.);
#261280=ADVANCED_FACE('',(#82243),#66583,.T.);
#261281=ADVANCED_FACE('',(#82244),#66584,.F.);
#261282=ADVANCED_FACE('',(#82245),#247860,.T.);
#261283=ADVANCED_FACE('',(#82246),#247861,.T.);
#261284=ADVANCED_FACE('',(#82247),#247862,.T.);
#262444=CLOSED_SHELL('',(#261254,#261255,#261256,#261257,#261258,#261259,
#261260,#261261,#261262,#261263,#261264,#261265,#261266,#261267,#261268,
#261269,#261270,#261271,#261272,#261273,#261274,#261275,#261276,#261277,
#261278,#261279,#261280,#261281,#261282,#261283,#261284));
#283119=AXIS2_PLACEMENT_3D('',#437869,#352137,#352138);
#283120=AXIS2_PLACEMENT_3D('',#437871,#352139,#352140);
#283121=AXIS2_PLACEMENT_3D('',#437873,#352141,#352142);
#283122=AXIS2_PLACEMENT_3D('',#437874,#352143,#352144);
#283123=AXIS2_PLACEMENT_3D('',#437886,#352145,#352146);
#283124=AXIS2_PLACEMENT_3D('',#437887,#352147,#352148);
#283125=AXIS2_PLACEMENT_3D('',#437890,#352149,#352150);
#283126=AXIS2_PLACEMENT_3D('',#437904,#352153,#352154);
#283127=AXIS2_PLACEMENT_3D('',#437905,#352155,#352156);
#283128=AXIS2_PLACEMENT_3D('',#437906,#352157,#352158);
#283129=AXIS2_PLACEMENT_3D('',#437909,#352159,#352160);
#283130=AXIS2_PLACEMENT_3D('',#437919,#352161,#352162);
#283131=AXIS2_PLACEMENT_3D('',#437922,#352163,#352164);
#283132=AXIS2_PLACEMENT_3D('',#437936,#352167,#352168);
#283133=AXIS2_PLACEMENT_3D('',#437937,#352169,#352170);
#283134=AXIS2_PLACEMENT_3D('',#437938,#352171,#352172);
#283135=AXIS2_PLACEMENT_3D('',#437941,#352173,#352174);
#283136=AXIS2_PLACEMENT_3D('',#437951,#352175,#352176);
#283137=AXIS2_PLACEMENT_3D('',#437954,#352177,#352178);
#283138=AXIS2_PLACEMENT_3D('',#437957,#352181,#352182);
#283139=AXIS2_PLACEMENT_3D('',#437970,#352184,#352185);
#283140=AXIS2_PLACEMENT_3D('',#437974,#352187,#352188);
#283141=AXIS2_PLACEMENT_3D('',#437995,#352191,#352192);
#283142=AXIS2_PLACEMENT_3D('',#437996,#352193,#352194);
#283143=AXIS2_PLACEMENT_3D('',#438004,#352195,#352196);
#283144=AXIS2_PLACEMENT_3D('',#438071,#352197,#352198);
#283145=AXIS2_PLACEMENT_3D('',#438153,#352199,#352200);
#283146=AXIS2_PLACEMENT_3D('',#438154,#352201,#352202);
#283147=AXIS2_PLACEMENT_3D('',#438161,#352207,#352208);
#283148=AXIS2_PLACEMENT_3D('',#438167,#352212,#352213);
#283149=AXIS2_PLACEMENT_3D('',#438170,#352215,#352216);
#283150=AXIS2_PLACEMENT_3D('',#438171,#352217,#352218);
#283151=AXIS2_PLACEMENT_3D('',#438175,#352221,#352222);
#283152=AXIS2_PLACEMENT_3D('',#438178,#352224,#352225);
#283153=AXIS2_PLACEMENT_3D('',#438179,#352226,#352227);
#283154=AXIS2_PLACEMENT_3D('',#438183,#352230,#352231);
#283155=AXIS2_PLACEMENT_3D('',#438206,#352234,#352235);
#283156=AXIS2_PLACEMENT_3D('',#438207,#352236,#352237);
#283157=AXIS2_PLACEMENT_3D('',#438208,#352238,#352239);
#283158=AXIS2_PLACEMENT_3D('',#438209,#352240,#352241);
#283159=AXIS2_PLACEMENT_3D('',#438215,#352245,#352246);
#283160=AXIS2_PLACEMENT_3D('',#438217,#352247,#352248);
#283161=AXIS2_PLACEMENT_3D('',#438219,#352249,#352250);
#283162=AXIS2_PLACEMENT_3D('',#438220,#352251,#352252);
#283163=AXIS2_PLACEMENT_3D('',#438221,#352253,#352254);
#283164=AXIS2_PLACEMENT_3D('',#438224,#352256,#352257);
#283165=AXIS2_PLACEMENT_3D('',#438228,#352260,#352261);
#283166=AXIS2_PLACEMENT_3D('',#438246,#352263,#352264);
#283167=AXIS2_PLACEMENT_3D('',#438248,#352265,#352266);
#283168=AXIS2_PLACEMENT_3D('',#438249,#352267,#352268);
#283169=AXIS2_PLACEMENT_3D('',#438250,#352269,#352270);
#283170=AXIS2_PLACEMENT_3D('',#438252,#352271,#352272);
#283171=AXIS2_PLACEMENT_3D('',#438253,#352273,#352274);
#283172=AXIS2_PLACEMENT_3D('',#438254,#352275,#352276);
#283173=AXIS2_PLACEMENT_3D('',#438256,#352278,#352279);
#283174=AXIS2_PLACEMENT_3D('',#438258,#352280,#352281);
#283175=AXIS2_PLACEMENT_3D('',#438260,#352282,#352283);
#283176=AXIS2_PLACEMENT_3D('',#438261,#352284,#352285);
#283177=AXIS2_PLACEMENT_3D('',#438263,#352287,#352288);
#283178=AXIS2_PLACEMENT_3D('',#438265,#352290,#352291);
#283179=AXIS2_PLACEMENT_3D('',#438267,#352293,#352294);
#283180=AXIS2_PLACEMENT_3D('',#438270,#352297,#352298);
#283181=AXIS2_PLACEMENT_3D('',#438272,#352300,#352301);
#352137=DIRECTION('center_axis',(-0.98297603971863,-0.183733789323244,0.));
#352138=DIRECTION('ref_axis',(-0.183733789323244,0.98297603971863,4.4353409833775E-13));
#352139=DIRECTION('center_axis',(0.,0.,1.));
#352140=DIRECTION('ref_axis',(-0.707106781186548,0.707106781186547,0.));
#352141=DIRECTION('center_axis',(0.,1.,0.));
#352142=DIRECTION('ref_axis',(0.,0.,-1.));
#352143=DIRECTION('center_axis',(0.,0.,-1.));
#352144=DIRECTION('ref_axis',(-0.707106781186548,0.707106781186547,0.));
#352145=DIRECTION('center_axis',(0.,0.,-1.));
#352146=DIRECTION('ref_axis',(1.,0.,0.));
#352147=DIRECTION('center_axis',(0.,1.,0.));
#352148=DIRECTION('ref_axis',(-0.707106781186547,0.,-0.707106781186548));
#352149=DIRECTION('center_axis',(0.,1.,0.));
#352150=DIRECTION('ref_axis',(0.,0.,-1.));
#352151=DIRECTION('',(0.,1.,0.));
#352152=DIRECTION('',(0.,-1.,0.));
#352153=DIRECTION('center_axis',(-1.,0.,0.));
#352154=DIRECTION('ref_axis',(0.,0.,-1.));
#352155=DIRECTION('center_axis',(0.,0.,-1.));
#352156=DIRECTION('ref_axis',(-0.707106781186548,-0.707106781186548,0.));
#352157=DIRECTION('center_axis',(0.,0.,1.));
#352158=DIRECTION('ref_axis',(-0.707106781186547,-0.707106781186547,0.));
#352159=DIRECTION('center_axis',(0.,0.,-1.));
#352160=DIRECTION('ref_axis',(1.,0.,0.));
#352161=DIRECTION('center_axis',(1.,0.,0.));
#352162=DIRECTION('ref_axis',(0.,-0.707106781186547,-0.707106781186548));
#352163=DIRECTION('center_axis',(-1.,0.,0.));
#352164=DIRECTION('ref_axis',(0.,0.,-1.));
#352165=DIRECTION('',(-1.,0.,0.));
#352166=DIRECTION('',(1.,0.,0.));
#352167=DIRECTION('center_axis',(0.,-1.,0.));
#352168=DIRECTION('ref_axis',(0.,0.,-1.));
#352169=DIRECTION('center_axis',(0.,0.,-1.));
#352170=DIRECTION('ref_axis',(0.707106781186546,-0.707106781186549,0.));
#352171=DIRECTION('center_axis',(0.,0.,1.));
#352172=DIRECTION('ref_axis',(0.707106781186546,-0.707106781186549,0.));
#352173=DIRECTION('center_axis',(0.,0.,-1.));
#352174=DIRECTION('ref_axis',(1.,0.,0.));
#352175=DIRECTION('center_axis',(0.,1.,0.));
#352176=DIRECTION('ref_axis',(0.707106781186545,0.,-0.70710678118655));
#352177=DIRECTION('center_axis',(0.,-1.,0.));
#352178=DIRECTION('ref_axis',(0.,0.,-1.));
#352179=DIRECTION('',(0.,-1.,0.));
#352180=DIRECTION('',(0.,1.,0.));
#352181=DIRECTION('center_axis',(-1.,0.,0.));
#352182=DIRECTION('ref_axis',(0.,0.707106781186548,-0.707106781186547));
#352183=DIRECTION('',(1.,0.,0.));
#352184=DIRECTION('center_axis',(-1.,0.,0.));
#352185=DIRECTION('ref_axis',(0.,1.,0.));
#352186=DIRECTION('',(-1.,0.,0.));
#352187=DIRECTION('center_axis',(1.,0.,0.));
#352188=DIRECTION('ref_axis',(0.,0.,-1.));
#352189=DIRECTION('',(1.,0.,0.));
#352190=DIRECTION('',(1.,0.,0.));
#352191=DIRECTION('center_axis',(0.,0.,-1.));
#352192=DIRECTION('ref_axis',(0.707106781186547,0.707106781186548,0.));
#352193=DIRECTION('center_axis',(0.,0.,1.));
#352194=DIRECTION('ref_axis',(0.707106781186547,0.707106781186548,0.));
#352195=DIRECTION('center_axis',(0.,0.,-1.));
#352196=DIRECTION('ref_axis',(1.,0.,0.));
#352197=DIRECTION('center_axis',(-0.998083956710387,-0.0618741897509728,
-9.81345001307938E-18));
#352198=DIRECTION('ref_axis',(-0.0612615986144175,0.988202334213517,-0.140367956422266));
#352199=DIRECTION('center_axis',(0.,-1.,0.));
#352200=DIRECTION('ref_axis',(-1.,0.,0.));
#352201=DIRECTION('center_axis',(1.,0.,0.));
#352202=DIRECTION('ref_axis',(0.,1.,0.));
#352203=DIRECTION('',(0.,0.,1.));
#352204=DIRECTION('',(0.,1.,0.));
#352205=DIRECTION('',(0.,0.,1.));
#352206=DIRECTION('',(0.,1.,0.));
#352207=DIRECTION('center_axis',(-1.,0.,0.));
#352208=DIRECTION('ref_axis',(0.,-1.,0.));
#352209=DIRECTION('',(0.,0.,-1.));
#352210=DIRECTION('',(0.,-1.,0.));
#352211=DIRECTION('',(0.,0.,1.));
#352212=DIRECTION('center_axis',(0.,0.,1.));
#352213=DIRECTION('ref_axis',(-0.707106781186548,-0.707106781186548,0.));
#352214=DIRECTION('',(0.,0.,1.));
#352215=DIRECTION('center_axis',(0.,0.,-1.));
#352216=DIRECTION('ref_axis',(-0.707106781186548,-0.707106781186548,0.));
#352217=DIRECTION('center_axis',(0.,-1.,0.));
#352218=DIRECTION('ref_axis',(1.,0.,0.));
#352219=DIRECTION('',(0.,0.,-1.));
#352220=DIRECTION('',(1.,0.,0.));
#352221=DIRECTION('center_axis',(0.,0.,1.));
#352222=DIRECTION('ref_axis',(0.707106781186548,-0.707106781186548,0.));
#352223=DIRECTION('',(0.,0.,1.));
#352224=DIRECTION('center_axis',(0.,0.,-1.));
#352225=DIRECTION('ref_axis',(0.707106781186548,-0.707106781186548,0.));
#352226=DIRECTION('center_axis',(1.,0.,0.));
#352227=DIRECTION('ref_axis',(0.,1.,0.));
#352228=DIRECTION('',(0.,0.,-1.));
#352229=DIRECTION('',(0.,1.,0.));
#352230=DIRECTION('center_axis',(0.,0.,1.));
#352231=DIRECTION('ref_axis',(0.707106781186548,0.707106781186547,0.));
#352232=DIRECTION('',(0.,0.,1.));
#352233=DIRECTION('',(0.,0.,1.));
#352234=DIRECTION('center_axis',(0.,0.,-1.));
#352235=DIRECTION('ref_axis',(0.707106781186548,0.707106781186547,0.));
#352236=DIRECTION('center_axis',(0.,1.,0.));
#352237=DIRECTION('ref_axis',(0.,0.,1.));
#352238=DIRECTION('center_axis',(0.,-1.,0.));
#352239=DIRECTION('ref_axis',(-1.,0.,0.));
#352240=DIRECTION('center_axis',(0.,1.,0.));
#352241=DIRECTION('ref_axis',(0.,0.,1.));
#352242=DIRECTION('',(-1.,0.,0.));
#352243=DIRECTION('',(0.,0.,-1.));
#352244=DIRECTION('',(1.,0.,0.));
#352245=DIRECTION('center_axis',(0.,1.,0.));
#352246=DIRECTION('ref_axis',(-1.,0.,0.));
#352247=DIRECTION('center_axis',(0.,1.,0.));
#352248=DIRECTION('ref_axis',(-1.,0.,0.));
#352249=DIRECTION('center_axis',(0.,1.,0.));
#352250=DIRECTION('ref_axis',(-1.,0.,0.));
#352251=DIRECTION('center_axis',(0.,0.,1.));
#352252=DIRECTION('ref_axis',(1.,0.,0.));
#352253=DIRECTION('center_axis',(0.,0.,1.));
#352254=DIRECTION('ref_axis',(1.,0.,0.));
#352255=DIRECTION('',(-1.,0.,0.));
#352256=DIRECTION('center_axis',(0.,0.,-1.));
#352257=DIRECTION('ref_axis',(-0.707106781186548,0.707106781186547,0.));
#352258=DIRECTION('',(0.,-1.,0.));
#352259=DIRECTION('',(-1.,0.,0.));
#352260=DIRECTION('center_axis',(0.,0.,1.));
#352261=DIRECTION('ref_axis',(-0.707106781186548,0.707106781186547,0.));
#352262=DIRECTION('',(0.,0.,-1.));
#352263=DIRECTION('center_axis',(0.,1.,0.));
#352264=DIRECTION('ref_axis',(0.,0.,1.));
#352265=DIRECTION('center_axis',(0.,-1.,0.));
#352266=DIRECTION('ref_axis',(-1.,0.,0.));
#352267=DIRECTION('center_axis',(0.,-1.,0.));
#352268=DIRECTION('ref_axis',(-1.,0.,0.));
#352269=DIRECTION('center_axis',(0.,-1.,0.));
#352270=DIRECTION('ref_axis',(-1.,0.,0.));
#352271=DIRECTION('center_axis',(0.,-1.,0.));
#352272=DIRECTION('ref_axis',(-1.,0.,0.));
#352273=DIRECTION('center_axis',(0.,-1.,0.));
#352274=DIRECTION('ref_axis',(-1.,0.,0.));
#352275=DIRECTION('center_axis',(0.,-1.,0.));
#352276=DIRECTION('ref_axis',(-1.,0.,0.));
#352277=DIRECTION('',(0.,-1.,0.));
#352278=DIRECTION('center_axis',(0.,1.,0.));
#352279=DIRECTION('ref_axis',(-1.,0.,0.));
#352280=DIRECTION('center_axis',(0.,1.,0.));
#352281=DIRECTION('ref_axis',(-1.,0.,0.));
#352282=DIRECTION('center_axis',(0.,-1.,0.));
#352283=DIRECTION('ref_axis',(-1.,0.,0.));
#352284=DIRECTION('center_axis',(0.,1.,0.));
#352285=DIRECTION('ref_axis',(-1.,0.,0.));
#352286=DIRECTION('',(0.,-1.,0.));
#352287=DIRECTION('center_axis',(0.,1.,0.));
#352288=DIRECTION('ref_axis',(-1.,0.,0.));
#352289=DIRECTION('',(0.,-1.,0.));
#352290=DIRECTION('center_axis',(0.,-1.,0.));
#352291=DIRECTION('ref_axis',(-1.,0.,0.));
#352292=DIRECTION('',(0.,-1.,0.));
#352293=DIRECTION('center_axis',(0.,0.,1.));
#352294=DIRECTION('ref_axis',(1.,0.,0.));
#352295=DIRECTION('',(-1.,0.,0.));
#352296=DIRECTION('',(0.,-1.,0.));
#352297=DIRECTION('center_axis',(0.,1.,0.));
#352298=DIRECTION('ref_axis',(-1.,0.,0.));
#352299=DIRECTION('',(0.,0.,1.));
#352300=DIRECTION('center_axis',(-1.,0.,0.));
#352301=DIRECTION('ref_axis',(0.,-1.,0.));
#437858=CARTESIAN_POINT('Ctrl Pts',(119.066266210677,1.73297603971863,-11.));
#437859=CARTESIAN_POINT('Ctrl Pts',(118.25,1.58040295764524,-11.));
#437860=CARTESIAN_POINT('Ctrl Pts',(118.25,0.75,-11.));
#437861=CARTESIAN_POINT('Ctrl Pts',(117.780129685413,8.61380831775209,-11.));
#437862=CARTESIAN_POINT('Ctrl Pts',(111.249999999997,7.39322366116452,-11.));
#437863=CARTESIAN_POINT('Ctrl Pts',(111.249999999997,0.75,-11.));
#437864=CARTESIAN_POINT('Ctrl Pts',(117.780129685414,8.61380831774903,-3.9999999999969));
#437865=CARTESIAN_POINT('Ctrl Pts',(111.25,7.39322366116194,-3.9999999999969));
#437866=CARTESIAN_POINT('Ctrl Pts',(111.25,0.75,-3.9999999999969));
#437867=CARTESIAN_POINT('',(117.780129685414,8.61380831774904,-3.9999999999969));
#437868=CARTESIAN_POINT('',(119.066266210677,1.73297603971863,-11.));
#437869=CARTESIAN_POINT('Origin',(119.066266210677,1.73297603971863,-4.));
#437870=CARTESIAN_POINT('',(118.25,0.75,-11.));
#437871=CARTESIAN_POINT('Origin',(119.25,0.75,-11.));
#437872=CARTESIAN_POINT('',(111.25,0.75,-4.));
#437873=CARTESIAN_POINT('Origin',(118.25,0.75,-4.));
#437874=CARTESIAN_POINT('Origin',(119.25,0.75,-4.));
#437875=CARTESIAN_POINT('',(114.752911464651,5.25,-8.5));
#437876=CARTESIAN_POINT('',(114.75,5.25,-8.49754622670606));
#437877=CARTESIAN_POINT('Ctrl Pts',(114.752911464651,5.25,-8.5));
#437878=CARTESIAN_POINT('Ctrl Pts',(114.75194087938,5.25,-8.49918250609013));
#437879=CARTESIAN_POINT('Ctrl Pts',(114.750970299181,5.25,-8.4983645042734));
#437880=CARTESIAN_POINT('Ctrl Pts',(114.75,5.25,-8.49754622670606));
#437881=CARTESIAN_POINT('',(114.75,5.24708853534858,-8.5));
#437882=CARTESIAN_POINT('Ctrl Pts',(114.75,5.25,-8.49754622670606));
#437883=CARTESIAN_POINT('Ctrl Pts',(114.75,5.2490297011746,-8.49836450397316));
#437884=CARTESIAN_POINT('Ctrl Pts',(114.75,5.24805912028819,-8.49918250636946));
#437885=CARTESIAN_POINT('Ctrl Pts',(114.75,5.24708853534858,-8.5));
#437886=CARTESIAN_POINT('Origin',(119.25,0.75,-8.5));
#437887=CARTESIAN_POINT('Origin',(118.25,-23.125,-4.));
#437888=CARTESIAN_POINT('',(118.25,-95.75,-11.));
#437889=CARTESIAN_POINT('',(111.25,-95.75,-4.));
#437890=CARTESIAN_POINT('Origin',(118.25,-95.75,-4.));
#437891=CARTESIAN_POINT('',(111.25,-23.125,-4.));
#437892=CARTESIAN_POINT('',(118.25,-23.125,-11.));
#437893=CARTESIAN_POINT('Ctrl Pts',(118.25,-95.75,-11.));
#437894=CARTESIAN_POINT('Ctrl Pts',(118.25,-96.75,-11.));
#437895=CARTESIAN_POINT('Ctrl Pts',(119.25,-96.75,-11.));
#437896=CARTESIAN_POINT('Ctrl Pts',(111.25,-95.75,-11.));
#437897=CARTESIAN_POINT('Ctrl Pts',(111.25,-103.75,-11.));
#437898=CARTESIAN_POINT('Ctrl Pts',(119.25,-103.75,-11.));
#437899=CARTESIAN_POINT('Ctrl Pts',(111.25,-95.75,-4.));
#437900=CARTESIAN_POINT('Ctrl Pts',(111.25,-103.75,-4.));
#437901=CARTESIAN_POINT('Ctrl Pts',(119.25,-103.75,-4.));
#437902=CARTESIAN_POINT('',(119.25,-96.75,-11.));
#437903=CARTESIAN_POINT('',(119.25,-103.75,-4.));
#437904=CARTESIAN_POINT('Origin',(119.25,-96.75,-4.));
#437905=CARTESIAN_POINT('Origin',(119.25,-95.75,-4.));
#437906=CARTESIAN_POINT('Origin',(119.25,-95.75,-11.));
#437907=CARTESIAN_POINT('',(114.752911464651,-100.25,-8.5));
#437908=CARTESIAN_POINT('',(114.75,-100.247088535349,-8.5));
#437909=CARTESIAN_POINT('Origin',(119.25,-95.75,-8.5));
#437910=CARTESIAN_POINT('',(114.75,-100.25,-8.49754622670605));
#437911=CARTESIAN_POINT('Ctrl Pts',(114.75,-100.247088535349,-8.5));
#437912=CARTESIAN_POINT('Ctrl Pts',(114.75,-100.24805912062,-8.49918250609013));
#437913=CARTESIAN_POINT('Ctrl Pts',(114.75,-100.249029700819,-8.4983645042734));
#437914=CARTESIAN_POINT('Ctrl Pts',(114.75,-100.25,-8.49754622670605));
#437915=CARTESIAN_POINT('Ctrl Pts',(114.75,-100.25,-8.49754622670605));
#437916=CARTESIAN_POINT('Ctrl Pts',(114.750970298825,-100.25,-8.49836450397316));
#437917=CARTESIAN_POINT('Ctrl Pts',(114.751940879712,-100.25,-8.49918250636947));
#437918=CARTESIAN_POINT('Ctrl Pts',(114.752911464651,-100.25,-8.5));
#437919=CARTESIAN_POINT('Origin',(124.375,-96.75,-4.));
#437920=CARTESIAN_POINT('',(155.75,-96.75,-11.));
#437921=CARTESIAN_POINT('',(155.75,-103.75,-4.));
#437922=CARTESIAN_POINT('Origin',(155.75,-96.75,-4.));
#437923=CARTESIAN_POINT('',(124.375,-103.75,-4.));
#437924=CARTESIAN_POINT('',(124.375,-96.75,-11.));
#437925=CARTESIAN_POINT('Ctrl Pts',(155.75,-96.75,-11.));
#437926=CARTESIAN_POINT('Ctrl Pts',(156.75,-96.75,-11.));
#437927=CARTESIAN_POINT('Ctrl Pts',(156.75,-95.75,-11.));
#437928=CARTESIAN_POINT('Ctrl Pts',(155.75,-103.75,-11.));
#437929=CARTESIAN_POINT('Ctrl Pts',(163.75,-103.75,-11.));
#437930=CARTESIAN_POINT('Ctrl Pts',(163.75,-95.75,-11.));
#437931=CARTESIAN_POINT('Ctrl Pts',(155.75,-103.75,-4.));
#437932=CARTESIAN_POINT('Ctrl Pts',(163.75,-103.75,-4.));
#437933=CARTESIAN_POINT('Ctrl Pts',(163.75,-95.75,-4.));
#437934=CARTESIAN_POINT('',(156.75,-95.75,-11.));
#437935=CARTESIAN_POINT('',(163.75,-95.75,-4.));
#437936=CARTESIAN_POINT('Origin',(156.75,-95.75,-4.));
#437937=CARTESIAN_POINT('Origin',(155.75,-95.75,-4.));
#437938=CARTESIAN_POINT('Origin',(155.75,-95.75,-11.));
#437939=CARTESIAN_POINT('',(160.25,-100.247088535349,-8.5));
#437940=CARTESIAN_POINT('',(160.247088535349,-100.25,-8.5));
#437941=CARTESIAN_POINT('Origin',(155.75,-95.75,-8.5));
#437942=CARTESIAN_POINT('',(160.25,-100.25,-8.49754622670605));
#437943=CARTESIAN_POINT('Ctrl Pts',(160.247088535349,-100.25,-8.5));
#437944=CARTESIAN_POINT('Ctrl Pts',(160.24805912062,-100.25,-8.4991825060901));
#437945=CARTESIAN_POINT('Ctrl Pts',(160.249029700819,-100.25,-8.49836450427341));
#437946=CARTESIAN_POINT('Ctrl Pts',(160.25,-100.25,-8.49754622670605));
#437947=CARTESIAN_POINT('Ctrl Pts',(160.25,-100.25,-8.49754622670605));
#437948=CARTESIAN_POINT('Ctrl Pts',(160.25,-100.249029701175,-8.49836450397317));
#437949=CARTESIAN_POINT('Ctrl Pts',(160.25,-100.248059120288,-8.49918250636946));
#437950=CARTESIAN_POINT('Ctrl Pts',(160.25,-100.247088535349,-8.5));
#437951=CARTESIAN_POINT('Origin',(156.75,-76.875,-4.));
#437952=CARTESIAN_POINT('',(156.75,0.750000000000002,-11.));
#437953=CARTESIAN_POINT('',(163.75,0.750000000000002,-4.));
#437954=CARTESIAN_POINT('Origin',(156.75,0.750000000000002,-4.));
#437955=CARTESIAN_POINT('',(163.75,-76.875,-4.));
#437956=CARTESIAN_POINT('',(156.75,-76.875,-11.));
#437957=CARTESIAN_POINT('Origin',(150.625,1.75,-4.));
#437958=CARTESIAN_POINT('',(152.53344749394,8.75,-4.));
#437959=CARTESIAN_POINT('',(154.96655250606,8.75,-4.));
#437960=CARTESIAN_POINT('Ctrl Pts',(152.53344749394,8.75,-4.));
#437961=CARTESIAN_POINT('Ctrl Pts',(152.931319492397,8.75,-4.13445338244803));
#437962=CARTESIAN_POINT('Ctrl Pts',(153.349304670541,8.74714227381436,-4.20000000000001));
#437963=CARTESIAN_POINT('Ctrl Pts',(153.75,8.74714227381436,-4.20000000000001));
#437964=CARTESIAN_POINT('Ctrl Pts',(154.150695329459,8.74714227381436,-4.20000000000001));
#437965=CARTESIAN_POINT('Ctrl Pts',(154.568680507603,8.75,-4.13445338244802));
#437966=CARTESIAN_POINT('Ctrl Pts',(154.96655250606,8.75,-4.));
#437967=CARTESIAN_POINT('',(155.75,8.75,-4.));
#437968=CARTESIAN_POINT('',(150.625,8.75,-4.));
#437969=CARTESIAN_POINT('',(155.75,1.75,-11.));
#437970=CARTESIAN_POINT('Origin',(155.75,1.75,-4.));
#437971=CARTESIAN_POINT('',(124.719870314579,1.75,-11.));
#437972=CARTESIAN_POINT('',(150.625,1.75,-11.));
#437973=CARTESIAN_POINT('',(124.719870314579,8.75,-4.));
#437974=CARTESIAN_POINT('Origin',(124.719870314579,1.75,-4.));
#437975=CARTESIAN_POINT('',(135.53344749394,8.75,-4.));
#437976=CARTESIAN_POINT('',(150.625,8.75,-4.));
#437977=CARTESIAN_POINT('',(137.96655250606,8.75,-4.));
#437978=CARTESIAN_POINT('Ctrl Pts',(135.53344749394,8.75,-4.));
#437979=CARTESIAN_POINT('Ctrl Pts',(135.931319492397,8.75,-4.13445338244802));
#437980=CARTESIAN_POINT('Ctrl Pts',(136.349304670541,8.74714227381436,-4.19999999999999));
#437981=CARTESIAN_POINT('Ctrl Pts',(136.75,8.74714227381436,-4.19999999999999));
#437982=CARTESIAN_POINT('Ctrl Pts',(137.150695329459,8.74714227381436,-4.19999999999999));
#437983=CARTESIAN_POINT('Ctrl Pts',(137.568680507603,8.75,-4.13445338244801));
#437984=CARTESIAN_POINT('Ctrl Pts',(137.96655250606,8.75,-4.));
#437985=CARTESIAN_POINT('',(150.625,8.75,-4.));
#437986=CARTESIAN_POINT('Ctrl Pts',(156.75,0.750000000000002,-11.));
#437987=CARTESIAN_POINT('Ctrl Pts',(156.75,1.75,-11.));
#437988=CARTESIAN_POINT('Ctrl Pts',(155.75,1.75,-11.));
#437989=CARTESIAN_POINT('Ctrl Pts',(163.75,0.750000000000002,-11.));
#437990=CARTESIAN_POINT('Ctrl Pts',(163.75,8.75000000000001,-11.));
#437991=CARTESIAN_POINT('Ctrl Pts',(155.75,8.75000000000001,-11.));
#437992=CARTESIAN_POINT('Ctrl Pts',(163.75,0.750000000000002,-4.));
#437993=CARTESIAN_POINT('Ctrl Pts',(163.75,8.75000000000001,-4.));
#437994=CARTESIAN_POINT('Ctrl Pts',(155.75,8.75000000000001,-4.));
#437995=CARTESIAN_POINT('Origin',(155.75,0.750000000000002,-4.));
#437996=CARTESIAN_POINT('Origin',(155.75,0.750000000000002,-11.));
#437997=CARTESIAN_POINT('',(160.25,5.25,-8.49754622670606));
#437998=CARTESIAN_POINT('',(160.247088535349,5.25,-8.5));
#437999=CARTESIAN_POINT('Ctrl Pts',(160.25,5.25,-8.49754622670606));
#438000=CARTESIAN_POINT('Ctrl Pts',(160.249029701175,5.25,-8.49836450397317));
#438001=CARTESIAN_POINT('Ctrl Pts',(160.248059120288,5.25,-8.49918250636947));
#438002=CARTESIAN_POINT('Ctrl Pts',(160.247088535349,5.25,-8.5));
#438003=CARTESIAN_POINT('',(160.25,5.24708853534859,-8.5));
#438004=CARTESIAN_POINT('Origin',(155.75,0.750000000000002,-8.5));
#438005=CARTESIAN_POINT('Ctrl Pts',(160.25,5.24708853534859,-8.5));
#438006=CARTESIAN_POINT('Ctrl Pts',(160.25,5.24805912061984,-8.49918250609013));
#438007=CARTESIAN_POINT('Ctrl Pts',(160.25,5.24902970081858,-8.49836450427341));
#438008=CARTESIAN_POINT('Ctrl Pts',(160.25,5.25,-8.49754622670606));
#438009=CARTESIAN_POINT('Ctrl Pts',(117.78012968542,8.6138083177501,-3.99999999999926));
#438010=CARTESIAN_POINT('Ctrl Pts',(117.865369483829,8.62974098602479,-4.08215862392173));
#438011=CARTESIAN_POINT('Ctrl Pts',(117.995406887827,8.65299995428641,-4.20219570533857));
#438012=CARTESIAN_POINT('Ctrl Pts',(118.236783618813,8.68642251412557,-4.39246651322697));
#438013=CARTESIAN_POINT('Ctrl Pts',(118.419626431612,8.70794609206212,-4.52490242350366));
#438014=CARTESIAN_POINT('Ctrl Pts',(118.626347566816,8.72703863064711,-4.65981813009189));
#438015=CARTESIAN_POINT('Ctrl Pts',(118.841300065224,8.7405234094849,-4.78378610159216));
#438016=CARTESIAN_POINT('Ctrl Pts',(119.022293117179,8.74728163360379,-4.87747215370854));
#438017=CARTESIAN_POINT('Ctrl Pts',(119.145434472315,8.75000000000001,-4.93693955727023));
#438018=CARTESIAN_POINT('Ctrl Pts',(119.250000000001,8.75,-4.98257569495615));
#438019=CARTESIAN_POINT('Ctrl Pts',(117.78012968542,8.61380831775021,-5.04719755119593));
#438020=CARTESIAN_POINT('Ctrl Pts',(117.867633912528,8.61762449542956,-5.1215192755209));
#438021=CARTESIAN_POINT('Ctrl Pts',(118.000951893728,8.62374087329603,-5.22996404744743));
#438022=CARTESIAN_POINT('Ctrl Pts',(118.246369325972,8.63063918696732,-5.40078645405614));
#438023=CARTESIAN_POINT('Ctrl Pts',(118.431312025419,8.63408389150542,-5.5193783255928));
#438024=CARTESIAN_POINT('Ctrl Pts',(118.639117313642,8.63512003611446,-5.63981669455805));
#438025=CARTESIAN_POINT('Ctrl Pts',(118.85368472897,8.63234394123391,-5.75013209463233));
#438026=CARTESIAN_POINT('Ctrl Pts',(119.033368377953,8.62702098177771,-5.83331670427914));
#438027=CARTESIAN_POINT('Ctrl Pts',(119.155224342493,8.62216115399566,-5.88604520952986));
#438028=CARTESIAN_POINT('Ctrl Pts',(119.258279633827,8.61644237730182,-5.92644622982304));
#438029=CARTESIAN_POINT('Ctrl Pts',(117.868237762107,8.14242997951057,-7.13610407561616));
#438030=CARTESIAN_POINT('Ctrl Pts',(117.959047008718,8.12929633407757,-7.18924825521369));
#438031=CARTESIAN_POINT('Ctrl Pts',(118.096131131854,8.11113750203138,-7.26711038367115));
#438032=CARTESIAN_POINT('Ctrl Pts',(118.340564965934,8.0807448204896,-7.38784470774305));
#438033=CARTESIAN_POINT('Ctrl Pts',(118.521870067436,8.05870874814116,-7.47140989296766));
#438034=CARTESIAN_POINT('Ctrl Pts',(118.721979659644,8.03434028887577,-7.55583566254442));
#438035=CARTESIAN_POINT('Ctrl Pts',(118.924745056052,8.00883263986325,-7.63273956780287));
#438036=CARTESIAN_POINT('Ctrl Pts',(119.092184026118,7.98679228212829,-7.69051649297836));
#438037=CARTESIAN_POINT('Ctrl Pts',(119.204805062143,7.97152801274387,-7.72705997647475));
#438038=CARTESIAN_POINT('Ctrl Pts',(119.299092817602,7.95809058131316,-7.75498520152611));
#438039=CARTESIAN_POINT('Ctrl Pts',(118.298382501852,5.84115499715676,-10.0824195834844));
#438040=CARTESIAN_POINT('Ctrl Pts',(118.390087450327,5.82680647310535,-10.0966604605648));
#438041=CARTESIAN_POINT('Ctrl Pts',(118.523045646272,5.80607699460223,-10.117224688241));
#438042=CARTESIAN_POINT('Ctrl Pts',(118.73580639608,5.77056272299271,-10.149113114021));
#438043=CARTESIAN_POINT('Ctrl Pts',(118.885402193395,5.74448919574356,-10.1710330158704));
#438044=CARTESIAN_POINT('Ctrl Pts',(119.040880214975,5.71581081858514,-10.1930625580067));
#438045=CARTESIAN_POINT('Ctrl Pts',(119.188835116511,5.68665635404965,-10.2130286682369));
#438046=CARTESIAN_POINT('Ctrl Pts',(119.305413276233,5.66250386581444,-10.2279711040215));
#438047=CARTESIAN_POINT('Ctrl Pts',(119.381631104287,5.64622656006792,-10.2373964480433));
#438048=CARTESIAN_POINT('Ctrl Pts',(119.44325766277,5.63258749733236,-10.2445794942916));
#438049=CARTESIAN_POINT('Ctrl Pts',(118.777657849301,3.27703119223639,-11.));
#438050=CARTESIAN_POINT('Ctrl Pts',(118.866564567151,3.28163427339415,-10.9997878549171));
#438051=CARTESIAN_POINT('Ctrl Pts',(118.989006992215,3.28770755014684,-11.00096416674));
#438052=CARTESIAN_POINT('Ctrl Pts',(119.159918327345,3.28998911114602,-11.0005849482049));
#438053=CARTESIAN_POINT('Ctrl Pts',(119.270764187178,3.28902356861925,-11.0005958366532));
#438054=CARTESIAN_POINT('Ctrl Pts',(119.374845969166,3.28477339981844,-11.0005305486018));
#438055=CARTESIAN_POINT('Ctrl Pts',(119.462534198772,3.27753263578418,-11.0003540911683));
#438056=CARTESIAN_POINT('Ctrl Pts',(119.524730567804,3.27016553647035,-11.0001904851574));
#438057=CARTESIAN_POINT('Ctrl Pts',(119.562581055823,3.26471095164439,-11.0000903925864));
#438058=CARTESIAN_POINT('Ctrl Pts',(119.590353370604,3.25980707497577,-11.));
#438059=CARTESIAN_POINT('Ctrl Pts',(119.066266210677,1.73297603971863,-11.));
#438060=CARTESIAN_POINT('Ctrl Pts',(119.153436745845,1.74926959327095,-11.));
#438061=CARTESIAN_POINT('Ctrl Pts',(119.269754090187,1.77114591875958,-11.));
#438062=CARTESIAN_POINT('Ctrl Pts',(119.415353320855,1.79670844036431,-11.));
#438063=CARTESIAN_POINT('Ctrl Pts',(119.502843791006,1.8110752903788,-11.));
#438064=CARTESIAN_POINT('Ctrl Pts',(119.575945910207,1.821773583251,-11.));
#438065=CARTESIAN_POINT('Ctrl Pts',(119.627302509718,1.82799101584785,-11.));
#438066=CARTESIAN_POINT('Ctrl Pts',(119.656722506679,1.83093766752151,-11.));
#438067=CARTESIAN_POINT('Ctrl Pts',(119.671454877908,1.83212638098539,-11.));
#438068=CARTESIAN_POINT('Ctrl Pts',(119.678831190301,1.83258366050539,-11.));
#438069=CARTESIAN_POINT('',(119.25,8.75,-4.98257569495585));
#438070=CARTESIAN_POINT('',(119.678831190301,1.83258366050539,-11.));
#438071=CARTESIAN_POINT('Origin',(119.678831190301,1.83258366050539,-3.99999999999998));
#438072=CARTESIAN_POINT('Ctrl Pts',(119.678831190301,1.83258366050539,-11.));
#438073=CARTESIAN_POINT('Ctrl Pts',(119.671454877908,1.83212638098539,-11.));
#438074=CARTESIAN_POINT('Ctrl Pts',(119.656722506679,1.83093766752151,-11.));
#438075=CARTESIAN_POINT('Ctrl Pts',(119.627302509718,1.82799101584785,-11.));
#438076=CARTESIAN_POINT('Ctrl Pts',(119.575945910207,1.821773583251,-11.));
#438077=CARTESIAN_POINT('Ctrl Pts',(119.502843791006,1.8110752903788,-11.));
#438078=CARTESIAN_POINT('Ctrl Pts',(119.415353320855,1.79670844036431,-11.));
#438079=CARTESIAN_POINT('Ctrl Pts',(119.269754090187,1.77114591875958,-11.));
#438080=CARTESIAN_POINT('Ctrl Pts',(119.153436745845,1.74926959327095,-11.));
#438081=CARTESIAN_POINT('Ctrl Pts',(119.066266210677,1.73297603971863,-11.));
#438082=CARTESIAN_POINT('Ctrl Pts',(119.25,8.75,-4.98257569495593));
#438083=CARTESIAN_POINT('Ctrl Pts',(119.145434472315,8.75000000000001,-4.93693955727013));
#438084=CARTESIAN_POINT('Ctrl Pts',(119.083863794747,8.7486408168019,-4.90720585548935));
#438085=CARTESIAN_POINT('Ctrl Pts',(119.030454324469,8.74711644718799,-4.88062824808442));
#438086=CARTESIAN_POINT('Ctrl Pts',(118.97704485419,8.74559207757407,-4.85405064067945));
#438087=CARTESIAN_POINT('Ctrl Pts',(118.931796591202,8.74390252154434,-4.83062912765038));
#438088=CARTESIAN_POINT('Ctrl Pts',(118.891395249285,8.74213401853225,-4.80911154889286));
#438089=CARTESIAN_POINT('Ctrl Pts',(118.810592565452,8.73859701250807,-4.76607639137785));
#438090=CARTESIAN_POINT('Ctrl Pts',(118.749177565906,8.73474421855442,-4.73065697094918));
#438091=CARTESIAN_POINT('Ctrl Pts',(118.694452823863,8.73090285334632,-4.69804964355753));
#438092=CARTESIAN_POINT('Ctrl Pts',(118.585003339775,8.72322012293012,-4.63283498877424));
#438093=CARTESIAN_POINT('Ctrl Pts',(118.502314885693,8.71558310749612,-4.57886870613894));
#438094=CARTESIAN_POINT('Ctrl Pts',(118.430496856519,8.70817733678969,-4.52981291310851));
#438095=CARTESIAN_POINT('Ctrl Pts',(118.358678827345,8.70077156608327,-4.48075712007808));
#438096=CARTESIAN_POINT('Ctrl Pts',(118.297731223079,8.69359704010442,-4.43661181665253));
#438097=CARTESIAN_POINT('Ctrl Pts',(118.243119747847,8.68666752113107,-4.39551208415091));
#438098=CARTESIAN_POINT('Ctrl Pts',(118.188508272615,8.67973800215774,-4.35441235164929));
#438099=CARTESIAN_POINT('Ctrl Pts',(118.140232926418,8.6730534901899,-4.31635819007161));
#438100=CARTESIAN_POINT('Ctrl Pts',(118.09589907902,8.66658642069768,-4.2803152512998));
#438101=CARTESIAN_POINT('Ctrl Pts',(117.962897536827,8.64718521222101,-4.17218643498436));
#438102=CARTESIAN_POINT('Ctrl Pts',(117.865369483829,8.62974098602479,-4.08215862392173));
#438103=CARTESIAN_POINT('Ctrl Pts',(117.78012968542,8.6138083177501,-3.99999999999926));
#438104=CARTESIAN_POINT('Ctrl Pts',(119.25,8.75,-4.98257569495588));
#438105=CARTESIAN_POINT('Ctrl Pts',(119.762686244424,8.75,-5.20633031617812));
#438106=CARTESIAN_POINT('Ctrl Pts',(120.725720479436,8.75,-5.45362334228651));
#438107=CARTESIAN_POINT('Ctrl Pts',(122.420025155933,8.75,-5.34186835932125));
#438108=CARTESIAN_POINT('Ctrl Pts',(123.829409505179,8.75,-4.77794037933996));
#438109=CARTESIAN_POINT('Ctrl Pts',(124.470529720099,8.75,-4.24032764639094));
#438110=CARTESIAN_POINT('Ctrl Pts',(124.719870314579,8.75,-3.99999999999999));
#438111=CARTESIAN_POINT('Ctrl Pts',(119.258279633826,8.61644237730185,-5.9264462298228));
#438112=CARTESIAN_POINT('Ctrl Pts',(119.772069359249,8.58893058323852,-6.12453299726367));
#438113=CARTESIAN_POINT('Ctrl Pts',(120.730086281769,8.56124620400393,-6.34138417978276));
#438114=CARTESIAN_POINT('Ctrl Pts',(122.410343732923,8.57353335744311,-6.24346528122182));
#438115=CARTESIAN_POINT('Ctrl Pts',(123.820790636273,8.63908222362418,-5.74677767489931));
#438116=CARTESIAN_POINT('Ctrl Pts',(124.470568587842,8.7139436032567,-5.26460096218351));
#438117=CARTESIAN_POINT('Ctrl Pts',(124.719870314579,8.75,-5.04719755119659));
#438118=CARTESIAN_POINT('Ctrl Pts',(119.299093581558,7.95807825803935,-7.75495916190085));
#438119=CARTESIAN_POINT('Ctrl Pts',(119.81208210627,7.89533703665821,-7.89187693081714));
#438120=CARTESIAN_POINT('Ctrl Pts',(120.746553780933,7.833385569452,-8.03929273693595));
#438121=CARTESIAN_POINT('Ctrl Pts',(122.373768424622,7.86095342097208,-7.97263105338565));
#438122=CARTESIAN_POINT('Ctrl Pts',(123.770989787162,8.00888516266265,-7.63194182763163));
#438123=CARTESIAN_POINT('Ctrl Pts',(124.454706665091,8.18386918444185,-7.29152308725911));
#438124=CARTESIAN_POINT('Ctrl Pts',(124.71987031458,8.27043885744296,-7.13606751860082));
#438125=CARTESIAN_POINT('Ctrl Pts',(119.443258716577,5.63257049851931,-10.2445271299418));
#438126=CARTESIAN_POINT('Ctrl Pts',(119.945186567481,5.57808244132305,-10.2797457061407));
#438127=CARTESIAN_POINT('Ctrl Pts',(120.798157264546,5.52752824465033,-10.3170523650709));
#438128=CARTESIAN_POINT('Ctrl Pts',(122.259520363351,5.55015232879121,-10.3002876197831));
#438129=CARTESIAN_POINT('Ctrl Pts',(123.585929758694,5.67365479329943,-10.2136272991062));
#438130=CARTESIAN_POINT('Ctrl Pts',(124.377196651518,5.83875658046348,-10.1240014444563));
#438131=CARTESIAN_POINT('Ctrl Pts',(124.71987031458,5.92930087383323,-10.0823445092754));
#438132=CARTESIAN_POINT('Ctrl Pts',(119.590353370604,3.25980707497579,-11.));
#438133=CARTESIAN_POINT('Ctrl Pts',(120.078286659085,3.25757027145395,-10.999556803885));
#438134=CARTESIAN_POINT('Ctrl Pts',(120.848694538039,3.26113534299791,-10.9984912691394));
#438135=CARTESIAN_POINT('Ctrl Pts',(122.148014461717,3.25950126711403,-10.9984345859287));
#438136=CARTESIAN_POINT('Ctrl Pts',(123.394337818305,3.25471438455188,-10.9989236652592));
#438137=CARTESIAN_POINT('Ctrl Pts',(124.290933981817,3.28624879619045,-10.999379440331));
#438138=CARTESIAN_POINT('Ctrl Pts',(124.719870314579,3.3207963267949,-11.));
#438139=CARTESIAN_POINT('Ctrl Pts',(119.678831190301,1.83258366050538,-11.));
#438140=CARTESIAN_POINT('Ctrl Pts',(120.158305378634,1.86230768994215,-11.));
#438141=CARTESIAN_POINT('Ctrl Pts',(120.879036648396,1.89922254238463,-11.));
#438142=CARTESIAN_POINT('Ctrl Pts',(122.080847546972,1.88291455633842,-11.));
#438143=CARTESIAN_POINT('Ctrl Pts',(123.278885986978,1.80005822087876,-11.));
#438144=CARTESIAN_POINT('Ctrl Pts',(124.238889229548,1.75,-11.));
#438145=CARTESIAN_POINT('Ctrl Pts',(124.719870314579,1.75,-11.));
#438146=CARTESIAN_POINT('Ctrl Pts',(124.719870314579,1.75,-11.));
#438147=CARTESIAN_POINT('Ctrl Pts',(124.238889229548,1.75,-11.));
#438148=CARTESIAN_POINT('Ctrl Pts',(123.278885986978,1.80005822087876,-11.));
#438149=CARTESIAN_POINT('Ctrl Pts',(122.080847546972,1.88291455633842,-11.));
#438150=CARTESIAN_POINT('Ctrl Pts',(120.879036648396,1.89922254238463,-11.));
#438151=CARTESIAN_POINT('Ctrl Pts',(120.158305378634,1.86230768994215,-11.));
#438152=CARTESIAN_POINT('Ctrl Pts',(119.678831190301,1.83258366050538,-11.));
#438153=CARTESIAN_POINT('Origin',(121.25,8.75,-0.400000000000003));
#438154=CARTESIAN_POINT('Origin',(114.75,-100.25,-11.));
#438155=CARTESIAN_POINT('',(114.75,5.25,7.6));
#438156=CARTESIAN_POINT('',(114.75,5.25,-1.));
#438157=CARTESIAN_POINT('',(114.75,-100.25,7.6));
#438158=CARTESIAN_POINT('',(114.75,0.250000000000004,7.6));
#438159=CARTESIAN_POINT('',(114.75,-100.25,-11.));
#438160=CARTESIAN_POINT('',(114.75,0.250000000000004,-8.5));
#438161=CARTESIAN_POINT('Origin',(111.25,3.75,-11.));
#438162=CARTESIAN_POINT('',(111.25,-95.75,7.6));
#438163=CARTESIAN_POINT('',(111.25,-95.75,-11.));
#438164=CARTESIAN_POINT('',(111.25,0.75,7.6));
#438165=CARTESIAN_POINT('',(111.25,3.75,7.6));
#438166=CARTESIAN_POINT('',(111.25,0.75,-11.));
#438167=CARTESIAN_POINT('Origin',(119.25,-95.75,-11.));
#438168=CARTESIAN_POINT('',(119.25,-103.75,7.6));
#438169=CARTESIAN_POINT('',(119.25,-103.75,-11.));
#438170=CARTESIAN_POINT('Origin',(119.25,-95.75,7.6));
#438171=CARTESIAN_POINT('Origin',(111.25,-103.75,-11.));
#438172=CARTESIAN_POINT('',(155.75,-103.75,7.6));
#438173=CARTESIAN_POINT('',(155.75,-103.75,-11.));
#438174=CARTESIAN_POINT('',(111.25,-103.75,7.6));
#438175=CARTESIAN_POINT('Origin',(155.75,-95.75,-11.));
#438176=CARTESIAN_POINT('',(163.75,-95.75,7.6));
#438177=CARTESIAN_POINT('',(163.75,-95.75,-11.));
#438178=CARTESIAN_POINT('Origin',(155.75,-95.75,7.6));
#438179=CARTESIAN_POINT('Origin',(163.75,-103.75,-11.));
#438180=CARTESIAN_POINT('',(163.75,0.749999999999993,7.6));
#438181=CARTESIAN_POINT('',(163.75,0.750000000000002,-11.));
#438182=CARTESIAN_POINT('',(163.75,-103.75,7.6));
#438183=CARTESIAN_POINT('Origin',(155.75,0.750000000000002,-11.));
#438184=CARTESIAN_POINT('',(155.75,8.75,-3.63109888428072));
#438185=CARTESIAN_POINT('',(155.75,8.75,-11.));
#438186=CARTESIAN_POINT('',(157.55,8.54487010796203,-0.4));
#438187=CARTESIAN_POINT('Ctrl Pts',(155.75,8.75,-3.63109888428071));
#438188=CARTESIAN_POINT('Ctrl Pts',(155.997838448113,8.75,-3.4776907361619));
#438189=CARTESIAN_POINT('Ctrl Pts',(156.224795316115,8.73834770472419,-3.29693532424187));
#438190=CARTESIAN_POINT('Ctrl Pts',(156.76400556578,8.69289962790521,-2.76373379868919));
#438191=CARTESIAN_POINT('Ctrl Pts',(157.059768789966,8.64458957613549,-2.33527961705317));
#438192=CARTESIAN_POINT('Ctrl Pts',(157.452809375458,8.56923786332765,-1.39452369952194));
#438193=CARTESIAN_POINT('Ctrl Pts',(157.55,8.54487010796203,-0.881973472306311));
#438194=CARTESIAN_POINT('Ctrl Pts',(157.55,8.54487010796203,-0.4));
#438195=CARTESIAN_POINT('',(155.75,8.75,2.83109888428072));
#438196=CARTESIAN_POINT('Ctrl Pts',(157.55,8.54487010796203,-0.399999999999999));
#438197=CARTESIAN_POINT('Ctrl Pts',(157.55,8.54487010796203,0.081973472306312));
#438198=CARTESIAN_POINT('Ctrl Pts',(157.452809375458,8.56923786332765,0.594523699521936));
#438199=CARTESIAN_POINT('Ctrl Pts',(157.059768789966,8.64458957613549,1.53527961705317));
#438200=CARTESIAN_POINT('Ctrl Pts',(156.76400556578,8.69289962790521,1.96373379868919));
#438201=CARTESIAN_POINT('Ctrl Pts',(156.224795316115,8.73834770472419,2.49693532424188));
#438202=CARTESIAN_POINT('Ctrl Pts',(155.997838448113,8.75,2.67769073616188));
#438203=CARTESIAN_POINT('Ctrl Pts',(155.75,8.75,2.83109888428072));
#438204=CARTESIAN_POINT('',(155.75,8.75,7.6));
#438205=CARTESIAN_POINT('',(155.75,8.75,-11.));
#438206=CARTESIAN_POINT('Origin',(155.75,0.750000000000002,7.6));
#438207=CARTESIAN_POINT('Origin',(163.75,8.75,-11.));
#438208=CARTESIAN_POINT('Origin',(153.75,8.75,-0.400000000000001));
#438209=CARTESIAN_POINT('Origin',(114.75,5.25,-11.));
#438210=CARTESIAN_POINT('',(126.125,5.25,-8.5));
#438211=CARTESIAN_POINT('',(160.25,5.25,7.6));
#438212=CARTESIAN_POINT('',(160.25,5.25,-11.));
#438213=CARTESIAN_POINT('',(126.125,5.25,7.6));
#438214=CARTESIAN_POINT('',(140.55,5.25,-0.400000000000003));
#438215=CARTESIAN_POINT('Origin',(136.75,5.25,-0.400000000000002));
#438216=CARTESIAN_POINT('',(157.55,5.25,-0.400000000000001));
#438217=CARTESIAN_POINT('Origin',(153.75,5.25,-0.400000000000001));
#438218=CARTESIAN_POINT('',(124.35,5.25,-0.400000000000003));
#438219=CARTESIAN_POINT('Origin',(121.25,5.25,-0.400000000000003));
#438220=CARTESIAN_POINT('Origin',(137.5,-50.,-11.));
#438221=CARTESIAN_POINT('Origin',(137.5,-50.,7.6));
#438222=CARTESIAN_POINT('',(119.25,8.75,7.6));
#438223=CARTESIAN_POINT('',(163.75,8.75,7.6));
#438224=CARTESIAN_POINT('Origin',(119.25,0.75,7.6));
#438225=CARTESIAN_POINT('',(160.25,-100.25,7.6));
#438226=CARTESIAN_POINT('',(160.25,-24.875,7.6));
#438227=CARTESIAN_POINT('',(114.75,-100.25,7.6));
#438228=CARTESIAN_POINT('Origin',(119.25,0.75,-11.));
#438229=CARTESIAN_POINT('',(119.25,8.75,4.18257569495584));
#438230=CARTESIAN_POINT('',(119.25,8.75,-11.));
#438231=CARTESIAN_POINT('Ctrl Pts',(117.780129685416,8.61380831774933,-3.99999999999525));
#438232=CARTESIAN_POINT('Ctrl Pts',(117.769380374705,8.61179910133945,-3.98963924606807));
#438233=CARTESIAN_POINT('Ctrl Pts',(117.758695668661,8.60977915001359,-3.97924788583876));
#438234=CARTESIAN_POINT('Ctrl Pts',(117.294480068099,8.52104935202489,-3.52373476178277));
#438235=CARTESIAN_POINT('Ctrl Pts',(116.902937647528,8.40294869640291,-2.96049260457105));
#438236=CARTESIAN_POINT('Ctrl Pts',(116.380575443108,8.22279969250659,-1.71976113063248));
#438237=CARTESIAN_POINT('Ctrl Pts',(116.25,8.16619848709566,-1.04138419074393));
#438238=CARTESIAN_POINT('Ctrl Pts',(116.25,8.16619848709566,-0.400000000000003));
#438239=CARTESIAN_POINT('Ctrl Pts',(116.25,8.16619848709566,0.241384190743927));
#438240=CARTESIAN_POINT('Ctrl Pts',(116.380575443108,8.22279969250659,0.919761130632477));
#438241=CARTESIAN_POINT('Ctrl Pts',(116.902937647528,8.40294869640291,2.16049260457104));
#438242=CARTESIAN_POINT('Ctrl Pts',(117.294480068099,8.52104935202489,2.72373476178277));
#438243=CARTESIAN_POINT('Ctrl Pts',(118.163426068963,8.68713899448051,3.57639095646877));
#438244=CARTESIAN_POINT('Ctrl Pts',(118.682836754978,8.75,3.93504536145969));
#438245=CARTESIAN_POINT('Ctrl Pts',(119.25,8.75,4.18257569495585));
#438246=CARTESIAN_POINT('Origin',(163.75,8.75,-11.));
#438247=CARTESIAN_POINT('',(126.25,8.75,-0.400000000000004));
#438248=CARTESIAN_POINT('Origin',(121.25,8.75,-0.400000000000003));
#438249=CARTESIAN_POINT('Origin',(121.25,8.75,-0.400000000000003));
#438250=CARTESIAN_POINT('Origin',(153.75,8.75,-0.400000000000001));
#438251=CARTESIAN_POINT('',(140.55,8.75,-0.400000000000002));
#438252=CARTESIAN_POINT('Origin',(136.75,8.75,-0.400000000000002));
#438253=CARTESIAN_POINT('Origin',(136.75,8.75,-0.400000000000002));
#438254=CARTESIAN_POINT('Origin',(153.75,8.75,-0.400000000000001));
#438255=CARTESIAN_POINT('',(157.55,8.75,-0.4));
#438256=CARTESIAN_POINT('Origin',(121.25,16.75,-0.400000000000003));
#438257=CARTESIAN_POINT('',(126.25,16.75,-0.400000000000004));
#438258=CARTESIAN_POINT('Origin',(121.25,16.75,-0.400000000000003));
#438259=CARTESIAN_POINT('',(124.35,16.75,-0.400000000000003));
#438260=CARTESIAN_POINT('Origin',(121.25,16.75,-0.400000000000003));
#438261=CARTESIAN_POINT('Origin',(121.25,8.75,-0.400000000000003));
#438262=CARTESIAN_POINT('',(124.35,8.75,-0.400000000000003));
#438263=CARTESIAN_POINT('Origin',(121.25,8.75,-0.400000000000003));
#438264=CARTESIAN_POINT('',(126.25,8.75,-0.400000000000004));
#438265=CARTESIAN_POINT('Origin',(136.75,8.75,-0.400000000000002));
#438266=CARTESIAN_POINT('',(140.55,8.75,-0.400000000000002));
#438267=CARTESIAN_POINT('Origin',(137.5,-50.,-8.5));
#438268=CARTESIAN_POINT('',(148.875,-100.25,-8.5));
#438269=CARTESIAN_POINT('',(160.25,-24.875,-8.5));
#438270=CARTESIAN_POINT('Origin',(160.25,-100.25,-11.));
#438271=CARTESIAN_POINT('',(160.25,-100.25,-11.));
#438272=CARTESIAN_POINT('Origin',(160.25,0.250000000000004,-11.));
#441017=UNCERTAINTY_MEASURE_WITH_UNIT(LENGTH_MEASURE(0.01),#441217,
'DISTANCE_ACCURACY_VALUE',
'Maximum model space distance between geometric entities at asserted c
onnectivities');
#441117=(
GEOMETRIC_REPRESENTATION_CONTEXT(3)
GLOBAL_UNCERTAINTY_ASSIGNED_CONTEXT((#441017))
GLOBAL_UNIT_ASSIGNED_CONTEXT((#441217,#441219,#441220))
REPRESENTATION_CONTEXT('','3D')
);
#441217=(
LENGTH_UNIT()
NAMED_UNIT(*)
SI_UNIT(.MILLI.,.METRE.)
);
#441219=(
NAMED_UNIT(*)
PLANE_ANGLE_UNIT()
SI_UNIT($,.RADIAN.)
);
#441220=(
NAMED_UNIT(*)
SI_UNIT($,.STERADIAN.)
SOLID_ANGLE_UNIT()
);
#442455=APPLICATION_CONTEXT('automotive design');
#442456=APPLICATION_PROTOCOL_DEFINITION('international standard','automotive_design',2000,#442455);
#442457=PRODUCT_CONTEXT('',#442455,'mechanical');
#442458=PRODUCT('Case Bottom','Case Bottom','',(#442457));
#442459=PRODUCT_DEFINITION_FORMATION('','',#442458);
#442460=PRODUCT_DEFINITION_CONTEXT('part definition',#442455,'design');
#442461=PRODUCT_DEFINITION('design','',#442459,#442460);
#442462=PRODUCT_DEFINITION_SHAPE('','',#442461);
#442463=ADVANCED_BREP_SHAPE_REPRESENTATION('',(#7423),#441117);
#442464=SHAPE_DEFINITION_REPRESENTATION(#442462,#442463);
#442465=PRODUCT_RELATED_PRODUCT_CATEGORY('part',$,(#442458));
ENDSEC;
END-ISO-10303-21;
